<svg width="16" height="16" viewBox="0 0 16 16" fill="none" xmlns="http://www.w3.org/2000/svg">
<g clip-path="url(#clip0_2001_3819)">
<path d="M14.6676 11.282V13.282C14.6685 13.4678 14.6306 13.6517 14.5562 13.8219C14.4818 13.9921 14.3727 14.1449 14.2358 14.2705C14.0988 14.396 13.9372 14.4915 13.7611 14.5508C13.5851 14.6102 13.3986 14.632 13.2136 14.615C11.1623 14.392 9.19181 13.6909 7.46062 12.568C5.84983 11.5445 4.48417 10.1788 3.46062 8.56802C2.33381 6.82886 1.63253 4.84872 1.41362 2.78802C1.39695 2.60366 1.41887 2.41784 1.47798 2.24241C1.53708 2.06698 1.63208 1.90579 1.75692 1.7691C1.88176 1.6324 2.0337 1.52321 2.20306 1.44848C2.37242 1.37374 2.5555 1.33511 2.74062 1.33502H4.74062C5.06416 1.33186 5.37782 1.44649 5.62309 1.65753C5.86835 1.86858 6.02848 2.16162 6.07362 2.48202C6.15816 3.12197 6.31483 3.7503 6.54062 4.35502C6.63042 4.59368 6.64989 4.85308 6.59672 5.10247C6.54354 5.35186 6.41996 5.58076 6.24062 5.76202L5.39362 6.60802C6.34267 8.27705 7.72459 9.65897 9.39362 10.608L10.2406 9.76202C10.4219 9.58279 10.6509 9.45927 10.9002 9.40611C11.1496 9.35294 11.4089 9.37234 11.6476 9.46202C12.2524 9.68747 12.8807 9.84379 13.5206 9.92802C13.8446 9.97379 14.1404 10.137 14.3519 10.3867C14.5634 10.6363 14.6757 10.9549 14.6676 11.282V11.282Z" stroke="#1F46F5" stroke-width="2" stroke-linecap="round" stroke-linejoin="round"/>
</g>
<defs>
<clipPath id="clip0_2001_3819">
<rect width="16" height="16" fill="white" transform="translate(0 0.00195312)"/>
</clipPath>
</defs>
</svg>
