<svg width="24" height="24" viewBox="0 0 24 24" fill="none" xmlns="http://www.w3.org/2000/svg">
<g clip-path="url(#clip0_128_5668)">
<path fill-rule="evenodd" clip-rule="evenodd" d="M15.1597 0.00620235C14.6108 -0.054777 14.1164 0.340767 14.0554 0.889675C13.9944 1.43858 14.3899 1.93299 14.9388 1.99397C16.7426 2.19436 18.4247 3.00213 19.7088 4.28465C20.993 5.56717 21.8029 7.2482 22.0055 9.05175C22.0672 9.60058 22.5621 9.9955 23.1109 9.93383C23.6598 9.87216 24.0547 9.37725 23.993 8.82842C23.7397 6.57399 22.7273 4.47269 21.1222 2.86954C19.517 1.2664 17.4144 0.256687 15.1597 0.00620235ZM15.2408 4.01859C14.6987 3.91284 14.1735 4.26653 14.0678 4.80859C13.962 5.35066 14.3157 5.87582 14.8578 5.98158C15.6392 6.13403 16.3573 6.51619 16.9202 7.07913C17.4832 7.64207 17.8653 8.36019 18.0178 9.14158C18.1235 9.68365 18.6487 10.0373 19.1908 9.93158C19.7328 9.82582 20.0865 9.30066 19.9808 8.75859C19.7521 7.58651 19.1788 6.50933 18.3344 5.66492C17.49 4.8205 16.4128 4.24727 15.2408 4.01859ZM8.11857 4.85654C8.04848 4.37386 7.60703 3.99524 7.11907 4.00005L7.10923 4.00014L4.10977 4.00009C3.552 4.00087 3.06811 4.52401 3.11461 5.08363C4.04656 13.8174 11.2265 20.9756 19.9173 21.9249C20.3321 21.9596 20.7499 21.7099 20.9159 21.3297C21.0634 20.9918 21.1132 20.5147 21.0959 19.8752C21.0882 19.5923 21.069 19.3063 21.0487 19.0055L21.0428 18.9169C21.0212 18.5942 20.9992 18.2481 20.9992 17.9201C20.9992 17.9118 20.9993 17.9036 20.9995 17.8953C21.0118 17.4023 20.6318 16.9522 20.1442 16.8809C19.1106 16.7449 18.0955 16.4917 17.1191 16.1268L17.1174 16.1261C16.7677 15.9947 16.3303 16.0876 16.064 16.3496L14.7963 17.6172C14.478 17.9355 13.9863 18.0019 13.5949 17.7794C10.9349 16.2669 8.73247 14.0644 7.21994 11.4044C6.99743 11.0131 7.06381 10.5213 7.38213 10.203C7.54557 10.0395 7.6987 9.89397 7.84161 9.75811C8.17782 9.4385 8.45743 9.17269 8.68148 8.85466C8.94444 8.4814 8.99732 8.21221 8.87318 7.88196L8.87252 7.8802C8.5074 6.90331 8.25551 5.88861 8.11857 4.85654ZM7.10482 2.00009C8.59554 1.98815 9.89069 3.10355 10.0994 4.58014L10.1006 4.58894C10.2178 5.47492 10.4336 6.34428 10.7458 7.17961C11.1747 8.3222 10.8238 9.28646 10.3165 10.0065C10.0456 10.3911 9.68322 10.7632 9.35805 11.0781C10.5329 12.9167 12.095 14.4772 13.935 15.6501L14.6521 14.933L14.6561 14.929C15.4773 14.117 16.7392 13.8477 17.8203 14.2538C18.6561 14.566 19.525 14.7825 20.4094 14.8986L20.4189 14.8999C21.9097 15.1102 23.0294 16.4269 22.9992 17.9308C22.9997 18.1798 23.0166 18.4592 23.0383 18.7834L23.0445 18.8751C23.0643 19.1696 23.0863 19.4955 23.0951 19.821C23.1142 20.5222 23.0805 21.3702 22.7488 22.1299C22.2379 23.3002 21.0056 24.0328 19.7281 23.9159L19.7112 23.9142C10.0806 22.8677 2.15277 14.9657 1.12482 5.28569L1.12329 5.2701C0.965947 3.52894 2.38223 2.00172 4.10829 2.00009H7.10482Z" fill="#2F62F6"/>
</g>
<defs>
<clipPath id="clip0_128_5668">
<rect width="24" height="24" fill="white"/>
</clipPath>
</defs>
</svg>
