<svg width="16" height="16" viewBox="0 0 16 16" fill="none" xmlns="http://www.w3.org/2000/svg">
<g clip-path="url(#clip0_2001_2945)">
<path fill-rule="evenodd" clip-rule="evenodd" d="M2.00023 3.48647C2.00714 3.15756 2.24844 3.00098 2.40008 3.00098H13.6001C13.7517 3.00098 13.993 3.15756 13.9999 3.48647L8.00008 7.77207L2.00023 3.48647ZM7.76737e-05 3.98765C-2.59479e-05 3.99597 -2.58345e-05 4.0043 7.76737e-05 4.01261V12.501C7.76737e-05 13.8122 1.01393 15.001 2.40008 15.001H13.6001C14.9862 15.001 16.0001 13.8122 16.0001 12.501V4.0126C16.0002 4.00429 16.0002 3.99598 16.0001 3.98766V3.50098C16.0001 2.18979 14.9862 1.00098 13.6001 1.00098H2.40008C1.01393 1.00098 7.76737e-05 2.18979 7.76737e-05 3.50098V3.98765ZM14.0001 5.94417V12.501C14.0001 12.8398 13.7539 13.001 13.6001 13.001H2.40008C2.24623 13.001 2.00008 12.8398 2.00008 12.501V5.94417L7.41884 9.81471C7.76654 10.0631 8.23362 10.0631 8.58132 9.81471L14.0001 5.94417Z" fill="#1F46F5"/>
</g>
<defs>
<clipPath id="clip0_2001_2945">
<rect width="16" height="16" fill="white" transform="translate(0 0.000976562)"/>
</clipPath>
</defs>
</svg>
