<svg width="16" height="16" viewBox="0 0 16 16" fill="none" xmlns="http://www.w3.org/2000/svg">
<path fill-rule="evenodd" clip-rule="evenodd" d="M7.98717 0.334559C9.00184 0.322132 10.0089 0.51125 10.9499 0.890949C11.8909 1.27065 12.7472 1.83337 13.4692 2.5465C14.1911 3.25963 14.7642 4.10897 15.1554 5.04528C15.5466 5.98159 15.7481 6.98624 15.7481 8.00098C15.7481 9.01573 15.5466 10.0204 15.1554 10.9567C14.7642 11.893 14.1911 12.7423 13.4692 13.4555C12.7472 14.1686 11.8909 14.7313 10.9499 15.111C10.0089 15.4907 9.00184 15.6798 7.98717 15.6674C5.97017 15.6427 4.04416 14.8241 2.62658 13.3891C1.209 11.954 0.414062 10.0181 0.414062 8.00098C0.414062 5.98383 1.209 4.04795 2.62658 2.6129C4.04416 1.17785 5.97017 0.359263 7.98717 0.334559ZM10.2015 2.74566C9.50599 2.46501 8.76164 2.32522 8.01166 2.33441C6.52081 2.35267 5.09722 2.95772 4.04943 4.01842C3.00163 5.07913 2.41406 6.51002 2.41406 8.00098C2.41406 9.49194 3.00163 10.9228 4.04943 11.9835C5.09722 13.0442 6.52081 13.6493 8.01166 13.6676C8.76164 13.6767 9.50599 13.537 10.2015 13.2563C10.8971 12.9757 11.53 12.5597 12.0636 12.0326C12.5972 11.5055 13.0209 10.8777 13.31 10.1857C13.5992 9.49361 13.7481 8.75103 13.7481 8.00098C13.7481 7.25094 13.5992 6.50836 13.31 5.8163C13.0209 5.12423 12.5972 4.49645 12.0636 3.96935C11.53 3.44225 10.8971 3.02631 10.2015 2.74566ZM4.33241 8.00048C4.33241 7.4482 4.78013 7.00048 5.33241 7.00048H10.6664C11.2187 7.00048 11.6664 7.4482 11.6664 8.00048C11.6664 8.55277 11.2187 9.00048 10.6664 9.00048H5.33241C4.78013 9.00048 4.33241 8.55277 4.33241 8.00048Z" fill="#526ED3"/>
<path d="M7.99952 4.33349C8.5518 4.33349 8.99952 4.7812 8.99952 5.33349V10.6675C8.99952 11.2198 8.5518 11.6675 7.99952 11.6675C7.44723 11.6675 6.99952 11.2198 6.99952 10.6675L6.99952 5.33349C6.99952 4.7812 7.44723 4.33349 7.99952 4.33349Z" fill="#526ED3"/>
</svg>
