<svg width="24" height="24" viewBox="0 0 24 24" fill="none" xmlns="http://www.w3.org/2000/svg">
<path fill-rule="evenodd" clip-rule="evenodd" d="M8.93853 2.60896C9.90914 2.20693 10.9494 2 12 2C13.0506 2 14.0909 2.20693 15.0615 2.60896C16.0321 3.011 16.914 3.60028 17.6569 4.34315C18.3997 5.08601 18.989 5.96793 19.391 6.93853C19.7931 7.90914 20 8.94942 20 10C20 13.0981 17.9843 16.1042 15.774 18.4373C14.6894 19.5822 13.6013 20.5195 12.7833 21.1708C12.4789 21.4133 12.213 21.6152 12 21.7726C11.787 21.6152 11.5211 21.4133 11.2167 21.1708C10.3987 20.5195 9.31061 19.5822 8.22595 18.4373C6.01574 16.1042 4 13.0981 4 10C4 8.94942 4.20693 7.90914 4.60896 6.93853C5.011 5.96793 5.60028 5.08601 6.34315 4.34315C7.08601 3.60028 7.96793 3.011 8.93853 2.60896ZM11.4448 23.8317C11.445 23.8319 11.4453 23.8321 12 23L12.5547 23.8321C12.2188 24.056 11.7807 24.0556 11.4448 23.8317ZM11.4448 23.8317L12 23C12.5547 23.8321 12.5557 23.8314 12.556 23.8312L12.5581 23.8298L12.5648 23.8253L12.5877 23.8098C12.6072 23.7966 12.6349 23.7776 12.6704 23.753C12.7415 23.7038 12.8435 23.6321 12.9722 23.5392C13.2295 23.3534 13.5936 23.0822 14.0292 22.7354C14.8987 22.043 16.0606 21.0428 17.226 19.8127C19.5157 17.3958 22 13.9019 22 10C22 8.68678 21.7413 7.38642 21.2388 6.17317C20.7362 4.95991 19.9997 3.85752 19.0711 2.92893C18.1425 2.00035 17.0401 1.26375 15.8268 0.761205C14.6136 0.258658 13.3132 0 12 0C10.6868 0 9.38642 0.258658 8.17317 0.761205C6.95991 1.26375 5.85752 2.00035 4.92893 2.92893C4.00035 3.85752 3.26375 4.95991 2.7612 6.17317C2.25866 7.38642 2 8.68678 2 10C2 13.9019 4.48426 17.3958 6.77405 19.8127C7.93939 21.0428 9.10133 22.043 9.97082 22.7354C10.4064 23.0822 10.7705 23.3534 11.0278 23.5392C11.1565 23.6321 11.2585 23.7038 11.3296 23.753C11.3651 23.7776 11.3928 23.7966 11.4123 23.8098L11.4352 23.8253L11.4419 23.8298L11.4448 23.8317ZM12 6C10.9391 6 9.92172 6.42143 9.17157 7.17157C8.42143 7.92172 8 8.93913 8 10C8 11.0609 8.42143 12.0783 9.17157 12.8284C9.92172 13.5786 10.9391 14 12 14C13.0609 14 14.0783 13.5786 14.8284 12.8284C15.5786 12.0783 16 11.0609 16 10C16 8.93913 15.5786 7.92172 14.8284 7.17157C14.0783 6.42143 13.0609 6 12 6ZM13.4142 11.4142C13.0391 11.7893 12.5304 12 12 12C11.4696 12 10.9609 11.7893 10.5858 11.4142C10.2107 11.0391 10 10.5304 10 10C10 9.46957 10.2107 8.96086 10.5858 8.58579C10.9609 8.21071 11.4696 8 12 8C12.5304 8 13.0391 8.21071 13.4142 8.58579C13.7893 8.96086 14 9.46957 14 10C14 10.5304 13.7893 11.0391 13.4142 11.4142Z" fill="#2F62F6"/>
</svg>
