<svg width="16" height="16" viewBox="0 0 16 16" fill="none" xmlns="http://www.w3.org/2000/svg">
<path fill-rule="evenodd" clip-rule="evenodd" d="M7.98814 0.334559C9.00281 0.322132 10.0099 0.51125 10.9509 0.890949C11.8919 1.27065 12.7482 1.83337 13.4701 2.5465C14.192 3.25963 14.7652 4.10897 15.1564 5.04528C15.5476 5.98159 15.749 6.98624 15.749 8.00098C15.749 9.01573 15.5476 10.0204 15.1564 10.9567C14.7652 11.893 14.192 12.7423 13.4701 13.4555C12.7482 14.1686 11.8919 14.7313 10.9509 15.111C10.0099 15.4907 9.00281 15.6798 7.98814 15.6674C5.97114 15.6427 4.04514 14.8241 2.62755 13.3891C1.20998 11.954 0.415039 10.0181 0.415039 8.00098C0.415039 5.98383 1.20998 4.04795 2.62755 2.6129C4.04513 1.17785 5.97114 0.359263 7.98814 0.334559ZM10.2025 2.74566C9.50697 2.46501 8.76262 2.32522 8.01264 2.33441C6.52179 2.35267 5.09819 2.95772 4.0504 4.01842C3.00261 5.07913 2.41504 6.51002 2.41504 8.00098C2.41504 9.49194 3.00261 10.9228 4.0504 11.9835C5.09819 13.0442 6.52179 13.6493 8.01264 13.6676C8.76262 13.6767 9.50697 13.537 10.2025 13.2563C10.8981 12.9757 11.531 12.5597 12.0646 12.0326C12.5982 11.5055 13.0219 10.8777 13.311 10.1857C13.6001 9.49361 13.749 8.75103 13.749 8.00098C13.749 7.25094 13.6001 6.50836 13.311 5.8163C13.0219 5.12423 12.5982 4.49645 12.0646 3.96935C11.531 3.44225 10.8981 3.02631 10.2025 2.74566ZM4.33339 8.00048C4.33339 7.4482 4.7811 7.00048 5.33339 7.00048H10.6674C11.2197 7.00048 11.6674 7.4482 11.6674 8.00048C11.6674 8.55277 11.2197 9.00048 10.6674 9.00048H5.33339C4.7811 9.00048 4.33339 8.55277 4.33339 8.00048Z" fill="#526ED3"/>
</svg>
