<svg width="24" height="24" viewBox="0 0 24 24" fill="none" xmlns="http://www.w3.org/2000/svg">
<path fill-rule="evenodd" clip-rule="evenodd" d="M6 1C5.20435 1 4.44129 1.31607 3.87868 1.87868C3.31607 2.44129 3 3.20435 3 4V20C3 20.7957 3.31607 21.5587 3.87868 22.1213C4.44129 22.6839 5.20435 23 6 23H18C18.7957 23 19.5587 22.6839 20.1213 22.1213C20.6839 21.5587 21 20.7957 21 20V9C21 8.99999 21 8.99999 21 8.99998C21 8.72221 20.8867 8.47089 20.7039 8.28968L13.7734 1.35921C13.749 1.33162 13.7231 1.30578 13.6957 1.28169C13.5093 1.10116 13.2599 1 13 1H6ZM12 3H6C5.73478 3 5.48043 3.10536 5.29289 3.29289C5.10536 3.48043 5 3.73478 5 4V20C5 20.2652 5.10536 20.5196 5.29289 20.7071C5.48043 20.8946 5.73478 21 6 21H18C18.2652 21 18.5196 20.8946 18.7071 20.7071C18.8946 20.5196 19 20.2652 19 20V9.99998H13C12.4477 9.99998 12 9.55227 12 8.99998V3ZM17.5858 7.99998L14 4.41421V7.99998H17.5858Z" fill="#2F62F6"/>
</svg>
