<svg width="16" height="16" viewBox="0 0 16 16" fill="none" xmlns="http://www.w3.org/2000/svg">
<path fill-rule="evenodd" clip-rule="evenodd" d="M2.11276 2.11276C2.18497 2.04056 2.28289 2 2.385 2H8.615C8.71711 2 8.81503 2.04056 8.88724 2.11276C8.95944 2.18496 9 2.28289 9 2.385V3.077C9 3.62928 9.44771 4.077 10 4.077C10.5523 4.077 11 3.62928 11 3.077V2.385C11 1.75246 10.7487 1.14582 10.3014 0.69855C9.85418 0.251276 9.24754 0 8.615 0H2.385C1.75246 0 1.14582 0.251276 0.69855 0.69855C0.251276 1.14582 0 1.75246 0 2.385V8.615C0 9.24754 0.251276 9.85418 0.69855 10.3014C1.14582 10.7487 1.75246 11 2.385 11H3.077C3.62928 11 4.077 10.5523 4.077 10C4.077 9.44771 3.62928 9 3.077 9H2.385C2.28289 9 2.18496 8.95944 2.11276 8.88724C2.04056 8.81503 2 8.71711 2 8.615V2.385C2 2.28289 2.04056 2.18497 2.11276 2.11276ZM7.385 5C6.06772 5 5 6.06772 5 7.385V13.615C5 14.9323 6.06772 16 7.385 16H13.615C14.9323 16 16 14.9323 16 13.615V7.385C16 6.06772 14.9323 5 13.615 5H7.385ZM7 7.385C7 7.17229 7.17229 7 7.385 7H13.615C13.8277 7 14 7.17229 14 7.385V13.615C14 13.8277 13.8277 14 13.615 14H7.385C7.17229 14 7 13.8277 7 13.615V7.385Z" fill="#2F62F6"/>
</svg>
