<svg width="23" height="22" viewBox="0 0 23 22" fill="none" xmlns="http://www.w3.org/2000/svg">
<path fill-rule="evenodd" clip-rule="evenodd" d="M11.5002 5.29618L9.92829 7.58974C9.41817 8.33406 8.66705 8.87978 7.80152 9.13493L5.13448 9.92112L6.83005 12.1248C7.38031 12.84 7.66721 13.723 7.6424 14.625L7.56596 17.4044L10.1857 16.4728C11.0359 16.1705 11.9644 16.1705 12.8146 16.4728L15.4344 17.4044L15.3579 14.625C15.3331 13.723 15.62 12.84 16.1703 12.1248L17.8659 9.92112L15.1988 9.13493C14.3333 8.87978 13.5822 8.33406 13.072 7.58974L11.5002 5.29618ZM12.2616 1.10046C11.8949 0.565471 11.1054 0.565471 10.7387 1.10046L7.45368 5.89377C7.33365 6.06891 7.15692 6.19731 6.95326 6.25735L1.37941 7.90042C0.7573 8.08381 0.51332 8.8347 0.908824 9.34873L4.45239 13.9542C4.58187 14.1225 4.64937 14.3303 4.64354 14.5425L4.48377 20.3513C4.46594 20.9996 5.10469 21.4637 5.71578 21.2464L11.1909 19.2994C11.3909 19.2283 11.6094 19.2283 11.8094 19.2994L17.2846 21.2464C17.8956 21.4637 18.5344 20.9996 18.5166 20.3513L18.3568 14.5425C18.351 14.3303 18.4185 14.1225 18.5479 13.9542L22.0915 9.34873C22.487 8.8347 22.243 8.08381 21.6209 7.90042L16.0471 6.25735C15.8434 6.19731 15.6667 6.06891 15.5467 5.89377L12.2616 1.10046Z" fill="#2F62F6"/>
</svg>
