<svg width="16" height="16" viewBox="0 0 16 16" fill="none" xmlns="http://www.w3.org/2000/svg">
<path d="M8.63062 0.406551C8.50774 0.157603 8.25419 0 7.97656 0C7.69894 0 7.44539 0.157603 7.3225 0.406551L5.2382 4.62912L0.577056 5.31042C0.302392 5.35056 0.0743229 5.54313 -0.0112925 5.80718C-0.096908 6.07123 -0.0252277 6.36099 0.17362 6.55466L3.5458 9.83916L2.74996 14.4793C2.70302 14.753 2.81553 15.0296 3.04017 15.1927C3.26481 15.3559 3.56262 15.3774 3.80836 15.2482L7.97656 13.0562L12.1448 15.2482C12.3905 15.3774 12.6883 15.3559 12.913 15.1927C13.1376 15.0296 13.2501 14.753 13.2032 14.4793L12.4073 9.83916L15.7795 6.55466C15.9784 6.36099 16.05 6.07123 15.9644 5.80718C15.8788 5.54313 15.6507 5.35056 15.3761 5.31042L10.7149 4.62912L8.63062 0.406551Z" fill="#FFC700"/>
</svg>
