<svg width="570" height="370" viewBox="0 0 570 370" fill="none" xmlns="http://www.w3.org/2000/svg">
<path d="M308.946 74.0448C308.081 71.4504 197.964 72.9638 143.013 74.0448C141.932 85.7556 140.851 115.447 145.175 140.526C150.58 171.875 171.419 185.87 172.5 186.951C173.365 187.816 346.5 183.451 346.5 183.451C346.5 183.451 337.038 178.265 323 148.951C306 113.451 310.027 77.2878 308.946 74.0448Z" stroke="black" stroke-width="2" stroke-linecap="round" stroke-linejoin="round"/>
<path d="M137 79.4512C135 106.951 137.175 148.958 139.769 167.551C142.364 186.144 145.174 193.675 146.255 195.117C206.251 194.576 326.674 193.279 328.404 192.414C330.133 191.549 329.124 186.288 328.404 183.766" stroke="black" stroke-width="2" stroke-linecap="round" stroke-linejoin="round"/>
<path d="M131.5 81.4512C131.5 81.4512 127 117.469 127 142.451C127 175.451 132.203 204.305 135.986 205.927C139.77 207.548 322.999 202.684 324.62 201.603C325.918 200.738 325.161 195.477 324.62 192.955" stroke="black" stroke-width="2" stroke-linecap="round" stroke-linejoin="round"/>
<path d="M153.823 72.4231C153.823 72.4231 152.5 60.4511 164.092 59.4511C172.5 58.7258 175.983 65.3966 175.983 69.1801C175.983 77.2876 169.498 81.6116 163.011 81.6116" stroke="black" stroke-width="2" stroke-linecap="round" stroke-linejoin="round"/>
<path d="M183.823 72.4231C183.823 72.4231 182.5 60.4511 194.092 59.4511C202.5 58.7258 205.983 65.3966 205.983 69.1801C205.983 77.2876 199.498 81.6116 193.011 81.6116" stroke="black" stroke-width="2" stroke-linecap="round" stroke-linejoin="round"/>
<path d="M213.823 72.4231C213.823 72.4231 212.5 60.4511 224.092 59.4511C232.5 58.7258 235.983 65.3966 235.983 69.1801C235.983 77.2876 229.498 81.6116 223.011 81.6116" stroke="black" stroke-width="2" stroke-linecap="round" stroke-linejoin="round"/>
<path d="M243.823 72.4231C243.823 72.4231 242.5 60.4511 254.092 59.4511C262.5 58.7258 265.983 65.3966 265.983 69.1801C265.983 77.2876 259.498 81.6116 253.011 81.6116" stroke="black" stroke-width="2" stroke-linecap="round" stroke-linejoin="round"/>
<path d="M273.823 72.4231C273.823 72.4231 272.5 60.4511 284.092 59.4511C292.5 58.7258 295.983 65.3966 295.983 69.1801C295.983 77.2876 289.498 81.6116 283.011 81.6116" stroke="black" stroke-width="2" stroke-linecap="round" stroke-linejoin="round"/>
<path d="M123.314 153.16C119.464 149.92 108.745 142.999 96.6629 141.231C81.5605 139.022 59.7954 142.115 59.7954 142.999C59.7954 143.882 45.2488 226.335 46.5814 227.66C47.9139 228.986 72.3443 228.544 89.6676 239.588C106.991 250.633 114.098 268.746 137.196 278.907C155.674 287.036 163.255 287.007 164.735 285.976C171.99 260.352 177 210.305 177 209.951" stroke="black" stroke-width="2" stroke-linecap="round" stroke-linejoin="round"/>
<path d="M461.729 76.8769C461.729 76.8769 449.509 77.4587 433.799 66.4031C425.287 60.4132 416.924 43.71 416.924 43.71C416.924 43.71 408.196 59.8808 387.249 76.295C366.301 92.7091 353.5 94.915 353.5 94.915C353.5 94.915 363.392 113.535 387.249 119.635" stroke="black" stroke-width="2" stroke-linecap="round" stroke-linejoin="round"/>
<path d="M546.446 54.4385C546.446 54.4385 516.188 119.609 435.889 127.755C421.469 129.218 398.067 123.673 398.067 123.673C398.067 123.673 441.126 120.19 463.237 86.4416C467.587 79.8026 471.966 63.1666 471.966 63.1666C471.966 63.1666 488.577 64.6976 507.46 63.1666C528.989 61.421 546.446 54.4385 546.446 54.4385Z" fill="#2F62F6" stroke="#2F62F6" stroke-width="2" stroke-linecap="round" stroke-linejoin="round"/>
<path d="M359.791 161.451C303.588 161.451 282.5 195 280 214L268.5 210.323C268.5 210.323 263.999 223 270.5 234.5C275.035 242.524 277.673 247.155 284 254.5C285.598 256.356 287.559 258.016 289.761 259.5C289.761 259.5 302.989 262.693 309.5 264.5C320.993 267.69 330.5 271.5 330.5 271.5C330.5 271.5 339.5 258.5 388.5 253.5C412.427 251.058 436 259 436 259C440 253.5 443.178 241.937 443.789 230.941C444.553 217.196 430.044 161.451 359.791 161.451Z" fill="black"/>
<path d="M456.5 152.5H467L459.5 162H470" stroke="black" stroke-width="2" stroke-linecap="round" stroke-linejoin="round"/>
<path d="M481 173H491.111L483.889 183H494" stroke="black" stroke-width="2" stroke-linecap="round" stroke-linejoin="round"/>
<path d="M455 183H463.556L457.444 191H466" stroke="black" stroke-width="2" stroke-linecap="round" stroke-linejoin="round"/>
<path d="M342.992 278.233C342.109 278.233 337.146 275.626 329.5 272.333M460.589 270.597C458.587 269.338 455.725 267.796 452.124 266.162M452.124 266.162C439.705 260.528 418.49 253.797 393.391 253.797C361.013 253.797 338.4 265.842 330 271.951L329.5 272.333M452.124 266.162L456.008 261.433C459.571 257.106 467.92 248.604 472.807 249.215C478.916 249.979 496.48 301.905 443.026 324.814L430.808 327.868C424.699 330.923 332.301 345.431 269.684 330.159C207.067 314.887 208.594 243.106 211.649 241.579C214.092 240.357 227.43 248.197 233.794 252.27L243 258.642C249.39 258.373 260.621 258.33 278.084 259.142C298.269 260.081 317.3 267.08 329.5 272.333" stroke="black" stroke-width="2" stroke-linecap="round" stroke-linejoin="round"/>
<path d="M329.5 271.451C337.9 265.342 361.013 253.086 393.391 253.086C425.768 253.086 451.68 264.286 460.589 269.886" stroke="black" stroke-width="2" stroke-linecap="round" stroke-linejoin="round"/>
<path d="M342.992 277.522C340.701 277.522 310.92 259.959 278.084 258.431C251.816 257.21 239.649 257.922 236.849 258.431" stroke="black" stroke-width="2" stroke-linecap="round" stroke-linejoin="round"/>
<path d="M286.905 255.376C283.225 252.473 276.646 246.469 271.211 236.285C264.417 223.557 267.373 212.593 268.222 211.923C269.071 211.253 280.111 215.273 286.905 219.293" stroke="black" stroke-width="2" stroke-linecap="round" stroke-linejoin="round"/>
<path d="M271.38 216.853C272.363 216.649 281.433 221.272 282.258 223.103C282.512 226.053 275.395 230.162 274 229.451C272.604 228.74 270.397 217.057 271.38 216.853Z" fill="#F4F5F6"/>
<path d="M289.538 217.959C289.538 217.959 297.5 209.769 316.5 208.451C332.472 207.343 341.464 211.85 345.282 211.85C346.5 211.85 352.919 208.451 359.5 205.951C357 210.951 352.308 217.501 352.919 218.723C353.682 220.25 365.137 227.123 364.373 240.104C363.762 250.489 357.5 255.631 354.446 256.904" stroke="#F4F5F6" stroke-width="2" stroke-linecap="round" stroke-linejoin="round"/>
<path d="M281.902 210.323C284.448 194.032 303.589 161.451 359.792 161.451C430.045 161.451 444.554 217.196 443.79 230.941C443.179 241.937 438.954 251.813 436.917 255.377" stroke="black" stroke-width="2" stroke-linecap="round" stroke-linejoin="round"/>
<path d="M371.246 244.686C370.737 238.577 373.842 226.359 390.337 226.359C410.954 226.359 413.245 244.686 431.572 244.686" stroke="#F4F5F6" stroke-width="2" stroke-linecap="round" stroke-linejoin="round"/>
<path d="M346.864 235.522C348.137 233.231 351.751 228.497 356.028 227.886" stroke="#F4F5F6" stroke-width="2" stroke-linecap="round" stroke-linejoin="round"/>
<path d="M347.573 250.031C342.686 250.031 339.937 246.467 339.173 244.686C339.173 247.74 335.966 253.849 329.246 253.849" stroke="#F4F5F6" stroke-width="2" stroke-linecap="round" stroke-linejoin="round"/>
<path d="M308.629 235.179C310.156 234.161 314.127 232.43 317.792 233.652C321.458 234.873 322.883 236.706 323.138 237.47" stroke="#F4F5F6" stroke-width="2" stroke-linecap="round" stroke-linejoin="round"/>
<path d="M382.5 242.086C384.06 239.356 389.17 234.012 397.127 234.48" stroke="#F4F5F6" stroke-width="2" stroke-linecap="round" stroke-linejoin="round"/>
<path d="M391.276 244.426C392.447 243.061 396.074 240.565 401.223 241.501" stroke="#F4F5F6" stroke-width="2" stroke-linecap="round" stroke-linejoin="round"/>
<path d="M175.891 99.6748C175.075 116.195 179.929 153.764 205.872 171.875" stroke="black" stroke-width="2" stroke-linecap="round" stroke-linejoin="round"/>
<path d="M200.977 98.4512C199.753 116.195 203.791 155.477 229.735 170.651" stroke="black" stroke-width="2" stroke-linecap="round" stroke-linejoin="round"/>
<path d="M226.675 100.898C226.289 108.918 227.038 121.562 230.431 134.209M253.597 170.039C242.892 163.348 236.183 151.914 232.129 139.848" stroke="black" stroke-width="2" stroke-linecap="round" stroke-linejoin="round"/>
<path d="M250.314 98.4512C250.505 106.086 251.61 115.562 255 128" stroke="black" stroke-width="2" stroke-linecap="round" stroke-linejoin="round"/>
<path d="M274.401 100.287C274.245 106.045 274.738 113.239 276.5 122.5" stroke="black" stroke-width="2" stroke-linecap="round" stroke-linejoin="round"/>
<path d="M175.891 157.802C196.432 157.065 223.452 155.895 251.5 154.654M290 153.275C299.804 152.781 302.74 152.297 309.674 151.845" stroke="black" stroke-width="2" stroke-linecap="round" stroke-linejoin="round"/>
<path d="M161.817 139.447C162.226 139.447 177.544 138.766 198.734 137.881M247.479 135.935C233.011 136.48 219.574 137.065 206.658 137.599M290.5 134.115C297.023 133.916 298.623 134.235 304.013 134.115" stroke="black" stroke-width="2" stroke-linecap="round" stroke-linejoin="round"/>
<path d="M158.146 117.419C181.359 116.853 215.757 116.051 246.846 115.401M254.77 115.238C272.022 114.885 287.809 114.593 299.485 114.431" stroke="black" stroke-width="2" stroke-linecap="round" stroke-linejoin="round"/>
<path d="M285.997 156.26C290.526 155.381 293.244 146.591 291.432 137.802C289.123 126.598 279.245 119.438 264.254 122.86C248.852 126.376 246.134 143.955 251.57 154.502C257.005 165.049 271.501 167.686 281.467 165.049" stroke="#2F62F6" stroke-width="2" stroke-linecap="round" stroke-linejoin="round"/>
<path d="M269.095 134.363C268.76 134.471 267.81 139.478 267.377 141.968C264.328 142.802 260.044 143.975 259.811 144.402C259.578 144.83 263.656 147.425 266.659 148.369C266.646 150.724 266.686 155.5 266.957 155.766C267.295 156.098 272.494 150.679 272.639 150.412C272.784 150.144 280.634 152.246 281.263 152.044C281.767 151.882 278.662 148.033 277.046 146.129C278.876 144.144 282.51 140.096 282.407 139.776C282.304 139.457 276.795 140.553 274.053 141.142C272.54 138.837 269.431 134.255 269.095 134.363Z" fill="#2F62F6" stroke="#2F62F6" stroke-width="2" stroke-linecap="round" stroke-linejoin="round"/>
<path d="M279.688 262.952C280.17 259.648 282.784 252.757 289.388 251.619" stroke="black" stroke-width="2" stroke-linecap="round" stroke-linejoin="round"/>
<path d="M289.442 266.199C289.395 263.36 290.357 257.358 294.58 256.067" stroke="black" stroke-width="2" stroke-linecap="round" stroke-linejoin="round"/>
<path d="M274.5 248.812C276.461 247.521 281.884 245.218 287.883 246.341" stroke="black" stroke-width="2" stroke-linecap="round" stroke-linejoin="round"/>
</svg>
