<svg width="570" height="370" viewBox="0 0 570 370" fill="none" xmlns="http://www.w3.org/2000/svg">
<path d="M422.474 114.123C434.966 115.511 455.804 132.842 459.023 153.91C464.111 187.219 451.158 233.02 421.086 233.483C391.015 233.945 384.538 154.372 385.001 153.91C385.464 153.447 401.656 149.283 403.506 149.746C405.357 150.209 425.713 187.682 429.877 206.187" stroke="black" stroke-width="2" stroke-linecap="round" stroke-linejoin="round"/>
<path d="M383.149 107.184C385.617 111.185 390.736 120.859 391.477 127.54" stroke="black" stroke-width="2" stroke-linecap="round" stroke-linejoin="round"/>
<path d="M381.336 109.959C383.47 112.974 387.774 121.035 387.908 129.158" stroke="black" stroke-width="2" stroke-linecap="round" stroke-linejoin="round"/>
<path d="M378.524 115.049C380.066 118.287 383.057 125.874 382.687 130.316C382.225 135.867 380.374 135.867 381.299 142.807C382.04 148.359 384.538 152.831 385.926 153.447" stroke="black" stroke-width="2" stroke-linecap="round" stroke-linejoin="round"/>
<path d="M377.135 111.348C373.896 115.203 367.327 124.116 366.957 128.928C366.494 134.942 368.807 143.269 368.345 146.508C367.975 149.099 367.265 150.98 366.957 151.597" stroke="black" stroke-width="2" stroke-linecap="round" stroke-linejoin="round"/>
<path d="M419.451 96.2656C419.577 101.22 420.984 110.98 421.896 114.082C423.036 117.96 414.51 124.056 409.95 124.702C407.2 125.092 405.051 124.73 403.311 124M399.5 100.5C399.274 103.195 397.75 107.932 396.576 113" stroke="black" stroke-width="2" stroke-linecap="round" stroke-linejoin="round"/>
<path d="M411.833 15.1192C411.531 18.7387 412.233 22.3992 412.838 24.5481C413.013 25.1717 412.604 25.8288 411.963 25.9274C404.668 27.0518 391.615 31.5879 387.776 43.8026C382.687 59.9948 384.884 75.8333 386.851 89.6034C387.74 95.831 388.63 101.016 389.494 105.448C391.114 106.888 393.567 109.651 395.975 112.753C396.21 112.748 396.431 112.744 396.637 112.741C397.025 111.086 397.465 109.367 397.89 107.712C398.619 104.868 399.3 102.211 399.58 100.388C386.843 93.9233 387.964 63.7722 393.874 48.0158C394.998 44.9574 400.905 39.5166 415.545 42.2209C429.556 44.8091 431.158 62.0526 430.144 71.431C430.076 72.0611 430.587 72.6073 431.219 72.6577C433.86 72.8682 437.395 74.2881 436.735 78.922C436.067 83.6119 431.729 83.7993 428.809 83.1366C428.176 82.993 427.518 83.4093 427.368 84.0404C426.505 87.6543 423.474 92.6002 418.956 96.3275C419.26 96.4913 419.468 96.8094 419.486 97.1757C419.74 102.332 421.038 111.161 421.897 114.083L421.898 114.088L422.475 114.123C434.967 115.511 455.805 132.841 459.023 153.91C460.553 163.921 460.452 175.061 458.747 185.76C477.532 175.843 482.508 148.865 479.378 130.778C476.848 116.162 465.499 97.0056 459.947 87.7529C456.916 82.7019 456.367 76.8237 455.741 70.1184C455.22 64.5405 454.646 58.3901 452.545 51.6674C449.769 42.7857 444.565 36.818 440.64 33.6083C439.831 32.9462 440.046 30.1602 440.765 29.4009C444.866 25.0719 447.39 14.4426 435.427 8.64236C420.16 1.24021 412.296 9.56762 411.833 15.1192Z" fill="black" stroke="black" stroke-width="2" stroke-linecap="round" stroke-linejoin="round"/>
<path d="M402.581 148.82C402.273 148.049 401.656 146.045 401.656 144.194C401.656 141.881 405.82 129.852 402.581 122.913C399.441 116.183 389.773 104.667 387.926 104.399C387.828 104.385 387.731 104.437 387.657 104.504C384.84 107.036 396.11 118.852 396.567 126.614" stroke="black" stroke-width="2" stroke-linecap="round" stroke-linejoin="round"/>
<path d="M404.468 101.619C386.65 100.957 387.292 65.5614 393.873 48.0157C394.997 44.9573 400.904 39.5165 415.544 42.2208C429.556 44.8089 431.157 62.0525 430.143 71.4309C430.075 72.061 430.586 72.6072 431.218 72.6576C433.859 72.868 437.394 74.288 436.734 78.9218C436.066 83.6118 431.728 83.7992 428.808 83.1365C428.175 82.9929 427.517 83.4092 427.367 84.0403C425.765 90.7559 416.672 102.072 404.468 101.619Z" stroke="black" stroke-width="2" stroke-linecap="round" stroke-linejoin="round"/>
<path d="M420.623 61.8448C417.263 57.1394 413.902 49.5346 412.273 45.405C412.041 44.817 411.332 44.579 410.778 44.8831C405.926 47.5457 400.739 47.9956 397.811 47.701C397.169 47.6365 396.479 48.1153 396.283 48.7296C395.93 49.8355 395.249 51.526 394.253 53.5174C392.976 56.0713 391.088 58.4842 389.29 60.6783C388.57 61.5564 386.802 60.667 387.103 59.5721L391.849 42.2815C391.908 42.0676 392.031 41.8825 392.21 41.7519C397.951 37.5684 412.235 30.8377 425.712 35.9372C438.899 40.9268 437.414 61.1889 434.807 71.7714C434.657 72.3841 433.979 72.6849 433.425 72.3809C429.988 70.4917 423.942 66.4906 420.623 61.8448Z" fill="black" stroke="black" stroke-width="2" stroke-linecap="round" stroke-linejoin="round"/>
<path d="M397.807 63.1142C397.807 63.1142 395.948 69.1939 397.424 69.496C398.796 69.4076 398.251 65.2046 397.807 63.1142Z" fill="black"/>
<path d="M393.744 59.668C394.056 60.3983 395.306 62.1101 397.807 63.1142M397.807 63.1142C397.807 63.1142 395.948 69.1939 397.424 69.496C398.796 69.4076 398.251 65.2046 397.807 63.1142Z" stroke="black" stroke-width="2" stroke-linecap="round" stroke-linejoin="round"/>
<path d="M414.586 64.5478C414.586 64.5478 412.727 70.6275 414.203 70.9296C415.575 70.8412 415.03 66.6382 414.586 64.5478Z" fill="black"/>
<path d="M410.523 61.1016C410.835 61.8319 412.085 63.5437 414.586 64.5478M414.586 64.5478C414.586 64.5478 412.727 70.6275 414.203 70.9296C415.575 70.8412 415.03 66.6382 414.586 64.5478Z" stroke="black" stroke-width="2" stroke-linecap="round" stroke-linejoin="round"/>
<path d="M403.306 50.755C405.777 52.7767 408.899 61.2006 401.621 78.7223" stroke="black" stroke-width="2" stroke-linecap="round" stroke-linejoin="round"/>
<path d="M408.594 93.3039C404.656 94.2127 401.896 89.6049 400.516 85.8728C400.208 85.0398 401.129 84.3059 401.942 84.664C403.586 85.3885 405.874 86.1675 407.669 85.9017C409.438 85.6398 411.357 84.2701 412.728 83.0885C413.423 82.4893 414.549 82.9711 414.432 83.8812C413.956 87.6066 412.409 92.4235 408.594 93.3039Z" stroke="black" stroke-width="2" stroke-linecap="round" stroke-linejoin="round"/>
<path d="M412.014 56.4831C413.016 56.5432 415.496 57.3261 417.39 59.9759" stroke="black" stroke-width="2" stroke-linecap="round" stroke-linejoin="round"/>
<path d="M445.605 222.379C445.605 222.379 473.363 247.526 486.317 292.088C492.627 313.797 498.808 355.783 494.644 358.245C490.48 360.707 453.47 361.797 436.352 360.095" stroke="black" stroke-width="2" stroke-linecap="round" stroke-linejoin="round"/>
<path d="M373 116.5C347.5 125.5 314.68 205.576 343.363 218.529C357.798 225.048 374.823 195.547 378.986 178.429" stroke="black" stroke-width="2" stroke-linecap="round" stroke-linejoin="round"/>
<path d="M379.912 155.297C378.524 154.834 374.36 155.76 371.585 154.372C368.809 152.984 366.958 150.671 366.496 151.133C366.033 151.596 352.617 166.863 345.677 181.205" stroke="black" stroke-width="2" stroke-linecap="round" stroke-linejoin="round"/>
<path d="M419.192 276.15H424.953C433.79 276.15 440.953 283.314 440.953 292.15V345.018C440.953 353.855 433.79 361.018 424.953 361.018H345.972C337.136 361.018 329.972 353.855 329.972 345.018V292.15C329.972 283.314 337.136 276.15 345.972 276.15H406.68" stroke="black" stroke-width="2" stroke-linecap="round" stroke-linejoin="round"/>
<path d="M442.367 319.509C408.331 318.965 337.735 318.203 327.634 319.509" stroke="black" stroke-width="2" stroke-linecap="round" stroke-linejoin="round"/>
<path d="M383.831 364.282C383.831 362.65 386.551 287.78 386.551 269.622C386.551 254.933 376.759 222.292 358.806 226.644C343.666 230.314 351.734 258.197 386.551 272.886M386.551 272.886C395.256 262.55 409.618 240.571 397.432 235.348C385.246 230.126 385.1 258.197 386.551 272.886Z" stroke="#2F62F6" stroke-width="2" stroke-linecap="round" stroke-linejoin="round"/>
<path d="M205.389 179.355H187.188C178.904 179.355 172.188 186.071 172.188 194.355V269.569M224.48 179.355H327.634M341.513 224.694V272.808M327.634 359.783H192" stroke="black" stroke-width="2" stroke-linecap="round" stroke-linejoin="round"/>
<path d="M259.346 358.857C259.346 357.248 259.346 193.255 259.346 175.349C259.346 160.865 276.214 124.974 296.631 129.841C311.816 133.46 311.944 175.349 259.346 178.568M259.346 178.568C204.291 169.075 205.683 132.968 229.348 132.968C242.646 132.968 260.801 164.083 259.346 178.568Z" stroke="#2F62F6" stroke-width="2" stroke-linecap="round" stroke-linejoin="round"/>
<path d="M422.936 114.586C428.025 121.525 427.1 135.775 421.548 137.255C415.997 138.735 406.622 133.202 404 129.5" stroke="black" stroke-width="2" stroke-linecap="round" stroke-linejoin="round"/>
<path d="M78.3004 346.018V291.15C78.3004 282.866 85.0161 276.15 93.3004 276.15H155.008H167.52H174.281C182.566 276.15 189.281 282.866 189.281 291.15V346.018C189.281 354.302 182.566 361.018 174.281 361.018H93.3004C85.0161 361.018 78.3004 354.302 78.3004 346.018Z" fill="#2F62F6"/>
<path d="M192.545 318.584C157.686 318.04 85.3811 317.279 75.0358 318.584" stroke="white" stroke-width="2" stroke-linecap="round" stroke-linejoin="round"/>
<path d="M132.158 364.282C132.158 362.65 134.878 287.78 134.878 269.622C134.878 254.933 125.086 222.292 107.133 226.644C91.9932 230.314 100.061 258.197 134.878 272.886M134.878 272.886C143.583 262.55 157.945 240.571 145.759 235.348C133.573 230.126 133.428 258.197 134.878 272.886Z" stroke="#2F62F6" stroke-width="2" stroke-linecap="round" stroke-linejoin="round"/>
<path d="M132.158 364.282C132.158 362.65 134.501 290.658 134.501 272.5" stroke="white" stroke-width="2" stroke-linecap="round" stroke-linejoin="round"/>
<path d="M189 109.052C191.984 107.367 194.132 104.099 195.935 101.107C197.416 98.6504 198.954 95.7049 199.689 92C200.476 95.1546 201.289 98.4137 202.935 101.27C204.846 104.594 207.305 107.072 210 108.431C205.876 109.833 202.724 113.808 200.711 117.135C200.124 118.104 199.627 119.38 199.211 121C198.619 118.23 197.795 115.389 196.008 113.35C193.932 110.983 191.635 110.03 189.003 109.055L189 109.052Z" stroke="black" stroke-width="2" stroke-linecap="round" stroke-linejoin="round"/>
<path d="M142 146.828C144.131 147.932 145.666 150.073 146.954 152.033C148.012 153.643 149.11 155.573 149.635 158C150.197 155.933 150.778 153.798 151.954 151.927C153.319 149.749 155.075 148.125 157 147.235C154.054 146.316 151.803 143.712 150.365 141.532C149.946 140.898 149.591 140.062 149.293 139C148.871 140.815 148.282 142.676 147.006 144.012C145.523 145.563 143.882 146.187 142.002 146.826L142 146.828Z" stroke="black" stroke-width="2" stroke-linecap="round" stroke-linejoin="round"/>
<path d="M360.954 65.4179L347.441 63.5488" stroke="#2F62F6" stroke-width="2" stroke-linecap="round" stroke-linejoin="round"/>
<path d="M333.078 39.0235L367.915 52.6693" stroke="#2F62F6" stroke-width="2" stroke-linecap="round" stroke-linejoin="round"/>
<path d="M367.718 33.8943L356.016 22" stroke="#2F62F6" stroke-width="2" stroke-linecap="round" stroke-linejoin="round"/>
</svg>
