<svg width="570" height="370" viewBox="0 0 570 370" fill="none" xmlns="http://www.w3.org/2000/svg">
<path d="M200.947 184.388C199.258 173.695 201.847 165.235 203.198 161.633C204.886 157.131 219.518 161.07 222.894 157.131C225.596 153.979 225.145 136.309 224.583 127.867C226.646 126.742 230.886 124.153 231.336 122.802C231.786 121.452 216.701 101.662 214.451 87.0299C204.996 83.4282 197.57 93.9138 195.882 96.3524L166.055 108.978C166.055 108.978 162.116 129.555 160.99 148.812C159.865 168.068 145.796 180.449 145.796 180.449" stroke="black" stroke-width="2" stroke-linecap="round" stroke-linejoin="round"/>
<path d="M212.573 105.903C211.415 104.153 211.353 105.484 211.717 106.826L214.794 114.209C214.452 111.888 213.731 107.654 212.573 105.903Z" fill="black" stroke="black" stroke-width="2" stroke-linecap="round" stroke-linejoin="round"/>
<path d="M224.583 139.685C221.957 140.436 215.916 140.698 212.765 135.746" stroke="black" stroke-width="2" stroke-linecap="round" stroke-linejoin="round"/>
<path d="M190.997 116.057C188.746 117.745 188.746 124.499 187.621 124.499C186.495 108.741 171.177 107.755 168.487 117.746C164.547 132.377 178.617 133.503 178.617 133.503C177.303 144.195 171.751 165.243 160.045 163.892C148.34 162.541 148.79 153.95 150.478 149.823C145.038 148.51 133.708 143.408 131.907 133.503C130.106 123.598 137.91 117.745 142.037 116.057C135.847 114.369 125.717 112.354 125.717 100.3C125.717 91.5583 134.346 91.4832 137.535 92.4212C134.158 85.8556 130.714 72.9852 140.349 67.0968C149.17 61.7053 156.669 68.2224 158.357 71.5989L158.381 71.533C159.733 67.8617 164.948 53.6976 186.875 51.0127C208.935 48.3115 216.139 67.0969 211.257 77.2266C213.32 75.1631 218.46 71.5989 222.512 73.85C227.577 76.6638 229.265 85.668 220.261 91.2956C213.058 95.7977 204.504 96.1729 201.127 95.7977C201.315 96.9233 201.577 100.3 201.127 104.802C200.564 110.43 193.248 114.369 190.997 116.057Z" fill="black" stroke="black" stroke-width="2" stroke-linecap="round" stroke-linejoin="round"/>
<path d="M317.999 181.574C324.189 183.638 339.834 187.877 352.89 188.327" stroke="black" stroke-width="2" stroke-linecap="round" stroke-linejoin="round"/>
<path d="M318.562 88.7178C316.686 94.3454 313.497 107.852 315.748 116.856C318.562 128.111 325.315 135.99 323.064 149.496" stroke="black" stroke-width="2" stroke-linecap="round" stroke-linejoin="round"/>
<path d="M341.635 91.5322C344.261 92.2826 348.613 97.385 345.011 111.792" stroke="black" stroke-width="2" stroke-linecap="round" stroke-linejoin="round"/>
<path d="M351.202 96.5968C353.266 96.4092 356.605 99.9733 353.453 115.731" stroke="black" stroke-width="2" stroke-linecap="round" stroke-linejoin="round"/>
<path d="M358.517 105.038C360.393 105.976 363.807 109.99 362.457 118.544C360.768 129.237 354.578 134.302 352.89 158.501" stroke="black" stroke-width="2" stroke-linecap="round" stroke-linejoin="round"/>
<path d="M127.785 189.453C131.912 195.456 146.919 207.462 173.932 207.462C200.944 207.462 215.951 195.456 220.078 189.453" stroke="black" stroke-width="2" stroke-linecap="round" stroke-linejoin="round"/>
<path d="M60 340.25C60 271.75 74.6599 226.37 94.019 205.21C113.378 184.05 136.226 179.886 145.23 180.448C148.044 183.825 157.611 190.691 173.369 191.141C189.126 191.591 199.068 186.826 202.069 184.388C211.261 184.388 232.684 186.639 244.839 195.643C256.995 204.647 286.672 241.79 299.99 259.235" stroke="black" stroke-width="2" stroke-linecap="round" stroke-linejoin="round"/>
<path d="M234.71 289.062C253.094 302.756 273.541 331.723 307.306 328.455C332.068 326.059 354.016 229.409 354.016 159.626C341.635 156.25 319.462 153.886 318.562 155.687C317.436 157.938 304.493 196.769 287.047 229.409" stroke="black" stroke-width="2" stroke-linecap="round" stroke-linejoin="round"/>
<path d="M101.109 239C97.5392 255.993 89.4553 323.53 91.2589 345.911M249 355.911C210.999 371.906 158.058 369.177 124 363.853" stroke="black" stroke-width="2" stroke-linecap="round" stroke-linejoin="round"/>
<path d="M133.976 195.08L143.543 186.639" stroke="black" stroke-width="2" stroke-linecap="round" stroke-linejoin="round"/>
<path d="M148.044 202.959L151.421 196.206" stroke="black" stroke-width="2" stroke-linecap="round" stroke-linejoin="round"/>
<path d="M164.927 196.206L163.802 206.899" stroke="black" stroke-width="2" stroke-linecap="round" stroke-linejoin="round"/>
<path d="M181.81 206.898L180.122 198.457" stroke="black" stroke-width="2" stroke-linecap="round" stroke-linejoin="round"/>
<path d="M191.939 192.829L197.004 204.084" stroke="black" stroke-width="2" stroke-linecap="round" stroke-linejoin="round"/>
<path d="M203.758 190.578L209.948 197.894" stroke="black" stroke-width="2" stroke-linecap="round" stroke-linejoin="round"/>
<path d="M268 177.75C266.667 137.25 264.8 33.95 268 26.75C272 17.75 281.5 17.75 293.5 17.75C305.5 17.75 511.5 17.75 515.5 17.75C519.5 17.75 537 20.75 537 46.25C537 71.75 537 174.25 535.5 183.75C534 193.25 536.5 205.75 502 206.25C474.4 206.65 400.834 207.417 356 207.75" stroke="black" stroke-width="2" stroke-linecap="round" stroke-linejoin="round"/>
<path d="M532.5 42.3496C491.123 42.5791 428.935 42.9214 375.5 43.2101M270.5 43.7496C274.106 43.7496 313.761 43.5426 363.5 43.2748" stroke="black" stroke-width="2" stroke-linecap="round" stroke-linejoin="round"/>
<path d="M314 29.25V93.25" stroke="black" stroke-width="2" stroke-linecap="round" stroke-linejoin="round"/>
<path d="M368.5 27.25C368.5 33.3104 368.5 40.0504 368.5 47.25M368.5 195.75C368.5 193.532 368.5 139.787 368.5 88.75" stroke="black" stroke-width="2" stroke-linecap="round" stroke-linejoin="round"/>
<path d="M426.5 32.25C426.444 47.433 426.336 68.3291 426.172 90.25M424.5 196.25C424.611 194.181 424.717 191.481 424.818 188.25M425.754 135.25C425.648 144.462 425.531 153.259 425.402 161.25" stroke="black" stroke-width="2" stroke-linecap="round" stroke-linejoin="round"/>
<path d="M486.5 27.25C486.5 43.2559 486.571 66.843 486.66 90.25M487 166.518C487 164.75 486.932 153.922 486.846 134.75" stroke="black" stroke-width="2" stroke-linecap="round" stroke-linejoin="round"/>
<path d="M527.105 96.7465C526.407 95.3614 386.669 93.9764 379.374 95.2578C379.128 95.301 379.012 95.4253 378.894 95.6457C376.789 99.5703 374.19 127.379 376.256 128.745C378.391 130.157 522.124 131.098 524.97 130.628C527.816 130.157 527.816 98.1582 527.105 96.7465Z" fill="#2F62F6"/>
<circle cx="472.5" cy="175.75" r="6" fill="black"/>
<path d="M481.5 174.75C482.7 174.75 484.667 174.75 486.5 174.75C486.5 182.417 486.5 198.05 486.5 199.25C486.5 200.75 455.5 202.75 454.5 202.25C453.7 201.85 454.167 196.75 454.5 193.25" stroke="black" stroke-width="2" stroke-linecap="round" stroke-linejoin="round"/>
<path d="M290.764 37.95C290.689 36.8833 290.684 35.694 290.748 34.382C290.844 32.0993 290.892 30.894 290.892 30.766V28.654C290.903 28.5047 290.951 28.366 291.036 28.238C291.313 27.7793 291.831 27.4593 292.588 27.278C292.695 27.246 292.865 27.2247 293.1 27.214C293.281 27.2033 293.511 27.198 293.788 27.198C294.332 27.1873 294.972 27.182 295.708 27.182C296.455 27.182 297.1 27.1873 297.644 27.198C297.932 27.198 298.161 27.2033 298.332 27.214C298.588 27.2247 298.764 27.246 298.86 27.278C299.575 27.4593 300.044 27.79 300.268 28.27C300.321 28.3873 300.353 28.5367 300.364 28.718C300.375 28.814 300.385 28.9367 300.396 29.086C300.407 29.3527 300.412 29.71 300.412 30.158C300.412 30.9153 300.407 31.9393 300.396 33.23C300.385 34.2433 300.359 35.7847 300.316 37.854C300.316 38.11 300.225 38.3287 300.044 38.51C299.863 38.6807 299.644 38.7607 299.388 38.75C299.132 38.75 298.913 38.6593 298.732 38.478C298.561 38.2967 298.481 38.078 298.492 37.822C298.535 35.7633 298.561 34.2273 298.572 33.214C298.583 31.934 298.588 30.9207 298.588 30.174C298.577 29.7367 298.572 29.3953 298.572 29.15L298.556 29.086C298.524 29.0753 298.487 29.0647 298.444 29.054H298.412C298.401 29.054 298.38 29.054 298.348 29.054C298.316 29.0433 298.284 29.038 298.252 29.038C298.092 29.0273 297.873 29.022 297.596 29.022C297.073 29.0113 296.444 29.006 295.708 29.006C294.993 29.006 294.369 29.0113 293.836 29.022C293.569 29.0327 293.351 29.038 293.18 29.038C293.137 29.0487 293.105 29.054 293.084 29.054H293.02C292.903 29.0753 292.801 29.102 292.716 29.134V30.766C292.716 31.054 292.668 32.286 292.572 34.462C292.508 35.6993 292.513 36.8087 292.588 37.79C292.609 38.046 292.535 38.27 292.364 38.462C292.204 38.654 291.996 38.7607 291.74 38.782C291.495 38.8033 291.276 38.734 291.084 38.574C290.892 38.4033 290.785 38.1953 290.764 37.95Z" fill="#2F62F6"/>
<path d="M341.996 37.686C341.879 37.686 341.767 37.6593 341.66 37.606C341.425 37.5847 341.223 37.4887 341.052 37.318C340.881 37.1367 340.796 36.9287 340.796 36.694C340.689 33.7073 340.668 30.63 340.732 27.462C340.732 27.2273 340.801 27.0247 340.94 26.854C341.089 26.6727 341.271 26.5607 341.484 26.518C341.516 26.5073 341.548 26.502 341.58 26.502L342.06 26.422C342.369 26.358 342.556 26.326 342.62 26.326C342.695 26.3153 342.887 26.2887 343.196 26.246C343.516 26.1927 343.74 26.166 343.868 26.166C343.996 26.166 344.204 26.1607 344.492 26.15C344.78 26.1393 345.015 26.15 345.196 26.182L345.836 26.31C346.071 26.3633 346.295 26.4327 346.508 26.518C346.721 26.614 346.924 26.726 347.116 26.854C347.735 27.238 348.177 27.702 348.444 28.246C348.721 28.79 348.791 29.334 348.652 29.878C348.513 30.422 348.199 30.9393 347.708 31.43C347.804 31.5047 347.905 31.5847 348.012 31.67C348.481 32.1073 348.807 32.598 348.988 33.142C349.169 33.7073 349.191 34.2673 349.052 34.822C348.935 35.3447 348.695 35.8247 348.332 36.262C347.969 36.6887 347.532 37.03 347.02 37.286C346.711 37.4247 346.38 37.5367 346.028 37.622C345.676 37.7073 345.292 37.7553 344.876 37.766C344.46 37.7873 344.113 37.7927 343.836 37.782C343.569 37.782 343.217 37.7713 342.78 37.75C342.353 37.718 342.092 37.6967 341.996 37.686ZM342.7 35.798C343.319 35.862 343.953 35.8833 344.604 35.862C345.265 35.8407 345.788 35.7393 346.172 35.558C346.727 35.2807 347.063 34.8913 347.18 34.39C347.287 33.9207 347.127 33.4993 346.7 33.126C346.583 33.0087 346.471 32.918 346.364 32.854C346.268 32.79 346.14 32.7473 345.98 32.726C345.82 32.7047 345.692 32.694 345.596 32.694C345.511 32.694 345.319 32.6993 345.02 32.71C344.732 32.7207 344.497 32.726 344.316 32.726C344.22 32.7367 344.124 32.726 344.028 32.694C343.953 32.7047 343.713 32.7047 343.308 32.694C342.903 32.6833 342.679 32.678 342.636 32.678C342.647 33.7447 342.668 34.7847 342.7 35.798ZM342.62 30.758C342.737 30.758 342.972 30.7633 343.324 30.774C343.676 30.774 343.905 30.774 344.012 30.774C344.129 30.7633 344.305 30.7473 344.54 30.726C344.775 30.7047 344.977 30.678 345.148 30.646C345.319 30.6033 345.489 30.5447 345.66 30.47C345.98 30.3207 346.236 30.15 346.428 29.958C346.62 29.766 346.732 29.5793 346.764 29.398C346.849 29.1207 346.625 28.8167 346.092 28.486C345.687 28.2407 345.169 28.1127 344.54 28.102C343.921 28.0913 343.292 28.15 342.652 28.278C342.631 29.0673 342.62 29.894 342.62 30.758Z" fill="#2F62F6"/>
<path d="M399.46 37.702C398.735 37.5313 398.052 37.2487 397.412 36.854C396.783 36.4487 396.287 35.9687 395.924 35.414C395.508 34.774 395.241 34.07 395.124 33.302C395.007 32.534 395.028 31.7873 395.188 31.062C395.348 30.326 395.62 29.6487 396.004 29.03C396.399 28.358 396.895 27.798 397.492 27.35C398.1 26.8913 398.804 26.566 399.604 26.374C400.404 26.182 401.263 26.2193 402.18 26.486C402.521 26.582 402.82 26.6887 403.076 26.806C403.343 26.9233 403.577 27.078 403.78 27.27C403.993 27.4513 404.153 27.6007 404.26 27.718C404.367 27.8247 404.516 28.0113 404.708 28.278C404.9 28.534 405.028 28.6993 405.092 28.774C405.263 28.966 405.327 29.1953 405.284 29.462C405.252 29.718 405.129 29.9207 404.916 30.07C404.703 30.2193 404.457 30.278 404.18 30.246C403.913 30.214 403.705 30.0967 403.556 29.894L403.092 29.35C402.932 29.1367 402.82 28.9927 402.756 28.918C402.692 28.8433 402.596 28.7527 402.468 28.646C402.351 28.5393 402.228 28.4593 402.1 28.406C401.983 28.3527 401.823 28.2993 401.62 28.246C400.809 28.0327 400.063 28.0807 399.38 28.39C398.708 28.6993 398.148 29.2113 397.7 29.926C397.263 30.6407 397.033 31.4087 397.012 32.23C396.991 33.0513 397.188 33.7873 397.604 34.438C397.817 34.7687 398.132 35.0673 398.548 35.334C398.964 35.6007 399.412 35.7873 399.892 35.894C400.916 36.118 401.705 35.9473 402.26 35.382C402.42 35.2113 402.601 34.95 402.804 34.598C403.177 33.8513 403.364 33.4727 403.364 33.462C403.503 33.238 403.7 33.094 403.956 33.03C404.223 32.9553 404.473 32.982 404.708 33.11C404.943 33.2273 405.097 33.414 405.172 33.67C405.247 33.9153 405.22 34.1447 405.092 34.358C405.028 34.4647 404.969 34.5713 404.916 34.678L404.724 35.062L404.564 35.398C404.297 35.91 404.02 36.3153 403.732 36.614C403.348 36.998 402.905 37.2967 402.404 37.51C401.903 37.7127 401.407 37.814 400.916 37.814C400.436 37.8247 399.951 37.7873 399.46 37.702Z" fill="#2F62F6"/>
<path d="M460.388 34.542C459.897 34.8513 459.327 35.054 458.676 35.15C458.036 35.2353 457.439 35.2193 456.884 35.102C456.201 34.974 455.567 34.734 454.98 34.382C454.404 34.03 453.961 33.566 453.652 32.99C453.3 32.35 453.108 31.5073 453.076 30.462C453.076 30.1847 453.081 29.7847 453.092 29.262C453.113 28.7393 453.124 28.398 453.124 28.238C453.124 27.982 453.209 27.7687 453.38 27.598C453.561 27.4167 453.78 27.326 454.036 27.326C454.292 27.326 454.505 27.4167 454.676 27.598C454.857 27.7687 454.948 27.982 454.948 28.238C454.948 28.4087 454.937 28.7447 454.916 29.246C454.905 29.7473 454.905 30.1367 454.916 30.414C454.937 31.1713 455.049 31.742 455.252 32.126C455.412 32.4033 455.663 32.6487 456.004 32.862C456.345 33.0753 456.745 33.2193 457.204 33.294C457.673 33.3793 458.116 33.39 458.532 33.326C458.948 33.2513 459.289 33.1127 459.556 32.91C459.769 32.7607 459.908 32.6167 459.972 32.478C460.004 32.414 460.025 32.3553 460.036 32.302C460.057 32.238 460.089 32.142 460.132 32.014L460.26 31.614C460.271 31.5607 460.292 31.5127 460.324 31.47C460.26 30.35 460.159 29.31 460.02 28.35C459.988 28.1047 460.047 27.8807 460.196 27.678C460.345 27.4753 460.543 27.358 460.788 27.326C461.044 27.2833 461.273 27.3367 461.476 27.486C461.679 27.6353 461.801 27.838 461.844 28.094C461.929 28.734 461.999 29.374 462.052 30.014C462.116 30.6433 462.159 31.3687 462.18 32.19C462.201 33.0113 462.212 33.614 462.212 33.998C462.223 34.382 462.223 35.0807 462.212 36.094C462.212 37.0967 462.212 37.6887 462.212 37.87C462.212 38.126 462.121 38.3447 461.94 38.526C461.769 38.6967 461.556 38.782 461.3 38.782C461.044 38.782 460.825 38.6967 460.644 38.526C460.473 38.3447 460.388 38.126 460.388 37.87V34.542Z" fill="#2F62F6"/>
<path d="M504.764 37.95C504.689 36.8833 504.684 35.694 504.748 34.382C504.844 32.0993 504.892 30.894 504.892 30.766V28.654C504.903 28.5047 504.951 28.366 505.036 28.238C505.313 27.7793 505.831 27.4593 506.588 27.278C506.695 27.246 506.865 27.2247 507.1 27.214C507.281 27.2033 507.511 27.198 507.788 27.198C508.332 27.1873 508.972 27.182 509.708 27.182C510.455 27.182 511.1 27.1873 511.644 27.198C511.932 27.198 512.161 27.2033 512.332 27.214C512.588 27.2247 512.764 27.246 512.86 27.278C513.575 27.4593 514.044 27.79 514.268 28.27C514.321 28.3873 514.353 28.5367 514.364 28.718C514.375 28.814 514.385 28.9367 514.396 29.086C514.407 29.3527 514.412 29.71 514.412 30.158C514.412 30.9153 514.407 31.9393 514.396 33.23C514.385 34.2433 514.359 35.7847 514.316 37.854C514.316 38.11 514.225 38.3287 514.044 38.51C513.863 38.6807 513.644 38.7607 513.388 38.75C513.132 38.75 512.913 38.6593 512.732 38.478C512.561 38.2967 512.481 38.078 512.492 37.822C512.535 35.7633 512.561 34.2273 512.572 33.214C512.583 31.934 512.588 30.9207 512.588 30.174C512.577 29.7367 512.572 29.3953 512.572 29.15L512.556 29.086C512.524 29.0753 512.487 29.0647 512.444 29.054H512.412C512.401 29.054 512.38 29.054 512.348 29.054C512.316 29.0433 512.284 29.038 512.252 29.038C512.092 29.0273 511.873 29.022 511.596 29.022C511.073 29.0113 510.444 29.006 509.708 29.006C508.993 29.006 508.369 29.0113 507.836 29.022C507.569 29.0327 507.351 29.038 507.18 29.038C507.137 29.0487 507.105 29.054 507.084 29.054H507.02C506.903 29.0753 506.801 29.102 506.716 29.134V30.766C506.716 31.054 506.668 32.286 506.572 34.462C506.508 35.6993 506.513 36.8087 506.588 37.79C506.609 38.046 506.535 38.27 506.364 38.462C506.204 38.654 505.996 38.7607 505.74 38.782C505.495 38.8033 505.276 38.734 505.084 38.574C504.892 38.4033 504.785 38.1953 504.764 37.95Z" fill="#2F62F6"/>
<path fill-rule="evenodd" clip-rule="evenodd" d="M322.954 51.5296C334.295 50.4192 419.186 50.4949 419.84 51.7568C420.536 53.0991 421.928 82.1839 419.84 83.0788C418.272 83.751 364.481 83.9183 337.219 83.5806C337.011 71.2607 336.14 58.9427 333.755 58.6447C331.474 58.3596 329.675 70.5478 328.471 83.4322C324.424 83.3362 321.939 83.2184 321.722 83.0788C320.62 82.3702 321.263 64.8281 321.579 56.2226C321.627 54.9221 321.667 53.8257 321.692 53.0224C321.718 52.2083 322.143 51.609 322.954 51.5296Z" fill="#2F62F6"/>
<path d="M327.003 104.228C327.753 88.8462 330.154 58.1943 333.756 58.6446C337.358 59.0948 337.508 86.9703 337.133 100.852" stroke="black" stroke-width="2" stroke-linecap="round" stroke-linejoin="round"/>
<path d="M433.5 154.75L441 155.75L455.129 156.907L464.248 157.486C464.248 157.486 465.26 165.25 463.5 173.75C462.009 180.952 456.269 188.151 455.699 188.73C455.243 189.193 431.21 184.107 420 180.25C422.28 178.514 427.88 173.442 430.5 167.75C432.324 164.973 433.69 158.029 433.5 154.75Z" stroke="black" stroke-width="2" stroke-linecap="round" stroke-linejoin="round"/>
<circle cx="448" cy="158.25" r="6.5" fill="black"/>
<path d="M71.7522 104.959C65.5021 103.528 52.3739 97.9355 49.8615 87.0136C46.721 73.3612 72.2928 72.2033 70.3702 80.483C68.9424 86.6318 52.4596 84.5389 38.0003 70.688" stroke="#2F62F6" stroke-width="2" stroke-linecap="round"/>
<path d="M435.255 312.99C434.945 312.99 434.63 312.964 434.314 312.913C431.77 312.482 429.65 310.46 428.016 306.905C424.763 299.835 424.21 291.764 426.123 284.32C425.27 284.161 424.376 284.109 423.434 284.181C415.781 285.115 412.425 293.483 413.17 300.881L411.112 301.087C410.264 292.724 414.225 283.237 423.228 282.139C424.453 282.047 425.606 282.124 426.692 282.339C428.031 278.173 430.157 274.258 433.037 270.893C437.37 265.649 442.195 264.618 447.738 267.789C448.266 265.967 449.217 264.331 450.525 263.058C452.625 261.016 455.665 259.913 458.866 260.005C462.067 260.103 465.03 261.406 467 263.571L465.464 264.946C463.872 263.192 461.441 262.14 458.804 262.058C456.167 261.981 453.674 262.873 451.973 264.525C450.779 265.685 449.946 267.24 449.569 268.969C451.089 270.026 452.738 271.375 453.555 273.34C454.398 275.367 454.021 278.235 451.942 279.533L451.265 279.953L450.686 279.41C448.545 277.409 447.304 274.438 447.273 271.267C447.273 270.821 447.288 270.38 447.33 269.943C442.412 266.85 438.461 267.578 434.63 272.211C431.936 275.367 429.94 279.025 428.678 282.919C435.188 285.397 438.88 292.913 440.344 296.587C441.693 299.727 442.867 303.118 442.252 306.505C441.652 309.773 438.72 313 435.255 313V312.99ZM428.109 284.889C426.325 291.872 426.852 299.429 429.898 306.048C431.232 308.947 432.835 310.573 434.661 310.886C437.262 311.322 439.733 308.736 440.214 306.125C440.762 303.134 439.578 300.03 438.43 297.357C437.091 293.996 433.761 287.152 428.104 284.889H428.109ZM449.341 271.344C449.382 273.571 450.137 275.654 451.44 277.208C452.025 276.357 452.04 275.069 451.642 274.115C451.182 273.006 450.293 272.103 449.336 271.344H449.341Z" fill="black"/>
</svg>
