<svg width="570" height="370" viewBox="0 0 570 370" fill="none" xmlns="http://www.w3.org/2000/svg">
<path d="M57.2487 196.282C63.4987 197.713 76.6269 203.306 79.1393 214.228C82.2798 227.88 56.708 229.038 58.6306 220.759C60.5532 212.479 89.7737 219.143 104.593 249.336" stroke="black" stroke-width="2" stroke-linecap="round"/>
<path d="M434.343 135.628C435.55 134.972 436.565 134.14 437.386 133.132C438.213 132.1 438.796 130.988 439.134 129.794C439.466 128.622 439.549 127.381 439.386 126.069C439.222 124.757 438.794 123.516 438.103 122.347C437.418 121.156 436.48 120.087 435.288 119.141C434.124 118.179 432.698 117.459 431.008 116.98C429.341 116.508 427.749 116.374 426.231 116.577C424.742 116.763 423.394 117.185 422.186 117.84C421.008 118.48 420.004 119.315 419.177 120.347C418.35 121.378 417.77 122.479 417.439 123.651C417.1 124.845 417.013 126.098 417.177 127.409C417.348 128.699 417.764 129.936 418.426 131.121C419.117 132.29 420.044 133.356 421.208 134.318C422.4 135.264 423.83 135.973 425.497 136.445M396.502 99.617C396.164 100.811 396.077 102.064 396.24 103.376C396.411 104.665 396.827 105.902 397.489 107.088C398.18 108.257 399.107 109.322 400.271 110.284C401.463 111.23 402.893 111.939 404.56 112.411C406.249 112.89 407.839 113.036 409.327 112.849C410.845 112.646 412.204 112.228 413.406 111.594C414.614 110.939 415.628 110.106 416.449 109.098C417.276 108.067 417.859 106.954 418.197 105.76C418.529 104.589 418.613 103.347 418.449 102.035C418.285 100.723 417.857 99.4827 417.166 98.3136C416.482 97.122 415.543 96.0533 414.351 95.1073C413.188 94.1452 411.761 93.4249 410.071 92.9465C408.404 92.4744 406.812 92.3399 405.294 92.5429C403.806 92.7297 402.457 93.151 401.25 93.8068M432.18 96.0909C427.517 101.56 423.024 107.199 418.702 113.008C414.41 118.801 410.255 124.706 406.24 130.724" stroke="black" stroke-width="2" stroke-linecap="round" stroke-linejoin="round"/>
<path fill-rule="evenodd" clip-rule="evenodd" d="M335.394 124.607C340.437 118.524 343.526 110.336 343.526 101.33C343.526 82.5707 330.121 67.3597 313.575 67.3301L327.526 67.3301C344.095 67.3301 357.526 82.5524 357.526 101.33C357.526 115.064 350.342 126.895 340 132.261C333.941 135.931 335 127.058 335.394 124.607Z" fill="#2F62F6"/>
<path d="M328.526 72.3301H334.526" stroke="black" stroke-width="2" stroke-linecap="round"/>
<path d="M336.526 80.3301H342.526" stroke="black" stroke-width="2" stroke-linecap="round"/>
<path d="M341.526 88.3301H347.526" stroke="black" stroke-width="2" stroke-linecap="round"/>
<path d="M343.526 96.3301H349.526" stroke="black" stroke-width="2" stroke-linecap="round"/>
<path d="M343.526 104.33H349.526" stroke="black" stroke-width="2" stroke-linecap="round"/>
<path d="M342.526 112.33H348.526" stroke="black" stroke-width="2" stroke-linecap="round"/>
<path d="M339.526 120.33H345.526" stroke="black" stroke-width="2" stroke-linecap="round"/>
<path d="M293 77.5343C298.366 71.8262 305.586 68.3301 313.526 68.3301C330.095 68.3301 343.526 83.5524 343.526 102.33C343.526 111.272 340.48 119.408 335.5 125.478M289.154 82.5005C285.612 88.0821 283.526 94.93 283.526 102.33C283.526 111.04 286.416 118.985 291.168 125" stroke="black" stroke-width="2" stroke-linecap="round" stroke-linejoin="round"/>
<path d="M107.026 308.33C104.86 308.83 100.626 310.83 101.026 314.83C101.526 319.83 112.526 343.33 121.526 342.83C124.026 342.691 114.526 331.33 118.026 321.33" stroke="black" stroke-width="2"/>
<path d="M203.025 347.83C203.526 351.33 201.058 357.19 203.025 358.83C206.026 361.33 236.942 361.83 236.526 356.83C236.317 354.33 220.525 354.83 216.526 347.83" stroke="black" stroke-width="2" stroke-linecap="round"/>
<path d="M281.526 109.83C280.193 111.83 276.926 116.53 274.526 119.33" stroke="black" stroke-width="2" stroke-linecap="round"/>
<path d="M223.526 309.83C232.36 325.663 251.226 357.63 256.026 358.83C260.826 360.03 277.36 359.33 285.026 358.83C283.86 351.497 281.726 335.63 282.526 330.83" stroke="black" stroke-width="2" stroke-linecap="round"/>
<path d="M137.026 230.829C136.095 212.201 136.898 192.42 137.013 189.794C137.022 189.596 137.13 189.385 137.293 189.496C138.448 190.278 143.362 198.274 175.5 204C196.645 207.767 210.211 202.481 212.236 201.616C212.416 201.54 212.603 201.502 212.758 201.621C216.401 204.437 224.574 254.114 226.526 265.829C228.526 277.829 219.526 345.329 219.026 345.329C218.526 345.329 199.526 346.329 198.526 345.329C197.526 344.329 195.526 279.829 195.526 278.829C195.526 278.095 187.369 256.768 182.294 243.613C181.932 242.672 180.563 242.803 180.373 243.792C177.987 256.279 173.709 276.964 171.526 281.329C168.526 287.329 123.526 319.329 121.026 319.829C118.526 320.329 107.026 305.829 107.026 303.829C107.026 301.829 141.526 270.829 142.026 269.829C142.526 268.829 138.026 250.829 137.026 230.829Z" fill="black" stroke="black" stroke-width="2" stroke-linecap="round"/>
<path d="M403.526 263.83C390.026 263.83 368.026 268.83 368.026 287.83C368.026 307.83 391.026 313.33 403.526 313.33C416.026 313.33 438.026 307.83 438.026 287.83C438.026 267.83 417.026 263.83 403.526 263.83Z" stroke="black" stroke-width="2" stroke-linecap="round"/>
<ellipse cx="388.526" cy="288.33" rx="4" ry="8" fill="#2F62F6"/>
<ellipse cx="417.526" cy="289.33" rx="4" ry="8" fill="#2F62F6"/>
<path d="M433.026 268.33C434.86 262.663 436.626 248.83 435.026 236.83C432.293 216.33 422.026 207.33 422.026 207.33" stroke="black" stroke-width="2" stroke-linecap="round"/>
<path d="M410.525 204.33C412.359 201.33 417.525 194.03 423.525 188.83C429.525 183.63 436.359 180.663 439.025 179.83C440.525 187.83 441.325 207.43 432.525 221.83" stroke="black" stroke-width="2" stroke-linecap="round"/>
<path d="M438.526 178.829C433.86 177.496 421.926 175.229 411.526 176.829C401.126 178.429 396.86 182.163 396.026 183.829C396.026 183.829 373.526 150.996 321.026 149.829C298.526 149.329 234.026 156.829 212.526 201.829" stroke="black" stroke-width="2" stroke-linecap="round"/>
<path d="M267.526 320.33C271.86 325.33 286.126 335.53 308.526 336.33" stroke="black" stroke-width="2" stroke-linecap="round"/>
<path d="M309.026 323.83C311.526 335.497 317.026 358.83 319.026 358.83C321.526 358.83 346.026 359.83 347.026 358.83C348.026 357.83 358.026 331.83 359.026 330.33C360.026 328.83 384.026 323.83 395.026 315.33" stroke="black" stroke-width="2" stroke-linecap="round"/>
<path d="M351.526 358.83C352.526 358.83 372.526 359.83 375.526 357.83C377.717 356.37 387.014 335.364 392.55 322.33" stroke="black" stroke-width="2" stroke-linecap="round"/>
<path d="M350.026 279.33C346.359 283.83 341.826 294.33 353.026 300.33" stroke="black" stroke-width="2" stroke-linecap="round"/>
<path d="M365.526 228.33C366.026 227.33 367.526 219.83 377.026 219.33" stroke="black" stroke-width="2" stroke-linecap="round"/>
<path d="M407.526 224.33C410.026 224.663 415.226 226.63 416.026 231.83" stroke="black" stroke-width="2" stroke-linecap="round"/>
<path d="M378.527 202.829C376.527 199.829 358.027 175.829 354.527 177.329C351.027 178.829 341.027 201.829 342.027 218.829" stroke="black" stroke-width="2" stroke-linecap="round"/>
<path d="M324.526 193.83C326.026 193.33 342.526 177.83 355.026 176.83" stroke="black" stroke-width="2" stroke-linecap="round"/>
<ellipse cx="379.526" cy="244.83" rx="2" ry="4.5" fill="black" stroke="black" stroke-width="2" stroke-linecap="round"/>
<ellipse cx="408.526" cy="244.83" rx="2" ry="4.5" fill="black" stroke="black" stroke-width="2" stroke-linecap="round"/>
<path d="M294 157.5L287.5 164.5C287.5 164.5 301.5 162.591 316.5 163C331.5 163.409 342.5 166 342.5 166L350 160.5C350 160.5 336.5 156.5 322 156C307.5 155.5 294 157.5 294 157.5Z" stroke="black" stroke-width="2" stroke-linecap="round" stroke-linejoin="round"/>
<path d="M253 110.5C254 110.5 268.5 94 272.5 88.5C275.7 84.1 281.5 75 284 71C283.667 72.3333 284 79 286.5 80.5" stroke="black" stroke-width="2" stroke-linecap="round" stroke-linejoin="round"/>
<path d="M288.526 72.3295C289.026 71.8295 295.526 61.8295 308.026 63.8295" stroke="black" stroke-width="2" stroke-linecap="round"/>
<path d="M289.026 77.3301C291.278 77.4909 297.819 78.6176 301.15 81.2123C301.378 81.3895 301.424 81.6678 301.14 81.7133C299.236 82.0172 290.387 80.2717 289.026 82.5006" stroke="black" stroke-width="2" stroke-linecap="round"/>
<path d="M329 127.83C330.926 126.867 332.981 122.62 334.234 119.429C334.55 118.625 335.439 118.629 335.542 119.487C335.771 121.384 335.767 124.478 335 129.001" stroke="black" stroke-width="2" stroke-linecap="round"/>
<path d="M322.026 141.33C322.526 141.83 330.526 146.33 344.526 143.33C355.726 140.93 345.193 141.33 338.526 141.83" stroke="black" stroke-width="2" stroke-linecap="round"/>
<path d="M335 139C338.167 139.167 346.2 138.8 349 138" stroke="black" stroke-width="2" stroke-linecap="round"/>
<path d="M333 132C335.167 134.333 341.3 137.7 348.5 132.5" stroke="black" stroke-width="2" stroke-linecap="round"/>
<path d="M337.026 137.33C340.026 137.663 346.726 137.43 349.526 133.83" stroke="black" stroke-width="2" stroke-linecap="round"/>
<path d="M211.999 83.5898L206.526 92.8297C207.728 97.4648 213.262 106.874 214.498 107.698C215.734 108.522 222.395 103.063 224.798 99.4574L225.828 93.3072" stroke="black" stroke-width="2" stroke-linecap="round"/>
<path fill-rule="evenodd" clip-rule="evenodd" d="M218.949 23.5784C239.753 10.7638 258.565 20.3706 269.067 35.771C276.054 46.0169 273.557 58.3023 272.016 65.8872C271.695 67.4663 271.415 68.8419 271.271 69.9527C270.776 73.774 272.761 83.4905 274.304 91.0407L274.304 91.041C275.364 96.2273 276.214 100.391 275.909 100.92C275.159 102.219 265.03 106.764 264.164 106.264C263.731 106.014 263.227 104.135 262.747 102.342C262.267 100.55 261.809 98.842 261.468 98.9335C261.074 99.0391 260.479 102.487 259.95 105.552C259.563 107.8 259.21 109.843 258.999 110.21C258.499 111.076 246.021 113.687 245.155 113.187C244.289 112.687 235.906 106.917 234.999 106.264C231.459 103.712 227.97 101.608 224.507 99.875C224.609 99.7335 224.707 99.5943 224.798 99.4577L226.03 93.2969C234.243 92.8233 241.506 86.4997 247.144 79.011C256.75 79.67 262.936 71.8102 257.547 67.834C256.892 67.3506 255.821 66.7884 255.169 66.7196L254.192 67.6904C255.684 64.8037 256.885 62.0852 257.758 59.8015C257.758 59.8015 265.77 35.2955 256.728 25.2955C243.603 10.7783 216.025 37.33 216.025 37.33C214.292 40.7962 212.897 44.7044 211.861 48.8036L211.782 48.6568C211.782 48.6568 210.736 46.0005 206.552 46.0005C199.231 46.0005 201.072 57.5284 209.69 63.0005L209.76 62.928C209.374 70.7899 210.317 78.3396 212.725 83.9467L212.052 83.5005L206.526 92.83C206.608 93.1471 206.71 93.4866 206.83 93.8442C206.72 93.8221 206.61 93.8001 206.499 93.7785C203.516 93.1929 200.522 92.7837 197.499 92.5005C190.328 91.8286 183.208 93.4377 181.037 93.9918C180.631 94.0954 180.202 93.947 179.956 93.6074C175.638 87.6381 169.623 77.7058 169.842 76.6332C169.995 75.8874 172.206 74.59 174.417 73.2926C176.798 71.8954 179.179 70.4982 178.989 69.7899C178.788 69.0383 175.596 69.5313 172.549 70.0019C170.058 70.3867 167.663 70.7564 167.079 70.4191C165.78 69.6691 162.772 48.8797 164.272 46.2816C164.798 45.3701 168.708 44.1377 174.607 42.2782C185.521 38.8379 203.245 33.2511 218.949 23.5784Z" fill="black"/>
<path d="M269.067 35.771L268.241 36.3344L269.067 35.771ZM218.949 23.5784L219.473 24.4298L218.949 23.5784ZM272.016 65.8872L272.996 66.0863L272.016 65.8872ZM271.271 69.9527L272.263 70.0812V70.0812L271.271 69.9527ZM274.304 91.0407L275.29 90.8763L275.287 90.8584L275.284 90.8406L274.304 91.0407ZM274.304 91.041L273.318 91.2054L273.321 91.2234L273.324 91.2412L274.304 91.041ZM275.909 100.92L276.775 101.42L275.909 100.92ZM264.164 106.264L264.664 105.398H264.664L264.164 106.264ZM262.747 102.342L263.713 102.084V102.084L262.747 102.342ZM261.468 98.9335L261.726 99.8994H261.726L261.468 98.9335ZM259.95 105.552L258.965 105.382L259.95 105.552ZM258.999 110.21L258.133 109.71L258.999 110.21ZM234.999 106.264L235.584 105.452L234.999 106.264ZM224.507 99.875L223.697 99.2873L223.004 100.242L224.059 100.769L224.507 99.875ZM224.798 99.4577L225.63 100.012L225.739 99.8478L225.778 99.6538L224.798 99.4577ZM226.03 93.2969L225.972 92.2985L225.201 92.343L225.049 93.1008L226.03 93.2969ZM247.144 79.011L247.212 78.0134L246.671 77.9762L246.345 78.4096L247.144 79.011ZM257.547 67.834L256.953 68.6387L257.547 67.834ZM255.169 66.7196L255.274 65.7251L254.801 65.6752L254.464 66.0102L255.169 66.7196ZM254.192 67.6904L253.304 67.2313L254.897 68.3997L254.192 67.6904ZM257.758 59.8015L258.692 60.1587L258.701 60.1357L258.709 60.1123L257.758 59.8015ZM256.728 25.2955L255.987 25.9662L256.728 25.2955ZM216.025 37.33L215.332 36.6096L215.208 36.7289L215.131 36.8828L216.025 37.33ZM211.861 48.8036L210.98 49.2772L212.2 51.545L212.831 49.0486L211.861 48.8036ZM211.782 48.6568L210.852 49.0231L210.873 49.0782L210.901 49.1304L211.782 48.6568ZM209.69 63.0005L209.154 63.8447L209.841 64.2809L210.408 63.697L209.69 63.0005ZM209.76 62.928L210.759 62.9772L210.89 60.3288L209.043 62.2316L209.76 62.928ZM212.725 83.9467L212.172 84.7802L214.966 86.6328L213.644 83.5522L212.725 83.9467ZM212.052 83.5005L212.604 82.6671L211.728 82.0857L211.191 82.9909L212.052 83.5005ZM206.526 92.83L205.665 92.3203L205.453 92.6783L205.558 93.0809L206.526 92.83ZM206.83 93.8442L206.634 94.8247L208.329 95.1649L207.778 93.526L206.83 93.8442ZM206.499 93.7785L206.307 94.7597L206.307 94.7598L206.499 93.7785ZM197.499 92.5005L197.593 91.5049L197.499 92.5005ZM181.037 93.9918L181.285 94.9607H181.285L181.037 93.9918ZM179.956 93.6074L180.767 93.0213L179.956 93.6074ZM169.842 76.6332L168.863 76.4327H168.863L169.842 76.6332ZM174.417 73.2926L173.911 72.4301H173.911L174.417 73.2926ZM178.989 69.7899L179.955 69.5311L178.989 69.7899ZM172.549 70.0019L172.701 70.9902H172.701L172.549 70.0019ZM167.079 70.4191L166.579 71.2851H166.579L167.079 70.4191ZM164.272 46.2816L163.406 45.7816H163.406L164.272 46.2816ZM174.607 42.2782L174.907 43.232L174.607 42.2782ZM269.893 35.2077C264.548 27.3687 257.051 20.9483 248.173 18.1406C239.262 15.3227 229.058 16.177 218.424 22.7269L219.473 24.4298C229.644 18.1653 239.248 17.4157 247.57 20.0476C255.925 22.6897 263.085 28.7729 268.241 36.3344L269.893 35.2077ZM272.996 66.0863C274.525 58.5619 277.15 45.8503 269.893 35.2077L268.241 36.3344C274.957 46.1835 272.589 58.0428 271.036 65.6881L272.996 66.0863ZM272.263 70.0812C272.401 69.0139 272.672 67.6783 272.996 66.0863L271.036 65.6881C270.717 67.2544 270.429 68.67 270.28 69.8243L272.263 70.0812ZM275.284 90.8406C274.512 87.061 273.634 82.7647 273.011 78.9376C272.379 75.0611 272.038 71.8224 272.263 70.0812L270.28 69.8243C270.01 71.9043 270.414 75.4345 271.037 79.2591C271.668 83.1331 272.554 87.4702 273.324 91.2409L275.284 90.8406ZM275.29 90.8766L275.29 90.8763L273.318 91.2051L273.318 91.2054L275.29 90.8766ZM276.775 101.42C276.88 101.239 276.92 101.057 276.939 100.946C276.96 100.821 276.968 100.695 276.971 100.579C276.976 100.347 276.96 100.076 276.931 99.7856C276.874 99.2012 276.758 98.4392 276.603 97.5549C276.293 95.7822 275.812 93.4284 275.284 90.8408L273.324 91.2412C273.855 93.8399 274.329 96.1613 274.633 97.8994C274.786 98.7706 274.891 99.4729 274.941 99.9802C274.966 100.236 274.974 100.417 274.971 100.534C274.97 100.593 274.966 100.616 274.967 100.612C274.967 100.61 274.97 100.592 274.979 100.564C274.988 100.537 275.006 100.484 275.043 100.42L276.775 101.42ZM263.664 107.13C263.986 107.316 264.332 107.306 264.48 107.299C264.68 107.289 264.893 107.253 265.1 107.208C265.517 107.117 266.03 106.96 266.587 106.767C267.707 106.378 269.108 105.804 270.492 105.178C271.876 104.552 273.268 103.865 274.369 103.245C274.918 102.936 275.412 102.635 275.801 102.36C275.996 102.223 276.178 102.082 276.334 101.942C276.477 101.812 276.651 101.635 276.775 101.42L275.043 100.42C275.073 100.368 275.08 100.379 274.992 100.458C274.916 100.527 274.803 100.617 274.647 100.727C274.336 100.947 273.908 101.21 273.389 101.502C272.353 102.084 271.018 102.745 269.668 103.355C268.318 103.966 266.976 104.515 265.931 104.878C265.405 105.06 264.978 105.187 264.673 105.254C264.518 105.288 264.424 105.299 264.38 105.302C264.284 105.306 264.449 105.274 264.664 105.398L263.664 107.13ZM261.781 102.601C262.019 103.489 262.273 104.438 262.524 105.196C262.649 105.574 262.783 105.935 262.927 106.233C262.998 106.381 263.083 106.536 263.184 106.677C263.275 106.805 263.43 106.995 263.664 107.13L264.664 105.398C264.789 105.47 264.834 105.546 264.813 105.517C264.801 105.5 264.772 105.453 264.728 105.363C264.64 105.181 264.537 104.915 264.422 104.567C264.193 103.876 263.956 102.989 263.713 102.084L261.781 102.601ZM261.726 99.8994C261.301 100.013 261.005 99.7896 260.933 99.7242C260.859 99.6576 260.843 99.613 260.872 99.6652C260.923 99.7561 261.004 99.9443 261.108 100.253C261.312 100.854 261.538 101.693 261.781 102.601L263.713 102.084C263.476 101.199 263.232 100.288 263.002 99.6099C262.89 99.2788 262.762 98.9452 262.616 98.6857C262.547 98.5627 262.435 98.3856 262.269 98.2362C262.104 98.0879 261.719 97.8308 261.209 97.9676L261.726 99.8994ZM260.936 105.722C261.201 104.183 261.479 102.575 261.738 101.338C261.869 100.716 261.989 100.217 262.094 99.8767C262.148 99.7021 262.187 99.6069 262.206 99.5685C262.216 99.5479 262.204 99.5773 262.164 99.6264C262.138 99.6578 261.999 99.8265 261.726 99.8994L261.209 97.9676C260.887 98.0537 260.697 98.2618 260.619 98.3567C260.526 98.4694 260.461 98.5867 260.416 98.6765C260.325 98.8588 260.249 99.0742 260.183 99.2855C260.05 99.7175 259.914 100.291 259.781 100.927C259.512 102.207 259.228 103.855 258.965 105.382L260.936 105.722ZM259.865 110.71C260.001 110.474 260.091 110.135 260.153 109.884C260.228 109.581 260.307 109.202 260.39 108.778C260.556 107.927 260.743 106.842 260.936 105.722L258.965 105.382C258.77 106.51 258.587 107.571 258.427 108.396C258.346 108.809 258.274 109.149 258.211 109.403C258.136 109.709 258.102 109.762 258.133 109.71L259.865 110.71ZM244.655 114.053C244.935 114.214 245.252 114.236 245.39 114.244C245.584 114.255 245.807 114.25 246.038 114.236C246.503 114.209 247.095 114.14 247.757 114.044C249.084 113.852 250.763 113.541 252.422 113.189C254.08 112.837 255.738 112.439 257.022 112.072C257.66 111.889 258.227 111.708 258.661 111.538C258.876 111.453 259.083 111.362 259.258 111.264C259.346 111.215 259.444 111.154 259.538 111.08C259.622 111.013 259.759 110.892 259.865 110.71L258.133 109.71C258.207 109.581 258.289 109.518 258.297 109.512C258.314 109.498 258.314 109.501 258.282 109.519C258.219 109.554 258.106 109.607 257.931 109.676C257.583 109.812 257.086 109.973 256.471 110.149C255.248 110.499 253.638 110.886 252.007 111.232C250.375 111.579 248.741 111.881 247.47 112.065C246.832 112.157 246.303 112.217 245.919 112.24C245.725 112.251 245.59 112.252 245.506 112.247C245.366 112.239 245.484 112.222 245.655 112.321L244.655 114.053ZM234.414 107.075C234.88 107.411 237.215 109.025 239.528 110.608C241.818 112.176 244.179 113.778 244.655 114.053L245.655 112.321C245.266 112.096 243.002 110.563 240.658 108.958C238.336 107.368 236.025 105.771 235.584 105.452L234.414 107.075ZM224.059 100.769C227.473 102.477 230.916 104.553 234.414 107.075L235.584 105.452C232.002 102.87 228.467 100.739 224.954 98.9807L224.059 100.769ZM223.966 98.903C223.883 99.0274 223.793 99.1557 223.697 99.2873L225.316 100.463C225.426 100.311 225.53 100.161 225.63 100.012L223.966 98.903ZM225.049 93.1008L223.817 99.2616L225.778 99.6538L227.01 93.493L225.049 93.1008ZM246.345 78.4096C240.746 85.8468 233.721 91.8517 225.972 92.2985L226.087 94.2952C234.764 93.7949 242.266 87.1525 247.942 79.6125L246.345 78.4096ZM247.075 80.0087C252.149 80.3567 256.417 78.4633 258.722 75.8177C259.875 74.4945 260.58 72.9273 260.546 71.329C260.51 69.6961 259.706 68.184 258.141 67.0293L256.953 68.6387C258.083 69.4721 258.526 70.4336 258.546 71.3722C258.567 72.3453 258.135 73.4473 257.215 74.5037C255.373 76.6174 251.745 78.3243 247.212 78.0134L247.075 80.0087ZM258.141 67.0293C257.761 66.7489 257.276 66.4564 256.794 66.222C256.335 65.9985 255.777 65.7781 255.274 65.7251L255.064 67.7141C255.213 67.7298 255.517 67.825 255.92 68.0206C256.3 68.2054 256.678 68.4357 256.953 68.6387L258.141 67.0293ZM254.464 66.0102L253.487 66.981L254.897 68.3997L255.874 67.4289L254.464 66.0102ZM256.824 59.4444C255.965 61.6916 254.779 64.3761 253.304 67.2313L255.08 68.1494C256.588 65.2313 257.805 62.4788 258.692 60.1587L256.824 59.4444ZM255.987 25.9662C258.063 28.2625 259.208 31.4496 259.713 35.045C260.218 38.6331 260.072 42.5408 259.641 46.181C259.211 49.8158 258.501 53.1486 257.898 55.575C257.597 56.7871 257.323 57.7703 257.125 58.4487C257.026 58.7878 256.946 59.0505 256.891 59.2274C256.864 59.3159 256.843 59.3828 256.828 59.4271C256.821 59.4493 256.816 59.4658 256.813 59.4764C256.811 59.4818 256.81 59.4856 256.809 59.488C256.808 59.4892 256.808 59.4901 256.808 59.4905C256.808 59.4908 256.808 59.4908 256.808 59.4909C256.808 59.4909 256.808 59.4908 257.758 59.8015C258.709 60.1123 258.709 60.112 258.709 60.1116C258.709 60.1113 258.709 60.1108 258.71 60.1103C258.71 60.1093 258.71 60.1079 258.711 60.1061C258.712 60.1026 258.714 60.0975 258.716 60.0911C258.72 60.0781 258.726 60.0593 258.734 60.0347C258.749 59.9857 258.772 59.9138 258.801 59.8203C258.859 59.6334 258.943 59.3599 259.045 59.0094C259.25 58.3085 259.531 57.299 259.839 56.0574C260.456 53.5765 261.184 50.1578 261.627 46.416C262.069 42.6798 262.231 38.586 261.694 34.7667C261.158 30.9547 259.915 27.3286 257.47 24.6249L255.987 25.9662ZM216.025 37.33C216.719 38.0504 216.719 38.0504 216.719 38.0504C216.719 38.0503 216.719 38.0501 216.719 38.0498C216.72 38.0493 216.721 38.0483 216.722 38.0469C216.725 38.0442 216.73 38.0399 216.736 38.034C216.748 38.0222 216.767 38.0043 216.792 37.9803C216.843 37.9325 216.919 37.8608 217.019 37.7674C217.22 37.5806 217.518 37.3069 217.903 36.9627C218.672 36.2741 219.788 35.3044 221.169 34.1849C223.934 31.943 227.744 29.1142 231.947 26.7394C236.162 24.3571 240.699 22.474 244.932 22.0464C249.122 21.6229 252.965 22.6242 255.987 25.9662L257.47 24.6249C253.929 20.7083 249.402 19.5845 244.731 20.0565C240.1 20.5243 235.282 22.5572 230.963 24.9982C226.63 27.4466 222.725 30.3485 219.909 32.6313C218.5 33.7742 217.359 34.7654 216.569 35.4722C216.174 35.8257 215.866 36.1082 215.657 36.3032C215.552 36.4008 215.472 36.4764 215.417 36.5282C215.39 36.5541 215.369 36.574 215.354 36.5876C215.347 36.5944 215.342 36.5997 215.338 36.6034C215.336 36.6052 215.335 36.6067 215.334 36.6077C215.333 36.6082 215.332 36.6087 215.332 36.609C215.332 36.6093 215.332 36.6096 216.025 37.33ZM212.831 49.0486C213.852 45.0074 215.224 41.1688 216.92 37.7772L215.131 36.8828C213.36 40.4237 211.942 44.4014 210.892 48.5586L212.831 49.0486ZM210.901 49.1304L210.98 49.2772L212.742 48.33L212.663 48.1832L210.901 49.1304ZM206.552 47.0005C208.412 47.0005 209.49 47.5836 210.09 48.0919C210.399 48.3529 210.598 48.6092 210.717 48.7904C210.777 48.8809 210.815 48.952 210.837 48.9943C210.848 49.0154 210.854 49.0292 210.856 49.0345C210.857 49.0371 210.858 49.0376 210.857 49.0357C210.856 49.0348 210.856 49.0333 210.855 49.0312C210.855 49.0302 210.854 49.029 210.853 49.0276C210.853 49.027 210.853 49.0263 210.853 49.0255C210.852 49.0251 210.852 49.0245 210.852 49.0244C210.852 49.0238 210.852 49.0231 211.782 48.6568C212.713 48.2904 212.712 48.2898 212.712 48.2891C212.712 48.2889 212.712 48.2883 212.712 48.2878C212.711 48.2869 212.711 48.2859 212.71 48.2849C212.71 48.283 212.709 48.2808 212.708 48.2785C212.706 48.2738 212.704 48.2685 212.701 48.2626C212.696 48.2507 212.69 48.2363 212.683 48.2194C212.668 48.1858 212.647 48.1425 212.621 48.091C212.569 47.988 212.493 47.8516 212.389 47.6931C212.182 47.3762 211.858 46.9684 211.382 46.5654C210.414 45.7455 208.876 45.0005 206.552 45.0005V47.0005ZM210.226 62.1563C206.139 59.5611 203.7 55.5473 203.129 52.2766C202.843 50.637 203.043 49.3002 203.592 48.4138C204.107 47.5834 205.017 47.0005 206.552 47.0005V45.0005C204.428 45.0005 202.822 45.8586 201.892 47.3607C200.996 48.8068 200.823 50.694 201.159 52.6204C201.833 56.4816 204.623 60.9678 209.154 63.8447L210.226 62.1563ZM209.043 62.2316L208.973 62.3041L210.408 63.697L210.478 63.6245L209.043 62.2316ZM213.644 83.5522C211.317 78.1332 210.377 70.75 210.759 62.9772L208.762 62.8789C208.371 70.8298 209.318 78.546 211.806 84.3413L213.644 83.5522ZM211.499 84.334L212.172 84.7802L213.277 83.1133L212.604 82.6671L211.499 84.334ZM207.386 93.3396L212.912 84.0101L211.191 82.9909L205.665 92.3203L207.386 93.3396ZM207.778 93.526C207.664 93.186 207.569 92.8693 207.494 92.579L205.558 93.0809C205.647 93.425 205.756 93.7873 205.882 94.1624L207.778 93.526ZM206.307 94.7598C206.416 94.7811 206.525 94.8028 206.634 94.8247L207.027 92.8638C206.915 92.8413 206.804 92.8192 206.692 92.7972L206.307 94.7598ZM197.406 93.4961C200.4 93.7767 203.361 94.1816 206.307 94.7597L206.692 92.7972C203.671 92.2042 200.643 91.7907 197.593 91.5049L197.406 93.4961ZM181.285 94.9607C183.424 94.4148 190.409 92.8405 197.406 93.4961L197.593 91.5049C190.248 90.8166 182.993 92.4606 180.79 93.0228L181.285 94.9607ZM179.146 94.1935C179.64 94.8762 180.493 95.1626 181.285 94.9607L180.79 93.0228C180.78 93.0253 180.773 93.0241 180.769 93.0228C180.769 93.0225 180.768 93.0222 180.768 93.022C180.767 93.0218 180.767 93.0216 180.767 93.0216C180.767 93.0216 180.767 93.0216 180.767 93.0216C180.767 93.0217 180.767 93.0217 180.767 93.0217C180.767 93.0218 180.767 93.0217 180.767 93.0213L179.146 94.1935ZM168.863 76.4327C168.801 76.7335 168.863 77.0222 168.902 77.176C168.95 77.3686 169.022 77.5784 169.106 77.792C169.275 78.2218 169.526 78.7541 169.832 79.3535C170.447 80.5573 171.326 82.1075 172.34 83.7982C174.368 87.1809 176.967 91.181 179.146 94.1935L180.767 93.0213C178.628 90.0644 176.06 86.1138 174.055 82.7699C173.053 81.0973 172.199 79.5902 171.613 78.4435C171.319 77.8676 171.102 77.4013 170.967 77.0594C170.899 76.887 170.861 76.7676 170.843 76.694C170.815 76.5815 170.856 76.667 170.822 76.8337L168.863 76.4327ZM173.911 72.4301C172.815 73.0731 171.676 73.7408 170.793 74.3441C170.353 74.6451 169.945 74.9512 169.627 75.2494C169.355 75.5042 168.969 75.9121 168.863 76.4327L170.822 76.8337C170.792 76.9813 170.74 76.9474 170.994 76.7086C171.203 76.5133 171.514 76.2741 171.922 75.9953C172.736 75.4392 173.808 74.8095 174.923 74.1551L173.911 72.4301ZM178.023 70.0487C177.965 69.8305 178.032 69.6778 178.042 69.6577C178.05 69.6392 178.037 69.6725 177.956 69.7601C177.795 69.9342 177.51 70.1707 177.091 70.4655C176.264 71.0487 175.114 71.724 173.911 72.4301L174.923 74.1551C176.101 73.464 177.332 72.7422 178.243 72.1004C178.694 71.7826 179.117 71.4498 179.424 71.119C179.576 70.9541 179.736 70.7512 179.848 70.5152C179.961 70.2777 180.061 69.9265 179.955 69.5311L178.023 70.0487ZM172.701 70.9902C174.239 70.7527 175.754 70.5195 176.909 70.4349C177.494 70.3921 177.922 70.3931 178.189 70.4303C178.326 70.4493 178.354 70.4694 178.324 70.4543C178.287 70.4353 178.097 70.3222 178.023 70.0487L179.955 69.5311C179.832 69.0698 179.497 68.8076 179.235 68.6736C178.98 68.5434 178.702 68.4824 178.464 68.4493C177.981 68.3822 177.382 68.395 176.763 68.4403C175.51 68.532 173.905 68.7805 172.396 69.0137L172.701 70.9902ZM166.579 71.2851C166.799 71.412 167.032 71.4692 167.212 71.4997C167.404 71.5322 167.608 71.5462 167.81 71.5501C168.214 71.558 168.692 71.527 169.198 71.4763C170.214 71.3747 171.465 71.1812 172.701 70.9902L172.396 69.0137C171.142 69.2074 169.95 69.3911 168.999 69.4863C168.523 69.5339 168.137 69.5561 167.849 69.5505C167.706 69.5477 167.608 69.5382 167.547 69.5279C167.475 69.5156 167.505 69.5105 167.579 69.5531L166.579 71.2851ZM163.406 45.7816C163.233 46.0805 163.131 46.4358 163.062 46.7732C162.99 47.1246 162.942 47.5273 162.911 47.9623C162.848 48.8328 162.849 49.9019 162.896 51.0829C162.989 53.449 163.268 56.3464 163.634 59.1717C164 61.9979 164.455 64.7751 164.903 66.9027C165.126 67.9632 165.352 68.8834 165.57 69.5741C165.678 69.9168 165.793 70.2302 165.915 70.4852C165.976 70.6124 166.05 70.7472 166.138 70.8714C166.217 70.9827 166.359 71.158 166.579 71.2851L167.579 69.5531C167.655 69.597 167.704 69.6421 167.728 69.6665C167.753 69.6918 167.766 69.7093 167.767 69.7111C167.768 69.7125 167.751 69.6876 167.719 69.6208C167.655 69.4875 167.573 69.2749 167.478 68.9722C167.288 68.3723 167.078 67.525 166.86 66.4904C166.426 64.4278 165.979 61.7047 165.617 58.915C165.256 56.1245 164.984 53.2905 164.894 51.0044C164.849 49.8594 164.851 48.8722 164.906 48.1055C164.933 47.722 164.973 47.4109 165.022 47.1719C165.073 46.919 165.123 46.8074 165.138 46.7816L163.406 45.7816ZM174.306 41.3245C171.366 42.2512 168.887 43.0323 167.079 43.6968C166.177 44.0285 165.41 44.3425 164.823 44.6429C164.53 44.7931 164.259 44.9512 164.031 45.1195C163.815 45.2792 163.571 45.4954 163.406 45.7816L165.138 46.7816C165.104 46.8399 165.098 46.8182 165.219 46.7287C165.328 46.6479 165.496 46.5456 165.735 46.4231C166.214 46.178 166.891 45.8967 167.769 45.574C169.523 44.9295 171.948 44.1647 174.907 43.232L174.306 41.3245ZM218.424 22.7269C202.84 32.326 185.229 37.8814 174.306 41.3245L174.907 43.232C185.813 39.7944 203.65 34.1761 219.473 24.4298L218.424 22.7269Z" fill="black"/>
<path d="M223.767 93.2775C240.248 94.5135 253.295 71.4752 257.758 59.8015C257.758 59.8015 265.77 35.2955 256.728 25.2955C243.602 10.7783 216.025 37.33 216.025 37.33C206.025 57.33 207.287 92.0415 223.767 93.2775Z" stroke="black" stroke-width="2" stroke-linecap="round" stroke-linejoin="round"/>
<path d="M232.007 80.4023C230.118 81.2607 225.827 81.6384 223.767 76.2822" stroke="black" stroke-width="2" stroke-linecap="round" stroke-linejoin="round"/>
<path d="M245.913 63.407C245.913 63.407 244.368 70.1022 242.823 69.5872C241.587 68.7631 244.368 65.1237 245.913 63.407Z" fill="black"/>
<path d="M251.578 62.377C250.891 62.892 248.797 63.819 245.913 63.407M245.913 63.407C245.913 63.407 244.368 70.1022 242.823 69.5872C241.587 68.7631 244.368 65.1237 245.913 63.407Z" stroke="black" stroke-width="2" stroke-linecap="round" stroke-linejoin="round"/>
<path d="M229.432 55.6814C229.432 55.6814 227.887 62.3766 226.342 61.8616C225.106 61.0376 227.887 57.3981 229.432 55.6814Z" fill="black"/>
<path d="M235.098 54.6514C234.411 55.1664 232.317 56.0934 229.432 55.6814M229.432 55.6814C229.432 55.6814 227.887 62.3766 226.342 61.8616C225.106 61.0376 227.887 57.3981 229.432 55.6814Z" stroke="black" stroke-width="2" stroke-linecap="round" stroke-linejoin="round"/>
<path d="M251.578 48.4717C248.145 48.1283 239.321 52.1798 231.493 71.1323" stroke="black" stroke-width="2" stroke-linecap="round" stroke-linejoin="round"/>
<path d="M236.198 49.5236C235.227 49.0381 232.484 48.4311 229.279 49.8878" stroke="black" stroke-width="2" stroke-linecap="round"/>
<path d="M254.597 53.6802C253.785 52.9598 251.292 51.6635 247.819 52.2411" stroke="black" stroke-width="2" stroke-linecap="round"/>
<path d="M226.027 44.3293C224.83 44.65 211.792 44.4819 206.526 41.6802C205.978 41.3886 205.938 40.6676 206.374 40.2262C213.066 33.4614 229.083 11.1166 252.527 20.8293C273.294 29.433 264.895 61.0547 263.585 60.9761C262.276 60.8976 249.551 54.2091 248.027 53.3293C247.254 52.883 247.338 49.5319 247.581 46.2065C247.661 45.1087 245.904 44.5277 245.267 45.4251C243.618 47.7461 241.911 49.8167 241.667 49.6758C241.159 49.3825 230.843 46.1358 230.336 45.8425C230.108 45.7109 230.321 43.5605 230.648 41.116C230.796 40.0126 229.398 39.546 228.854 40.5168C227.779 42.432 226.681 44.1542 226.027 44.3293Z" fill="black" stroke="black" stroke-width="2" stroke-linecap="round"/>
<path d="M257.76 59.8008C253.296 71.4745 240.249 94.5128 223.769 93.2768" stroke="black" stroke-width="2" stroke-linecap="round" stroke-linejoin="round"/>
<path d="M206.5 93.951C201.927 92.9253 196.982 92.3301 191.526 92.3301C150.014 92.33 135.026 183.83 136.526 187.83C138.026 191.83 147.526 198.33 168.526 202.83C189.526 207.33 208.526 203.83 212.526 201.33C216.526 198.83 211.526 179.33 211.526 168.83C211.526 160.43 218.193 143.663 222.026 138.83C248.026 146.83 297.84 150.225 317.026 143.83C321.526 142.33 323.526 128.33 321.526 126.83C319.526 125.33 299.526 127.83 270.026 122.33C251.602 118.895 239.224 108.049 224 100.389" stroke="black" stroke-width="2" stroke-linecap="round" stroke-linejoin="round"/>
<path d="M363.301 77.8026L373.895 76.4004" stroke="black" stroke-width="2" stroke-linecap="round" stroke-linejoin="round"/>
<path d="M385.155 57.9998L357.845 68.2375" stroke="black" stroke-width="2" stroke-linecap="round" stroke-linejoin="round"/>
</svg>
