<svg width="570" height="370" viewBox="0 0 570 370" fill="none" xmlns="http://www.w3.org/2000/svg">
<path d="M235.44 25.1504C236.544 25.1504 245.858 48.1005 250.645 60.2517C250.817 60.689 251.226 60.9739 251.695 61.0134C257.362 61.4913 286.181 65.6741 287.066 66.551C287.804 67.2824 269.26 82.7516 259.415 90.7904C259.096 91.0503 258.947 91.4492 259.015 91.8546C260.756 102.279 263.764 121.907 262.661 121.907C261.566 121.907 243.533 107.55 233.904 99.7689C233.443 99.3968 232.777 99.4392 232.365 99.8639C224.639 107.817 210.248 122.267 209.157 121.907C208.048 121.54 208.668 101.007 209.135 90.3085C209.149 89.9861 209.032 89.6854 208.802 89.4581C201.342 82.0552 187.098 67.6497 187.098 66.551C187.098 65.4568 209.039 62.4859 220.664 61.0542C221.095 61.0012 221.448 60.7184 221.593 60.3094C225.897 48.1733 234.333 25.1504 235.44 25.1504Z" fill="#2F62F6" stroke="#2F62F6" stroke-width="2" stroke-linecap="round" stroke-linejoin="round"/>
<path fill-rule="evenodd" clip-rule="evenodd" d="M351.949 59.2953C356.888 46.7453 366.514 23 367.654 23C368.797 23 377.515 46.8183 381.955 59.3531C382.1 59.7622 382.453 60.0447 382.884 60.0978C394.878 61.5761 417.555 64.6492 417.555 65.7806C417.555 66.9166 402.836 81.8172 395.139 89.4633C394.91 89.6905 394.792 89.9907 394.807 90.3128C395.289 101.363 395.93 122.603 394.785 122.982C393.657 123.354 378.774 108.392 370.805 100.18C370.392 99.7543 369.727 99.7119 369.266 100.085C366.564 102.271 363.217 104.962 359.753 107.721C361.575 100.696 362.5 95.0347 361.11 95.0347C358.099 95.0347 351.792 109.908 349.821 115.462L349.809 115.56C344.368 119.787 340.079 122.982 339.555 122.982C338.416 122.982 341.525 102.671 343.322 91.9051C343.39 91.5 343.241 91.102 342.923 90.8421C332.765 82.5394 313.601 66.5369 314.363 65.7806C315.278 64.8731 345.117 60.5389 350.902 60.0561C351.371 60.017 351.776 59.7328 351.949 59.2953Z" fill="#2F62F6"/>
<path d="M351.949 59.2953L352.879 59.6615L351.949 59.2953ZM381.955 59.3531L382.898 59.0192L381.955 59.3531ZM382.884 60.0978L382.761 61.0903L382.884 60.0978ZM395.139 89.4633L394.434 88.7538H394.434L395.139 89.4633ZM394.807 90.3128L393.807 90.3564V90.3564L394.807 90.3128ZM394.785 122.982L394.471 122.032L394.785 122.982ZM370.805 100.18L371.522 99.4831L371.522 99.4831L370.805 100.18ZM369.266 100.085L368.637 99.3071H368.637L369.266 100.085ZM359.753 107.721L358.785 107.47C358.677 107.887 358.848 108.326 359.209 108.56C359.569 108.794 360.04 108.772 360.376 108.503L359.753 107.721ZM349.821 115.462L348.878 115.128C348.854 115.196 348.837 115.267 348.828 115.338L349.821 115.462ZM349.809 115.56L350.422 116.35C350.632 116.187 350.768 115.947 350.801 115.684L349.809 115.56ZM343.322 91.9051L342.336 91.7405L343.322 91.9051ZM342.923 90.8421L343.556 90.0678L342.923 90.8421ZM314.363 65.7806L313.659 65.0707H313.659L314.363 65.7806ZM350.902 60.0561L350.985 61.0527H350.985L350.902 60.0561ZM367.654 22C367.231 22 366.946 22.2444 366.865 22.3157C366.74 22.425 366.633 22.5527 366.548 22.6651C366.373 22.8953 366.183 23.2021 365.985 23.5516C365.583 24.2591 365.082 25.2632 364.509 26.4805C363.36 28.9215 361.889 32.2969 360.305 36.0527C357.134 43.5681 353.489 52.6501 351.018 58.9291L352.879 59.6615C355.347 53.3905 358.985 44.3249 362.147 36.8301C363.729 33.0808 365.187 29.7355 366.318 27.3321C366.886 26.1272 367.362 25.1781 367.724 24.538C367.908 24.2137 368.047 23.9981 368.141 23.8744C368.19 23.8098 368.202 23.8026 368.181 23.8213C368.17 23.8313 368.128 23.8668 368.058 23.9034C367.991 23.9383 367.85 24 367.654 24V22ZM382.898 59.0192C380.676 52.7477 377.384 43.6509 374.502 36.1187C373.062 32.3546 371.72 28.97 370.665 26.5215C370.138 25.3007 369.674 24.2925 369.299 23.5814C369.114 23.2304 368.934 22.9204 368.766 22.6866C368.684 22.5726 368.58 22.4411 368.455 22.3278C368.371 22.2519 368.085 22 367.654 22V24C367.457 24 367.313 23.9371 367.242 23.8992C367.169 23.86 367.125 23.8216 367.112 23.8096C367.087 23.7872 367.097 23.791 367.143 23.8545C367.23 23.9757 367.359 24.1897 367.53 24.5144C367.868 25.1549 368.307 26.1055 368.828 27.3134C369.867 29.7226 371.197 33.076 372.634 36.8333C375.507 44.344 378.794 53.4238 381.012 59.687L382.898 59.0192ZM383.006 59.1053C382.973 59.1013 382.952 59.0901 382.938 59.0787C382.923 59.0672 382.908 59.0493 382.898 59.0192L381.012 59.687C381.284 60.4546 381.956 60.991 382.761 61.0903L383.006 59.1053ZM418.555 65.7806C418.555 65.3183 418.275 65.0306 418.159 64.9265C418.02 64.801 417.866 64.7131 417.746 64.6532C417.5 64.5292 417.185 64.4179 416.847 64.3153C416.157 64.1061 415.188 63.88 414.023 63.6433C411.685 63.168 408.456 62.6286 404.868 62.0808C397.686 60.9843 389.008 59.8451 383.006 59.1053L382.761 61.0903C388.754 61.8289 397.411 62.9654 404.566 64.0578C408.146 64.6045 411.336 65.1379 413.625 65.6032C414.774 65.8368 415.669 66.048 416.267 66.2292C416.572 66.3218 416.756 66.3939 416.848 66.4399C416.898 66.465 416.872 66.4587 416.819 66.4114C416.791 66.3853 416.555 66.1721 416.555 65.7806H418.555ZM395.843 90.1727C399.695 86.3468 405.305 80.7044 409.954 75.8741C412.277 73.4602 414.367 71.2418 415.88 69.5519C416.634 68.7089 417.256 67.9851 417.693 67.4288C417.91 67.1527 418.096 66.8999 418.233 66.6843C418.3 66.5775 418.368 66.4602 418.422 66.3408C418.464 66.2499 418.555 66.0389 418.555 65.7806H416.555C416.555 65.6718 416.575 65.5938 416.584 65.5642C416.589 65.546 416.594 65.5327 416.597 65.5251C416.6 65.5173 416.602 65.5131 416.602 65.5127C416.602 65.5126 416.598 65.5214 416.587 65.5405C416.577 65.5592 416.562 65.5839 416.542 65.6152C416.459 65.7464 416.322 65.9377 416.121 66.1927C415.723 66.6986 415.135 67.385 414.389 68.2181C412.902 69.8806 410.831 72.0782 408.513 74.4872C403.878 79.3027 398.28 84.9336 394.434 88.7538L395.843 90.1727ZM395.806 90.2692C395.804 90.2282 395.814 90.2015 395.843 90.1727L394.434 88.7538C394.005 89.1795 393.781 89.7531 393.807 90.3564L395.806 90.2692ZM395.099 123.931C395.46 123.812 395.653 123.547 395.734 123.417C395.828 123.268 395.889 123.11 395.93 122.982C396.015 122.722 396.076 122.402 396.124 122.064C396.222 121.375 396.291 120.431 396.338 119.313C396.433 117.069 396.445 114.011 396.406 110.637C396.328 103.884 396.047 95.7997 395.806 90.2692L393.807 90.3564C394.048 95.8756 394.329 103.936 394.406 110.66C394.445 114.025 394.432 117.039 394.34 119.229C394.294 120.329 394.228 121.193 394.144 121.781C394.101 122.081 394.059 122.267 394.028 122.365C394.011 122.416 394.011 122.401 394.039 122.355C394.056 122.329 394.181 122.128 394.471 122.032L395.099 123.931ZM370.087 100.876C374.075 104.986 379.796 110.787 384.663 115.517C387.096 117.881 389.325 119.986 391.022 121.481C391.867 122.226 392.599 122.836 393.166 123.252C393.445 123.457 393.713 123.637 393.951 123.762C394.068 123.824 394.21 123.89 394.364 123.934C394.489 123.969 394.775 124.038 395.099 123.931L394.471 122.032C394.723 121.949 394.913 122.01 394.915 122.011C394.945 122.02 394.939 122.022 394.883 121.993C394.775 121.936 394.6 121.824 394.349 121.64C393.855 121.277 393.177 120.714 392.344 119.981C390.684 118.518 388.483 116.44 386.057 114.083C381.209 109.372 375.504 103.586 371.522 99.4831L370.087 100.876ZM369.895 100.862C369.95 100.817 370.032 100.819 370.087 100.876L371.522 99.4831C370.752 98.6894 369.503 98.6065 368.637 99.3071L369.895 100.862ZM360.376 108.503C363.842 105.742 367.191 103.049 369.895 100.862L368.637 99.3071C365.937 101.492 362.592 104.181 359.13 106.939L360.376 108.503ZM361.11 96.0347C360.864 96.0347 360.711 95.8763 360.675 95.8175C360.668 95.8064 360.715 95.8883 360.748 96.1533C360.812 96.6661 360.784 97.4923 360.643 98.6199C360.366 100.848 359.693 103.97 358.785 107.47L360.721 107.972C361.635 104.447 362.335 101.225 362.628 98.8668C362.773 97.701 362.829 96.6728 362.733 95.9046C362.686 95.5291 362.591 95.1139 362.376 94.7658C362.131 94.37 361.703 94.0347 361.11 94.0347V96.0347ZM350.763 115.797C351.737 113.053 353.791 107.984 355.971 103.612C357.062 101.422 358.168 99.4416 359.17 98.022C359.673 97.3094 360.125 96.7746 360.51 96.4282C360.929 96.0516 361.118 96.0347 361.11 96.0347V94.0347C360.349 94.0347 359.683 94.4825 359.173 94.9409C358.629 95.4297 358.079 96.1002 357.536 96.8687C356.447 98.4113 355.288 100.497 354.181 102.719C351.961 107.172 349.876 112.317 348.878 115.128L350.763 115.797ZM350.801 115.684L350.813 115.586L348.828 115.338L348.816 115.436L350.801 115.684ZM339.555 123.982C339.788 123.982 339.985 123.906 340.066 123.874C340.177 123.83 340.29 123.774 340.396 123.717C340.611 123.602 340.87 123.443 341.159 123.254C341.742 122.874 342.515 122.331 343.428 121.664C345.258 120.328 347.7 118.465 350.422 116.35L349.195 114.77C346.477 116.882 344.054 118.73 342.249 120.048C341.344 120.709 340.606 121.228 340.067 121.579C339.796 121.755 339.592 121.879 339.45 121.955C339.378 121.993 339.34 122.01 339.328 122.015C339.286 122.032 339.387 121.982 339.555 121.982V123.982ZM342.336 91.7405C341.437 97.1289 340.208 104.91 339.346 111.348C338.916 114.564 338.575 117.462 338.413 119.563C338.333 120.608 338.294 121.489 338.317 122.123C338.328 122.43 338.354 122.742 338.422 123.003C338.454 123.126 338.515 123.319 338.645 123.501C338.785 123.7 339.085 123.982 339.555 123.982V121.982C339.954 121.982 340.191 122.224 340.276 122.345C340.351 122.45 340.365 122.527 340.358 122.499C340.347 122.457 340.325 122.322 340.315 122.052C340.297 121.534 340.328 120.744 340.407 119.717C340.564 117.673 340.899 114.821 341.329 111.613C342.186 105.205 343.411 97.4474 344.309 92.0698L342.336 91.7405ZM342.29 91.6164C342.313 91.6352 342.325 91.6539 342.331 91.6701C342.337 91.6865 342.341 91.7093 342.336 91.7405L344.309 92.0698C344.435 91.3132 344.153 90.5561 343.556 90.0678L342.29 91.6164ZM313.659 65.0707C313.242 65.4839 313.34 65.9965 313.383 66.1558C313.436 66.3514 313.531 66.5175 313.6 66.6273C313.747 66.8619 313.965 67.1275 314.209 67.4009C314.71 67.9605 315.462 68.7042 316.391 69.5768C318.255 71.3285 320.91 73.6707 323.895 76.2395C329.87 81.3801 337.208 87.4623 342.29 91.6164L343.556 90.0678C338.48 85.9192 331.157 79.8488 325.2 74.7234C322.22 72.1592 319.592 69.84 317.76 68.1191C316.841 67.2554 316.141 66.5599 315.7 66.0672C315.474 65.8144 315.348 65.6506 315.293 65.5636C315.261 65.5126 315.29 65.5449 315.314 65.6351C315.329 65.689 315.436 66.1245 315.067 66.4905L313.659 65.0707ZM350.819 59.0596C347.887 59.3042 338.947 60.514 330.656 61.7704C326.504 62.3996 322.497 63.0431 319.468 63.5869C317.955 63.8585 316.675 64.1072 315.738 64.3184C315.272 64.4235 314.875 64.5229 314.571 64.6149C314.42 64.6604 314.274 64.7096 314.147 64.7628C314.06 64.799 313.839 64.8922 313.659 65.0707L315.067 66.4905C314.944 66.6123 314.837 66.642 314.917 66.6086C314.956 66.5922 315.03 66.5654 315.15 66.5292C315.386 66.4578 315.73 66.3705 316.178 66.2694C317.071 66.0679 318.318 65.8253 319.821 65.5554C322.825 65.0163 326.811 64.3759 330.956 63.7478C339.259 62.4895 348.132 61.2908 350.985 61.0527L350.819 59.0596ZM351.018 58.9291C350.994 58.9894 350.933 59.0501 350.819 59.0596L350.985 61.0527C351.808 60.984 352.559 60.4762 352.879 59.6615L351.018 58.9291Z" fill="#2F62F6"/>
<path d="M351.971 131.052C356.271 121.591 364.12 95.0352 361.109 95.0352C358.099 95.0352 351.471 110.946 349.5 116.5" stroke="black" stroke-width="2" stroke-linecap="round" stroke-linejoin="round"/>
<path d="M361.11 111.162C363.977 111.7 367.668 116.86 359.497 133.203" stroke="black" stroke-width="2" stroke-linecap="round" stroke-linejoin="round"/>
<path d="M365.948 115.486C368.815 115.128 373.044 118.819 367.023 136.451" stroke="black" stroke-width="2" stroke-linecap="round" stroke-linejoin="round"/>
<path d="M372.399 121.913C374.37 123.167 378.85 129.439 372.399 140.191C367.059 149.091 359.497 152.555 358.422 158.468" stroke="black" stroke-width="2" stroke-linecap="round" stroke-linejoin="round"/>
<path d="M157.727 364C163.85 331.573 177.644 313.241 185.323 307.376C185.323 307.376 195 303.613 212.74 303.613C238.543 303.613 247.682 308.989 247.682 308.989C251.884 315.738 259.18 332.168 263.36 355" stroke="black" stroke-width="2" stroke-linecap="round" stroke-linejoin="round"/>
<path d="M184.786 307.376C183.711 306.301 177.26 289.099 162.208 253.619" stroke="black" stroke-width="2" stroke-linecap="round" stroke-linejoin="round"/>
<path d="M127.266 265.445C156.832 284.26 168.659 299.85 168.659 299.85C166.078 305.011 166.509 312.393 167.046 315.44C141.422 312.393 89.9582 300.495 89.0981 277.272C88.238 254.049 141.78 218.139 168.659 203.087C172.422 199.861 198.763 203.087 208.977 200.399C217.148 198.249 220.266 194.486 220.804 192.873C233.347 193.052 269.723 202.549 300.902 220.827" stroke="black" stroke-width="2" stroke-linecap="round" stroke-linejoin="round"/>
<path d="M142.855 276.197C148.59 272.075 160.81 263.51 163.821 262.22" stroke="black" stroke-width="2" stroke-linecap="round" stroke-linejoin="round"/>
<path d="M169.196 300.925C171.526 300.208 176.937 298.989 179.948 299.85" stroke="black" stroke-width="2" stroke-linecap="round" stroke-linejoin="round"/>
<path d="M167.046 314.364C168.479 314.902 171.992 316.622 174.572 319.202" stroke="black" stroke-width="2" stroke-linecap="round" stroke-linejoin="round"/>
<path d="M246.069 240.717C266.318 244.838 308.858 252.651 317.029 250.93C325.2 249.21 354.121 193.41 359.497 163.844C354.659 161.872 340.144 157.178 337.994 158.468C335.844 159.758 310.399 198.607 296.601 217.601" stroke="black" stroke-width="2" stroke-linecap="round" stroke-linejoin="round"/>
<path d="M256.821 243.404C260.147 260.423 253.541 287.247 248.22 309.526" stroke="black" stroke-width="2" stroke-linecap="round" stroke-linejoin="round"/>
<path d="M341.811 157.393C342.342 154.008 331.179 138.773 335.963 129.745C338.954 124.102 346.595 125.231 346.595 125.231" stroke="black" stroke-width="2" stroke-linecap="round" stroke-linejoin="round"/>
<path d="M226.296 90.5196C228.469 104.559 221.096 115.104 211.93 122.541C212.185 123.814 212.285 125.362 212.185 127.252C211.553 139.114 200.135 152.691 194.381 153.961C200.692 162.674 212.231 180.003 210.527 198.92C208.823 217.837 203.006 234.441 190.043 244.022C165.036 262.504 128.727 251.175 113.464 238.458C101.513 228.501 88.2311 211.96 95.2462 181.98C98.797 166.805 112.758 163.295 112.758 163.295C112.758 163.295 109.789 153.346 114.421 144.837C120.606 133.475 131.942 132.841 131.942 132.841C131.942 132.841 129.432 123.001 136.018 114.756C142.605 106.511 151.964 107.518 151.964 107.518C151.964 107.518 159.297 90.1806 172.105 80.9979C206.402 56.4079 224.552 79.2455 226.296 90.5196Z" fill="black" stroke="black" stroke-width="2" stroke-linecap="round" stroke-linejoin="round"/>
<path d="M216.74 121.12C223.872 139.276 234.247 148.354 234.247 148.354C234.247 148.354 232.302 150.515 229.708 152.244C229.708 160.457 228.541 177.273 223.872 178.829C219.204 180.385 210.688 179.477 207.014 178.829" stroke="black" stroke-width="2" stroke-linecap="round" stroke-linejoin="round"/>
<path d="M213.59 135.867C213.59 135.867 221.159 143.421 219.287 144.818C217.249 145.584 214.64 139.17 213.59 135.867Z" fill="black"/>
<path d="M216.633 128.252C216.775 129.508 216.365 132.79 213.59 135.867M213.59 135.867C213.59 135.867 221.159 143.421 219.287 144.818C217.249 145.584 214.64 139.17 213.59 135.867Z" stroke="black" stroke-width="2" stroke-linecap="round" stroke-linejoin="round"/>
<path d="M216.092 163.268C217.023 164.283 220.142 166.212 225.17 165.806" stroke="black" stroke-width="2" stroke-linecap="round" stroke-linejoin="round"/>
<path d="M213.498 180.126C213.498 181.423 214.146 187.907 216.74 191.797" stroke="black" stroke-width="2" stroke-linecap="round" stroke-linejoin="round"/>
<path d="M510.727 67.3003C506.281 55.7588 497.121 32.6758 496.054 32.6758C495.007 32.6758 486.172 50.1285 482.059 61.6878C481.913 62.0981 481.557 62.3866 481.126 62.4445C470.119 63.9213 449.809 68.9419 449.809 69.9983C449.809 70.9857 469.536 86.3519 472.893 88.9595C473.201 89.1986 473.357 89.5468 473.322 89.9352C472.901 94.6765 470.167 125.875 471.153 126.207C472.184 126.555 485.766 112.642 493.096 104.945C493.511 104.51 494.189 104.469 494.652 104.851C503.788 112.383 520.808 126.207 521.844 126.207" stroke="black" stroke-width="2" stroke-linecap="round" stroke-linejoin="round"/>
<path d="M83.8007 58.4684C88.0373 48.2271 96.7736 27.6567 97.8255 27.3056C99.1403 26.8667 109.221 56.7128 111.412 58.4684C113.603 60.2241 143.844 66.8077 143.844 67.6855C143.844 68.5634 120.178 86.1199 120.178 86.9977C120.178 87.6432 122.893 107.622 124.58 119.937C124.724 120.988 123.48 121.647 122.683 120.948C114.608 113.866 101.607 102.799 100.017 102.799C98.2638 102.799 82.6319 116.259 75.0352 122.989" stroke="#2F62F6" stroke-width="2" stroke-linecap="round" stroke-linejoin="round"/>
<path d="M328.774 296.361C328.521 289.472 330.676 274.282 341.32 268.634C354.624 261.574 362.942 287.808 353.809 288.115C347.414 288.33 344.903 272.612 353.318 255" stroke="black" stroke-width="2" stroke-linecap="round"/>
<path d="M384 146.53C449.377 146.331 501.691 146.142 511.5 146C546 145.5 543.5 133 545 123.5C546.5 114 546.5 62.75 546.5 37.25C546.5 11.75 529 8.75 525 8.75C521 8.75 69.5002 8.75 57.5002 8.75C45.5002 8.75 36.0003 8.75 32.0003 17.75C28.8003 24.95 30.667 77 32.0003 117.5L32.0003 179.5L57.5002 147.5C63.2991 147.457 91.9388 147.407 107 147.351M317 146.726C292.001 146.797 266.569 146.868 242 146.938" stroke="black" stroke-width="2" stroke-linecap="round" stroke-linejoin="round"/>
<path d="M329.087 95.2953L315.5 89.7715" stroke="black" stroke-width="2" stroke-linecap="round" stroke-linejoin="round"/>
<path d="M293.739 104.184L329.086 105.261" stroke="black" stroke-width="2" stroke-linecap="round" stroke-linejoin="round"/>
<path d="M330.232 113.698L317.65 126.486" stroke="black" stroke-width="2" stroke-linecap="round" stroke-linejoin="round"/>
</svg>
