<svg width="570" height="370" viewBox="0 0 570 370" fill="none" xmlns="http://www.w3.org/2000/svg">
<path fill-rule="evenodd" clip-rule="evenodd" d="M293.262 77.8981C310.031 56.2363 333.091 62.5262 337.284 63.9234C346.877 67.1207 353.422 74.473 359.93 81.7841C364.978 87.4555 370.004 93.1021 376.414 96.7652C378.162 97.764 380.277 98.862 382.647 100.092C400.169 109.19 431.617 125.517 431.617 162.448C431.617 184.839 422.25 198.859 409.69 207.914C407.739 203.161 405.342 198.461 402.411 194.065C390.113 175.618 373.063 170.074 366.076 169.609C365.969 169.651 365.86 169.695 365.748 169.741L361.385 162.205C364.585 154.077 365.708 143.377 365.719 133.036L366.076 133.273C377.256 126.286 374.461 113.708 368.172 113.708C367.067 113.708 365.446 113.956 364.678 114.407L364.64 114.457C364.437 112.713 364.214 111.057 363.979 109.515L301.091 83.6613L299.694 130.478C305.47 145.585 321.84 174.718 342.743 175.924L343.954 181.98C343.346 182.517 342.797 183.052 342.318 183.584C338.082 188.29 337.968 199.655 339.412 209.776L335.33 218.522C334.59 220.189 333.696 222.243 332.735 224.508C313.066 222.109 294.564 214.068 289.769 195.29C285.209 177.427 290.166 168.378 294.17 161.07C297.527 154.941 300.214 150.036 296.057 142.184C289.769 130.305 277.88 97.7686 293.262 77.8981Z" fill="black"/>
<path d="M337.284 63.9234L336.968 64.8721H336.968L337.284 63.9234ZM293.262 77.8981L292.471 77.2859L293.262 77.8981ZM359.93 81.7841L360.677 81.1192L359.93 81.7841ZM376.414 96.7652L376.91 95.8969L376.414 96.7652ZM382.647 100.092L383.107 99.2048L382.647 100.092ZM409.69 207.914L408.765 208.294L409.246 209.467L410.275 208.725L409.69 207.914ZM402.411 194.065L403.243 193.51L402.411 194.065ZM366.076 169.609L366.142 168.611L365.916 168.596L365.705 168.68L366.076 169.609ZM365.748 169.741L364.882 170.242L365.318 170.994L366.124 170.667L365.748 169.741ZM361.385 162.205L360.454 161.838L360.277 162.288L360.519 162.706L361.385 162.205ZM365.719 133.036L366.274 132.203L364.721 131.168L364.719 133.034L365.719 133.036ZM366.076 133.273L365.521 134.105L366.058 134.463L366.606 134.121L366.076 133.273ZM364.678 114.407L364.172 113.544L364.003 113.643L363.884 113.799L364.678 114.407ZM364.64 114.457L363.646 114.573L363.932 117.029L365.434 115.065L364.64 114.457ZM363.979 109.515L364.968 109.365L364.883 108.806L364.36 108.59L363.979 109.515ZM301.091 83.6613L301.472 82.7364L300.135 82.1869L300.092 83.6315L301.091 83.6613ZM299.694 130.478L298.694 130.448L298.688 130.648L298.76 130.835L299.694 130.478ZM342.743 175.924L343.723 175.727L343.572 174.97L342.8 174.925L342.743 175.924ZM343.954 181.98L344.616 182.73L345.048 182.349L344.935 181.784L343.954 181.98ZM342.318 183.584L343.061 184.253L343.061 184.253L342.318 183.584ZM339.412 209.776L340.318 210.199L340.444 209.929L340.402 209.635L339.412 209.776ZM335.33 218.522L334.424 218.099L334.42 218.107L334.417 218.115L335.33 218.522ZM332.735 224.508L332.614 225.5L333.361 225.592L333.655 224.898L332.735 224.508ZM289.769 195.29L288.801 195.537L289.769 195.29ZM294.17 161.07L295.047 161.55L294.17 161.07ZM296.057 142.184L295.174 142.652V142.652L296.057 142.184ZM337.6 62.9747C333.32 61.5482 309.658 55.0853 292.471 77.2859L294.053 78.5102C310.405 57.3874 332.863 63.5042 336.968 64.8721L337.6 62.9747ZM360.677 81.1192C354.2 73.8434 347.488 66.27 337.6 62.9747L336.968 64.8721C346.267 67.9713 352.644 75.1026 359.183 82.449L360.677 81.1192ZM376.91 95.8969C370.667 92.3291 365.746 86.8148 360.677 81.1192L359.183 82.449C364.209 88.0962 369.341 93.8751 375.918 97.6334L376.91 95.8969ZM383.107 99.2048C380.732 97.9716 378.637 96.8837 376.91 95.8969L375.918 97.6334C377.687 98.6444 379.822 99.7525 382.186 100.98L383.107 99.2048ZM432.617 162.448C432.617 124.837 400.547 108.259 383.107 99.2048L382.186 100.98C399.791 110.12 430.617 126.197 430.617 162.448H432.617ZM410.275 208.725C423.082 199.492 432.617 185.177 432.617 162.448H430.617C430.617 184.501 421.419 198.225 409.105 207.103L410.275 208.725ZM410.615 207.534C408.643 202.73 406.216 197.97 403.243 193.51L401.579 194.62C404.467 198.952 406.835 203.592 408.765 208.294L410.615 207.534ZM403.243 193.51C390.762 174.789 373.421 169.096 366.142 168.611L366.009 170.606C372.706 171.053 389.464 176.447 401.579 194.62L403.243 193.51ZM365.705 168.68C365.596 168.724 365.485 168.768 365.372 168.814L366.124 170.667C366.234 170.623 366.342 170.579 366.447 170.537L365.705 168.68ZM366.613 169.24L362.25 161.704L360.519 162.706L364.882 170.242L366.613 169.24ZM362.315 162.571C365.584 154.27 366.707 143.423 366.719 133.037L364.719 133.034C364.708 143.332 363.587 153.883 360.454 161.838L362.315 162.571ZM365.165 133.868L365.521 134.105L366.631 132.441L366.274 132.203L365.165 133.868ZM366.606 134.121C372.474 130.453 374.77 125.243 374.675 120.848C374.582 116.587 372.118 112.708 368.172 112.708V114.708C370.515 114.708 372.593 117.118 372.675 120.892C372.754 124.534 370.858 129.105 365.546 132.425L366.606 134.121ZM368.172 112.708C367.555 112.708 366.812 112.776 366.117 112.905C365.446 113.029 364.71 113.229 364.172 113.544L365.184 115.269C365.415 115.134 365.873 114.984 366.481 114.872C367.064 114.764 367.685 114.708 368.172 114.708V112.708ZM363.884 113.799L363.845 113.85L365.434 115.065L365.473 115.014L363.884 113.799ZM365.633 114.342C365.429 112.586 365.205 110.919 364.968 109.365L362.991 109.666C363.224 111.196 363.445 112.839 363.646 114.573L365.633 114.342ZM364.36 108.59L301.472 82.7364L300.711 84.5862L363.599 110.44L364.36 108.59ZM300.092 83.6315L298.694 130.448L300.693 130.508L302.091 83.6912L300.092 83.6315ZM298.76 130.835C301.676 138.461 307.259 149.617 314.764 159.037C322.24 168.42 331.795 176.294 342.685 176.922L342.8 174.925C332.789 174.348 323.707 167.052 316.328 157.791C308.978 148.566 303.488 137.601 300.628 130.121L298.76 130.835ZM341.762 176.12L342.973 182.176L344.935 181.784L343.723 175.727L341.762 176.12ZM343.292 181.23C342.662 181.787 342.084 182.349 341.575 182.915L343.061 184.253C343.509 183.755 344.03 183.246 344.616 182.73L343.292 181.23ZM341.575 182.915C339.226 185.525 338.119 189.828 337.738 194.569C337.353 199.36 337.693 204.81 338.422 209.917L340.402 209.635C339.686 204.621 339.362 199.328 339.732 194.73C340.106 190.082 341.174 186.349 343.061 184.253L341.575 182.915ZM336.237 218.945L340.318 210.199L338.506 209.353L334.424 218.099L336.237 218.945ZM333.655 224.898C334.614 222.638 335.506 220.59 336.244 218.928L334.417 218.115C333.673 219.788 332.777 221.847 331.814 224.117L333.655 224.898ZM288.801 195.537C293.758 214.954 312.853 223.091 332.614 225.5L332.856 223.515C313.279 221.128 295.37 213.183 290.738 195.042L288.801 195.537ZM293.293 160.589C291.292 164.241 288.984 168.445 287.78 174.01C286.574 179.589 286.487 186.475 288.801 195.537L290.738 195.042C288.491 186.241 288.602 179.672 289.735 174.433C290.871 169.182 293.044 165.206 295.047 161.55L293.293 160.589ZM295.174 142.652C297.158 146.401 297.473 149.36 296.949 152.084C296.413 154.876 294.989 157.493 293.293 160.589L295.047 161.55C296.708 158.518 298.306 155.618 298.913 152.462C299.533 149.239 299.113 145.82 296.941 141.716L295.174 142.652ZM292.471 77.2859C284.536 87.5367 283.692 100.971 285.545 113.188C287.4 125.424 291.989 136.635 295.174 142.652L296.941 141.716C293.838 135.854 289.337 124.858 287.522 112.888C285.704 100.9 286.606 88.13 294.053 78.5102L292.471 77.2859Z" fill="black"/>
<path d="M366.075 169.608C373.063 170.074 390.113 175.618 402.411 194.065C417.783 217.124 418.482 248.568 417.085 252.062C415.687 255.556 402.411 267.434 388.436 272.326C381.344 274.808 365.184 280.807 358.196 278.711M342.318 183.584C336.029 190.571 338.824 212.233 342.318 222.714C344.704 229.874 345.461 248.774 346.591 261.146" stroke="black" stroke-width="2" stroke-linecap="round"/>
<path d="M342.758 176L344.414 184.282C347.675 189.174 356.712 196.581 358.389 195.463C360.066 194.344 364.445 176.596 366.076 170.307L361.5 162.404" stroke="black" stroke-width="2" stroke-linecap="round"/>
<path d="M218.638 223.413L217.24 212.232" stroke="black" stroke-width="2" stroke-linecap="round" stroke-linejoin="round"/>
<path d="M245.19 184.282L238.901 222.714" stroke="black" stroke-width="2" stroke-linecap="round" stroke-linejoin="round"/>
<path d="M236.805 233.195L236.106 237.388" stroke="black" stroke-width="2" stroke-linecap="round" stroke-linejoin="round"/>
<path d="M254.274 239.484L258.467 230.4" stroke="black" stroke-width="2" stroke-linecap="round" stroke-linejoin="round"/>
<path d="M264.756 221.316L271.743 209.438" stroke="black" stroke-width="2" stroke-linecap="round" stroke-linejoin="round"/>
<path d="M296.898 219.919L283.622 235.292" stroke="black" stroke-width="2" stroke-linecap="round" stroke-linejoin="round"/>
<path d="M303.187 243.677L296.199 251.363" stroke="black" stroke-width="2" stroke-linecap="round" stroke-linejoin="round"/>
<path d="M275.237 247.171L278.032 244.376" stroke="black" stroke-width="2" stroke-linecap="round" stroke-linejoin="round"/>
<path d="M219.336 357.574C216.774 359.438 211.231 363.164 209.554 363.164C207.458 363.164 189.989 340.804 185.796 331.72C181.604 322.637 184.399 311.456 187.194 312.155C189.989 312.854 196.976 331.72 213.746 333.817" stroke="black" stroke-width="2" stroke-linecap="round"/>
<path d="M197.675 317.047C193.482 314.019 188.293 309.729 183.001 303.77C177.416 297.48 177.398 293.757 175.314 293.989C169.026 294.687 171.122 324.035 186.494 339.408" stroke="black" stroke-width="2" stroke-linecap="round"/>
<path d="M217.938 331.721C216.541 332.419 204.662 318.444 204.662 317.047C204.662 315.831 237.971 297.696 254 291.617L256 293.5L300.392 301.674C294.103 301.674 219.336 331.022 217.938 331.721Z" fill="black" stroke="black" stroke-width="2"/>
<path d="M277.334 261.146C278.731 261.845 317.163 301.674 316.464 304.469C315.067 304.469 258.467 293.988 256.371 293.289C254.275 292.59 206.759 248.568 207.458 247.171C208.157 245.773 275.936 260.447 277.334 261.146Z" stroke="black" stroke-width="2" stroke-linecap="round" stroke-linejoin="round"/>
<path d="M352.197 283.506C351.638 284.065 329.603 294.919 318.656 300.276" stroke="black" stroke-width="2" stroke-linecap="round" stroke-linejoin="round"/>
<path d="M306.68 278.313C305.981 279.478 304.584 282.087 304.584 283.205" stroke="black" stroke-width="2" stroke-linecap="round"/>
<path d="M310.873 276.217C309.941 278.546 308.078 283.763 308.078 285.999" stroke="black" stroke-width="2" stroke-linecap="round"/>
<path d="M311.572 269.531C315.299 265.571 322.892 256.254 323.451 250.664C324.01 245.074 331.603 226.906 335.33 218.521L339.523 209.438" stroke="black" stroke-width="2" stroke-linecap="round"/>
<path d="M317.861 269.229C314.6 269.462 306.96 271.186 302.488 276.217" stroke="black" stroke-width="2" stroke-linecap="round"/>
<path d="M351.402 261.146C346.976 262.077 336.309 265.618 329.041 269.531C321.774 273.444 318.56 280.012 317.861 282.807" stroke="black" stroke-width="2" stroke-linecap="round"/>
<path d="M333.234 275.121C329.041 276.519 322.333 282.947 320.656 289.096" stroke="black" stroke-width="2" stroke-linecap="round"/>
<path d="M331.138 273.024C326.945 274.422 319.259 280.711 317.861 287.698" stroke="black" stroke-width="2" stroke-linecap="round"/>
<path d="M334.632 277.217C329.042 280.012 320.657 292.17 323.452 293.288C326.247 294.406 332.535 282.807 337.427 282.108C342.318 281.409 343.017 282.807 350.703 281.409C356.852 280.291 360.952 277.217 362.582 274.422" stroke="black" stroke-width="2" stroke-linecap="round"/>
<path d="M370.268 187.776C369.569 191.037 369.15 200.214 373.063 210.835C376.976 221.456 381.215 229.236 382.845 231.798" stroke="black" stroke-width="2"/>
<path d="M387.737 233.196C385.64 234.36 378.793 238.506 368.172 245.773C357.55 253.04 352.566 259.05 351.401 261.146C357.69 263.242 362.022 268.832 362.581 274.422C371.199 272.792 391.79 268.133 402.411 259.748C415.687 249.267 416.386 237.388 409.398 227.605" stroke="black" stroke-width="2" stroke-linecap="round"/>
<path d="M345.811 175.897C323.451 177.574 305.749 146.316 299.693 130.478L301.091 83.6611L363.979 109.515C367.24 130.944 368.172 174.22 345.811 175.897Z" stroke="black" stroke-width="2" stroke-linecap="round" stroke-linejoin="round"/>
<path d="M299.693 130.478C305.749 146.316 323.451 177.574 345.811 175.897C363.969 174.535 366.767 145.74 365.432 123.49" stroke="black" stroke-width="2" stroke-linecap="round" stroke-linejoin="round"/>
<path d="M334.631 158.428C337.193 159.593 343.016 160.105 345.811 152.838" stroke="black" stroke-width="2" stroke-linecap="round" stroke-linejoin="round"/>
<path d="M315.765 135.369C315.765 135.369 317.862 144.453 319.958 143.754C321.635 142.636 317.862 137.698 315.765 135.369Z" fill="black"/>
<path d="M308.079 133.972C309.011 134.67 311.852 135.928 315.765 135.369M315.765 135.369C315.765 135.369 317.862 144.453 319.958 143.754C321.635 142.636 317.862 137.698 315.765 135.369Z" stroke="black" stroke-width="2" stroke-linecap="round" stroke-linejoin="round"/>
<path d="M338.125 124.888C338.125 124.888 340.221 133.972 342.317 133.273C343.994 132.155 340.221 127.217 338.125 124.888Z" fill="black"/>
<path d="M330.438 123.49C331.37 124.189 334.212 125.447 338.125 124.888M338.125 124.888C338.125 124.888 340.221 133.972 342.317 133.273C343.994 132.155 340.221 127.217 338.125 124.888Z" stroke="black" stroke-width="2" stroke-linecap="round" stroke-linejoin="round"/>
<path d="M308.079 115.106C312.737 114.64 324.71 120.137 335.331 145.851" stroke="black" stroke-width="2" stroke-linecap="round" stroke-linejoin="round"/>
<path d="M328.945 116.534C330.262 115.875 333.985 115.051 338.333 117.028" stroke="black" stroke-width="2"/>
<path d="M303.983 122.173C305.085 121.195 308.467 119.437 313.178 120.22" stroke="black" stroke-width="2"/>
<path d="M366.075 133.273C377.255 126.286 374.46 113.708 368.172 113.708C367.067 113.708 365.445 113.956 364.678 114.407" stroke="black" stroke-width="2" stroke-linecap="round" stroke-linejoin="round"/>
<path d="M304.585 112.32C305.144 121.264 299.228 133.283 296.2 138.174L291.309 112.32C291.774 100.907 298.156 77.9414 319.958 77.3824C341.759 76.8234 361.184 101.373 368.172 113.718C362.349 115.115 347.628 117.072 335.33 113.718C323.032 110.364 308.312 99.2768 302.489 94.1526C302.955 96.4818 304.026 103.376 304.585 112.32Z" fill="black" stroke="black" stroke-width="2"/>
<ellipse cx="261.492" cy="277.269" rx="3.49379" ry="6.46112" transform="rotate(-45 261.492 277.269)" fill="#2F62F6"/>
<path d="M467.366 153.14C473.368 152.144 472.794 162.268 473.547 163.499C474.3 164.729 480.85 154.912 485.537 160.45C490.224 165.988 470.447 174.7 469.098 173.921C467.413 172.948 461.365 154.135 467.366 153.14Z" stroke="#2F62F6" stroke-width="2" stroke-linecap="round" stroke-linejoin="round"/>
<path d="M493.414 240.908C492.9 240.394 486.215 240.394 485.187 241.422C484.159 243.479 488.272 247.592 489.3 247.592C490.329 247.592 493.928 241.422 493.414 240.908Z" fill="#2F62F6"/>
<path d="M451.006 266.037C449.608 270.928 452.28 274.697 452.28 274.697" stroke="black" stroke-width="2" stroke-linecap="round" stroke-linejoin="round"/>
<path d="M495.471 258.244C496.156 261.501 499.173 269.659 505.754 276.24C513.981 284.467 530.948 293.207 529.92 320.458C528.892 347.709 489.307 347.709 475.417 347.709C464.62 347.709 433.257 339.997 445.083 323.543C451.735 314.288 476.363 330.227 490.842 330.227C497.657 330.227 501.933 329.292 504.761 328.171" stroke="black" stroke-width="2" stroke-linecap="round" stroke-linejoin="round"/>
<path d="M485.187 236.795C489.643 236.28 498.658 235.561 499.069 236.795C499.583 238.337 495.47 248.62 492.385 251.191" stroke="black" stroke-width="2" stroke-linecap="round" stroke-linejoin="round"/>
<path d="M423.486 215.644C426.4 215.301 432.844 215.952 435.312 221.3" stroke="black" stroke-width="2" stroke-linecap="round" stroke-linejoin="round"/>
<path d="M420.401 225.343C422.801 224.658 428.114 224.109 430.171 227.4" stroke="black" stroke-width="2" stroke-linecap="round" stroke-linejoin="round"/>
<path d="M436.855 207.342C438.398 208.713 441.586 212.792 441.997 218.139" stroke="black" stroke-width="2" stroke-linecap="round" stroke-linejoin="round"/>
<path d="M465.135 221.225C468.734 221.225 477.475 223.898 483.645 234.593" stroke="black" stroke-width="2" stroke-linecap="round" stroke-linejoin="round"/>
<path d="M470.79 221.739C470.79 218.825 470.481 212.998 469.247 212.998C467.705 212.998 421.677 218.337 432.227 246.933C437.729 261.845 454.851 265.957 464.105 264.929" stroke="black" stroke-width="2" stroke-linecap="round" stroke-linejoin="round"/>
<path d="M487.243 322.515C487.243 322.515 476.445 305.655 486.729 293.207C496.499 281.382 509.866 289.608 509.866 289.608" stroke="black" stroke-width="2" stroke-linecap="round" stroke-linejoin="round"/>
<path d="M468.219 295.264C466.505 295.607 461.844 296.087 456.908 295.264C450.738 294.236 437.369 283.952 433.256 284.467C429.143 284.981 420.402 296.293 416.288 291.151C412.175 286.009 422.458 272.127 435.313 272.641C448.167 273.155 454.851 280.353 462.049 277.268" stroke="black" stroke-width="2" stroke-linecap="round" stroke-linejoin="round"/>
<path d="M456.618 295.634C456.961 297.005 458.469 300.673 461.76 304.375C466.137 309.299 466.536 314.533 465.68 319.098" stroke="black" stroke-width="2" stroke-linecap="round" stroke-linejoin="round"/>
<path d="M469.762 262.872C470.79 263.386 475.418 269.556 475.418 273.155" stroke="black" stroke-width="2" stroke-linecap="round" stroke-linejoin="round"/>
<path d="M475.932 260.815C476.446 260.815 484.158 262.872 485.701 269.042" stroke="black" stroke-width="2" stroke-linecap="round" stroke-linejoin="round"/>
<path d="M480.045 255.159C483.644 255.331 491.048 256.805 491.871 261.329" stroke="black" stroke-width="2" stroke-linecap="round" stroke-linejoin="round"/>
<path d="M492.899 300.406C494.271 298.006 498.761 293.31 505.754 293.722" stroke="#2F62F6" stroke-width="2" stroke-linecap="round" stroke-linejoin="round"/>
<path d="M500.611 302.463C501.64 301.263 504.827 299.069 509.352 299.892" stroke="#2F62F6" stroke-width="2" stroke-linecap="round" stroke-linejoin="round"/>
<path d="M491.357 334.341C493.071 334.855 497.219 335.575 500.098 334.341" stroke="#2F62F6" stroke-width="2" stroke-linecap="round" stroke-linejoin="round"/>
<path d="M488.271 339.482C490.671 339.997 496.395 340.716 500.097 339.482" stroke="#2F62F6" stroke-width="2" stroke-linecap="round" stroke-linejoin="round"/>
<path d="M462.563 328.685C465.477 329.37 471.921 331.153 474.389 332.798" stroke="#2F62F6" stroke-width="2" stroke-linecap="round" stroke-linejoin="round"/>
<path d="M460.507 333.312C463.249 333.998 469.248 335.575 471.304 336.397" stroke="#2F62F6" stroke-width="2" stroke-linecap="round" stroke-linejoin="round"/>
<path d="M455.879 336.397C458.793 337.769 465.854 340.614 470.79 341.025" stroke="#2F62F6" stroke-width="2" stroke-linecap="round" stroke-linejoin="round"/>
<path d="M448.167 226.88C448.167 228.422 449.092 231.405 452.794 230.993" stroke="black" stroke-width="2" stroke-linecap="round" stroke-linejoin="round"/>
<path d="M461.535 240.249C461.535 241.792 462.461 244.774 466.163 244.362" stroke="black" stroke-width="2" stroke-linecap="round" stroke-linejoin="round"/>
<path d="M445.082 239.22C445.596 239.563 447.242 240.248 449.71 240.248C449.367 241.791 449.195 246.418 453.309 246.418" stroke="black" stroke-width="2" stroke-linecap="round" stroke-linejoin="round"/>
<path fill-rule="evenodd" clip-rule="evenodd" d="M387.029 273.212C383.125 274.589 377.392 276.611 371.844 277.997C371.406 278.24 370.983 278.474 370.576 278.699C370.917 278.779 371.066 278.844 371 278.891C361.818 285.449 326.483 302.216 317.951 304.658C317.431 304.807 316.888 304.806 316.357 304.703L305.631 302.607C266.396 316.378 222.131 332.216 222.131 334.208C222.131 337.702 225.625 351.677 227.721 354.472C229.817 357.267 338.823 344.689 387.736 334.208C409.744 329.492 418.637 311.44 421.129 292.236C419.113 293.127 417.267 293.209 415.919 291.524C413.392 288.365 416.299 281.906 421.898 277.515C421.721 267.58 420.263 258.18 418.482 251.056C418.448 251.076 418.415 251.095 418.382 251.114C417.681 251.526 417.386 251.698 417.084 252.453C415.687 255.947 402.411 267.826 388.435 272.717C388 272.869 387.531 273.035 387.031 273.211L387.029 273.212Z" fill="black"/>
<path d="M248.406 135.88C250.423 134.785 252.118 133.395 253.489 131.71C254.871 129.987 255.844 128.129 256.409 126.134C256.963 124.178 257.103 122.104 256.829 119.912C256.556 117.721 255.841 115.649 254.687 113.696C253.544 111.706 251.976 109.921 249.984 108.34C248.041 106.733 245.658 105.53 242.836 104.731C240.051 103.943 237.392 103.718 234.857 104.057C232.37 104.369 230.118 105.073 228.101 106.168C226.131 107.237 224.456 108.632 223.074 110.354C221.692 112.077 220.724 113.916 220.17 115.873C219.605 117.868 219.46 119.961 219.733 122.152C220.018 124.306 220.713 126.372 221.819 128.352C222.973 130.305 224.522 132.085 226.465 133.692C228.457 135.272 230.845 136.456 233.63 137.245M185.198 75.7283C184.633 77.7227 184.487 79.8156 184.761 82.0068C185.046 84.1605 185.741 86.2272 186.847 88.2069C188.001 90.1597 189.55 91.9397 191.493 93.5467C193.485 95.1269 195.873 96.3112 198.658 97.0997C201.48 97.8988 204.134 98.1424 206.621 97.8302C209.156 97.4911 211.427 96.7927 213.434 95.735C215.451 94.6396 217.145 93.2496 218.517 91.5648C219.899 89.8424 220.872 87.9839 221.437 85.9895C221.991 84.0326 222.131 81.9586 221.857 79.7673C221.583 77.5761 220.869 75.504 219.715 73.5513C218.571 71.5608 217.004 69.7756 215.012 68.1955C213.069 66.5884 210.686 65.3852 207.864 64.5861C205.079 63.7976 202.419 63.5729 199.884 63.912C197.398 64.2241 195.146 64.9278 193.128 66.0232M244.794 69.8385C237.004 78.9738 229.5 88.3931 222.281 98.0965C215.11 107.773 208.171 117.637 201.464 127.688" stroke="black" stroke-width="2.91216" stroke-linecap="round" stroke-linejoin="round"/>
<path d="M169.829 145.71C171.497 139.817 172.498 133.698 172.831 127.354C173.232 121.029 172.947 114.802 171.975 108.673C171.003 102.544 169.35 96.6254 167.015 90.9159C164.768 85.1578 161.796 79.8898 158.101 75.1118C154.405 70.3338 150.024 66.1667 144.958 62.6104C139.96 59.0733 134.244 56.3937 127.809 54.5716C121.374 52.7495 115.033 52.0151 108.787 52.3684C102.609 52.7408 96.6934 53.9926 91.0414 56.1238C85.4572 58.2741 80.1648 61.2022 75.1645 64.9081C70.1833 68.5462 65.6724 72.7199 61.6317 77.4292C57.5911 82.1384 54.0495 87.2817 51.0069 92.8589C48.0321 98.4553 45.7104 104.2 44.0417 110.093C42.3731 115.986 41.3384 122.095 40.9375 128.421C40.6236 134.697 40.9526 140.9 41.9245 147.029C42.8963 153.157 44.5495 159.076 46.8838 164.786C49.2182 170.495 52.1994 175.729 55.8273 180.488C59.5229 185.266 63.9037 189.433 68.9697 192.99C74.0356 196.546 79.8199 199.245 86.3226 201.086C92.7576 202.908 99.0304 203.623 105.141 203.232C111.319 202.859 117.235 201.607 122.887 199.476C128.539 197.345 133.821 194.451 138.735 190.794C143.716 187.155 148.227 182.982 152.267 178.272M103.605 99.7403C106.86 98.3207 110.351 98.1384 114.076 99.1933C117.734 100.229 120.577 102.205 122.605 105.12C124.633 108.036 126.043 111.325 126.835 114.988C127.627 118.651 127.911 122.427 127.688 126.315C127.466 130.203 126.932 133.637 126.088 136.617C125.244 139.598 123.898 142.802 122.05 146.229C120.201 149.657 117.979 152.723 115.384 155.427C112.79 158.131 109.864 160.193 106.609 161.613C103.353 163.032 99.8968 163.224 96.2391 162.188C92.5136 161.133 89.6368 159.148 87.6088 156.233C85.5809 153.317 84.137 150.018 83.2773 146.336C82.4854 142.673 82.2008 138.897 82.4237 135.009C82.6465 131.121 83.1799 127.687 84.0238 124.707C84.8678 121.726 86.214 118.522 88.0625 115.095" stroke="black" stroke-width="2.91216" stroke-linecap="round" stroke-linejoin="round"/>
<path fill-rule="evenodd" clip-rule="evenodd" d="M88.732 195.285C120.286 203.753 154.045 180.046 164.134 142.333C174.224 104.621 156.822 67.1838 125.268 58.7155C93.7136 50.2472 59.9547 73.9543 49.8656 111.667C39.7764 149.379 57.1775 186.816 88.732 195.285ZM95.7134 167.265C110.563 171.25 127.093 157.687 132.635 136.972C138.177 116.257 130.632 96.2331 115.783 92.248C100.933 88.2629 84.4031 101.825 78.8612 122.541C73.3193 143.256 80.8643 163.28 95.7134 167.265Z" fill="#2F62F6"/>
<path d="M182.783 210.563C181.928 218.113 177.612 233.212 167.186 233.212" stroke="black" stroke-width="2.91216" stroke-linecap="round"/>
<path d="M182.783 249.664C183.638 241.402 187.954 224.879 198.381 224.879" stroke="black" stroke-width="2.91216" stroke-linecap="round"/>
<path d="M182.783 210.35C183.638 215.193 187.954 224.879 198.381 224.879" stroke="black" stroke-width="2.91216" stroke-linecap="round"/>
<path d="M182.783 249.664C181.928 244.251 177.612 233.426 167.186 233.426" stroke="black" stroke-width="2.91216" stroke-linecap="round"/>
<path d="M15.7538 41.5049C16.2325 40.1485 18.65 37.4358 24.4902 37.4358" stroke="#2F62F6" stroke-width="2.91216" stroke-linecap="round" stroke-linejoin="round"/>
<path d="M15.7541 19.6035C15.2753 24.2311 12.8579 33.4861 7.01758 33.4861" stroke="#2F62F6" stroke-width="2.91216" stroke-linecap="round" stroke-linejoin="round"/>
<path d="M15.7541 41.624C15.2753 38.9113 12.8579 33.4859 7.01758 33.4859" stroke="#2F62F6" stroke-width="2.91216" stroke-linecap="round" stroke-linejoin="round"/>
<path d="M15.7538 19.6035C16.2325 25.5475 18.65 37.4355 24.4902 37.4355" stroke="#2F62F6" stroke-width="2.91216" stroke-linecap="round" stroke-linejoin="round"/>
</svg>
