<svg width="570" height="370" viewBox="0 0 570 370" fill="none" xmlns="http://www.w3.org/2000/svg">
<path d="M106.283 167.969C106.283 146.598 128.808 117.142 128.231 114.254C127.776 111.98 113.856 104.671 106.626 101.137C106.402 101.027 106.174 100.998 105.939 101.083C95.6331 104.81 59.5711 146.328 65.8525 173.167C72.2059 200.313 139.205 223.994 154.799 225.726" stroke="black" stroke-width="2" stroke-linecap="round" stroke-linejoin="round"/>
<path d="M108.016 157.572C121.375 165.969 155.241 181.669 184.635 177.892C185.092 177.833 185.528 178.088 185.719 178.507C187.542 182.52 192.316 189.339 199.273 189.339C206.56 189.339 214.258 180.922 220.377 175.15C220.55 174.987 220.764 174.893 221.001 174.883C267.89 172.821 358.684 218.3 358.684 250.562C358.684 282.378 313.975 307.86 290.525 317.114C289.928 317.349 289.285 316.958 289.137 316.333C288.075 311.825 284.149 302.905 274.751 294.708C274.262 294.282 274.283 293.51 274.803 293.122C286.19 284.628 309.16 265.87 317.676 252.872" stroke="black" stroke-width="2" stroke-linecap="round" stroke-linejoin="round"/>
<path d="M312.479 259.803C309.206 256.338 299.887 248.251 288.798 243.631C278.617 239.389 268.954 236.769 264.46 235.773C263.883 235.645 263.335 236.042 263.278 236.63C261.542 254.59 258.935 291.35 261.652 303.121M266.85 339.509C268.005 342.204 270.2 347.941 269.738 349.327C269.16 351.06 235.536 361.018 205.049 357.413C173.988 353.741 148.447 338.353 146.136 332.578C143.826 326.802 146.136 243.631 163.464 196.27" stroke="black" stroke-width="2" stroke-linecap="round" stroke-linejoin="round"/>
<path d="M263.384 296.19C264.346 297.153 266.272 299.656 266.272 301.966C266.272 304.854 262.806 314.673 239.703 314.673" stroke="black" stroke-width="2" stroke-linecap="round" stroke-linejoin="round"/>
<path d="M237.394 320.449C242.399 321.796 254.721 322.759 263.962 315.828" stroke="black" stroke-width="2" stroke-linecap="round" stroke-linejoin="round"/>
<path d="M265.116 322.182C263.576 324.877 256.337 330.037 239.703 329.113" stroke="black" stroke-width="2" stroke-linecap="round" stroke-linejoin="round"/>
<path d="M266.849 326.802C265.694 328.149 262.113 331.191 257.03 332.577C250.677 334.31 244.901 334.31 244.901 336.043C244.901 337.775 255.298 338.931 266.849 334.31C278.401 329.689 285.909 316.405 288.797 315.25" stroke="black" stroke-width="2" stroke-linecap="round" stroke-linejoin="round"/>
<path d="M141.517 94.6162C145.56 98.0817 155.725 105.244 164.042 106.168" stroke="black" stroke-width="2" stroke-linecap="round" stroke-linejoin="round"/>
<path d="M126.499 100.709C128.039 99.9392 131.466 98.6301 132.852 99.5542C134.585 100.709 140.938 108.795 144.981 109.951" stroke="black" stroke-width="2" stroke-linecap="round" stroke-linejoin="round"/>
<path d="M136.895 96.9258C141.515 100.969 152.143 108.593 159.998 109.055" stroke="black" stroke-width="2" stroke-linecap="round" stroke-linejoin="round"/>
<path d="M155.378 88.2628C157.303 87.8777 161.962 86.53 165.197 84.2197" stroke="black" stroke-width="2" stroke-linecap="round" stroke-linejoin="round"/>
<path d="M240.869 79.4552C240.505 106.977 233.368 162.738 207.739 165.602C180.124 168.688 176.182 131.588 176.262 103M176.67 86.3714C176.532 89.8621 176.39 93.7969 176.315 98" stroke="black" stroke-width="2" stroke-linecap="round" stroke-linejoin="round"/>
<path d="M187.721 87.6851C192.516 91.0063 201.633 104.378 203.038 116.95C204.443 129.521 200.259 136.063 197.992 137.763" stroke="black" stroke-width="2" stroke-linecap="round" stroke-linejoin="round"/>
<path d="M225.949 104.265C223.04 102.421 216.056 98.8621 211.396 99.3829" stroke="black" stroke-width="2" stroke-linecap="round" stroke-linejoin="round"/>
<path d="M190.611 110.211C191.092 108.111 191.632 109.367 191.766 110.788L191.472 118.992C190.963 116.639 190.129 112.311 190.611 110.211Z" fill="black" stroke="black" stroke-width="2" stroke-linecap="round" stroke-linejoin="round"/>
<path d="M214.827 113.105C215.309 111.005 215.848 112.262 215.982 113.683L215.689 121.887C215.18 119.533 214.346 115.205 214.827 113.105Z" fill="black" stroke="black" stroke-width="2" stroke-linecap="round" stroke-linejoin="round"/>
<path d="M207.358 149.011C205.819 150.629 201.48 153.139 196.437 150.231" stroke="black" stroke-width="2" stroke-linecap="round" stroke-linejoin="round"/>
<path d="M174.785 105.958C171.227 104.909 164.077 105.129 163.933 114.402C163.79 123.675 170.224 126.717 173.459 127.078" stroke="black" stroke-width="2" stroke-linecap="round" stroke-linejoin="round"/>
<path d="M237.738 117.411C242.08 116.685 250.567 117.424 249.777 126.19C248.988 134.957 241.024 138.016 237.14 138.45" stroke="black" stroke-width="2" stroke-linecap="round" stroke-linejoin="round"/>
<path d="M244.224 117.537L235.083 126.383C236.588 119.536 239.193 90.6116 239.906 79.3544C239.947 78.7125 239.378 78.2121 238.743 78.314C226.028 80.355 198.146 82.8267 178.75 77.7192C158.698 72.4389 149.416 59.3016 150.562 49.7719C151.444 42.4414 155.359 33.3256 171.377 31.5355C209.239 27.3044 227.313 57.1052 233.049 62.2498C238.784 67.3944 247.362 64.9895 252.848 74.5011C257.213 82.0686 249.116 106.002 244.449 117.209C244.396 117.334 244.321 117.442 244.224 117.537Z" fill="black" stroke="black" stroke-width="2" stroke-linecap="round" stroke-linejoin="round"/>
<path d="M214.859 164.515C214.922 165.086 215.843 173.324 216.295 177.372M187.34 175.545L191.728 162.037" stroke="black" stroke-width="2" stroke-linecap="round" stroke-linejoin="round"/>
<path d="M184.835 178.365C183.487 187.221 181.6 205.049 184.835 205.511C187.792 205.934 193.873 199.306 197.247 195.077C197.679 194.536 198.517 194.569 198.909 195.139C201.693 199.191 206.741 205.511 209.671 205.511C212.905 205.511 218.334 185.873 220.645 176.055" stroke="black" stroke-width="2" stroke-linecap="round" stroke-linejoin="round"/>
<path fill-rule="evenodd" clip-rule="evenodd" d="M125.322 88.4805C124.37 88.6621 123.742 88.8487 123.421 89.0086C122.838 89.2992 121.964 89.9786 120.883 90.9825C119.824 91.9655 118.636 93.193 117.434 94.5054C115.029 97.1292 112.606 100.051 111.111 101.937C110.768 102.37 110.139 102.443 109.706 102.1C109.273 101.757 109.2 101.128 109.543 100.695C111.06 98.7813 113.515 95.8216 115.959 93.1542C117.181 91.8211 118.409 90.5506 119.522 89.5169C120.613 88.504 121.667 87.6481 122.529 87.2185C123.112 86.9283 123.97 86.7023 124.947 86.5159C125.95 86.3246 127.167 86.1593 128.52 86.0216C131.229 85.746 134.534 85.5761 137.87 85.5383C141.205 85.5005 144.591 85.5946 147.457 85.8517C148.889 85.9801 150.205 86.1505 151.327 86.369C152.434 86.5844 153.414 86.8581 154.137 87.2185C155.343 87.8194 157.628 88.8641 160.373 90.1187C163.106 91.3682 166.294 92.826 169.327 94.2613C172.34 95.6876 175.188 97.087 177.214 98.2102C178.218 98.7675 179.061 99.2789 179.625 99.7065C179.893 99.9103 180.173 100.15 180.362 100.414C180.455 100.543 180.589 100.763 180.626 101.05C180.672 101.397 180.564 101.757 180.295 102.025L180.273 102.047C179.98 102.339 179.597 102.721 179.045 103.032C178.467 103.357 177.761 103.577 176.819 103.663C174.984 103.829 172.134 103.491 167.302 102.287C159.415 100.322 153.33 96.154 151.217 94.2592C150.806 93.8905 150.771 93.2582 151.14 92.8471C151.509 92.4359 152.141 92.4015 152.552 92.7702C154.454 94.4762 160.254 98.47 167.785 100.346C172.59 101.543 175.161 101.805 176.638 101.671C177.353 101.606 177.775 101.451 178.063 101.289C178.127 101.253 178.188 101.215 178.246 101.175C177.794 100.854 177.117 100.443 176.243 99.9593C174.279 98.8695 171.48 97.4933 168.471 96.069C165.512 94.6685 162.337 93.2166 159.594 91.9621C156.804 90.6861 154.461 89.6143 153.245 89.0086C152.764 88.7689 151.994 88.5362 150.945 88.3321C149.912 88.1309 148.669 87.9684 147.278 87.8437C144.498 87.5943 141.183 87.5009 137.893 87.5382C134.604 87.5754 131.359 87.743 128.723 88.0113C127.403 88.1455 126.249 88.3037 125.322 88.4805Z" fill="black"/>
<path d="M262.969 147.849C320.246 146.607 467.251 147.849 481.082 147.849C496.437 147.849 520.981 151.572 520.981 174.448C520.981 197.323 492.254 195.727 478.423 196.259C467.357 196.685 379.828 196.436 337.447 196.259" stroke="black" stroke-width="2" stroke-linecap="round" stroke-linejoin="round"/>
<circle cx="482.679" cy="169.66" r="10.6397" stroke="black" stroke-width="2" stroke-linecap="round" stroke-linejoin="round"/>
<path d="M491.19 178.172L498.638 185.62" stroke="black" stroke-width="2" stroke-linecap="round" stroke-linejoin="round"/>
<path d="M441.807 24.029C442.849 22.465 463.817 22.4337 466.158 23.935C466.249 23.993 466.284 24.0212 466.31 24.1256C467.32 28.238 466.267 128.309 465.214 129.362C464.15 130.426 441.807 129.362 441.807 128.298C441.807 127.234 440.743 25.625 441.807 24.029Z" fill="#2F62F6" stroke="#2F62F6" stroke-width="2" stroke-linecap="round" stroke-linejoin="round"/>
<path d="M403.368 56.6488C404.236 55.5669 421.593 55.5384 423.741 56.5633C423.843 56.6117 423.895 56.6553 423.921 56.7646C424.746 60.2814 423.868 129.257 422.99 129.986C422.098 130.727 403.368 129.986 403.368 129.246C403.368 128.505 402.476 57.76 403.368 56.6488Z" fill="#2F62F6" stroke="#2F62F6" stroke-width="2" stroke-linecap="round" stroke-linejoin="round"/>
<path d="M365.026 73.4818C365.804 72.6508 381.29 72.6254 383.335 73.4053C383.441 73.4458 383.508 73.5014 383.534 73.6121C384.259 76.7773 383.472 129.496 382.685 130.057C381.882 130.628 365.026 130.057 365.026 129.485C365.026 128.914 364.223 74.339 365.026 73.4818Z" fill="#2F62F6" stroke="#2F62F6" stroke-width="2" stroke-linecap="round" stroke-linejoin="round"/>
<path d="M324.595 88.2106C325.373 87.5952 340.852 87.5762 342.903 88.1536C343.008 88.1832 343.087 88.2419 343.114 88.3475C343.82 91.0645 343.037 129.705 342.254 130.118C341.452 130.541 324.595 130.118 324.595 129.695C324.595 129.271 323.792 88.8456 324.595 88.2106Z" fill="#2F62F6" stroke="#2F62F6" stroke-width="2" stroke-linecap="round" stroke-linejoin="round"/>
<path d="M295.808 106.095C296.456 105.742 309.32 105.73 311.058 106.061C311.15 106.078 311.229 106.128 311.256 106.218C311.818 108.108 311.171 129.956 310.525 130.192C309.856 130.435 295.808 130.192 295.808 129.948C295.808 129.705 295.14 106.46 295.808 106.095Z" fill="#2F62F6" stroke="#2F62F6" stroke-width="2" stroke-linecap="round" stroke-linejoin="round"/>
<path d="M416.805 256.747C416.106 257.073 415.598 267.581 415.379 274.271C415.34 275.458 414.614 276.512 413.517 276.964C406.683 279.778 398.303 283.296 397.925 284.334C397.55 285.365 406.447 289.945 413.76 291.924C414.991 292.257 415.942 293.264 416.119 294.527C416.992 300.766 418.47 310.309 419.135 310.836C420.067 311.576 430.709 296.635 430.966 295.928C431.223 295.221 450.891 298.376 452.338 297.702C453.353 297.228 446.673 290.398 441.938 285.807C440.882 284.782 440.706 283.148 441.528 281.928C445.424 276.14 451.122 267.401 450.804 266.72C450.478 266.021 439.853 269.418 433.094 271.702C431.913 272.101 430.608 271.737 429.806 270.782C425.085 265.162 417.505 256.42 416.805 256.747Z" stroke="black" stroke-width="2" stroke-linecap="round" stroke-linejoin="round"/>
<path d="M287.986 50.1766C287.809 45.0341 289.157 34.8554 295.966 35.281C304.478 35.813 302.882 43.7928 315.649 43.7928C325.864 43.7928 334.092 26.4147 336.929 17.7256" stroke="#2F62F6" stroke-width="2" stroke-linecap="round" stroke-linejoin="round"/>
<path d="M327.885 12.9377C333.737 8.50451 345.653 4.10677 346.504 21.9815" stroke="#2F62F6" stroke-width="2" stroke-linecap="round" stroke-linejoin="round"/>
<path d="M118.342 59.8808L104.829 58.0117" stroke="black" stroke-width="2" stroke-linecap="round" stroke-linejoin="round"/>
<path d="M90.4645 33.4864L125.302 47.1322" stroke="black" stroke-width="2" stroke-linecap="round" stroke-linejoin="round"/>
<path d="M125.105 28.3571L113.403 16.4629" stroke="black" stroke-width="2" stroke-linecap="round" stroke-linejoin="round"/>
</svg>
