<svg width="570" height="370" viewBox="0 0 570 370" fill="none" xmlns="http://www.w3.org/2000/svg">
<path d="M377.354 108.939C362.42 101.789 364.141 85.7002 371.989 84.8169C373.368 84.6617 375.427 84.744 376.448 85.1982" stroke="black" stroke-width="2" stroke-linecap="round" stroke-linejoin="round"/>
<path d="M399.627 151.763C374.255 139.547 374.63 94.4354 377.989 73.4068C377.989 73.4068 387.045 30.4199 408.906 23.3666C440.643 13.1272 458.716 75.802 458.716 75.802C456.433 113.834 424.999 163.98 399.627 151.763Z" stroke="black" stroke-width="2" stroke-linecap="round" stroke-linejoin="round"/>
<path d="M399.036 129.667C402.254 131.129 409.567 131.773 413.077 122.646" stroke="black" stroke-width="2" stroke-linecap="round" stroke-linejoin="round"/>
<path d="M392.397 88.8181C392.397 88.8181 387.003 97.8744 391.692 97.8744C396.381 97.8744 393.214 92.6676 392.397 88.8181Z" fill="black"/>
<path d="M384.915 82.4717C385.49 83.8167 387.79 86.9689 392.397 88.8181M392.397 88.8181C392.397 88.8181 387.003 97.8744 391.692 97.8744C396.381 97.8744 393.214 92.6676 392.397 88.8181Z" stroke="black" stroke-width="2" stroke-linecap="round" stroke-linejoin="round"/>
<path d="M423.185 94.2263C423.185 94.2263 417.791 103.283 422.48 103.283C427.169 103.283 424.003 98.0758 423.185 94.2263Z" fill="black"/>
<path d="M415.703 87.8799C416.278 89.2249 418.578 92.3771 423.185 94.2263M423.185 94.2263C423.185 94.2263 417.791 103.283 422.48 103.283C427.169 103.283 424.003 98.0758 423.185 94.2263Z" stroke="black" stroke-width="2" stroke-linecap="round" stroke-linejoin="round"/>
<path d="M404.468 112.592L399.975 109.896C409.458 88.7894 407.023 75.321 402.812 68.1104" stroke="black" stroke-width="2" stroke-linecap="round" stroke-linejoin="round"/>
<path d="M419.729 77.3439C421.575 77.4548 426.141 78.8964 429.629 83.7761" stroke="black" stroke-width="2" stroke-linecap="round" stroke-linejoin="round"/>
<path d="M387.868 67.0671C389.681 66.6962 394.464 66.9071 399.096 70.7178" stroke="black" stroke-width="2" stroke-linecap="round" stroke-linejoin="round"/>
<path d="M445.109 118.116C452.494 119.781 467.821 113.49 464.227 100.461C462.414 93.89 452.494 96.8027 452.494 96.8027" stroke="black" stroke-width="2" stroke-linecap="round" stroke-linejoin="round"/>
<path d="M426.934 164.712C426.934 164.712 482.045 180.914 496.127 231.659C515.392 301.077 498.998 357.481 464.502 360.121C436.906 362.234 413.58 279.739 405.367 238.228" stroke="black" stroke-width="2" stroke-linecap="round" stroke-linejoin="round"/>
<path d="M422.44 356.852C422.44 356.852 379.477 360.92 357.291 356.852C325.537 351.029 305.471 341.639 304.742 337.9C304.715 337.763 304.744 337.645 304.799 337.517C305.748 335.306 315.101 312.816 316.515 282.431" stroke="black" stroke-width="2" stroke-linecap="round" stroke-linejoin="round"/>
<path d="M477.705 301.301C467.82 269.4 431.756 203.77 403 184" stroke="black" stroke-width="2" stroke-linecap="round" stroke-linejoin="round"/>
<path d="M394.583 144.044L392.842 160.005C393.317 167.373 398.495 181.103 401.021 180.94C403.547 180.777 419.729 171.608 425.451 165.792L425.235 146.5" stroke="black" stroke-width="2" stroke-linecap="round" stroke-linejoin="round"/>
<path d="M417.049 60.0481C426.574 60.0481 436.046 57.6332 440.208 56.2318C440.604 56.0983 441.045 56.2204 441.31 56.5448C447.975 64.7217 446.254 68.9071 446.254 77.1219C446.254 84.5363 449.312 95.91 450.383 99.6619C450.563 100.296 451.285 100.564 451.828 100.191C455.782 97.474 469.29 87.3954 470.516 75.7488C471.863 62.958 470.688 55.8892 468.319 51.4756C468.058 50.9901 468.207 50.385 468.735 50.227C470.619 49.6634 474.624 49.4357 480.85 51.5113C490.286 54.6564 491.634 81.6149 504.215 95.0942C513.253 104.778 528.765 116.153 537.475 122.06C538.289 122.612 539.316 121.771 538.959 120.854C533.105 105.83 523.996 76.5934 526.68 59.1495C530.274 35.7855 521.737 12.4214 500.62 13.32C484.444 14.0084 469.174 30.9547 462.778 40.4137C462.384 40.9959 461.534 41.0205 461.099 40.4684C452.539 29.6069 429.798 11.0585 399.975 15.5666C361.334 21.4076 357.74 77.1219 359.088 77.1219C360.436 77.1219 367.175 68.1357 377.959 61.3961C388.742 54.6564 404.468 60.0481 417.049 60.0481Z" fill="black" stroke="black" stroke-width="2" stroke-linecap="round" stroke-linejoin="round"/>
<path d="M248.602 87.5004C261.314 80.3266 275.552 76.1982 290.344 76.1982C340.221 76.1982 377.51 123.137 377.51 175.495C377.51 186.914 375.587 197.862 372.062 208M239.5 93.3404C238.143 94.3218 236.809 95.3394 235.5 96.3915C234.054 97.5531 232.638 98.7568 231.254 100M211.18 124.5C202.177 139.67 196.888 157.254 196.888 175.495C196.888 176.333 196.898 177.168 196.919 178M362 228.635C345.759 253.778 318.317 270.3 287.199 270.3C263.987 270.3 242.82 261.107 226.823 246" stroke="black" stroke-width="2" stroke-linecap="round" stroke-linejoin="round"/>
<path d="M287.729 146.25L284.329 170.641C283.958 173.299 286.999 175.069 289.127 173.434L296.281 167.939C296.904 167.46 297.315 166.755 297.424 165.976L299.957 147.877C300.144 146.539 301.372 145.6 302.713 145.769C304.63 146.011 306.071 144.057 305.272 142.297L298.094 126.482C297.142 124.384 294.279 124.098 292.93 125.965L283.701 138.741C282.499 140.405 283.445 142.753 285.464 143.12C286.937 143.387 287.936 144.768 287.729 146.25Z" fill="#2F62F6"/>
<path d="M338.034 142.204L280.389 185.462C279.18 186.369 283.173 190.902 284.501 190.668C285.555 190.482 323.89 163.348 343.356 149.498C343.653 149.286 343.899 149.03 344.102 148.726L346.773 144.725C348.37 142.332 346.01 139.281 343.293 140.225L338.85 141.769C338.558 141.871 338.282 142.018 338.034 142.204Z" fill="#2F62F6"/>
<path d="M297.533 106.751C298.554 106.751 299.926 94.9156 300.577 88.0681C300.632 87.4827 300.241 87.2466 299.994 87.7805C298.287 91.4783 296.348 106.751 297.533 106.751Z" fill="#2F62F6" stroke="#2F62F6" stroke-width="2" stroke-linecap="round" stroke-linejoin="round"/>
<path d="M208.569 158.336C208.569 159.358 220.405 160.73 227.252 161.38C227.838 161.436 228.074 161.044 227.54 160.798C223.842 159.091 208.569 157.152 208.569 158.336Z" fill="#2F62F6" stroke="#2F62F6" stroke-width="2" stroke-linecap="round" stroke-linejoin="round"/>
<path d="M346.957 179.904C346.957 180.926 358.792 182.297 365.64 182.948C366.225 183.003 366.461 182.612 365.928 182.365C362.23 180.658 346.957 178.719 346.957 179.904Z" fill="#2F62F6" stroke="#2F62F6" stroke-width="2" stroke-linecap="round" stroke-linejoin="round"/>
<path d="M208.392 97.5714C212.5 92.5001 221.091 88.5292 229.163 87.0167C239.033 85.1673 253.282 87.3793 252.026 90.0748C251.969 90.1976 251.912 90.3312 251.824 90.4344C250.465 92.0346 235.905 92.4335 228 96.0001" stroke="black" stroke-width="2" stroke-linecap="round" stroke-linejoin="round"/>
<path d="M203 107.501C207.365 98.2857 236.036 99.2427 243.381 101.686C243.762 101.813 244.005 102.209 243.749 102.519C241.264 105.53 220.973 108.125 213 110.001" stroke="black" stroke-width="2" stroke-linecap="round" stroke-linejoin="round"/>
<path d="M198.5 116.001C213.148 106.724 228.273 108.413 237.355 111.679C237.746 111.819 237.978 112.212 237.692 112.514C236.114 114.18 228.848 116.465 225 117.501" stroke="black" stroke-width="2" stroke-linecap="round" stroke-linejoin="round"/>
<path d="M199.5 126.001C200.474 115.767 218.546 115.507 227.332 118.278C227.736 118.405 228.005 118.818 227.719 119.132C225.844 121.19 215.057 122.222 210.5 124.501" stroke="black" stroke-width="2" stroke-linecap="round" stroke-linejoin="round"/>
<path d="M156.69 230.002C152.104 224.04 145.89 204.287 148.461 199.144C149.102 197.862 163.722 200.18 170.89 205.292C171.305 205.587 171.876 205.558 172.246 205.208C173.452 204.07 175.382 202.398 176.747 201.716C178.274 200.952 184.801 198.041 187.377 197.215C187.703 197.11 187.965 196.868 188.076 196.545C190.898 188.348 196.847 177.03 198.861 177.03C200.883 177.03 204.395 190.444 207.445 198.716C207.546 198.99 207.756 199.199 208.029 199.303C215.714 202.244 230.675 211.791 232.29 227.944C234.347 248.516 215.318 251.602 198.861 265.487C182.404 279.373 184.461 302.002 187.033 308.173C189.604 314.345 198.861 335.43 206.061 339.03C209.147 340.573 216.861 345.202 213.776 351.373C212.642 353.641 203.59 355.81 196 354.953M55.8043 177.293C54.2859 167.277 32.2323 148.744 43.5466 139.487C54.8609 130.23 75.8228 138.927 80.9656 168.756C86.1085 198.584 69.4136 211.487 68.385 224.344C67.3564 237.202 76.9752 247.487 84.1752 249.03C91.3753 250.573 135.604 252.116 141.261 250.573C143.912 249.85 147.633 245.093 150.916 240M104.232 290.687C106.804 308.687 87.261 315.888 82.6324 317.945C78.0038 320.002 78.0038 320.516 78.0038 329.259C78.0038 338.002 89.8324 340.573 91.3753 343.659C92.9181 346.745 92.9181 353.43 78.0038 353.43C63.0895 353.43 51.7752 314.345 51.7752 310.745C51.7752 307.145 55.8894 304.573 58.4609 298.916C61.0323 293.259 61.0323 286.573 61.5466 278.859C61.9116 273.383 66.0819 268.583 68.8138 266.253C69.2968 265.841 69.3369 265.094 68.8775 264.656C61.9558 258.055 49.5975 242.063 49.2037 224.344C48.8193 207.048 54.1801 199.112 55.8043 188.891" stroke="black" stroke-width="2" stroke-linecap="round" stroke-linejoin="round"/>
<path d="M155.102 206.048C156.011 205.268 166.433 207.991 167.636 210.063C168.532 213.953 162.154 220.194 160.643 219.938C159.132 219.682 154.192 206.828 155.102 206.048Z" fill="#2F62F6"/>
<path d="M100.633 306.63C111.261 306.287 132.622 305.807 133.033 306.63C133.547 307.659 154.633 349.83 161.833 353.945C169.033 358.059 190.633 359.087 191.147 348.802C191.662 338.516 181.376 343.145 177.776 336.459C174.176 329.773 163.376 311.259 163.376 302.516C163.376 295.522 167.147 292.402 169.033 291.716" stroke="black" stroke-width="2" stroke-linecap="round" stroke-linejoin="round"/>
<path d="M114.519 317.944C108.862 322.059 104.233 325.144 104.233 330.802C104.233 336.459 117.604 342.63 117.604 346.744C117.604 350.859 110.919 352.916 106.804 352.916C104.233 352.916 97.033 350.344 90.8616 337.487C88.0448 331.619 87.3337 326.072 87.323 322" stroke="black" stroke-width="2" stroke-linecap="round" stroke-linejoin="round"/>
<path d="M250.766 217.439C247.884 215.572 240.782 212.92 235.424 217.257" stroke="black" stroke-width="2" stroke-linecap="round" stroke-linejoin="round"/>
<path d="M248.985 229.219C246.821 227.257 241.527 223.932 237.665 226.322" stroke="black" stroke-width="2" stroke-linecap="round" stroke-linejoin="round"/>
<path d="M241.028 201.805C238.699 202.446 233.242 205.078 230.042 210.479" stroke="black" stroke-width="2" stroke-linecap="round" stroke-linejoin="round"/>
<path d="M181.891 248.728C180.545 248.735 172.494 252.818 170.631 256.596" stroke="black" stroke-width="2" stroke-linecap="round" stroke-linejoin="round"/>
<path d="M176.477 243.375C175.937 243.109 166.776 241.276 161.963 246.955" stroke="black" stroke-width="2" stroke-linecap="round" stroke-linejoin="round"/>
<path d="M175.086 235.308C172.142 234.026 166.491 232.396 162.547 233.6" stroke="black" stroke-width="2" stroke-linecap="round" stroke-linejoin="round"/>
<path d="M194.357 229.487C196.072 232.058 201.866 235.658 205.157 233.601C208.449 231.544 208.929 226.744 208.758 225.372C210.129 225.887 213.489 228.15 215.958 226.915C217.622 226.083 217.977 223.801 217.874 221.772" stroke="black" stroke-width="2" stroke-linecap="round" stroke-linejoin="round"/>
<path d="M122.67 138.215C125.104 131.734 134.755 138.06 136.396 138.018C138.036 137.976 132.088 125.935 140.213 124.467C148.337 122.999 145.671 147.446 144.136 148.332C142.217 149.44 120.237 144.696 122.67 138.215Z" stroke="black" stroke-width="2" stroke-linecap="round" stroke-linejoin="round"/>
<path d="M210.05 213.366C211.22 211.795 208.873 207.681 207.514 207.41C207.314 207.37 207.134 207.507 207.041 207.688C205.871 209.968 208.836 214.997 210.05 213.366Z" fill="black" stroke="black" stroke-width="2" stroke-linecap="round" stroke-linejoin="round"/>
<path d="M192.897 221.454C194.389 219.851 191.305 215.602 189.625 215.486C189.438 215.473 189.268 215.58 189.162 215.735C187.628 217.995 191.37 223.095 192.897 221.454Z" fill="black" stroke="black" stroke-width="2" stroke-linecap="round" stroke-linejoin="round"/>
<path d="M381.139 231.827C376.397 233.691 365.561 233.758 363.51 235.641C363.198 235.927 363.431 236.364 363.823 236.527C370.89 239.469 384.526 240.898 390.015 235.5" stroke="black" stroke-width="2" stroke-linecap="round" stroke-linejoin="round"/>
<path d="M393.071 229.192C376.735 235.003 362.358 230.013 354.221 224.821C353.871 224.597 353.726 224.155 354.075 223.931C355.852 222.787 362.545 222.659 366.5 222.5" stroke="black" stroke-width="2" stroke-linecap="round" stroke-linejoin="round"/>
<path d="M395.211 221.497C388.917 229.52 361.167 222.251 354.543 218.245C354.199 218.037 354.049 217.595 354.37 217.353C357.428 215.046 377.316 217.567 385.5 217.5" stroke="black" stroke-width="2" stroke-linecap="round" stroke-linejoin="round"/>
<path d="M287.199 270.299C281.792 270.299 276.495 269.8 271.35 268.844C271.558 268.94 271.781 269.013 272.015 269.059L302.925 275.241C334.607 277.973 361.475 260.614 379.289 239.113C373.795 239.347 367.777 238.173 363.82 236.525C363.428 236.362 363.198 235.927 363.51 235.64C364.605 234.635 368.207 234.147 372.047 233.627C375.322 233.183 378.771 232.716 380.988 231.885C381.091 231.846 381.195 231.824 381.305 231.819L385.004 231.647C385.089 231.527 385.173 231.407 385.258 231.287C376.315 232.88 368.024 231.162 361.901 228.787C345.648 253.844 318.254 270.299 287.199 270.299Z" fill="black"/>
<path d="M365.393 222.96C365.547 222.681 365.699 222.402 365.851 222.121C367.297 222.459 368.811 222.772 370.361 223.049C368.659 222.998 366.985 222.967 365.393 222.96Z" fill="black"/>
<path d="M368.725 216.332C368.948 215.843 369.167 215.351 369.382 214.858C371.325 215.505 373.482 216.062 375.863 216.483C373.436 216.421 371.019 216.363 368.725 216.332Z" fill="black"/>
<path d="M372.255 207.438C375.657 197.457 377.51 186.703 377.51 175.495C377.51 125.972 344.152 81.2988 298.335 76.6043C298.766 76.3931 299.255 76.2853 299.766 76.3102C320.748 77.3297 349.953 82.136 372.118 104.953C397.918 131.513 408.512 163.364 401.323 196.612C400.826 198.911 400.176 201.29 399.381 203.724C395.127 206.032 388.695 208.515 381.744 208.515C378.643 208.515 375.389 208.07 372.255 207.438Z" fill="black"/>
<path d="M403.338 201.207C400.197 203.643 390.737 209 381 209C368.829 209 355.892 203.673 355.5 205.5C355.107 207.327 361.72 215.823 381.744 217.194C387.783 217.607 392.858 217.297 396.873 216.686" stroke="black" stroke-width="2" stroke-linecap="round" stroke-linejoin="round"/>
</svg>
