<svg width="570" height="370" viewBox="0 0 570 370" fill="none" xmlns="http://www.w3.org/2000/svg">
<path d="M368.589 21.6953H329.23C327.574 21.6953 326.23 23.0331 326.23 24.69C326.23 38.847 326.23 62.3935 326.23 62.844C326.23 63.4492 368.589 62.844 369.195 62.844C369.679 62.844 369.396 47.5141 369.195 39.8492" stroke="black" stroke-width="2" stroke-linecap="round" stroke-linejoin="round"/>
<path d="M348.62 53.1614C348.136 53.1614 337.929 41.8657 332.887 36.2178C337.526 40.0503 347.168 47.7153 348.62 47.7153C350.072 47.7153 372.623 23.9136 383.718 12.0127C372.22 25.7289 349.104 53.1614 348.62 53.1614Z" fill="#2F62F6" stroke="#2F62F6" stroke-width="2" stroke-linecap="round" stroke-linejoin="round"/>
<path d="M369.799 82.2079V81.6185C369.799 79.9456 368.43 78.5959 366.758 78.6188L328.495 79.143C326.89 79.1649 325.586 80.4429 325.541 82.0478C325.152 95.9843 324.722 119.274 325.624 119.726C326.835 120.331 368.589 121.541 369.799 120.936C370.767 120.452 370.202 106.615 369.799 99.7566" stroke="black" stroke-width="2" stroke-linecap="round" stroke-linejoin="round"/>
<path d="M351.041 110.043C350.557 110.043 340.35 98.7475 335.308 93.0997C339.947 96.9321 349.589 104.597 351.041 104.597C352.493 104.597 375.044 80.7954 386.138 68.8945C374.641 82.6108 351.525 110.043 351.041 110.043Z" fill="#2F62F6" stroke="#2F62F6" stroke-width="2" stroke-linecap="round" stroke-linejoin="round"/>
<path d="M371.009 142.115V142.115C371.009 140.459 369.666 139.09 368.009 139.09H329.835C328.178 139.09 326.835 140.433 326.835 142.09V176.674C326.835 178.315 328.154 179.651 329.794 179.673L368.574 180.197C370.246 180.22 371.614 178.87 371.614 177.198V162.085" stroke="black" stroke-width="2" stroke-linecap="round" stroke-linejoin="round"/>
<path d="M353.46 171.767C352.976 171.767 342.769 160.471 337.727 154.823C342.366 158.656 352.008 166.321 353.46 166.321C354.912 166.321 377.463 142.519 388.557 130.618C377.06 144.334 353.944 171.767 353.46 171.767Z" fill="#2F62F6" stroke="#2F62F6" stroke-width="2" stroke-linecap="round" stroke-linejoin="round"/>
<path d="M370.405 203.839C371.211 217.353 372.583 244.503 371.615 244.987C370.405 245.593 328.046 245.593 327.44 244.382C326.835 243.172 326.835 203.234 328.046 202.628C329.014 202.144 352.654 202.023 364.958 202.628" stroke="black" stroke-width="2" stroke-linecap="round" stroke-linejoin="round"/>
<path d="M422.445 35.0078H534.999" stroke="black" stroke-width="2" stroke-linecap="round" stroke-linejoin="round"/>
<path d="M422.445 90.6797H534.999" stroke="black" stroke-width="2" stroke-linecap="round" stroke-linejoin="round"/>
<path d="M422.445 146.352H486.589" stroke="black" stroke-width="2" stroke-linecap="round" stroke-linejoin="round"/>
<path d="M422.445 162.084H534.999" stroke="black" stroke-width="2" stroke-linecap="round" stroke-linejoin="round"/>
<path d="M422.445 228.648H534.999" stroke="black" stroke-width="2" stroke-linecap="round" stroke-linejoin="round"/>
<path d="M422.445 211.705H534.999" stroke="black" stroke-width="2" stroke-linecap="round" stroke-linejoin="round"/>
<path d="M424.261 49.5312H470.251" stroke="black" stroke-width="2" stroke-linecap="round" stroke-linejoin="round"/>
<path fill-rule="evenodd" clip-rule="evenodd" d="M259.42 86.937C261.143 82.7412 262.027 78.3919 261.635 74.0866C259.893 54.9199 214.59 32.2683 176.256 60.1471C137.923 88.026 144.893 116.776 144.893 116.776C144.893 116.776 126.124 116.776 117.885 134.2C111.715 147.25 117.885 165.564 117.885 165.564C117.885 165.564 96.1056 172.534 92.6199 195.185C86.6127 234.221 112.999 247.737 121.539 251.573C137.85 228.293 165.916 218.297 180.39 215.669C180.424 215.663 180.457 215.658 180.49 215.653L184.655 203.159C164.924 190.292 159.065 160.245 158.833 143.784C169.178 55.0751 223.547 81.847 249.439 106.322C250.416 117.456 250.736 128.941 250.163 140.021C259.608 136.299 273.58 127.011 272.961 111.549C272.459 99.0027 265.604 91.124 259.42 86.937ZM249.884 144.44C247.517 176.237 237.366 203.765 213.674 208.545L212.051 219.498C212.622 219.463 213.208 219.597 213.746 219.934C223.807 226.257 239.883 238.83 244.211 251.814C245.148 254.623 245.928 257.242 246.575 259.66C246.659 259.659 246.742 259.657 246.825 259.655C261.345 248.91 279.06 232.647 279.06 204.769C279.06 179.247 261.537 157.132 249.884 144.44Z" fill="black"/>
<path d="M261.635 74.0866L262.631 73.996V73.996L261.635 74.0866ZM259.42 86.937L258.495 86.557C258.315 86.9952 258.467 87.4995 258.859 87.7651L259.42 86.937ZM176.256 60.1471L175.668 59.3384L176.256 60.1471ZM144.893 116.776V117.776C145.2 117.776 145.489 117.635 145.679 117.394C145.868 117.153 145.937 116.838 145.865 116.54L144.893 116.776ZM117.885 134.2L116.981 133.773L117.885 134.2ZM117.885 165.564L118.19 166.516C118.445 166.435 118.657 166.254 118.778 166.015C118.898 165.776 118.918 165.499 118.833 165.245L117.885 165.564ZM92.6199 195.185L93.6082 195.337L92.6199 195.185ZM121.539 251.573L121.129 252.485C121.566 252.682 122.082 252.54 122.357 252.147L121.539 251.573ZM180.39 215.669L180.212 214.685H180.212L180.39 215.669ZM180.49 215.653L180.634 216.643C181.008 216.588 181.319 216.328 181.439 215.969L180.49 215.653ZM184.655 203.159L185.604 203.475C185.747 203.044 185.582 202.57 185.201 202.321L184.655 203.159ZM158.833 143.784L157.84 143.668C157.835 143.711 157.832 143.754 157.833 143.798L158.833 143.784ZM249.439 106.322L250.435 106.234C250.414 105.99 250.304 105.763 250.126 105.595L249.439 106.322ZM250.163 140.021L249.164 139.969C249.146 140.309 249.303 140.634 249.579 140.833C249.855 141.031 250.213 141.076 250.529 140.951L250.163 140.021ZM272.961 111.549L271.962 111.589L272.961 111.549ZM249.884 144.44L250.621 143.764C250.351 143.47 249.933 143.365 249.556 143.496C249.18 143.627 248.917 143.969 248.887 144.366L249.884 144.44ZM213.674 208.545L213.476 207.564C213.063 207.648 212.746 207.981 212.684 208.398L213.674 208.545ZM212.051 219.498L211.062 219.351C211.018 219.65 211.11 219.952 211.314 220.174C211.518 220.396 211.811 220.515 212.112 220.496L212.051 219.498ZM213.746 219.934L213.214 220.781L213.746 219.934ZM244.211 251.814L243.263 252.13L244.211 251.814ZM246.575 259.66L245.609 259.919C245.728 260.364 246.136 260.67 246.596 260.66L246.575 259.66ZM246.825 259.655L246.846 260.655C247.053 260.65 247.253 260.582 247.42 260.459L246.825 259.655ZM157.961 143.784L156.976 143.612C156.925 143.903 157.006 144.201 157.196 144.427C157.386 144.653 157.666 144.784 157.961 144.784V143.784ZM158.853 144.775C159.405 144.764 159.844 144.308 159.834 143.756C159.823 143.204 159.367 142.765 158.815 142.775L158.853 144.775ZM246.551 103.608C246.16 103.998 246.16 104.631 246.55 105.022C246.94 105.413 247.574 105.413 247.964 105.023L246.551 103.608ZM259.42 86.937L260.345 87.317C260.525 86.8789 260.373 86.3745 259.98 86.1089L259.42 86.937ZM252.923 83.6699L253.226 82.717C252.995 82.6433 252.744 82.6565 252.522 82.754L252.923 83.6699ZM231.565 91.9352C231.059 92.1568 230.829 92.7465 231.05 93.2524C231.272 93.7583 231.862 93.9887 232.367 93.7671L231.565 91.9352ZM162.854 124.221C163.36 123.999 163.59 123.409 163.368 122.903C163.147 122.398 162.557 122.167 162.051 122.389L162.854 124.221ZM161.446 123.746L161.045 122.83C160.737 122.964 160.518 123.244 160.461 123.574L161.446 123.746ZM260.64 74.1771C261.013 78.2853 260.173 82.4715 258.495 86.557L260.345 87.317C262.114 83.011 263.041 78.4986 262.631 73.996L260.64 74.1771ZM176.845 60.9559C195.736 47.2169 216.322 45.9364 232.398 50.4378C240.442 52.69 247.331 56.3834 252.298 60.66C257.285 64.9535 260.237 69.7443 260.64 74.1771L262.631 73.996C262.163 68.8455 258.798 63.6174 253.603 59.1443C248.388 54.6543 241.229 50.8334 232.937 48.5118C216.343 43.8654 195.111 45.1986 175.668 59.3384L176.845 60.9559ZM144.893 116.776C145.865 116.54 145.865 116.541 145.865 116.541C145.865 116.542 145.865 116.542 145.865 116.542C145.865 116.542 145.865 116.542 145.865 116.541C145.864 116.539 145.864 116.536 145.862 116.531C145.86 116.521 145.856 116.504 145.851 116.48C145.841 116.433 145.825 116.358 145.806 116.258C145.768 116.057 145.714 115.752 145.659 115.35C145.548 114.545 145.429 113.353 145.403 111.831C145.35 108.786 145.667 104.421 147.161 99.1909C150.145 88.7482 157.845 74.7735 176.845 60.9559L175.668 59.3384C156.334 73.3997 148.353 87.7393 145.238 98.6414C143.683 104.084 143.347 108.648 143.403 111.866C143.431 113.474 143.557 114.746 143.678 115.623C143.738 116.061 143.797 116.401 143.842 116.635C143.864 116.752 143.883 116.842 143.897 116.905C143.904 116.937 143.909 116.962 143.913 116.979C143.915 116.988 143.917 116.995 143.918 117.001C143.919 117.003 143.92 117.006 143.92 117.007C143.92 117.008 143.92 117.009 143.921 117.01C143.921 117.011 143.921 117.012 144.893 116.776ZM118.789 134.628C122.77 126.208 129.285 122.001 134.834 119.889C137.612 118.831 140.142 118.302 141.974 118.038C142.89 117.906 143.629 117.841 144.134 117.808C144.387 117.792 144.582 117.784 144.711 117.78C144.775 117.778 144.823 117.777 144.854 117.776C144.869 117.776 144.88 117.776 144.887 117.776C144.89 117.776 144.892 117.776 144.893 117.776C144.894 117.776 144.894 117.776 144.894 117.776C144.894 117.776 144.894 117.776 144.894 117.776C144.893 117.776 144.893 117.776 144.893 116.776C144.893 115.776 144.892 115.776 144.892 115.776C144.891 115.776 144.891 115.776 144.89 115.776C144.889 115.776 144.888 115.776 144.886 115.776C144.882 115.776 144.878 115.776 144.872 115.776C144.86 115.776 144.844 115.776 144.824 115.777C144.783 115.777 144.725 115.778 144.65 115.781C144.499 115.785 144.283 115.794 144.006 115.812C143.453 115.848 142.662 115.918 141.689 116.059C139.745 116.339 137.067 116.899 134.123 118.019C128.227 120.263 121.239 124.769 116.981 133.773L118.789 134.628ZM117.885 165.564C118.833 165.245 118.833 165.245 118.833 165.245C118.833 165.245 118.833 165.245 118.833 165.245C118.833 165.245 118.833 165.244 118.832 165.243C118.832 165.242 118.831 165.239 118.83 165.235C118.827 165.228 118.823 165.216 118.818 165.2C118.807 165.167 118.791 165.118 118.77 165.052C118.728 164.92 118.667 164.723 118.59 164.466C118.438 163.952 118.225 163.2 117.987 162.255C117.513 160.364 116.943 157.708 116.564 154.652C115.801 148.509 115.825 140.897 118.789 134.628L116.981 133.773C113.775 140.554 113.799 148.622 114.579 154.899C114.971 158.053 115.558 160.791 116.048 162.742C116.292 163.718 116.513 164.498 116.674 165.037C116.754 165.306 116.819 165.515 116.864 165.658C116.887 165.73 116.905 165.785 116.917 165.822C116.924 165.841 116.928 165.856 116.932 165.866C116.933 165.871 116.935 165.875 116.936 165.878C116.936 165.879 116.937 165.881 116.937 165.881C116.937 165.882 116.937 165.882 116.937 165.883C116.937 165.883 116.937 165.883 117.885 165.564ZM93.6082 195.337C95.3017 184.333 101.432 177.135 107.174 172.67C110.046 170.436 112.813 168.892 114.861 167.908C115.884 167.417 116.724 167.066 117.306 166.839C117.596 166.726 117.822 166.644 117.972 166.591C118.048 166.564 118.104 166.545 118.141 166.533C118.159 166.526 118.173 166.522 118.181 166.519C118.185 166.518 118.188 166.517 118.189 166.517C118.19 166.516 118.19 166.516 118.191 166.516C118.191 166.516 118.19 166.516 118.191 166.516C118.19 166.516 118.19 166.516 117.885 165.564C117.58 164.612 117.58 164.612 117.579 164.612C117.579 164.612 117.578 164.612 117.578 164.612C117.576 164.613 117.575 164.613 117.573 164.614C117.569 164.615 117.564 164.617 117.558 164.619C117.545 164.623 117.527 164.629 117.504 164.637C117.458 164.652 117.392 164.675 117.307 164.705C117.137 164.765 116.891 164.854 116.579 164.976C115.956 165.219 115.068 165.59 113.994 166.106C111.849 167.136 108.954 168.751 105.946 171.091C99.9261 175.773 93.4238 183.386 91.6315 195.033L93.6082 195.337ZM121.948 250.661C117.728 248.765 109.172 244.507 102.409 235.958C95.6726 227.445 90.6457 214.588 93.6082 195.337L91.6315 195.033C88.5868 214.818 93.7497 228.238 100.84 237.199C107.903 246.126 116.81 250.545 121.129 252.485L121.948 250.661ZM122.357 252.147C138.456 229.171 166.223 219.257 180.569 216.653L180.212 214.685C165.609 217.336 137.244 227.415 120.72 250.999L122.357 252.147ZM180.569 216.653C180.591 216.649 180.612 216.646 180.634 216.643L180.346 214.663C180.301 214.67 180.257 214.677 180.212 214.685L180.569 216.653ZM181.439 215.969L185.604 203.475L183.706 202.843L179.541 215.337L181.439 215.969ZM185.201 202.321C175.592 196.055 169.297 185.556 165.374 174.485C161.456 163.425 159.948 151.908 159.833 143.77L157.833 143.798C157.95 152.121 159.487 163.858 163.489 175.153C167.487 186.437 173.987 197.396 184.109 203.996L185.201 202.321ZM159.826 143.9C162.402 121.809 167.707 107.041 174.523 97.6521C181.31 88.3029 189.618 84.2523 198.379 83.6063C207.19 82.9566 216.548 85.7457 225.357 90.2649C234.157 94.7793 242.334 100.981 248.752 107.048L250.126 105.595C243.598 99.4245 235.27 93.1021 226.27 88.4854C217.28 83.8736 207.544 80.925 198.232 81.6117C188.872 82.3019 180.03 86.6616 172.904 96.4771C165.807 106.253 160.436 121.404 157.84 143.668L159.826 143.9ZM248.443 106.409C249.416 117.505 249.734 128.943 249.164 139.969L251.161 140.072C251.737 128.94 251.416 117.408 250.435 106.234L248.443 106.409ZM271.962 111.589C272.257 118.978 269.077 124.912 264.619 129.49C260.149 134.081 254.428 137.265 249.796 139.09L250.529 140.951C255.342 139.054 261.33 135.734 266.052 130.885C270.787 126.023 274.283 119.582 273.96 111.509L271.962 111.589ZM258.859 87.7651C264.849 91.8205 271.476 99.4348 271.962 111.589L273.96 111.509C273.443 98.5707 266.359 90.4276 259.98 86.1089L258.859 87.7651ZM248.887 144.366C247.708 160.198 244.596 174.883 238.884 186.172C233.181 197.443 224.935 205.253 213.476 207.564L213.871 209.525C226.105 207.057 234.78 198.712 240.668 187.075C246.547 175.457 249.693 160.479 250.882 144.515L248.887 144.366ZM212.684 208.398L211.062 219.351L213.04 219.645L214.663 208.691L212.684 208.398ZM212.112 220.496C212.481 220.473 212.859 220.558 213.214 220.781L214.278 219.088C213.558 218.635 212.762 218.452 211.99 218.5L212.112 220.496ZM213.214 220.781C218.202 223.916 224.68 228.599 230.438 234.099C236.213 239.615 241.175 245.868 243.263 252.13L245.16 251.498C242.919 244.775 237.679 238.25 231.819 232.653C225.942 227.039 219.351 222.275 214.278 219.088L213.214 220.781ZM243.263 252.13C244.193 254.921 244.967 257.52 245.609 259.919L247.541 259.402C246.889 256.964 246.103 254.326 245.16 251.498L243.263 252.13ZM246.803 258.655C246.72 258.657 246.637 258.659 246.554 258.661L246.596 260.66C246.68 260.658 246.763 260.657 246.846 260.655L246.803 258.655ZM278.06 204.769C278.06 232.145 260.694 248.148 246.23 258.851L247.42 260.459C261.996 249.672 280.06 233.149 280.06 204.769H278.06ZM249.148 145.117C260.795 157.803 278.06 179.665 278.06 204.769H280.06C280.06 178.829 262.278 156.461 250.621 143.764L249.148 145.117ZM157.961 144.784C158.245 144.784 158.543 144.781 158.853 144.775L158.815 142.775C158.516 142.781 158.232 142.784 157.961 142.784V144.784ZM247.964 105.023C253.002 99.9878 257.658 93.8562 260.345 87.317L258.495 86.557C255.94 92.7756 251.47 98.6922 246.551 103.608L247.964 105.023ZM259.98 86.1089C257.504 84.432 255.114 83.3177 253.226 82.717L252.62 84.6228C254.309 85.1604 256.527 86.1859 258.859 87.7651L259.98 86.1089ZM252.522 82.754L231.565 91.9352L232.367 93.7671L253.324 84.5859L252.522 82.754ZM162.051 122.389L161.045 122.83L161.847 124.662L162.854 124.221L162.051 122.389ZM160.461 123.574L156.976 143.612L158.946 143.955L162.431 123.917L160.461 123.574Z" fill="black"/>
<path d="M211.861 220.782L213.606 209M180.394 215.941L184.025 205.049" stroke="black" stroke-width="2" stroke-linecap="round"/>
<path d="M62.999 357.231C75.196 332.546 103.946 276.905 121.37 251.814C138.795 226.723 167.64 215.263 180.999 213.521C182.161 220.2 188.628 235.609 196.295 237.003C203.961 238.397 210.409 227.147 211.861 220.177C221.154 225.404 239.333 237.178 244.211 251.814C249.09 266.45 249.729 275.917 249.439 278.822" stroke="black" stroke-width="2" stroke-linecap="round" stroke-linejoin="round"/>
<path d="M202.394 209.125C168.242 206.337 159.123 164.402 158.833 143.784C169.178 55.0751 223.547 81.847 249.439 106.322C253.795 155.981 245.083 212.61 202.394 209.125Z" stroke="black" stroke-width="2" stroke-linecap="round" stroke-linejoin="round"/>
<path d="M191.938 134.2C182.181 141.867 165.221 143.784 157.961 143.784L117.885 165.564C117.885 165.564 111.715 147.25 117.885 134.2C126.124 116.776 144.893 116.776 144.893 116.776C144.893 116.776 137.923 88.026 176.256 60.1471C214.59 32.2683 259.893 54.9199 261.635 74.0866C263.378 93.2533 239.855 113.291 229.4 116.776C221.037 119.564 209.653 119.099 205.006 118.518C204.716 120.551 201.696 126.534 191.938 134.2Z" fill="black" stroke="black" stroke-width="2" stroke-linecap="round" stroke-linejoin="round"/>
<path d="M236.445 148.087C236.445 148.087 238.059 159.95 235.224 160.064C232.701 159.484 234.987 151.837 236.445 148.087Z" fill="black"/>
<path d="M245.041 142.912C244.24 144.175 241.399 146.978 236.445 148.087M236.445 148.087C236.445 148.087 238.059 159.95 235.224 160.064C232.701 159.484 234.987 151.837 236.445 148.087Z" stroke="black" stroke-width="2" stroke-linecap="round" stroke-linejoin="round"/>
<path d="M198.111 145.708C198.111 145.708 199.725 157.571 196.89 157.685C194.367 157.105 196.653 149.459 198.111 145.708Z" fill="black"/>
<path d="M206.707 140.533C205.906 141.796 203.065 144.599 198.111 145.708M198.111 145.708C198.111 145.708 199.725 157.571 196.89 157.685C194.367 157.105 196.653 149.459 198.111 145.708Z" stroke="black" stroke-width="2" stroke-linecap="round" stroke-linejoin="round"/>
<path d="M207.621 172.533L215.323 174.235C210.87 150.807 213.398 136.634 217.157 128.973" stroke="black" stroke-width="2" stroke-linecap="round" stroke-linejoin="round"/>
<path d="M158.833 143.783C159.123 164.402 168.242 206.337 202.394 209.124C245.083 212.609 253.795 155.98 249.439 106.321" stroke="black" stroke-width="2" stroke-linecap="round" stroke-linejoin="round"/>
<path d="M146.297 277.418C145.426 278.58 144.554 281.774 148.039 285.259C152.395 289.615 156.751 290.486 155.88 293.1C155.183 295.191 152.105 295.713 150.653 295.713" stroke="black" stroke-width="2" stroke-linecap="round" stroke-linejoin="round"/>
<path d="M145.764 270.981C150.991 267.496 177.999 298.86 178.87 298.86L174.514 303.216C163.188 293.633 141.582 273.769 145.764 270.981Z" fill="#2F62F6" stroke="#2F62F6" stroke-width="2" stroke-linecap="round" stroke-linejoin="round"/>
<path d="M184.969 311.928L180.613 308.443L184.969 304.896L188.866 309.131L184.969 311.928Z" fill="#2F62F6" stroke="#2F62F6" stroke-width="2" stroke-linecap="round" stroke-linejoin="round"/>
<path d="M170.159 324.125C170.159 324.125 175.386 312.799 182.356 306.701C185.137 304.267 195.424 294.504 193.681 292.761C191.939 291.019 176.257 298.86 165.803 314.542C157.439 327.087 148.959 346.486 145.765 354.618" stroke="black" stroke-width="2" stroke-linecap="round" stroke-linejoin="round"/>
<path d="M176.257 319.769C180.322 315.412 190.719 306.526 199.78 305.829" stroke="black" stroke-width="2" stroke-linecap="round" stroke-linejoin="round"/>
<path d="M180.613 324.996C181.484 324.124 191.939 315.412 198.909 314.541" stroke="black" stroke-width="2" stroke-linecap="round" stroke-linejoin="round"/>
<path d="M187.775 327.61C189.518 325.868 193.7 322.383 196.488 322.383" stroke="black" stroke-width="2" stroke-linecap="round" stroke-linejoin="round"/>
<path d="M186.711 356.359C195.133 329.352 212.499 275.511 214.59 276.208C217.203 277.079 221.559 282.306 221.559 284.049C221.559 285.443 205.297 332.256 197.165 355.488" stroke="black" stroke-width="2" stroke-linecap="round" stroke-linejoin="round"/>
<path d="M214.59 276.208C235.209 277.66 276.62 280.738 277.317 281.435C278.014 282.132 281.673 285.211 284.287 288.405C279.931 299.44 272.961 325.344 272.961 326.738" stroke="black" stroke-width="2" stroke-linecap="round" stroke-linejoin="round"/>
<path d="M274.704 318.897C282.255 320.93 299.621 330.572 308.681 352.875" stroke="black" stroke-width="2" stroke-linecap="round" stroke-linejoin="round"/>
<path d="M284.208 330.016C278.634 329.166 265.746 327.565 258.787 327.956C250.089 328.445 245.017 331.348 245.984 333.039C246.952 334.73 261.69 333.028 279.283 335.529" stroke="black" stroke-width="2" stroke-linecap="round" stroke-linejoin="round"/>
<path d="M284.496 340.926C282.009 340.808 267.091 340.1 258.721 341.448C252.024 342.525 249.743 343.929 249.439 344.496" stroke="black" stroke-width="2" stroke-linecap="round" stroke-linejoin="round"/>
<path d="M284.287 346.244C279.06 346.244 264.249 345.373 253.795 351.471" stroke="black" stroke-width="2" stroke-linecap="round" stroke-linejoin="round"/>
<path d="M285.158 351.132C284.287 351.132 269.348 348.464 269.348 355.725" stroke="black" stroke-width="2" stroke-linecap="round" stroke-linejoin="round"/>
<path d="M226.787 284.92C227.658 284.92 282.545 287.534 284.287 288.405" stroke="black" stroke-width="2" stroke-linecap="round" stroke-linejoin="round"/>
<path d="M218.946 273.595C219.237 271.852 222.257 268.019 225.045 270.11C228.53 272.724 227.658 277.08 225.045 281.436" stroke="black" stroke-width="2" stroke-linecap="round" stroke-linejoin="round"/>
<path d="M234.629 282.043C237.242 277.687 238.113 273.331 234.629 270.717C233.079 269.555 231.457 270.224 230.272 271.346" stroke="black" stroke-width="2" stroke-linecap="round" stroke-linejoin="round"/>
<path d="M243.34 282.043C245.954 277.687 246.825 273.331 243.34 270.717C241.791 269.555 240.169 270.224 238.984 271.346" stroke="black" stroke-width="2" stroke-linecap="round" stroke-linejoin="round"/>
<path d="M255.538 282.043C258.151 277.687 259.023 273.331 255.538 270.717C253.988 269.555 252.366 270.224 251.182 271.346" stroke="black" stroke-width="2" stroke-linecap="round" stroke-linejoin="round"/>
<path d="M267.734 282.043C270.348 277.687 271.219 273.331 267.734 270.717C266.184 269.555 264.562 270.224 263.378 271.346" stroke="black" stroke-width="2" stroke-linecap="round" stroke-linejoin="round"/>
<path d="M276.447 282.043C279.061 277.687 279.932 273.331 276.447 270.717C274.897 269.555 273.275 270.224 272.091 271.346" stroke="black" stroke-width="2" stroke-linecap="round" stroke-linejoin="round"/>
<path d="M164.66 218.967C160.595 230.293 158.832 255.473 172.772 263.14C186.711 270.807 196.004 255.88 198.908 247.458C200.07 252.685 205.181 263.14 216.332 263.14C230.272 263.14 232.886 242.231 228.529 231.776" stroke="black" stroke-width="2" stroke-linecap="round" stroke-linejoin="round"/>
<path d="M201.522 183.859C202.684 185.602 206.575 188.912 212.848 188.215" stroke="black" stroke-width="2" stroke-linecap="round" stroke-linejoin="round"/>
<ellipse cx="190.196" cy="142.041" rx="19.1667" ry="20.0379" stroke="black" stroke-width="2" stroke-linecap="round" stroke-linejoin="round"/>
<ellipse cx="233.757" cy="143.784" rx="19.1667" ry="20.0379" stroke="black" stroke-width="2" stroke-linecap="round" stroke-linejoin="round"/>
<path d="M77.2176 66.3758C79.1032 72.504 80.8238 86.6697 72.6214 94.3065C62.3683 103.852 48.5797 82.2856 56.7114 79.8107C62.4046 78.078 68.4444 91.5957 65.1243 109.444" stroke="black" stroke-width="2" stroke-linecap="round"/>
<path d="M415.122 293.74C428.516 297.846 416.733 320.571 410.524 314.766C406.176 310.702 414.863 298.712 431.98 292.664" stroke="#2F62F6" stroke-width="2" stroke-linecap="round"/>
</svg>
