<svg width="135" height="40" viewBox="0 0 135 40" fill="none" xmlns="http://www.w3.org/2000/svg">
<g clip-path="url(#clip0_128_3300)">
<path d="M130 0H5C2.23858 0 0 2.23858 0 5V35C0 37.7614 2.23858 40 5 40H130C132.761 40 135 37.7614 135 35V5C135 2.23858 132.761 0 130 0Z" fill="black"/>
<path d="M130 0.8C131.114 0.8 132.182 1.2425 132.97 2.03015C133.758 2.8178 134.2 3.88609 134.2 5V35C134.2 36.1139 133.758 37.1822 132.97 37.9698C132.182 38.7575 131.114 39.2 130 39.2H5C3.88609 39.2 2.8178 38.7575 2.03015 37.9698C1.2425 37.1822 0.8 36.1139 0.8 35V5C0.8 3.88609 1.2425 2.8178 2.03015 2.03015C2.8178 1.2425 3.88609 0.8 5 0.8H130ZM130 0H5C3.67392 0 2.40215 0.526784 1.46447 1.46447C0.526784 2.40215 0 3.67392 0 5L0 35C0 36.3261 0.526784 37.5979 1.46447 38.5355C2.40215 39.4732 3.67392 40 5 40H130C131.326 40 132.598 39.4732 133.536 38.5355C134.473 37.5979 135 36.3261 135 35V5C135 3.67392 134.473 2.40215 133.536 1.46447C132.598 0.526784 131.326 0 130 0Z" fill="#A6A6A6"/>
<path d="M68.1401 21.7501C67.3004 21.7541 66.4807 22.0067 65.7844 22.4761C65.0881 22.9455 64.5465 23.6106 64.2279 24.3875C63.9093 25.1644 63.828 26.0183 63.9942 26.8414C64.1605 27.6645 64.5668 28.4199 65.162 29.0123C65.7571 29.6047 66.5144 30.0075 67.3383 30.1699C68.1622 30.3322 69.0157 30.2469 69.7911 29.9247C70.5665 29.6024 71.2291 29.0577 71.6952 28.3592C72.1613 27.6607 72.4101 26.8398 72.4101 26.0001C72.4183 25.4381 72.3132 24.8801 72.1013 24.3595C71.8893 23.8388 71.5748 23.3662 71.1764 22.9696C70.7779 22.5731 70.3038 22.2607 69.7822 22.0512C69.2606 21.8417 68.7021 21.7393 68.1401 21.7501ZM68.1401 28.5801C67.6237 28.6162 67.1083 28.4962 66.6611 28.2355C66.2138 27.9748 65.8553 27.5857 65.6321 27.1186C65.409 26.6514 65.3315 26.128 65.4098 25.6163C65.4881 25.1045 65.7185 24.6282 66.0711 24.2492C66.4237 23.8701 66.8821 23.6059 67.3869 23.4909C67.8916 23.3759 68.4193 23.4154 68.9013 23.6042C69.3833 23.7931 69.7973 24.1225 70.0896 24.5498C70.3819 24.9771 70.5388 25.4824 70.5401 26.0001C70.5562 26.3281 70.5065 26.6561 70.3938 26.9645C70.2812 27.273 70.1079 27.5558 69.8842 27.7963C69.6606 28.0368 69.391 28.23 69.0914 28.3646C68.7919 28.4992 68.4684 28.5725 68.1401 28.5801ZM58.8301 21.7501C57.99 21.7521 57.1692 22.003 56.4717 22.4712C55.7741 22.9394 55.2309 23.6039 54.9107 24.3806C54.5906 25.1574 54.5079 26.0116 54.673 26.8354C54.8381 27.6591 55.2437 28.4155 55.8384 29.0088C56.4332 29.6022 57.1905 30.006 58.0146 30.1692C58.8388 30.3323 59.6928 30.2476 60.4688 29.9256C61.2448 29.6037 61.908 29.0589 62.3745 28.3602C62.8411 27.6616 63.0901 26.8403 63.0901 26.0001C63.0983 25.4381 62.9932 24.8801 62.7813 24.3595C62.5693 23.8388 62.2548 23.3662 61.8564 22.9696C61.4579 22.5731 60.9838 22.2607 60.4622 22.0512C59.9406 21.8417 59.3821 21.7393 58.8201 21.7501H58.8301ZM58.8301 28.5801C58.3134 28.6183 57.7972 28.5 57.3487 28.2407C56.9002 27.9814 56.5402 27.593 56.3155 27.1262C56.0907 26.6594 56.0118 26.1358 56.0888 25.6234C56.1658 25.1111 56.3953 24.6339 56.7474 24.2538C57.0995 23.8737 57.5578 23.6085 58.0628 23.4925C58.5677 23.3766 59.0959 23.4154 59.5785 23.6038C60.0611 23.7922 60.4757 24.1216 60.7685 24.549C61.0613 24.9764 61.2187 25.482 61.2201 26.0001C61.2362 26.3281 61.1865 26.6561 61.0738 26.9645C60.9612 27.273 60.7879 27.5558 60.5642 27.7963C60.3406 28.0368 60.071 28.23 59.7714 28.3646C59.4719 28.4992 59.1484 28.5725 58.8201 28.5801H58.8301ZM47.7401 23.0601V24.8601H52.0601C51.9924 25.7079 51.6399 26.5079 51.0601 27.1301C50.6279 27.5704 50.1083 27.9152 49.5348 28.1426C48.9613 28.3699 48.3465 28.4747 47.7301 28.4501C46.4571 28.4501 45.2362 27.9444 44.336 27.0442C43.4358 26.1441 42.9301 24.9232 42.9301 23.6501C42.9301 22.3771 43.4358 21.1562 44.336 20.256C45.2362 19.3558 46.4571 18.8501 47.7301 18.8501C48.9479 18.8303 50.1239 19.2942 51.0001 20.1401L52.2701 18.8701C51.6786 18.2711 50.9728 17.797 50.1947 17.4758C49.4166 17.1546 48.5819 16.9928 47.7401 17.0001C46.8511 16.9655 45.9643 17.1107 45.1327 17.4271C44.3012 17.7434 43.5421 18.2244 42.9009 18.8411C42.2596 19.4579 41.7495 20.1977 41.4011 21.0163C41.0527 21.8349 40.873 22.7154 40.873 23.6051C40.873 24.4948 41.0527 25.3753 41.4011 26.1939C41.7495 27.0125 42.2596 27.7524 42.9009 28.3691C43.5421 28.9859 44.3012 29.4668 45.1327 29.7831C45.9643 30.0995 46.8511 30.2447 47.7401 30.2101C48.5961 30.2488 49.4504 30.1037 50.2455 29.7846C51.0407 29.4655 51.7583 28.9798 52.3501 28.3601C53.3978 27.209 53.9571 25.6959 53.9101 24.1401C53.9133 23.7611 53.8798 23.3827 53.8101 23.0101L47.7401 23.0601ZM93.0501 24.4601C92.7893 23.6929 92.3016 23.0229 91.6516 22.539C91.0016 22.055 90.2199 21.7799 89.4101 21.7501C88.8631 21.749 88.3217 21.8602 87.8193 22.0767C87.317 22.2931 86.8644 22.6103 86.4895 23.0087C86.1146 23.407 85.8254 23.878 85.6397 24.3925C85.4541 24.907 85.3759 25.4542 85.4101 26.0001C85.3979 26.559 85.4986 27.1147 85.706 27.6338C85.9133 28.153 86.2232 28.625 86.6171 29.0217C87.0111 29.4184 87.4809 29.7316 87.9985 29.9427C88.5162 30.1538 89.0711 30.2583 89.6301 30.2501C90.3296 30.2539 91.0191 30.0841 91.6369 29.756C92.2547 29.4279 92.7815 28.9518 93.1701 28.3701L91.7201 27.3701C91.5037 27.7309 91.1973 28.0293 90.8309 28.2362C90.4646 28.443 90.0508 28.5512 89.6301 28.5501C89.1969 28.5666 88.7688 28.4524 88.4014 28.2224C88.034 27.9923 87.7444 27.657 87.5701 27.2601L93.2601 24.9101L93.0501 24.4601ZM87.2501 25.8801C87.2298 25.5708 87.2715 25.2606 87.3726 24.9676C87.4737 24.6745 87.6323 24.4047 87.8391 24.1737C88.0458 23.9428 88.2966 23.7554 88.5766 23.6225C88.8567 23.4897 89.1604 23.4141 89.4701 23.4001C89.7927 23.3789 90.1144 23.4528 90.3953 23.6128C90.6762 23.7728 90.9039 24.0118 91.0501 24.3001L87.2501 25.8801ZM82.6301 30.0001H84.5001V17.5001H82.6301V30.0001ZM79.5701 22.7001H79.5001C79.2183 22.385 78.873 22.133 78.487 21.9607C78.101 21.7884 77.6829 21.6996 77.2601 21.7001C76.1673 21.7531 75.1367 22.2245 74.3821 23.0167C73.6274 23.8089 73.2064 24.861 73.2064 25.9551C73.2064 27.0492 73.6274 28.1014 74.3821 28.8935C75.1367 29.6857 76.1673 30.1571 77.2601 30.2101C77.6839 30.2172 78.104 30.1314 78.491 29.9586C78.8781 29.7859 79.2225 29.5304 79.5001 29.2101H79.5601V29.8201C79.5601 31.4501 78.6901 32.3201 77.2901 32.3201C76.8238 32.3092 76.3713 32.1598 75.9902 31.8909C75.6091 31.622 75.3167 31.2458 75.1501 30.8101L73.5201 31.4901C73.8269 32.2365 74.3497 32.8742 75.0214 33.3214C75.6931 33.7686 76.4831 34.0049 77.2901 34.0001C79.4801 34.0001 81.2901 32.7101 81.2901 29.5701V22.0001H79.5701V22.7001ZM77.4301 28.5801C76.785 28.5233 76.1847 28.2268 75.7474 27.7493C75.31 27.2717 75.0675 26.6477 75.0675 26.0001C75.0675 25.3526 75.31 24.7285 75.7474 24.2509C76.1847 23.7734 76.785 23.477 77.4301 23.4201C77.7499 23.4365 78.0632 23.5168 78.3516 23.6562C78.6399 23.7955 78.8974 23.9912 79.1089 24.2316C79.3205 24.472 79.4818 24.7524 79.5833 25.0561C79.6848 25.3598 79.7245 25.6808 79.7001 26.0001C79.7274 26.3208 79.6893 26.6437 79.5883 26.9493C79.4872 27.2548 79.3252 27.5367 79.1121 27.7779C78.8989 28.0191 78.6391 28.2145 78.3483 28.3524C78.0575 28.4903 77.7417 28.5678 77.4201 28.5801H77.4301ZM101.81 17.5001H97.3401V30.0001H99.2101V25.2601H101.82C102.353 25.2984 102.888 25.2265 103.392 25.0488C103.896 24.8712 104.358 24.5916 104.749 24.2276C105.14 23.8636 105.452 23.4229 105.665 22.933C105.879 22.443 105.989 21.9144 105.989 21.3801C105.989 20.8458 105.879 20.3172 105.665 19.8273C105.452 19.3374 105.14 18.8967 104.749 18.5326C104.358 18.1686 103.896 17.889 103.392 17.7114C102.888 17.5337 102.353 17.4618 101.82 17.5001H101.81ZM101.81 23.5001H99.2001V19.2401H101.85C102.419 19.2401 102.965 19.4661 103.367 19.8684C103.769 20.2706 103.995 20.8162 103.995 21.3851C103.995 21.954 103.769 22.4996 103.367 22.9019C102.965 23.3041 102.419 23.5301 101.85 23.5301L101.81 23.5001ZM113.34 21.7001C112.659 21.6594 111.981 21.8185 111.39 22.1578C110.798 22.4972 110.319 23.0019 110.01 23.6101L111.67 24.3001C111.834 23.9985 112.082 23.7509 112.383 23.5876C112.685 23.4242 113.028 23.3521 113.37 23.3801C113.607 23.3524 113.848 23.3722 114.078 23.4384C114.307 23.5047 114.521 23.616 114.708 23.7658C114.894 23.9157 115.048 24.1011 115.162 24.3113C115.276 24.5215 115.346 24.7523 115.37 24.9901V25.1201C114.769 24.8021 114.1 24.6372 113.42 24.6401C111.63 24.6401 109.82 25.6401 109.82 27.4501C109.838 27.8361 109.933 28.2145 110.099 28.5632C110.266 28.9118 110.5 29.2235 110.789 29.4799C111.078 29.7363 111.416 29.9321 111.782 30.0558C112.148 30.1795 112.535 30.2286 112.92 30.2001C113.391 30.2339 113.862 30.1404 114.285 29.9292C114.707 29.7181 115.065 29.3971 115.32 29.0001H115.38V30.0001H117.18V25.1901C117.18 23.0001 115.52 21.7301 113.39 21.7301L113.34 21.7001ZM113.11 28.5501C112.5 28.5501 111.65 28.2401 111.65 27.4901C111.65 26.4901 112.71 26.1601 113.65 26.1601C114.244 26.1455 114.831 26.2905 115.35 26.5801C115.288 27.1215 115.031 27.6221 114.629 27.9896C114.227 28.3571 113.705 28.5668 113.16 28.5801L113.11 28.5501ZM123.74 22.0001L121.6 27.4201H121.54L119.32 22.0001H117.32L120.65 29.5801L118.75 33.7901H120.7L125.82 22.0001H123.74ZM106.93 30.0001H108.8V17.5001H106.93V30.0001Z" fill="white"/>
<path d="M10.4401 7.53973C10.1142 7.93084 9.9497 8.43152 9.98014 8.93973V31.0597C9.9497 31.5679 10.1142 32.0686 10.4401 32.4597L10.5101 32.5297L22.9001 20.1497V19.8597L10.5101 7.46973L10.4401 7.53973Z" fill="url(#paint0_linear_128_3300)"/>
<path d="M27.0004 24.2797L22.9004 20.1497V19.8597L27.0004 15.7197L27.0904 15.7697L32.0004 18.5597C33.4004 19.3497 33.4004 20.6497 32.0004 21.4497L27.1104 24.2297L27.0004 24.2797Z" fill="url(#paint1_linear_128_3300)"/>
<path d="M27.1204 24.22L22.9004 20L10.4404 32.46C10.7258 32.7109 11.0898 32.8541 11.4696 32.8651C11.8494 32.876 12.2211 32.754 12.5204 32.52L27.1304 24.22" fill="url(#paint2_linear_128_3300)"/>
<path d="M27.1197 15.7796L12.5097 7.47956C12.2103 7.24557 11.8387 7.12351 11.4589 7.13447C11.0791 7.14542 10.715 7.28871 10.4297 7.53956L22.8997 19.9996L27.1197 15.7796Z" fill="url(#paint3_linear_128_3300)"/>
<path opacity="0.2" d="M27.0004 24.1299L12.5104 32.3799C12.2217 32.5957 11.8709 32.7124 11.5104 32.7124C11.1499 32.7124 10.7991 32.5957 10.5104 32.3799L10.4404 32.4499L10.5104 32.5199C10.7985 32.7373 11.1495 32.8549 11.5104 32.8549C11.8713 32.8549 12.2224 32.7373 12.5104 32.5199L27.1204 24.2199L27.0004 24.1299Z" fill="black"/>
<path opacity="0.12" d="M10.4401 32.32C10.1142 31.9289 9.9497 31.4282 9.98014 30.92V31.07C9.9497 31.5782 10.1142 32.0789 10.4401 32.47L10.5101 32.4L10.4401 32.32ZM32.0001 21.3L27.0001 24.13L27.0901 24.22L32.0001 21.44C32.2787 21.3091 32.5179 21.1071 32.6935 20.8543C32.869 20.6014 32.9748 20.3068 33.0001 20C32.9439 20.2787 32.8245 20.5408 32.6512 20.7662C32.4778 20.9915 32.2551 21.1742 32.0001 21.3Z" fill="black"/>
<path opacity="0.25" d="M12.5097 7.62043L31.9997 18.7004C32.2547 18.8263 32.4774 19.0089 32.6508 19.2343C32.8241 19.4596 32.9435 19.7217 32.9997 20.0004C32.9744 19.6937 32.8686 19.399 32.6931 19.1462C32.5175 18.8933 32.2783 18.6913 31.9997 18.5604L12.5097 7.48043C11.1097 6.69043 9.96973 7.35043 9.96973 8.95043V9.10043C9.99973 7.49043 11.1197 6.83043 12.5097 7.62043Z" fill="white"/>
<path d="M42.1101 14.2705H41.3701V12.2705H42.0001C42.2874 11.9661 42.5043 11.6023 42.6356 11.2049C42.767 10.8075 42.8095 10.3861 42.7601 9.97046V7.00046H46.7601V12.2605H47.4301V14.2605H46.6901V13.0005H42.1101V14.2705ZM43.5001 10.0005C43.5468 10.8071 43.3481 11.609 42.9301 12.3005H45.9301V7.74046H43.5001V10.0005ZM53.4101 12.2205C52.8255 12.8018 52.0346 13.1281 51.2101 13.1281C50.3857 13.1281 49.5947 12.8018 49.0101 12.2205C48.4419 11.619 48.1253 10.8229 48.1253 9.99546C48.1253 9.16802 48.4419 8.37194 49.0101 7.77046C49.2983 7.4802 49.641 7.24984 50.0186 7.09263C50.3962 6.93543 50.8011 6.85449 51.2101 6.85449C51.6191 6.85449 52.0241 6.93543 52.4016 7.09263C52.7792 7.24984 53.122 7.4802 53.4101 7.77046C53.9806 8.37079 54.2987 9.1673 54.2987 9.99546C54.2987 10.8236 53.9806 11.6201 53.4101 12.2205ZM49.5801 11.7205C50.013 12.1516 50.5991 12.3936 51.2101 12.3936C51.8211 12.3936 52.4072 12.1516 52.8401 11.7205C53.2674 11.2495 53.504 10.6363 53.504 10.0005C53.504 9.36457 53.2674 8.75144 52.8401 8.28046C52.4072 7.84934 51.8211 7.60729 51.2101 7.60729C50.5991 7.60729 50.013 7.84934 49.5801 8.28046C49.1529 8.75144 48.9162 9.36457 48.9162 10.0005C48.9162 10.6363 49.1529 11.2495 49.5801 11.7205ZM58.1801 13.1305C57.7673 13.1387 57.3571 13.0632 56.9742 12.9087C56.5913 12.7542 56.2436 12.5238 55.9521 12.2313C55.6606 11.9389 55.4313 11.5905 55.278 11.2071C55.1247 10.8237 55.0506 10.4133 55.0601 10.0005C55.0506 9.58766 55.1247 9.17721 55.278 8.79381C55.4313 8.41041 55.6606 8.06201 55.9521 7.76957C56.2436 7.47714 56.5913 7.24672 56.9742 7.0922C57.3571 6.93768 57.7673 6.86225 58.1801 6.87046C58.5985 6.8601 59.0139 6.9447 59.3949 7.1179C59.776 7.29109 60.1128 7.54839 60.3801 7.87046L59.8401 8.39046C59.6426 8.13971 59.3879 7.93987 59.0974 7.80765C58.8069 7.67544 58.4889 7.61468 58.1701 7.63046C57.8632 7.62248 57.5578 7.67686 57.2725 7.7903C56.9871 7.90375 56.7278 8.0739 56.5101 8.29046C56.0765 8.76426 55.8361 9.38322 55.8361 10.0255C55.8361 10.6677 56.0765 11.2867 56.5101 11.7605C56.7278 11.977 56.9871 12.1472 57.2725 12.2606C57.5578 12.3741 57.8632 12.4284 58.1701 12.4205C58.5221 12.4173 58.869 12.3358 59.1855 12.1819C59.502 12.0279 59.7803 11.8054 60.0001 11.5305L60.5401 12.0705C60.268 12.4006 59.9266 12.6669 59.5401 12.8505C59.1133 13.0438 58.6486 13.1394 58.1801 13.1305ZM63.6801 13.0005H62.9101V7.74046H61.2301V7.00046H65.3501V7.74046H63.6801V13.0005ZM70.6501 7.00046L68.3801 12.0605C68.2893 12.3598 68.1077 12.6235 67.8605 12.8152C67.6133 13.0068 67.3126 13.117 67.0001 13.1305C66.7934 13.1278 66.5894 13.0836 66.4001 13.0005L66.6001 12.2905C66.7216 12.3612 66.8595 12.3991 67.0001 12.4005C67.1471 12.4115 67.2939 12.3766 67.4201 12.3005C67.5406 12.1985 67.6335 12.0678 67.6901 11.9205L67.9101 11.4405L65.9101 7.01046H66.8201L68.3001 10.4505L69.7401 7.00046H70.6501ZM71.5201 13.0005V7.00046H75.8601V13.0005H75.0901V7.74046H72.2901V13.0005H71.5201ZM77.2301 13.0005V7.00046H78.0001V9.57046H81.0001V7.00046H81.7701V13.0005H81.0001V10.2905H78.0001V13.0005H77.2301ZM88.0601 12.2205C87.4755 12.8018 86.6846 13.1281 85.8601 13.1281C85.0357 13.1281 84.2447 12.8018 83.6601 12.2205C83.0919 11.619 82.7753 10.8229 82.7753 9.99546C82.7753 9.16802 83.0919 8.37194 83.6601 7.77046C83.9483 7.4802 84.291 7.24984 84.6686 7.09263C85.0462 6.93543 85.4511 6.85449 85.8601 6.85449C86.2691 6.85449 86.6741 6.93543 87.0516 7.09263C87.4292 7.24984 87.772 7.4802 88.0601 7.77046C88.6306 8.37079 88.9487 9.1673 88.9487 9.99546C88.9487 10.8236 88.6306 11.6201 88.0601 12.2205ZM84.2301 11.7205C84.6631 12.1516 85.2491 12.3936 85.8601 12.3936C86.4711 12.3936 87.0572 12.1516 87.4901 11.7205C87.9174 11.2495 88.154 10.6363 88.154 10.0005C88.154 9.36457 87.9174 8.75144 87.4901 8.28046C87.0572 7.84934 86.4711 7.60729 85.8601 7.60729C85.2491 7.60729 84.6631 7.84934 84.2301 8.28046C83.8029 8.75144 83.5662 9.36457 83.5662 10.0005C83.5662 10.6363 83.8029 11.2495 84.2301 11.7205ZM92.0901 13.0005V7.00046H94.2601C94.7107 6.99195 95.1473 7.15659 95.4801 7.46046C95.6472 7.60547 95.7804 7.78544 95.8703 7.98762C95.9601 8.1898 96.0045 8.40925 96.0001 8.63046C96.0048 8.89702 95.9281 9.15867 95.7801 9.38046C95.6333 9.59589 95.4288 9.76569 95.1901 9.87046C95.4802 9.96648 95.7346 10.1477 95.9201 10.3905C96.1124 10.6355 96.2148 10.939 96.2101 11.2505C96.2152 11.481 96.1695 11.7098 96.0762 11.9207C95.9828 12.1315 95.8442 12.3192 95.6701 12.4705C95.3219 12.7916 94.8638 12.967 94.3901 12.9605L92.0901 13.0005ZM92.8601 9.57046H94.2601C94.3909 9.57592 94.5212 9.5528 94.6421 9.50271C94.763 9.45263 94.8715 9.37678 94.9601 9.28046C95.0487 9.20018 95.1201 9.10289 95.1702 8.99439C95.2204 8.88589 95.2481 8.76841 95.2518 8.64895C95.2556 8.52949 95.2352 8.41051 95.192 8.29909C95.1487 8.18768 95.0835 8.08611 95.0001 8.00046C94.9165 7.90593 94.8132 7.83095 94.6974 7.78083C94.5816 7.73072 94.4562 7.70669 94.3301 7.71046H92.9001L92.8601 9.57046ZM92.8601 12.2605H94.4101C94.5456 12.265 94.6803 12.2396 94.8048 12.186C94.9293 12.1324 95.0403 12.052 95.1301 11.9505C95.3064 11.7676 95.4065 11.5245 95.4101 11.2705C95.4101 11.0052 95.3048 10.7509 95.1172 10.5634C94.9297 10.3758 94.6753 10.2705 94.4101 10.2705H92.8901L92.8601 12.2605Z" fill="white" stroke="white" stroke-width="0.2" stroke-miterlimit="10"/>
</g>
<defs>
<linearGradient id="paint0_linear_128_3300" x1="21.8001" y1="8.70974" x2="5.02014" y2="25.4897" gradientUnits="userSpaceOnUse">
<stop stop-color="#00A0FF"/>
<stop offset="0.01" stop-color="#00A1FF"/>
<stop offset="0.26" stop-color="#00BEFF"/>
<stop offset="0.51" stop-color="#00D2FF"/>
<stop offset="0.76" stop-color="#00DFFF"/>
<stop offset="1" stop-color="#00E3FF"/>
</linearGradient>
<linearGradient id="paint1_linear_128_3300" x1="33.8304" y1="19.9997" x2="9.64039" y2="19.9997" gradientUnits="userSpaceOnUse">
<stop stop-color="#FFE000"/>
<stop offset="0.41" stop-color="#FFBD00"/>
<stop offset="0.78" stop-color="#FFA500"/>
<stop offset="1" stop-color="#FF9C00"/>
</linearGradient>
<linearGradient id="paint2_linear_128_3300" x1="24.8304" y1="22.3" x2="2.07043" y2="45.05" gradientUnits="userSpaceOnUse">
<stop stop-color="#FF3A44"/>
<stop offset="1" stop-color="#C31162"/>
</linearGradient>
<linearGradient id="paint3_linear_128_3300" x1="7.29969" y1="0.17955" x2="17.4597" y2="10.3396" gradientUnits="userSpaceOnUse">
<stop stop-color="#32A071"/>
<stop offset="0.07" stop-color="#2DA771"/>
<stop offset="0.48" stop-color="#15CF74"/>
<stop offset="0.8" stop-color="#06E775"/>
<stop offset="1" stop-color="#00F076"/>
</linearGradient>
<clipPath id="clip0_128_3300">
<rect width="135" height="40" fill="white"/>
</clipPath>
</defs>
</svg>
