<svg width="40" height="40" viewBox="0 0 40 40" fill="none" xmlns="http://www.w3.org/2000/svg">
<path fill-rule="evenodd" clip-rule="evenodd" d="M20 0C9.00585 0 0 8.8889 0 20C0 30.9941 8.88889 40 20 40C30.9942 40 40 31.1111 40 20C40 8.8889 30.9942 0 20 0ZM20 38.3626C9.82456 38.3626 1.63742 30.1754 1.63742 20C1.63742 9.82457 9.82456 1.63743 20 1.63743C30.1754 1.63743 38.3626 9.82457 38.3626 20C38.4795 30.0585 30.1754 38.3626 20 38.3626Z" fill="#2F62F6"/>
<path fill-rule="evenodd" clip-rule="evenodd" d="M20 34.8533C20.7018 34.8533 21.0526 34.3854 21.1696 33.8006C21.2866 34.0346 21.5205 34.2685 21.7544 34.3854C21.9883 34.3854 22.3392 34.3854 22.5731 34.2685C22.807 34.1515 23.041 33.9176 23.1579 33.6837C23.2749 33.4498 23.2749 33.0989 23.1579 32.865C23.5088 33.3328 23.9766 33.4498 24.5614 33.2158C25.2632 32.865 25.4971 32.3971 25.1462 31.6954C24.3275 29.7071 23.5088 27.8357 22.6901 25.8474C22.5731 25.6135 22.5731 25.4965 22.4562 25.2626C22.3392 25.1457 22.3392 25.0287 22.2222 24.9117C22.2222 24.7948 22.1053 24.7948 21.9883 24.6778C23.2749 24.7948 23.8597 25.2626 24.2105 25.4965C24.3275 25.6135 24.3275 25.6135 24.6784 25.4965H25.1462C25.2632 25.6135 25.4971 25.7305 25.6141 25.7305L27.0176 26.7831C27.2515 27.017 27.4854 27.2509 27.4854 27.6018C27.4854 27.8357 26.7836 28.4205 26.6667 28.6544C26.1988 29.1223 26.9006 29.824 27.8363 29.824C27.6024 29.5901 27.4854 29.3562 27.6024 29.1223C27.7193 29.1223 27.8363 29.1223 28.0702 29.0053C28.3041 28.8884 28.1872 28.3036 28.3041 28.1866C28.655 27.8357 29.5907 27.8357 30.2924 27.8357C30.5263 27.8357 30.8772 27.7188 30.7603 27.3679C31.1111 27.3679 31.2281 27.7188 31.2281 27.9527C31.579 27.7188 31.8129 26.9 30.6433 26.6661C30.8772 26.4322 31.2281 26.4322 31.462 26.6661C31.6959 26.3153 31.1111 25.7305 30.1755 26.0813C30.1755 26.0813 29.7076 25.4965 28.538 26.9C28.4211 26.7831 28.1872 26.6661 28.0702 26.5492L26.4328 24.9117C26.4328 24.21 26.3158 22.9234 25.4971 22.2217C25.1462 21.8708 24.7953 21.7538 23.9766 21.5199C23.9766 21.5199 24.3275 20.9351 24.4445 20.7012C25.1462 21.403 26.5497 21.6369 26.5497 20.4673C27.7193 21.6369 28.7719 20.9351 28.7719 20.2334C28.7719 20.5843 28.8889 20.9351 29.0059 21.286C29.1228 21.6369 29.7076 23.1574 30.9942 23.1574C30.9942 23.6252 30.9942 25.3796 32.6316 25.7305C32.7486 25.7305 32.7486 25.7305 32.8655 25.8474C33.5673 26.6661 36.2573 27.4848 36.4912 27.2509C36.2573 27.134 35.9065 26.9 35.9065 25.9644C35.9065 25.3796 35.7895 22.1047 35.7895 17.5433C35.7895 15.9059 35.6725 10.6428 30.4094 9.941C29.5907 9.82404 28.8889 9.941 28.1872 10.4088C27.2515 11.1106 26.7836 12.2802 27.3684 13.5667V13.6837C27.6024 14.0345 27.4854 14.2685 27.2515 14.5024C26.7836 14.9702 26.3158 15.2041 25.731 15.3211C25.3801 15.3211 25.0293 15.2041 24.7953 14.9702C24.2105 14.3854 23.8597 13.6837 23.6257 12.865C23.3918 11.3445 23.7427 10.5258 23.7427 10.4088C24.2105 9.59012 25.0293 8.88837 26.0819 8.88837C26.5497 7.95269 27.9532 8.30357 27.9532 8.30357C28.3041 8.42053 28.4211 8.42053 28.538 8.65445C28.538 8.65445 29.1228 7.71877 28.538 7.3679C27.9532 7.01702 26.6667 6.90006 26.6667 6.90006C26.6667 6.31526 25.731 5.84743 23.8597 6.19831C21.7544 6.54918 21.2866 5.73047 21.2866 5.73047C21.1696 6.7831 21.9883 7.25094 22.2222 7.48486C21.4035 8.42053 20.2339 10.1749 20 12.631C19.7661 10.1749 18.5965 8.42053 17.7778 7.48486C18.0117 7.3679 18.8304 6.7831 18.7135 5.73047C18.7135 5.73047 18.2456 6.54918 16.1404 6.19831C14.386 5.84743 13.3333 6.31526 13.3333 6.90006C13.3333 6.90006 12.0468 7.01702 11.462 7.3679C10.8772 7.71877 11.462 8.65445 11.462 8.65445C11.579 8.53749 11.6959 8.42053 12.0468 8.30357C12.0468 8.30357 13.4503 7.95269 13.9181 8.88837C14.9708 9.00532 15.7895 9.59012 16.2573 10.4088C16.2573 10.4088 16.7252 11.2275 16.3743 12.865C16.2573 13.6837 15.7895 14.3854 15.2047 14.9702C14.9708 15.2041 14.6199 15.4381 14.269 15.3211C13.6842 15.2041 13.2164 14.9702 12.7485 14.5024C12.5146 14.2685 12.3977 14.0345 12.6316 13.6837V13.5667C13.2164 12.2802 12.7485 11.1106 11.8129 10.4088C11.1111 9.941 10.4094 9.82404 9.59066 9.941C4.44446 10.6428 4.21054 15.9059 4.21054 17.5433C4.21054 22.1047 4.09358 25.3796 4.09358 25.9644C4.09358 26.9 3.74271 27.134 3.50879 27.2509C3.85967 27.4848 6.54973 26.6661 7.13452 25.8474C7.13452 25.8474 7.25148 25.7305 7.36844 25.7305C9.00587 25.3796 9.00587 23.6252 9.00587 23.1574C10.2924 23.1574 10.8772 21.6369 10.9942 21.286C11.1111 20.9351 11.2281 20.5843 11.2281 20.2334C11.2281 20.9351 12.2807 21.5199 13.4503 20.4673C13.4503 21.6369 14.8538 21.403 15.5556 20.7012C15.6725 20.9351 16.0234 21.5199 16.0234 21.5199C15.2047 21.6369 14.8538 21.8708 14.5029 22.2217C13.5673 23.0404 13.5673 24.3269 13.5673 24.9117L11.9298 26.5492C11.8129 26.6661 11.579 26.7831 11.462 26.9C10.1755 25.4965 9.82458 26.0813 9.82458 26.0813C8.88891 25.7305 8.42107 26.3153 8.53803 26.6661C8.77195 26.4322 9.12283 26.5492 9.35674 26.6661C8.07019 26.9 8.42107 27.8357 8.77195 27.9527C8.77195 27.7188 8.88891 27.3679 9.23979 27.3679C9.23979 27.7188 9.4737 27.8357 9.70762 27.8357C10.2924 27.8357 11.345 27.8357 11.6959 28.1866C11.9298 28.3036 11.8129 28.8884 11.9298 29.0053C12.0468 29.1223 12.2807 29.1223 12.3977 29.1223C12.3977 29.3562 12.3977 29.4731 12.1638 29.824C13.0994 29.941 13.6842 29.1223 13.3333 28.6544C13.0994 28.4205 12.5146 27.8357 12.5146 27.6018C12.5146 27.3679 12.7485 27.017 12.9825 26.7831L14.386 25.7305C14.5029 25.6135 14.6199 25.4965 14.8538 25.4965C14.9708 25.3796 15.2047 25.3796 15.3216 25.4965C15.6725 25.6135 15.6725 25.6135 15.7895 25.4965C16.1404 25.2626 16.7252 24.7948 18.0117 24.6778C17.8947 24.6778 17.8947 24.7948 17.7778 24.9117C17.6608 25.0287 17.6608 25.1457 17.5439 25.2626C17.4269 25.3796 17.4269 25.6135 17.31 25.8474C16.4912 27.8357 15.6725 29.7071 14.8538 31.6954C14.6199 32.3971 14.8538 32.865 15.4386 33.2158C15.9064 33.4498 16.4912 33.3328 16.8421 32.865C16.7252 33.2158 16.7252 33.4498 16.8421 33.6837C16.9591 33.9176 17.193 34.1515 17.4269 34.2685C17.6608 34.3854 18.0117 34.3854 18.2456 34.3854C18.5965 34.2685 18.7135 34.1515 18.8304 33.8006C18.9474 34.3854 19.2983 34.8533 20 34.8533Z" fill="#2F62F6"/>
</svg>
