<svg width="162" height="34" viewBox="0 0 162 34" fill="none" xmlns="http://www.w3.org/2000/svg">
<path d="M154.097 29.4576C153.553 31.0902 152.772 32.2496 151.755 32.9357C150.738 33.6456 149.389 34.0005 147.709 34.0005C147.236 34.0005 146.68 33.965 146.041 33.894C145.426 33.823 144.811 33.6929 144.196 33.5036C143.912 33.4326 143.722 33.3498 143.628 33.2552C143.557 33.1605 143.557 32.9831 143.628 32.7228L144.231 29.919C144.302 29.6351 144.385 29.4813 144.479 29.4576C144.574 29.434 144.752 29.4458 145.012 29.4931C145.39 29.5641 145.71 29.6114 145.97 29.6351C146.23 29.6588 146.491 29.6706 146.751 29.6706C147.579 29.6706 148.23 29.5286 148.703 29.2447C149.176 28.9844 149.543 28.4402 149.803 27.6121L150.442 25.6956H149.413C148.868 25.6956 148.478 25.601 148.241 25.4117C148.005 25.2224 147.78 24.8084 147.567 24.1695L142.173 8.41163C142.078 8.15136 142.078 7.97391 142.173 7.87927C142.291 7.78463 142.445 7.7373 142.634 7.7373H146.786C147.141 7.7373 147.378 7.78463 147.496 7.87927C147.638 7.95025 147.745 8.11587 147.816 8.37614L149.839 15.5453L151.507 21.7207H151.72L153.53 15.4388L155.659 8.44712C155.73 8.18685 155.825 8.0094 155.943 7.91476C156.061 7.79645 156.298 7.7373 156.653 7.7373H160.876C161.278 7.7373 161.409 7.92659 161.267 8.30516L154.097 29.4931V29.4576Z" fill="white"/>
<path d="M127.816 33.0065C127.816 33.2668 127.769 33.4324 127.674 33.5034C127.603 33.5743 127.402 33.6098 127.071 33.6098H123.38C123.12 33.6098 122.931 33.5743 122.812 33.5034C122.694 33.4324 122.635 33.2668 122.635 33.0065V9.86652C122.635 9.60626 122.67 9.40514 122.741 9.26318C122.836 9.09756 123.037 8.93193 123.345 8.76631C124.48 8.24578 125.746 7.87904 127.142 7.6661C128.562 7.45315 129.91 7.34668 131.188 7.34668C132.868 7.34668 134.276 7.60695 135.411 8.12748C136.571 8.62435 137.494 9.3105 138.18 10.1859C138.89 11.0377 139.398 12.0551 139.706 13.2381C140.013 14.4212 140.167 15.687 140.167 17.0357C140.167 18.3606 140.002 19.6146 139.67 20.7977C139.339 21.957 138.83 22.9744 138.144 23.8499C137.458 24.7253 136.583 25.4233 135.518 25.9438C134.477 26.4407 133.246 26.6891 131.827 26.6891C131.117 26.6891 130.455 26.6536 129.839 26.5827C129.248 26.5353 128.574 26.4289 127.816 26.2632V33.0065ZM134.773 16.9292C134.773 15.9591 134.678 15.1428 134.489 14.4803C134.299 13.8178 134.015 13.2855 133.637 12.8832C133.282 12.481 132.832 12.1971 132.288 12.0315C131.768 11.8658 131.176 11.783 130.514 11.783C130.182 11.783 129.745 11.8185 129.201 11.8895C128.68 11.9605 128.219 12.0551 127.816 12.1734V21.8624C128.432 22.028 128.976 22.1345 129.449 22.1818C129.946 22.2291 130.384 22.2528 130.762 22.2528C131.945 22.2528 132.903 21.8506 133.637 21.0461C134.394 20.2417 134.773 18.8693 134.773 16.9292Z" fill="white"/>
<path d="M118.381 23.6014C118.381 24.5005 118.062 25.2576 117.423 25.8728C116.808 26.488 116.039 26.7956 115.116 26.7956C114.667 26.7956 114.241 26.7127 113.838 26.5471C113.436 26.3815 113.081 26.1567 112.774 25.8728C112.49 25.5889 112.253 25.2576 112.064 24.8791C111.898 24.4768 111.815 24.0509 111.815 23.6014C111.815 23.1518 111.898 22.7378 112.064 22.3592C112.253 21.957 112.49 21.6139 112.774 21.33C113.081 21.0461 113.436 20.8213 113.838 20.6557C114.241 20.49 114.667 20.4072 115.116 20.4072C116.039 20.4072 116.808 20.7148 117.423 21.33C118.062 21.9452 118.381 22.7023 118.381 23.6014Z" fill="white"/>
<path d="M102.239 15.7937L100.784 19.2008L99.0445 22.9628C98.8316 23.436 98.5831 23.7555 98.2992 23.9211C98.0153 24.0867 97.6367 24.1695 97.1635 24.1695H95.4245C94.8803 24.1695 94.478 24.0867 94.2178 23.9211C93.9812 23.7555 93.7564 23.436 93.5434 22.9628L91.8399 19.2718L90.4203 16.0066H90.2783V25.6956C90.2783 26.0032 90.2192 26.1925 90.1008 26.2635C89.9825 26.3345 89.7814 26.3699 89.4975 26.3699H85.9839C85.7237 26.3699 85.5225 26.3345 85.3806 26.2635C85.2623 26.1925 85.2031 26.0032 85.2031 25.6956V9.79577C85.2031 8.42346 85.9129 7.7373 87.3326 7.7373H89.533C90.0299 7.7373 90.4558 7.82012 90.8107 7.98574C91.1892 8.15136 91.5205 8.54176 91.8044 9.15694L94.3597 14.5515L96.1698 18.633H96.3827L98.4057 14.1966L100.784 9.33439C101.067 8.71922 101.387 8.30515 101.742 8.09221C102.097 7.85561 102.617 7.7373 103.303 7.7373H105.326C106.746 7.7373 107.456 8.3998 107.456 9.72479V25.6956C107.456 26.0032 107.397 26.1925 107.278 26.2635C107.184 26.3345 106.983 26.3699 106.675 26.3699H103.197C102.937 26.3699 102.736 26.3345 102.594 26.2635C102.475 26.1925 102.416 26.0032 102.416 25.6956V15.7937H102.239Z" fill="white"/>
<path d="M73.123 7.2756C75.8913 7.2756 77.9616 7.97359 79.3339 9.36956C80.7298 10.7419 81.4278 12.7175 81.4278 15.2965C81.4278 16.5269 81.1912 17.3668 80.718 17.8164C80.2448 18.2659 79.5941 18.4907 78.766 18.4907H69.6804C69.7041 19.2478 69.8224 19.8748 70.0353 20.3717C70.2719 20.8686 70.5795 21.2708 70.9581 21.5784C71.3366 21.886 71.7743 22.0989 72.2712 22.2172C72.7917 22.3355 73.3478 22.3947 73.9393 22.3947C74.6254 22.3947 75.3234 22.3119 76.0332 22.1462C76.7431 21.9806 77.4055 21.7677 78.0207 21.5074C78.3046 21.4128 78.4939 21.3891 78.5886 21.4364C78.7069 21.4601 78.8133 21.5665 78.908 21.7558L80.0437 24.3112C80.1383 24.5241 80.1502 24.6897 80.0792 24.808C80.0319 24.9263 79.9136 25.0446 79.7243 25.1629C78.8488 25.7308 77.8314 26.133 76.6721 26.3696C75.5127 26.6299 74.4362 26.76 73.4424 26.76C70.3429 26.76 68.0478 25.9911 66.5572 24.4531C65.0666 22.9152 64.3213 20.4782 64.3213 17.142C64.3213 15.5804 64.5224 14.1963 64.9246 12.9896C65.3505 11.7593 65.942 10.7182 66.6992 9.86643C67.48 9.01465 68.4027 8.37582 69.4674 7.94993C70.5558 7.50038 71.7743 7.2756 73.123 7.2756ZM79.4049 2.62632C79.4049 2.98122 79.3339 3.31247 79.1919 3.62006C79.05 3.92764 78.8488 4.19974 78.5886 4.43634C78.352 4.67295 78.0799 4.86223 77.7723 5.00419C77.4647 5.14616 77.1335 5.21714 76.7785 5.21714C76.4236 5.21714 76.0806 5.14616 75.7493 5.00419C75.4417 4.86223 75.1578 4.67295 74.8975 4.43634C74.6609 4.19974 74.4716 3.92764 74.3297 3.62006C74.1877 3.31247 74.1167 2.98122 74.1167 2.62632C74.1167 1.9165 74.377 1.30133 74.8975 0.780797C75.4417 0.260265 76.0687 0 76.7785 0C77.1335 0 77.4647 0.0709814 77.7723 0.212944C78.0799 0.354908 78.352 0.544192 78.5886 0.780797C78.8488 1.0174 79.05 1.30133 79.1919 1.63257C79.3339 1.94016 79.4049 2.27141 79.4049 2.62632ZM72.1293 2.62632C72.1293 2.98122 72.0583 3.31247 71.9163 3.62006C71.7743 3.92764 71.5732 4.19974 71.313 4.43634C71.0764 4.67295 70.7924 4.86223 70.4612 5.00419C70.1536 5.14616 69.8224 5.21714 69.4674 5.21714C69.1125 5.21714 68.7813 5.14616 68.4737 5.00419C68.1661 4.86223 67.8822 4.67295 67.6219 4.43634C67.3853 4.19974 67.196 3.92764 67.0541 3.62006C66.9121 3.31247 66.8411 2.98122 66.8411 2.62632C66.8411 2.27141 66.9121 1.94016 67.0541 1.63257C67.196 1.30133 67.3853 1.0174 67.6219 0.780797C67.8822 0.544192 68.1661 0.354908 68.4737 0.212944C68.7813 0.0709814 69.1125 0 69.4674 0C69.8224 0 70.1536 0.0709814 70.4612 0.212944C70.7924 0.354908 71.0764 0.544192 71.313 0.780797C71.5732 1.0174 71.7743 1.30133 71.9163 1.63257C72.0583 1.94016 72.1293 2.27141 72.1293 2.62632ZM73.2295 11.5345C72.2594 11.5345 71.4668 11.8776 70.8516 12.5637C70.2364 13.2499 69.8815 14.1253 69.7869 15.19H76.4236C76.4236 14.6695 76.3645 14.1845 76.2462 13.7349C76.1515 13.2854 75.9859 12.9068 75.7493 12.5992C75.5127 12.268 75.1933 12.0077 74.7911 11.8184C74.3888 11.6291 73.8683 11.5345 73.2295 11.5345Z" fill="white"/>
<path d="M60.4117 24.0629C60.4117 24.3704 60.3644 24.6307 60.2698 24.8436C60.1988 25.0566 59.9977 25.2577 59.6664 25.447C59.1222 25.7073 58.5307 25.9202 57.8919 26.0858C57.2767 26.2514 56.6379 26.3816 55.9754 26.4762C55.3366 26.5709 54.6859 26.6418 54.0234 26.6892C53.3609 26.7365 52.7339 26.7601 52.1424 26.7601C50.5335 26.7601 49.1967 26.6064 48.1319 26.2988C47.0909 25.9912 46.2509 25.5771 45.6121 25.0566C44.9733 24.5124 44.5237 23.8854 44.2634 23.1756C44.0032 22.4421 43.873 21.6613 43.873 20.8332C43.873 19.9104 44.0268 19.0705 44.3344 18.3133C44.642 17.5326 45.1034 16.8582 45.7186 16.2904C46.3337 15.7225 47.1027 15.2848 48.0255 14.9772C48.9719 14.646 50.0839 14.4803 51.3616 14.4803H55.2656V13.9125C55.2656 13.5812 55.2301 13.2618 55.1591 12.9542C55.0881 12.6467 54.9343 12.3864 54.6977 12.1734C54.4848 11.9368 54.1772 11.7476 53.775 11.6056C53.3727 11.4636 52.8404 11.3927 52.1779 11.3927C51.823 11.3927 51.4207 11.4163 50.9712 11.4636C50.5216 11.4873 50.0721 11.5346 49.6225 11.6056C49.173 11.6529 48.7353 11.7239 48.3094 11.8185C47.8835 11.8895 47.5049 11.9723 47.1737 12.067C46.8661 12.138 46.6532 12.138 46.5349 12.067C46.4165 11.996 46.3337 11.8422 46.2864 11.6056L45.7186 9.12124C45.6476 8.86098 45.6358 8.68352 45.6831 8.58888C45.7541 8.47058 45.8842 8.37594 46.0735 8.30496C47.1382 7.92639 48.2502 7.65429 49.4096 7.48867C50.5926 7.32305 51.7638 7.24023 52.9232 7.24023C55.5022 7.24023 57.395 7.79626 58.6017 8.9083C59.8084 9.99668 60.4117 11.6174 60.4117 13.7705V24.0629ZM55.2301 17.9229H52.4263C52.0951 17.9229 51.7402 17.9466 51.3616 17.9939C50.983 18.0413 50.6281 18.1596 50.2969 18.3488C49.9893 18.5145 49.729 18.7629 49.5161 19.0941C49.3031 19.4254 49.1967 19.8749 49.1967 20.4428C49.1967 21.2709 49.4688 21.8506 50.0129 22.1818C50.5808 22.5131 51.3379 22.6787 52.2844 22.6787C52.4263 22.6787 52.6156 22.6787 52.8522 22.6787C53.0888 22.6551 53.3372 22.6314 53.5975 22.6077C53.8814 22.5604 54.1654 22.5131 54.4493 22.4658C54.7332 22.3948 54.9935 22.312 55.2301 22.2173V17.9229Z" fill="white"/>
<path d="M32.1336 11.5694C31.6604 11.5694 31.0098 11.6404 30.1816 11.7824C29.3535 11.9243 28.5609 12.1136 27.8038 12.3502C27.5198 12.4685 27.3187 12.504 27.2004 12.4567C27.0821 12.4094 26.9875 12.3029 26.9165 12.1373L26.0647 9.75941C25.9464 9.47548 25.8873 9.27437 25.8873 9.15607C25.9109 9.0141 26.0647 8.88397 26.3486 8.76567C27.2477 8.31612 28.3006 7.96121 29.5073 7.70094C30.7377 7.44068 31.9562 7.31055 33.1629 7.31055C35.3633 7.31055 37.1142 7.7246 38.4155 8.55272C39.7168 9.35718 40.3675 10.6112 40.3675 12.3147C40.3675 13.1902 40.1072 13.9828 39.5867 14.6926C39.0662 15.4024 38.4273 15.9703 37.6702 16.3962V16.5381C38.6876 16.8694 39.4802 17.4136 40.0481 18.1707C40.6396 18.9042 40.9353 19.7678 40.9353 20.7615C40.9353 21.7553 40.7106 22.6307 40.261 23.3879C39.8115 24.1213 39.2081 24.7365 38.451 25.2334C37.6939 25.7302 36.8066 26.1088 35.7892 26.3691C34.7718 26.6057 33.6952 26.724 32.5595 26.724C31.9917 26.724 31.3883 26.7003 30.7495 26.653C30.1343 26.6057 29.5073 26.5347 28.8685 26.4401C28.2533 26.3454 27.65 26.2153 27.0585 26.0497C26.467 25.884 25.9228 25.6948 25.4259 25.4818C25.1656 25.3635 25.0237 25.2334 25 25.0914C25 24.9494 25.0237 24.7838 25.071 24.5945L25.9937 22.0037C26.0647 21.8144 26.1594 21.6961 26.2777 21.6488C26.396 21.6015 26.6207 21.6251 26.952 21.7198C27.8038 21.9801 28.7029 22.193 29.6493 22.3586C30.6194 22.5006 31.412 22.5716 32.0272 22.5716C33.3995 22.5716 34.3577 22.335 34.9019 21.8618C35.4461 21.3885 35.7182 20.8562 35.7182 20.2647C35.7182 19.6495 35.3988 19.1763 34.76 18.845C34.1448 18.5138 33.1037 18.3363 31.6368 18.3127C31.1872 18.289 30.8441 18.1944 30.6075 18.0288C30.3946 17.8631 30.2881 17.5792 30.2881 17.177V16.1123C30.2881 15.71 30.4064 15.4379 30.643 15.296C30.9033 15.1303 31.2464 15.0357 31.6723 15.012C32.8553 14.9411 33.7189 14.7518 34.2631 14.4442C34.8073 14.1129 35.0794 13.6752 35.0794 13.131C35.0794 12.5159 34.7954 12.1018 34.2276 11.8889C33.6834 11.6759 32.9854 11.5694 32.1336 11.5694Z" fill="white"/>
<g clip-path="url(#clip0_128_3784)">
<path d="M0.66656 19.3018H0.700453C3.55875 18.8047 5.7166 16.2062 5.7166 13.2688C5.7166 10.3315 3.75081 7.93636 0.949001 7.2924L0.813429 7.2585L0.745644 7.22461H0.508393L0.4745 7.2472C0.203357 7.31499 0 7.56354 0 7.85728V10.7495C0 10.9076 0.0564881 11.0545 0.169464 11.1675L0.214655 11.2466L0.338929 11.3031C1.10717 11.6646 1.67205 12.4893 1.67205 13.2688C1.67205 14.0484 1.10717 14.8731 0.338929 15.2233L0.214655 15.2911L0.180762 15.3476C0.0677858 15.4606 0 15.6075 0 15.7769V18.6691C0 19.0193 0.282441 19.3018 0.632667 19.3018H0.66656Z" fill="white"/>
<path d="M17.1492 19.1322L17.2734 19.0644L17.3073 19.0079C17.4203 18.8949 17.4881 18.7367 17.4881 18.5786V15.6864C17.4881 15.3362 17.2056 15.0537 16.7989 15.0537H16.7876C13.9293 15.5508 11.7715 18.138 11.7715 21.0866C11.7715 24.0353 13.7373 26.4191 16.5391 27.0631L16.6747 27.097L16.7424 27.1309H16.9797L17.0136 27.1083C17.2847 27.0405 17.4881 26.7919 17.4881 26.4982V23.606C17.4881 23.4479 17.4316 23.3123 17.3299 23.188L17.2847 23.1089L17.1605 23.0524C16.3922 22.6909 15.8273 21.8662 15.8273 21.0866C15.8273 20.3071 16.3809 19.4824 17.1605 19.1322" fill="white"/>
<path d="M16.9577 7.75624C16.8108 7.65457 16.6187 7.60938 16.3589 7.60938H12.7549C12.3482 7.60938 11.9754 7.73365 11.6591 8.14036C11.5461 8.28723 0.451821 25.9002 0.451821 25.9002C0.282357 26.4199 0.508309 26.6685 1.14098 26.6685H4.56416C4.99347 26.6685 5.28721 26.6346 5.69392 26.2166C5.84079 26.0697 16.9916 8.36632 16.9916 8.36632C17.1045 8.04998 17.0932 7.84663 16.9464 7.74495" fill="white"/>
</g>
<defs>
<clipPath id="clip0_128_3784">
<rect width="17.4774" height="26.1201" fill="white" transform="translate(0 1)"/>
</clipPath>
</defs>
</svg>
