<svg width="135" height="40" viewBox="0 0 135 40" fill="none" xmlns="http://www.w3.org/2000/svg">
<g clip-path="url(#clip0_128_3266)">
<path d="M130 0H5C2.23858 0 0 2.23858 0 5V35C0 37.7614 2.23858 40 5 40H130C132.761 40 135 37.7614 135 35V5C135 2.23858 132.761 0 130 0Z" fill="black"/>
<path d="M130 0.8C131.114 0.8 132.182 1.2425 132.97 2.03015C133.758 2.8178 134.2 3.88609 134.2 5V35C134.2 36.1139 133.758 37.1822 132.97 37.9698C132.182 38.7575 131.114 39.2 130 39.2H5C3.88609 39.2 2.8178 38.7575 2.03015 37.9698C1.2425 37.1822 0.8 36.1139 0.8 35V5C0.8 3.88609 1.2425 2.8178 2.03015 2.03015C2.8178 1.2425 3.88609 0.8 5 0.8H130ZM130 0H5C3.67392 0 2.40215 0.526784 1.46447 1.46447C0.526784 2.40215 0 3.67392 0 5L0 35C0 36.3261 0.526784 37.5979 1.46447 38.5355C2.40215 39.4732 3.67392 40 5 40H130C131.326 40 132.598 39.4732 133.536 38.5355C134.473 37.5979 135 36.3261 135 35V5C135 3.67392 134.473 2.40215 133.536 1.46447C132.598 0.526784 131.326 0 130 0Z" fill="#A6A6A6"/>
<path d="M15.703 32.7206C17.781 34.7696 21.1256 34.7696 27.8148 34.7696H28.9973C35.6865 34.7696 39.0311 34.7696 41.1091 32.7206C43.1871 30.6717 43.1871 27.3739 43.1871 20.7783V19.6123C43.1871 13.0167 43.1871 9.71899 41.1091 7.67C39.0311 5.62109 35.6865 5.62109 28.9973 5.62109H27.8148C21.1256 5.62109 17.781 5.62109 15.703 7.67C13.625 9.71899 13.625 13.0167 13.625 19.6123V20.7783C13.625 27.3739 13.625 30.6717 15.703 32.7206Z" fill="#0077FF"/>
<path fill-rule="evenodd" clip-rule="evenodd" d="M36.4481 24.995L34.4506 24.503C34.2101 24.4349 34.0402 24.2215 34.0317 23.9736L33.7824 16.7247C33.7103 15.7653 32.988 15.0022 32.2332 14.7775C32.1908 14.7648 32.1456 14.7819 32.1204 14.8178C32.0949 14.8544 32.1048 14.9049 32.1404 14.932C32.3268 15.0744 32.8398 15.5386 32.8398 16.3394L32.8383 25.8171C32.8383 26.7322 31.9613 27.4034 31.0566 27.1806L29.0283 26.681C28.8034 26.6034 28.6471 26.3969 28.639 26.1587L28.3897 18.9093C28.3176 17.9499 27.5953 17.1869 26.8405 16.9621C26.7981 16.9496 26.7529 16.9665 26.7278 17.0024C26.7023 17.039 26.7122 17.0896 26.7477 17.1168C26.9341 17.259 27.4471 17.7233 27.4471 18.524L27.4456 26.4242L27.4468 26.4243V28.0026C27.4468 28.9178 26.5697 29.589 25.665 29.3661L19.936 27.9551C19.1395 27.7589 18.5811 27.0564 18.5811 26.2506V16.7582C18.5811 15.843 19.4581 15.1719 20.3627 15.3946L23.9727 16.2838V14.5726C23.9727 13.6575 24.8497 12.9862 25.7543 13.2091L29.364 14.0982V12.387C29.364 11.4719 30.2411 10.8006 31.1458 11.0235L36.8748 12.4346C37.6713 12.6308 38.2297 13.3333 38.2297 14.139V23.6315C38.2297 24.5466 37.3527 25.2178 36.4481 24.995Z" fill="white"/>
<path d="M60.5014 32.469H58.2423L54.6575 27.5353H52.7717V32.469H50.8486V19.4902H55.479C56.3752 19.4902 57.1781 19.6621 57.8876 20.0057C58.597 20.3493 59.1447 20.828 59.5306 21.4417C59.9289 22.043 60.1281 22.7364 60.1281 23.522C60.1281 24.5038 59.8231 25.3445 59.2132 26.044C58.6033 26.7313 57.788 27.1854 56.7673 27.4064L60.5014 32.469ZM52.7717 21.2392V25.8047H55.479C56.2756 25.8047 56.9167 25.5961 57.4021 25.1788C57.9 24.7493 58.149 24.1969 58.149 23.522C58.149 22.8469 57.9 22.3008 57.4021 21.8835C56.9167 21.454 56.2756 21.2392 55.479 21.2392H52.7717Z" fill="white"/>
<path d="M65.6035 32.653C64.9188 32.653 64.3028 32.4873 63.7551 32.156C63.2074 31.8124 62.7779 31.346 62.4667 30.7569C62.1555 30.1555 62 29.4804 62 28.7318V22.9512H63.8297V28.5846C63.8297 29.3086 64.0351 29.8978 64.4458 30.3519C64.8566 30.806 65.3856 31.033 66.0329 31.033C66.7051 31.033 67.2651 30.7998 67.7133 30.3334C68.1613 29.867 68.3854 29.2841 68.3854 28.5846V22.9512H70.2152V32.4689H68.9082L68.4788 31.033C68.1676 31.5485 67.7568 31.9473 67.2465 32.2296C66.7486 32.5119 66.2009 32.653 65.6035 32.653Z" fill="white"/>
<path d="M77.0368 32.6526C75.8294 32.6526 74.7776 32.3458 73.8814 31.7321C72.9977 31.1062 72.394 30.2594 72.0703 29.1916L73.9187 28.897C74.2797 29.5843 74.7092 30.0937 75.2071 30.425C75.7049 30.7441 76.3148 30.9037 77.0368 30.9037C77.7712 30.9037 78.3686 30.7441 78.8292 30.425C79.2898 30.0937 79.52 29.6457 79.52 29.0811C79.52 28.6638 79.3893 28.3141 79.1279 28.0318C78.879 27.7495 78.5616 27.5224 78.1757 27.3506C77.7899 27.1788 77.2857 26.9885 76.6634 26.78C75.8294 26.5099 75.1448 26.2399 74.6096 25.9699C74.0744 25.6999 73.62 25.3195 73.2466 24.8285C72.8856 24.3253 72.7051 23.6871 72.7051 22.9139C72.7051 22.1898 72.8856 21.5577 73.2466 21.0177C73.62 20.4655 74.1304 20.042 74.7776 19.7474C75.4249 19.4529 76.1468 19.3057 76.9435 19.3057C78.0512 19.3057 79.0034 19.594 79.8001 20.1709C80.5967 20.7354 81.163 21.5147 81.4992 22.5089L79.6881 22.8034C79.4391 22.2389 79.0844 21.8093 78.6238 21.5147C78.1633 21.2079 77.6218 21.0545 76.9995 21.0545C76.3273 21.0545 75.7734 21.2141 75.3378 21.5332C74.9021 21.8401 74.6843 22.2634 74.6843 22.8034C74.6843 23.2084 74.8087 23.5521 75.0577 23.8344C75.3191 24.1167 75.6365 24.3437 76.0099 24.5155C76.3958 24.6874 76.9061 24.8837 77.5409 25.1047C78.3499 25.3746 79.0221 25.6508 79.5573 25.9331C80.105 26.2031 80.5655 26.5897 80.939 27.0929C81.3124 27.5961 81.4992 28.2281 81.4992 28.989C81.4992 29.7255 81.3 30.3698 80.9017 30.922C80.5158 31.4744 79.9806 31.9039 79.296 32.2107C78.6238 32.5053 77.8707 32.6526 77.0368 32.6526Z" fill="white"/>
<path d="M89.2276 30.8854L89.06 32.4686H87.3607C86.3521 32.4686 85.5871 32.2232 85.0642 31.7322C84.5413 31.2413 84.2799 30.5356 84.2799 29.6152V24.5525H82.6182V22.9508H84.2799L84.7842 20.1895H86.1092V22.9508H89.06V24.5525H86.1092V29.6152C86.1092 30.462 86.5264 30.8854 87.3607 30.8854H89.2276Z" fill="white"/>
<path d="M95.3301 32.6525C94.3463 32.6525 93.469 32.4439 92.6974 32.0266C91.9259 31.6093 91.322 31.0263 90.8858 30.2777C90.4505 29.5291 90.2324 28.6761 90.2324 27.7187C90.2324 26.7615 90.4505 25.9085 90.8858 25.1598C91.322 24.4111 91.9259 23.8282 92.6974 23.4109C93.469 22.9814 94.3463 22.7666 95.3301 22.7666C96.3131 22.7666 97.1904 22.9814 97.962 23.4109C98.7343 23.8282 99.3374 24.4111 99.7735 25.1598C100.209 25.9085 100.427 26.7615 100.427 27.7187C100.427 28.6761 100.209 29.5291 99.7735 30.2777C99.3374 31.0263 98.7343 31.6093 97.962 32.0266C97.1904 32.4439 96.3131 32.6525 95.3301 32.6525ZM95.3301 30.9957C96.276 30.9957 97.0409 30.695 97.6266 30.0936C98.2238 29.4922 98.5229 28.7006 98.5229 27.7187C98.5229 26.7369 98.2238 25.9453 97.6266 25.3439C97.0409 24.7303 96.276 24.4235 95.3301 24.4235C94.3834 24.4235 93.6185 24.7303 93.0336 25.3439C92.4479 25.9453 92.1555 26.7369 92.1555 27.7187C92.1555 28.6883 92.4479 29.4799 93.0336 30.0936C93.6185 30.695 94.3834 30.9957 95.3301 30.9957Z" fill="white"/>
<path d="M102.389 32.4689V22.9512H103.715L104.107 24.3135C104.393 23.8348 104.748 23.4912 105.171 23.2826C105.594 23.0616 106.099 22.9512 106.683 22.9512H107.131L107.281 24.6817H106.235C105.563 24.6817 105.059 24.872 104.723 25.2524C104.387 25.6328 104.218 26.1483 104.218 26.7988V32.4689H102.389Z" fill="white"/>
<path d="M117.741 27.6451C117.741 27.8906 117.735 28.0808 117.723 28.2158H109.75C109.85 29.0627 110.186 29.7376 110.758 30.2409C111.331 30.7441 112.059 30.9957 112.943 30.9957C113.553 30.9957 114.094 30.879 114.567 30.6459C115.052 30.4004 115.42 30.0813 115.669 29.6886L117.387 29.9647C117.013 30.8239 116.41 31.4866 115.575 31.9529C114.754 32.4193 113.839 32.6525 112.831 32.6525C111.873 32.6525 111.014 32.4439 110.255 32.0266C109.495 31.5971 108.904 31.0079 108.481 30.2593C108.057 29.5106 107.846 28.6638 107.846 27.7187C107.846 26.7615 108.057 25.9085 108.481 25.1598C108.904 24.4111 109.489 23.8282 110.236 23.4109C110.982 22.9814 111.835 22.7666 112.794 22.7666C113.74 22.7666 114.586 22.9814 115.332 23.4109C116.092 23.8282 116.683 24.4111 117.107 25.1598C117.53 25.8962 117.741 26.7246 117.741 27.6451ZM112.794 24.3682C112.059 24.3682 111.424 24.583 110.889 25.0125C110.366 25.4421 110.017 26.0189 109.843 26.7431H115.744C115.582 26.0312 115.233 25.4605 114.698 25.0309C114.175 24.5892 113.541 24.3682 112.794 24.3682Z" fill="white"/>
<path d="M53.5685 14.512C52.9143 14.512 52.3261 14.36 51.804 14.056C51.282 13.7454 50.8722 13.3159 50.5748 12.7674C50.2841 12.2188 50.1387 11.6009 50.1387 10.9136C50.1387 10.2264 50.2841 9.61176 50.5748 9.06986C50.8722 8.52135 51.2787 8.09509 51.7941 7.7911C52.3162 7.4805 52.9044 7.3252 53.5586 7.3252C54.2657 7.3252 54.8935 7.50363 55.4421 7.86049C55.9972 8.21074 56.3937 8.68656 56.6316 9.28794L55.6205 9.44655C55.4354 9.07647 55.1612 8.78899 54.7977 8.58413C54.4409 8.37265 54.0377 8.26692 53.5883 8.26692C53.1257 8.26692 52.7127 8.37926 52.3492 8.60395C51.9924 8.82865 51.7115 9.14255 51.5066 9.54567C51.3084 9.94219 51.2093 10.3982 51.2093 10.9136C51.2093 11.4357 51.3084 11.8983 51.5066 12.3014C51.7115 12.698 51.9957 13.0086 52.3592 13.2333C52.7226 13.4579 53.139 13.5703 53.6082 13.5703C54.0708 13.5703 54.4805 13.4646 54.8374 13.2531C55.2008 13.035 55.4784 12.731 55.67 12.3411L56.6812 12.4997C56.43 13.1143 56.0236 13.6033 55.4619 13.9668C54.9001 14.3303 54.269 14.512 53.5685 14.512Z" fill="white"/>
<path d="M61.861 14.413H60.5823L58.6889 12.2917H58.3816V14.413H57.4102V9.28809H58.3816V11.3599H58.679L60.4931 9.28809H61.6628L59.4621 11.7663L61.861 14.413Z" fill="white"/>
<path d="M64.1712 9.18848C64.8056 9.18848 65.3045 9.39665 65.668 9.81299C66.0381 10.2227 66.2231 10.7977 66.2231 11.5378V14.4126H65.5292L65.3012 13.6096C65.136 13.8673 64.9146 14.0821 64.6371 14.2539C64.3595 14.4258 64.0258 14.5117 63.6359 14.5117C63.2922 14.5117 62.9849 14.4423 62.714 14.3035C62.443 14.1647 62.2316 13.9731 62.0796 13.7286C61.9276 13.4774 61.8516 13.1966 61.8516 12.886C61.8516 12.4035 62.0432 12.0169 62.4265 11.7262C62.8098 11.4354 63.3649 11.29 64.0919 11.29H65.2517C65.2252 10.8869 65.1129 10.5763 64.9146 10.3582C64.7164 10.1335 64.452 10.0212 64.1216 10.0212C63.8705 10.0212 63.6491 10.0806 63.4574 10.1996C63.2658 10.3185 63.1204 10.4738 63.0213 10.6655L62.1192 10.5168C62.2514 10.1071 62.5058 9.78325 62.8825 9.54534C63.2592 9.30743 63.6887 9.18848 64.1712 9.18848ZM63.844 13.6889C64.2604 13.6889 64.5974 13.5534 64.8552 13.2825C65.1195 13.0049 65.2517 12.6249 65.2517 12.1425V12.083H64.1216C63.2625 12.083 62.8329 12.3408 62.8329 12.8562C62.8329 13.1074 62.9255 13.3089 63.1105 13.4609C63.2955 13.6129 63.5401 13.6889 63.844 13.6889Z" fill="white"/>
<path d="M70.0298 12.5494C69.8712 12.6221 69.6828 12.6783 69.4647 12.7179C69.2467 12.7576 69.0319 12.7774 68.8204 12.7774C68.2058 12.7774 67.7333 12.6056 67.4029 12.2619C67.0724 11.9183 66.9072 11.4326 66.9072 10.8048V9.28809H67.8787V10.8048C67.8787 11.5383 68.2322 11.9051 68.9394 11.9051C69.3689 11.9051 69.7324 11.8291 70.0298 11.6771V9.28809H71.0012V14.413H70.0298V12.5494Z" fill="white"/>
<path d="M74.1624 9.18848C74.7968 9.18848 75.2957 9.39665 75.6592 9.81299C76.0293 10.2227 76.2143 10.7977 76.2143 11.5378V14.4126H75.5204L75.2924 13.6096C75.1272 13.8673 74.9058 14.0821 74.6283 14.2539C74.3507 14.4258 74.017 14.5117 73.6271 14.5117C73.2834 14.5117 72.9761 14.4423 72.7052 14.3035C72.4342 14.1647 72.2228 13.9731 72.0708 13.7286C71.9188 13.4774 71.8428 13.1966 71.8428 12.886C71.8428 12.4035 72.0344 12.0169 72.4177 11.7262C72.801 11.4354 73.3561 11.29 74.0831 11.29H75.2429C75.2164 10.8869 75.1041 10.5763 74.9058 10.3582C74.7076 10.1335 74.4432 10.0212 74.1128 10.0212C73.8617 10.0212 73.6403 10.0806 73.4487 10.1996C73.257 10.3185 73.1116 10.4738 73.0125 10.6655L72.1104 10.5168C72.2426 10.1071 72.497 9.78325 72.8737 9.54534C73.2504 9.30743 73.68 9.18848 74.1624 9.18848ZM73.8353 13.6889C74.2516 13.6889 74.5886 13.5534 74.8464 13.2825C75.1107 13.0049 75.2429 12.6249 75.2429 12.1425V12.083H74.1128C73.2537 12.083 72.8241 12.3408 72.8241 12.8562C72.8241 13.1074 72.9167 13.3089 73.1017 13.4609C73.2867 13.6129 73.5313 13.6889 73.8353 13.6889Z" fill="white"/>
<path d="M78.7323 14.4129H77.2949V9.28799H78.2366V13.3225H78.3853L80.4571 9.28799H81.8945V14.4129H80.9528V10.3883H80.8041L78.7323 14.4129ZM79.6046 8.62383C79.1751 8.62383 78.8149 8.51149 78.5241 8.2868C78.24 8.0555 78.0714 7.71185 78.0186 7.25586H78.8116C78.8446 7.46733 78.9272 7.62924 79.0594 7.74159C79.1982 7.84733 79.3799 7.90019 79.6046 7.90019C79.8293 7.90019 80.0077 7.84733 80.1399 7.74159C80.2787 7.62924 80.3613 7.46733 80.3877 7.25586H81.1907C81.1312 7.71185 80.9561 8.0555 80.6653 8.2868C80.3811 8.51149 80.0276 8.62383 79.6046 8.62383Z" fill="white"/>
<path d="M85.2711 14.413H84.2998V10.1802H82.5254V9.28809H87.0455V10.1802H85.2711V14.413Z" fill="white"/>
<path d="M92.455 11.8154C92.455 11.9476 92.4517 12.05 92.4451 12.1227H88.2123C88.2652 12.5787 88.4436 12.9421 88.7476 13.2131C89.0516 13.484 89.4382 13.6195 89.9074 13.6195C90.2312 13.6195 90.5187 13.5567 90.7698 13.4312C91.0275 13.299 91.2225 13.1272 91.3547 12.9157L92.2666 13.0644C92.0684 13.527 91.7479 13.8839 91.3051 14.135C90.8689 14.3861 90.3832 14.5117 89.8479 14.5117C89.339 14.5117 88.883 14.3993 88.4799 14.1746C88.0768 13.9433 87.7629 13.6261 87.5382 13.223C87.3135 12.8199 87.2012 12.3639 87.2012 11.855C87.2012 11.3396 87.3135 10.8803 87.5382 10.4771C87.7629 10.074 88.0735 9.76012 88.47 9.53543C88.8665 9.30413 89.3192 9.18848 89.8281 9.18848C90.3303 9.18848 90.7797 9.30413 91.1762 9.53543C91.5793 9.76012 91.8933 10.074 92.1179 10.4771C92.3426 10.8737 92.455 11.3197 92.455 11.8154ZM89.8281 10.0509C89.4382 10.0509 89.1011 10.1665 88.817 10.3978C88.5394 10.6291 88.3544 10.9397 88.2618 11.3297H91.3943C91.3084 10.9464 91.1234 10.6391 90.8392 10.4078C90.5616 10.1698 90.2246 10.0509 89.8281 10.0509Z" fill="white"/>
<path d="M96.8163 14.413H95.3789V9.28809H96.3206V13.3226H96.4693L98.5411 9.28809H99.9785V14.413H99.0368V10.3884H98.8881L96.8163 14.413Z" fill="white"/>
<path d="M103.911 11.7956C104.182 11.8749 104.406 12.0202 104.585 12.2317C104.763 12.4366 104.852 12.691 104.852 12.995C104.852 13.2792 104.77 13.5369 104.604 13.7682C104.439 13.9929 104.201 14.1746 103.891 14.3134C103.587 14.4456 103.233 14.5117 102.83 14.5117C102.288 14.5117 101.822 14.3861 101.432 14.135C101.042 13.8773 100.785 13.5336 100.659 13.1041L101.561 12.9554C101.779 13.4312 102.199 13.6691 102.82 13.6691C103.164 13.6691 103.425 13.6063 103.603 13.4807C103.788 13.3486 103.881 13.1668 103.881 12.9355C103.881 12.7307 103.795 12.5655 103.623 12.4399C103.458 12.3143 103.19 12.2515 102.82 12.2515H102.146V11.399H102.82C103.137 11.399 103.379 11.3396 103.544 11.2206C103.716 11.1017 103.802 10.9431 103.802 10.7448C103.802 10.5333 103.709 10.3615 103.524 10.2293C103.346 10.0972 103.124 10.0311 102.86 10.0311C102.602 10.0311 102.371 10.0938 102.166 10.2194C101.961 10.345 101.806 10.5168 101.7 10.7349L100.798 10.5763C100.95 10.1335 101.211 9.79316 101.581 9.55525C101.958 9.31073 102.394 9.18848 102.89 9.18848C103.246 9.18848 103.567 9.25126 103.851 9.37682C104.142 9.50238 104.367 9.67751 104.525 9.9022C104.69 10.1269 104.773 10.378 104.773 10.6556C104.773 10.9397 104.694 11.181 104.535 11.3792C104.376 11.5775 104.168 11.7163 103.911 11.7956Z" fill="white"/>
</g>
<defs>
<clipPath id="clip0_128_3266">
<rect width="135" height="40" fill="white"/>
</clipPath>
</defs>
</svg>
