<svg width="120" height="40" viewBox="0 0 120 40" fill="none" xmlns="http://www.w3.org/2000/svg">
<g clip-path="url(#clip0_128_3313)">
<path d="M110.443 0.000129999H9.56141C9.19368 0.000129999 8.83036 0.00013 8.46361 0.00212999C8.1566 0.00412998 7.85204 0.00993996 7.54208 0.0148299C6.86871 0.0227317 6.19693 0.0818059 5.53256 0.191539C4.86913 0.303661 4.22649 0.515044 3.62636 0.818537C3.02696 1.1246 2.47927 1.52229 2.00317 1.99719C1.52456 2.47076 1.12561 3.01813 0.821647 3.61827C0.516845 4.21722 0.305494 4.85905 0.194895 5.52159C0.0832436 6.18329 0.0231631 6.85262 0.0151925 7.52358C0.00588645 7.83018 0.00490371 8.1378 0 8.44443V31.5586C0.00490371 31.8691 0.00588645 32.1699 0.0151925 32.4805C0.0231656 33.1514 0.0832461 33.8207 0.194895 34.4824C0.305189 35.1453 0.516552 35.7875 0.821647 36.3867C1.12547 36.9849 1.52448 37.53 2.00317 38.001C2.47747 38.478 3.02551 38.8759 3.62636 39.1797C4.22648 39.484 4.86906 39.6966 5.53256 39.8105C6.19704 39.9193 6.86876 39.9784 7.54208 39.9873C7.85204 39.9941 8.1566 39.998 8.46361 39.998C8.83035 40 9.1937 40 9.56141 40H110.443C110.804 40 111.17 40 111.531 39.998C111.836 39.998 112.149 39.9941 112.455 39.9873C113.127 39.9789 113.798 39.9198 114.461 39.8105C115.126 39.6958 115.771 39.4832 116.374 39.1797C116.974 38.8758 117.522 38.4778 117.996 38.001C118.473 37.5282 118.873 36.9834 119.181 36.3867C119.484 35.7871 119.693 35.1449 119.802 34.4824C119.913 33.8206 119.976 33.1515 119.988 32.4805C119.992 32.1699 119.992 31.8691 119.992 31.5586C119.999 31.1953 119.999 30.834 119.999 30.4648V9.53622C119.999 9.17001 119.999 8.80673 119.992 8.44443C119.992 8.1378 119.992 7.83018 119.988 7.52354C119.976 6.85252 119.913 6.18334 119.802 5.52155C119.693 4.85939 119.483 4.21762 119.181 3.61823C118.562 2.41532 117.58 1.43615 116.374 0.818447C115.771 0.515695 115.126 0.304369 114.461 0.191449C113.798 0.0812325 113.127 0.0221377 112.455 0.0146899C112.149 0.00980996 111.836 0.00394998 111.531 0.00199999C111.17 0 110.804 0 110.443 0V0.000129999Z" fill="#A6A6A6"/>
<path d="M8.46804 39.1248C8.16251 39.1248 7.86436 39.1209 7.56122 39.1141C6.93324 39.106 6.30674 39.0515 5.68684 38.951C5.10881 38.8518 4.54886 38.6671 4.02546 38.4031C3.50685 38.1414 3.03384 37.7981 2.62454 37.3865C2.20932 36.9798 1.86363 36.5081 1.60117 35.9901C1.33582 35.4686 1.15218 34.9098 1.05665 34.3329C0.953484 33.713 0.897668 33.0862 0.889681 32.4579C0.883323 32.247 0.875 31.5448 0.875 31.5448V8.44431C0.875 8.44431 0.883865 7.7529 0.889731 7.54977C0.897378 6.92246 0.95287 6.29663 1.05573 5.67771C1.15143 5.09923 1.33521 4.53873 1.60071 4.01562C1.8622 3.49793 2.20597 3.02585 2.61869 2.61767C3.03095 2.20562 3.50547 1.8606 4.02496 1.59521C4.54717 1.33209 5.10606 1.14873 5.68292 1.05127C6.30485 0.949836 6.93353 0.894996 7.56368 0.88721L8.46853 0.875H111.525L112.441 0.8877C113.065 0.895099 113.688 0.94945 114.304 1.05029C114.887 1.14897 115.452 1.33361 115.98 1.59814C117.021 2.13298 117.868 2.97915 118.402 4.01806C118.663 4.53756 118.844 5.09349 118.938 5.66697C119.043 6.29097 119.101 6.92171 119.113 7.55417C119.116 7.83737 119.116 8.14157 119.116 8.44431C119.124 8.81931 119.124 9.17624 119.124 9.53609V30.4647C119.124 30.828 119.124 31.1825 119.116 31.5399C119.116 31.8651 119.116 32.163 119.112 32.4696C119.1 33.0907 119.043 33.7102 118.94 34.3231C118.847 34.9041 118.664 35.4674 118.399 35.9931C118.135 36.5055 117.791 36.9731 117.38 37.3787C116.971 37.7925 116.497 38.1378 115.977 38.4012C115.45 38.6672 114.886 38.8526 114.304 38.951C113.685 39.052 113.058 39.1065 112.43 39.1141C112.136 39.1209 111.829 39.1248 111.53 39.1248L110.443 39.1268L8.46804 39.1248Z" fill="black"/>
<path d="M24.8388 20.3013C24.8496 19.4666 25.0719 18.6482 25.4851 17.9223C25.8983 17.1963 26.4889 16.5864 27.202 16.1492C26.749 15.5041 26.1513 14.9731 25.4566 14.5986C24.7618 14.224 23.989 14.0162 23.1996 13.9916C21.5157 13.8153 19.8831 14.9964 19.025 14.9964C18.1503 14.9964 16.8291 14.0091 15.4064 14.0383C14.4862 14.0679 13.5893 14.3348 12.8033 14.8128C12.0172 15.2909 11.3687 15.9638 10.921 16.7661C8.98155 20.1145 10.4282 25.0355 12.286 27.7421C13.2155 29.0675 14.3018 30.5479 15.7232 30.4954C17.1142 30.4379 17.6337 29.611 19.3127 29.611C20.9761 29.611 21.4635 30.4954 22.9137 30.4621C24.4063 30.4379 25.3467 29.1308 26.2435 27.7929C26.9114 26.8486 27.4253 25.8049 27.7662 24.7004C26.8991 24.3347 26.1591 23.7225 25.6385 22.9402C25.1179 22.1579 24.8398 21.2401 24.8388 20.3013Z" fill="white"/>
<path d="M22.0994 12.2113C22.9132 11.2371 23.3141 9.98493 23.217 8.7207C21.9737 8.85092 20.8253 9.44348 20.0005 10.3803C19.5972 10.838 19.2884 11.3704 19.0916 11.9472C18.8948 12.5239 18.8139 13.1337 18.8536 13.7417C19.4754 13.7481 20.0907 13.6137 20.6529 13.3486C21.2151 13.0835 21.7097 12.6946 22.0994 12.2113Z" fill="white"/>
<path d="M42.4205 27.1396H37.6738L36.5339 30.4961H34.5234L39.0194 18.0781H41.1082L45.6042 30.4961H43.5594L42.4205 27.1396ZM38.1654 25.5908H41.928L40.0732 20.1436H40.0213L38.1654 25.5908Z" fill="white"/>
<path d="M55.314 25.9694C55.314 28.7829 53.8039 30.5905 51.5251 30.5905C50.9478 30.6206 50.3737 30.488 49.8685 30.2079C49.3633 29.9277 48.9474 29.5114 48.6684 29.0065H48.6253V33.4909H46.7617V21.4421H48.5656V22.948H48.5999C48.8917 22.4455 49.3146 22.0313 49.8236 21.7495C50.3327 21.4676 50.9088 21.3287 51.4908 21.3474C53.795 21.3474 55.314 23.1638 55.314 25.9694ZM53.3985 25.9694C53.3985 24.1364 52.4485 22.9314 50.9992 22.9314C49.5753 22.9314 48.6175 24.1618 48.6175 25.9694C48.6175 27.7936 49.5753 29.0153 50.9992 29.0153C52.4485 29.0153 53.3985 27.819 53.3985 25.9694Z" fill="white"/>
<path d="M65.3071 25.9694C65.3071 28.7829 63.7971 30.5905 61.5182 30.5905C60.941 30.6206 60.3669 30.488 59.8617 30.2079C59.3564 29.9277 58.9406 29.5114 58.6616 29.0065H58.6185V33.4909H56.7549V21.4421H58.5587V22.9479H58.593C58.8848 22.4455 59.3077 22.0313 59.8168 21.7495C60.3258 21.4676 60.902 21.3287 61.4839 21.3474C63.7882 21.3474 65.3071 23.1638 65.3071 25.9694ZM63.3916 25.9694C63.3916 24.1364 62.4417 22.9313 60.9923 22.9313C59.5684 22.9313 58.6107 24.1618 58.6107 25.9694C58.6107 27.7936 59.5684 29.0153 60.9923 29.0153C62.4417 29.0153 63.3916 27.819 63.3916 25.9694H63.3916Z" fill="white"/>
<path d="M71.9106 27.0361C72.0487 28.2676 73.2484 29.0761 74.8877 29.0761C76.4585 29.0761 77.5886 28.2675 77.5886 27.1572C77.5886 26.1933 76.907 25.6162 75.2931 25.2207L73.6793 24.833C71.3926 24.2822 70.331 23.2158 70.331 21.4853C70.331 19.3428 72.2035 17.8711 74.8622 17.8711C77.4936 17.8711 79.2975 19.3428 79.3582 21.4853H77.477C77.3643 20.2461 76.337 19.498 74.8358 19.498C73.3345 19.498 72.3072 20.2549 72.3072 21.3564C72.3072 22.2344 72.9634 22.751 74.5684 23.1464L75.9404 23.4824C78.4954 24.0849 79.557 25.1084 79.557 26.9247C79.557 29.248 77.7012 30.703 74.7496 30.703C71.988 30.703 70.1234 29.2821 70.0029 27.0361L71.9106 27.0361Z" fill="white"/>
<path d="M83.5792 19.2998V21.4424H85.3057V22.914H83.5792V27.9052C83.5792 28.6806 83.9249 29.042 84.6839 29.042C84.8889 29.0384 85.0935 29.024 85.2969 28.999V30.4618C84.9557 30.5254 84.6089 30.5542 84.2618 30.5478C82.4237 30.5478 81.7068 29.8593 81.7068 28.1034V22.914H80.3867V21.4424H81.7068V19.2998H83.5792Z" fill="white"/>
<path d="M86.3057 25.9697C86.3057 23.1211 87.9881 21.3311 90.6116 21.3311C93.244 21.3311 94.9186 23.121 94.9186 25.9697C94.9186 28.8261 93.2528 30.6084 90.6116 30.6084C87.9714 30.6084 86.3057 28.8261 86.3057 25.9697ZM93.0197 25.9697C93.0197 24.0156 92.1217 22.8623 90.6116 22.8623C89.1016 22.8623 88.2045 24.0244 88.2045 25.9697C88.2045 27.9316 89.1016 29.0761 90.6116 29.0761C92.1217 29.0761 93.0197 27.9316 93.0197 25.9697H93.0197Z" fill="white"/>
<path d="M96.4551 21.442H98.2325V22.983H98.2756C98.3959 22.5017 98.6786 22.0764 99.0763 21.7785C99.474 21.4806 99.9624 21.3284 100.459 21.3473C100.674 21.3465 100.888 21.3698 101.098 21.4166V23.1549C100.827 23.0723 100.544 23.0343 100.261 23.0426C99.9899 23.0316 99.72 23.0792 99.4695 23.1821C99.2189 23.285 98.9937 23.4407 98.8092 23.6386C98.6247 23.8365 98.4853 24.0719 98.4007 24.3286C98.316 24.5852 98.288 24.8571 98.3187 25.1256V30.4957H96.4551L96.4551 21.442Z" fill="white"/>
<path d="M109.691 27.8369C109.44 29.4804 107.835 30.6084 105.781 30.6084C103.14 30.6084 101.501 28.8437 101.501 26.0127C101.501 23.1728 103.149 21.3311 105.703 21.3311C108.215 21.3311 109.795 23.0517 109.795 25.7969V26.4336H103.382V26.5459C103.353 26.8791 103.394 27.2147 103.505 27.5306C103.615 27.8464 103.792 28.1352 104.023 28.3777C104.254 28.6203 104.534 28.8111 104.845 28.9374C105.155 29.0637 105.489 29.1226 105.825 29.1103C106.265 29.1515 106.707 29.0498 107.085 28.8203C107.462 28.5909 107.756 28.246 107.921 27.8369L109.691 27.8369ZM103.391 25.1347H107.93C107.947 24.8352 107.901 24.5353 107.796 24.2541C107.691 23.9729 107.529 23.7164 107.32 23.5006C107.111 23.2849 106.859 23.1145 106.581 23.0003C106.303 22.8861 106.004 22.8305 105.703 22.8369C105.4 22.8351 105.099 22.8932 104.818 23.008C104.537 23.1227 104.282 23.2918 104.067 23.5054C103.852 23.7191 103.682 23.973 103.566 24.2527C103.45 24.5323 103.39 24.8321 103.391 25.1348V25.1347Z" fill="white"/>
<path d="M36.8418 11.2534H37.6419C37.7796 11.2705 37.9194 11.2589 38.0524 11.2195C38.1855 11.1801 38.3089 11.1136 38.4149 11.0242C38.5209 10.9348 38.6071 10.8246 38.6683 10.7003C38.7294 10.576 38.764 10.4405 38.77 10.3022C38.77 9.75192 38.3548 9.39646 37.6507 9.39646C37.5096 9.37679 37.3659 9.38553 37.2283 9.42213C37.0906 9.45874 36.9617 9.52249 36.8491 9.6096C36.7366 9.69672 36.6427 9.80544 36.573 9.92934C36.5032 10.0533 36.4591 10.1898 36.4432 10.331H35.5647C35.5799 10.0747 35.6477 9.82427 35.7641 9.59526C35.8805 9.36625 36.0429 9.16359 36.2413 8.99988C36.4396 8.83618 36.6696 8.71494 36.917 8.64372C37.1643 8.5725 37.4237 8.55282 37.6791 8.58591C38.8572 8.58591 39.6867 9.24362 39.6867 10.1904C39.6894 10.5076 39.583 10.8161 39.3852 11.0645C39.1874 11.3128 38.9101 11.486 38.5996 11.5551V11.6254C38.9677 11.6417 39.3143 11.8026 39.5636 12.073C39.813 12.3434 39.9449 12.7012 39.9305 13.0683C39.9033 13.3322 39.8235 13.588 39.6958 13.8208C39.5682 14.0535 39.3952 14.2585 39.187 14.4237C38.9789 14.5889 38.7398 14.711 38.4837 14.7829C38.2276 14.8548 37.9597 14.8749 37.6957 14.8422C37.4312 14.8782 37.1621 14.8607 36.9045 14.7907C36.6468 14.7208 36.406 14.5998 36.1963 14.435C35.9865 14.2703 35.8122 14.0651 35.6837 13.8317C35.5552 13.5983 35.4751 13.3415 35.4482 13.0766H36.3404C36.3942 13.6474 36.9201 14.0156 37.6957 14.0156C38.4713 14.0156 38.9776 13.602 38.9776 13.019C38.9776 12.4277 38.5007 12.0635 37.6673 12.0635H36.8418V11.2534Z" fill="white"/>
<path d="M40.9443 13.4248C40.9443 12.6142 41.5505 12.147 42.6238 12.0805L43.847 12.0102V11.6216C43.847 11.146 43.5326 10.8774 42.9225 10.8774C42.425 10.8774 42.0813 11.0596 41.9814 11.3779H41.1187C41.2097 10.6045 41.9403 10.1084 42.9646 10.1084C44.0967 10.1084 44.7352 10.6704 44.7352 11.6216V14.6982H43.8764V14.0654H43.8059C43.6627 14.2924 43.4618 14.4774 43.2235 14.6017C42.9852 14.7259 42.7181 14.7848 42.4495 14.7724C42.26 14.7921 42.0684 14.7719 41.8871 14.7132C41.7058 14.6545 41.5389 14.5586 41.3971 14.4316C41.2553 14.3046 41.1417 14.1494 41.0637 13.976C40.9858 13.8026 40.9451 13.6148 40.9443 13.4248ZM43.847 13.04V12.6636L42.7442 12.7339C42.1224 12.7754 41.8403 12.9863 41.8403 13.3833C41.8403 13.7885 42.1929 14.0244 42.6777 14.0244C42.8197 14.0387 42.9632 14.0244 43.0996 13.9823C43.236 13.9403 43.3625 13.8712 43.4716 13.7794C43.5807 13.6876 43.6702 13.5748 43.7346 13.4477C43.7991 13.3207 43.8373 13.1821 43.847 13.04Z" fill="white"/>
<path d="M47.1001 10.9424V14.6972H46.209V10.1943H49.1822V10.9423L47.1001 10.9424Z" fill="white"/>
<path d="M54.5831 12.4448C54.5831 13.8754 53.8574 14.7724 52.7175 14.7724C52.4377 14.7915 52.1582 14.7304 51.912 14.5964C51.6659 14.4624 51.4632 14.2611 51.3279 14.0161H51.2574V16.1952H50.3662V10.1953H51.2241V10.9394H51.2907C51.4284 10.6859 51.6337 10.4752 51.884 10.3307C52.1342 10.1862 52.4196 10.1135 52.7087 10.1206C53.8574 10.1206 54.5831 11.0136 54.5831 12.4448ZM53.6665 12.4448C53.6665 11.4936 53.215 10.9189 52.46 10.9189C51.7099 10.9189 51.2407 11.5058 51.2407 12.4487C51.2407 13.3872 51.7098 13.9746 52.456 13.9746C53.215 13.9745 53.6665 13.3998 53.6665 12.4448Z" fill="white"/>
<path d="M55.7699 16.31V15.5449C55.8663 15.5571 55.9635 15.5627 56.0607 15.5615C56.2506 15.5755 56.4389 15.5191 56.5897 15.4032C56.7404 15.2872 56.8429 15.1198 56.8774 14.9331L56.944 14.7138L55.3096 10.1943H56.2801L57.4122 13.771H57.4827L58.6108 10.1943H59.5559L57.8725 14.8833C57.4866 15.979 57.0596 16.3305 56.1391 16.3305C56.0646 16.3305 55.8531 16.3222 55.7699 16.31Z" fill="white"/>
<path d="M60.25 13.4195H61.1372C61.2244 13.8165 61.5975 14.0235 62.1195 14.0235C62.7129 14.0235 63.0772 13.7628 63.0772 13.3575C63.0772 12.9234 62.7502 12.7164 62.1195 12.7164H61.4438V12.026H62.1077C62.6463 12.026 62.9206 11.8194 62.9206 11.443C62.9206 11.1124 62.6552 10.86 62.1077 10.86C61.6093 10.86 61.245 11.0709 61.1872 11.4264H60.3283C60.3926 11.0179 60.615 10.6509 60.9477 10.4043C61.2805 10.1577 61.697 10.0511 62.1077 10.1076C63.181 10.1076 63.7951 10.5914 63.7951 11.3522C63.8001 11.564 63.732 11.7712 63.6022 11.939C63.4725 12.1068 63.2889 12.2251 63.0821 12.2741V12.3444C63.3283 12.376 63.5542 12.4967 63.717 12.6834C63.8798 12.8702 63.9683 13.1101 63.9655 13.3575C63.9655 14.2135 63.2349 14.7799 62.1195 14.7799C61.1333 14.7799 60.3323 14.3292 60.25 13.4195Z" fill="white"/>
<path d="M65.249 14.6972V10.1943H66.1324V13.2915H66.2029L68.2839 10.1943H69.1672V14.6973H68.2839V11.5835H68.2173L66.1324 14.6973L65.249 14.6972Z" fill="white"/>
<path d="M74.0339 10.9433H72.612V14.6982H71.7198V10.9433H70.2979V10.1953H74.0339V10.9433Z" fill="white"/>
<path d="M78.8333 13.4815C78.7119 13.893 78.4493 14.2489 78.0915 14.487C77.7337 14.7252 77.3033 14.8303 76.8757 14.7842C76.5782 14.7921 76.2825 14.7352 76.0093 14.6177C75.736 14.5002 75.4917 14.3248 75.2932 14.1036C75.0947 13.8825 74.9469 13.6209 74.86 13.3371C74.773 13.0533 74.7491 12.754 74.7898 12.46C74.7502 12.1651 74.7745 11.8652 74.8613 11.5805C74.948 11.2959 75.095 11.0331 75.2925 10.81C75.4899 10.587 75.7331 10.4088 76.0055 10.2876C76.278 10.1664 76.5734 10.105 76.8718 10.1075C78.1282 10.1075 78.8871 10.9635 78.8871 12.3775V12.6876H75.6986V12.7374C75.6844 12.9027 75.7052 13.0691 75.7594 13.2259C75.8136 13.3827 75.9001 13.5265 76.0134 13.648C76.1266 13.7695 76.2641 13.866 76.417 13.9313C76.5699 13.9967 76.7348 14.0294 76.9011 14.0274C77.1142 14.0528 77.3299 14.0144 77.5211 13.9172C77.7122 13.82 77.87 13.6684 77.9745 13.4815L78.8333 13.4815ZM75.6985 12.0303H77.9783C77.9896 11.8793 77.9691 11.7276 77.918 11.5849C77.867 11.4422 77.7866 11.3118 77.682 11.2019C77.5775 11.0921 77.451 11.0053 77.3108 10.947C77.1706 10.8888 77.0197 10.8605 76.8678 10.8639C76.7136 10.8618 76.5606 10.8905 76.4178 10.9484C76.2749 11.0063 76.1452 11.0921 76.0362 11.2009C75.9272 11.3096 75.8411 11.4391 75.7831 11.5815C75.7252 11.724 75.6964 11.8766 75.6986 12.0303H75.6985Z" fill="white"/>
<path d="M82.6123 10.1943H84.6483C85.5316 10.1943 86.0496 10.6406 86.0496 11.3393C86.051 11.561 85.976 11.7765 85.8371 11.9496C85.6983 12.1228 85.504 12.2431 85.2868 12.2905V12.3608C85.5505 12.3774 85.7977 12.4944 85.9774 12.6876C86.1571 12.8808 86.2555 13.1354 86.2524 13.3989C86.2524 14.1845 85.6599 14.6972 84.6688 14.6972H82.6123V10.1943ZM83.4956 10.8765V12.0425H84.379C84.9176 12.0425 85.1751 11.8359 85.1751 11.4551C85.1751 11.104 84.9509 10.8765 84.4779 10.8765L83.4956 10.8765ZM83.4956 12.6958V14.0151H84.5523C85.0792 14.0151 85.3612 13.7832 85.3612 13.3574C85.3612 12.9067 85.042 12.6958 84.4407 12.6958L83.4956 12.6958Z" fill="white"/>
</g>
<defs>
<clipPath id="clip0_128_3313">
<rect width="119.999" height="39.9998" fill="white"/>
</clipPath>
</defs>
</svg>
