<svg width="64" height="64" viewBox="0 0 64 64" fill="none" xmlns="http://www.w3.org/2000/svg">
<path fill-rule="evenodd" clip-rule="evenodd" d="M6 24.5C6.82843 24.5 7.5 25.1716 7.5 26V53C7.5 53.2761 7.72386 53.5 8 53.5H56C56.2761 53.5 56.5 53.2761 56.5 53V26C56.5 25.1716 57.1716 24.5 58 24.5C58.8284 24.5 59.5 25.1716 59.5 26V53C59.5 54.933 57.933 56.5 56 56.5H8C6.06701 56.5 4.5 54.933 4.5 53V26C4.5 25.1716 5.17157 24.5 6 24.5Z" fill="black"/>
<path fill-rule="evenodd" clip-rule="evenodd" d="M32 36.1172L8.64331 18.3983C8.2616 18.1088 8.46639 17.5 8.9455 17.5H55.0545C55.5336 17.5 55.7384 18.1088 55.3567 18.3983L32 36.1172ZM30.489 38.7365C31.3824 39.4142 32.6176 39.4142 33.511 38.7365L57.1698 20.7884C59.8418 18.7614 58.4083 14.5 55.0545 14.5H8.9455C5.59169 14.5 4.1582 18.7614 6.83015 20.7884L30.489 38.7365Z" fill="black"/>
<path fill-rule="evenodd" clip-rule="evenodd" d="M24.1181 37.5001C24.6704 38.1176 24.6174 39.0659 23.9999 39.6181L11.4999 50.7967C10.8824 51.3489 9.93414 51.296 9.3819 50.6785C8.82967 50.061 8.88259 49.1127 9.5001 48.5605L22.0001 37.3819C22.6176 36.8297 23.5659 36.8826 24.1181 37.5001ZM39.8819 37.5001C40.4341 36.8826 41.3824 36.8297 41.9999 37.3819L54.4999 48.5605C55.1174 49.1127 55.1704 50.061 54.6181 50.6785C54.0659 51.296 53.1176 51.3489 52.5001 50.7967L40.0001 39.6181C39.3826 39.0659 39.3297 38.1176 39.8819 37.5001Z" fill="#2F62F6"/>
</svg>
