<svg width="220" height="191" viewBox="0 0 220 191" fill="none" xmlns="http://www.w3.org/2000/svg">
<path d="M95.3217 36.9287C94.7925 35.603 78.0532 35.8698 73.8819 36.6529C73.2992 36.7623 73 37.2626 73 37.8555V81.0713C73 82.5428 94.1469 82.0523 95.3217 81.0713C96.4965 80.0904 95.9091 38.4001 95.3217 36.9287Z" stroke="black" stroke-width="2" stroke-linecap="round"/>
<path d="M169.351 21.2517C168.836 19.4339 152.272 19.8376 148.646 20.9358C148.192 21.0733 148 21.4991 148 21.9736V80.7483C148 82.7315 168.227 82.0705 169.351 80.7483C170.475 79.4262 169.913 23.2349 169.351 21.2517Z" stroke="black" stroke-width="2" stroke-linecap="round"/>
<path d="M58.4102 66.323C57.9742 65.8861 44.8836 65.9465 40.4249 66.1857C39.5657 66.2318 39 66.9019 39 67.7623V81.677C39 82.1888 57.3886 82.0182 58.4102 81.677C59.4318 81.3358 58.921 66.8348 58.4102 66.323Z" stroke="black" stroke-width="2" stroke-linecap="round"/>
<path d="M134.263 41.8277C133.69 40.6505 115.626 40.8822 111.009 41.5743C110.357 41.6721 110 42.218 110 42.8779V81.1723C110 82.4838 132.986 82.0466 134.263 81.1723C135.54 80.298 134.901 43.1392 134.263 41.8277Z" stroke="black" stroke-width="2" stroke-linecap="round"/>
<path d="M205.322 2.63525C204.774 0.221041 186.887 0.806157 183.499 2.29458C183.131 2.45591 183 2.8361 183 3.23727V80.3648C183 82.9557 204.147 82.0921 205.322 80.3648C206.497 78.6374 205.909 5.22622 205.322 2.63525Z" stroke="#2F62F6" stroke-width="2" stroke-linecap="round"/>
<path fill-rule="evenodd" clip-rule="evenodd" d="M90.7318 114.173C90.2711 115.198 89.0588 115.636 88.0156 115.219C82.4094 112.975 76.2493 112.411 70.2942 113.628C63.6682 114.982 57.692 118.46 53.2496 123.497C48.8101 128.531 46.1393 134.852 45.6011 141.499C45.063 148.145 46.6821 154.803 50.2412 160.475C53.8026 166.151 59.1243 170.546 65.4338 172.957C71.7454 175.37 78.6742 175.654 85.1656 173.764C91.6554 171.874 97.3229 167.924 101.337 162.549C104.947 157.716 107.05 151.961 107.436 145.999C107.507 144.896 108.395 144 109.5 144H121C122.105 144 123.004 144.896 122.958 146C122.557 155.527 119.297 164.707 113.613 172.318C107.534 180.457 99.0196 186.354 89.3738 189.163C79.7298 191.971 69.4431 191.551 60.0517 187.962C50.6581 184.371 42.6394 177.792 37.2317 169.173C31.8218 160.552 29.3289 150.37 30.155 140.166C30.9811 129.964 35.0769 120.336 41.7874 112.727C48.4951 105.12 57.4486 99.9423 67.284 97.9323C76.4812 96.0527 86.0165 97.0311 94.6387 100.723C95.6367 101.15 96.0612 102.319 95.6161 103.309L90.7318 114.173Z" fill="#2F62F6"/>
<path d="M104.306 134.607C102.439 129.587 99.3069 125.147 95.2293 121.711C94.3846 120.999 94.1911 119.751 94.8469 118.863L101.675 109.609C102.331 108.721 103.586 108.529 104.447 109.221C111.336 114.768 116.525 122.116 119.435 130.408C119.808 131.473 119.173 132.611 118.083 132.904L106.798 135.941C105.754 136.222 104.683 135.62 104.306 134.607Z" stroke="black" stroke-width="2" stroke-linecap="round"/>
<path d="M86.06 159.238C86.8607 158.803 87.5331 158.252 88.0774 157.583C88.6259 156.899 89.0122 156.162 89.2364 155.37C89.4563 154.593 89.5119 153.77 89.4032 152.901C89.2945 152.031 89.0111 151.209 88.553 150.433C88.0991 149.643 87.477 148.935 86.6865 148.308C85.9153 147.67 84.9696 147.192 83.8494 146.875C82.7442 146.562 81.6886 146.473 80.6825 146.608C79.6956 146.732 78.8018 147.011 78.0011 147.446C77.2196 147.87 76.5546 148.424 76.0061 149.107C75.4576 149.791 75.0734 150.521 74.8535 151.298C74.6293 152.089 74.5716 152.92 74.6803 153.789C74.7932 154.644 75.0691 155.464 75.5081 156.25C75.9662 157.025 76.5809 157.732 77.3521 158.369C78.1425 158.997 79.0903 159.467 80.1956 159.78M60.9734 135.364C60.7493 136.156 60.6915 136.987 60.8002 137.856C60.9131 138.711 61.189 139.531 61.628 140.317C62.0861 141.092 62.7008 141.799 63.472 142.436C64.2625 143.063 65.2103 143.534 66.3155 143.846C67.4357 144.164 68.4892 144.26 69.4761 144.136C70.4822 144.002 71.3835 143.725 72.1799 143.305C72.9806 142.87 73.6531 142.318 74.1973 141.65C74.7458 140.966 75.1321 140.229 75.3563 139.437C75.5762 138.66 75.6318 137.837 75.5231 136.967C75.4145 136.098 75.1311 135.275 74.6729 134.5C74.219 133.71 73.5969 133.002 72.8065 132.375C72.0352 131.737 71.0895 131.259 69.9694 130.942C68.8641 130.629 67.8085 130.54 66.8024 130.675C65.8155 130.799 64.9217 131.078 64.121 131.513M84.6265 133.027C81.5348 136.653 78.5565 140.391 75.6914 144.242C72.8455 148.083 70.0914 151.997 67.4292 155.987" stroke="black" stroke-width="2" stroke-linecap="round" stroke-linejoin="round"/>
<path d="M143.5 112C143.5 135.667 143.5 179.5 143.5 181.5C143.5 183.5 187.5 182.833 206.5 182" stroke="black" stroke-width="2" stroke-linecap="round" stroke-linejoin="round"/>
<path d="M152 179.5V182.5" stroke="black" stroke-width="2" stroke-linecap="round" stroke-linejoin="round"/>
<path d="M167 179V182" stroke="black" stroke-width="2" stroke-linecap="round" stroke-linejoin="round"/>
<path d="M183 179V182" stroke="black" stroke-width="2" stroke-linecap="round" stroke-linejoin="round"/>
<path d="M197 178V181" stroke="black" stroke-width="2" stroke-linecap="round" stroke-linejoin="round"/>
<path d="M160 176.5V182.5" stroke="black" stroke-width="2" stroke-linecap="round" stroke-linejoin="round"/>
<path d="M175 176V182" stroke="black" stroke-width="2" stroke-linecap="round" stroke-linejoin="round"/>
<path d="M191 176V182" stroke="black" stroke-width="2" stroke-linecap="round" stroke-linejoin="round"/>
<path d="M150 173C155.385 166.513 167.884 145.331 169.5 145C171.519 144.586 182.981 151.414 185 151C186.616 150.669 195.942 132.008 202 120" stroke="#2F62F6" stroke-width="2" stroke-linecap="round"/>
<path d="M196 120.128C198.167 118.462 202.8 115.328 204 116.128C205.2 116.928 205.833 122.128 206 124.628" stroke="#2F62F6" stroke-width="2" stroke-linecap="round"/>
</svg>
