<svg width="64" height="64" viewBox="0 0 64 64" fill="none" xmlns="http://www.w3.org/2000/svg">
<path fill-rule="evenodd" clip-rule="evenodd" d="M35.1468 7.83385L32.1309 5.38051C31.7634 5.0815 31.2364 5.0815 30.8688 5.38051L27.853 7.83385C26.3056 9.09263 24.2947 9.63146 22.3252 9.31502L18.4867 8.69829C18.0189 8.62312 17.5625 8.8866 17.3937 9.32934L16.0086 12.9619C15.2979 14.8258 13.8258 16.2979 11.9619 17.0086L8.32934 18.3937C7.88661 18.5625 7.62312 19.0189 7.69829 19.4867L8.31502 23.3252C8.63146 25.2947 8.09263 27.3056 6.83385 28.853L4.38051 31.8688C4.0815 32.2364 4.0815 32.7634 4.38051 33.1309L6.83385 36.1468C8.09263 37.6942 8.63146 39.7051 8.31502 41.6746L7.69829 45.5131C7.62312 45.9809 7.8866 46.4373 8.32934 46.6061L11.9619 47.9912C13.8258 48.7019 15.2979 50.174 16.0086 52.0379L17.3937 55.6704C17.5625 56.1132 18.0189 56.3767 18.4867 56.3015L22.3252 55.6848C24.2947 55.3683 26.3056 55.9071 27.853 57.1659L30.8688 59.6193C31.2364 59.9183 31.7634 59.9183 32.1309 59.6193L35.1468 57.1659C36.6942 55.9071 38.7051 55.3683 40.6746 55.6848L44.5131 56.3015C44.9809 56.3767 45.4373 56.1132 45.6061 55.6704L46.9912 52.0379C47.7019 50.174 49.174 48.7019 51.0379 47.9912L54.6704 46.6061C55.1132 46.4373 55.3767 45.9809 55.3015 45.5131L54.6848 41.6746C54.3683 39.7051 54.9072 37.6942 56.1659 36.1468L58.6193 33.1309C58.9183 32.7634 58.9183 32.2364 58.6193 31.8688L56.1659 28.853C54.9071 27.3056 54.3683 25.2947 54.6848 23.3252L55.3015 19.4867C55.3767 19.0189 55.1132 18.5625 54.6704 18.3937L51.0379 17.0086C49.174 16.2979 47.7019 14.8258 46.9912 12.9619L45.6061 9.32934C45.4373 8.88661 44.9809 8.62312 44.5131 8.69829L40.6746 9.31502C38.7051 9.63146 36.6942 9.09263 35.1468 7.83385ZM34.0241 3.05329C32.5538 1.85724 30.446 1.85724 28.9757 3.05329L25.9598 5.50662C25.0756 6.22593 23.9265 6.53383 22.8011 6.35301L18.9626 5.73628C17.0913 5.43561 15.2658 6.48954 14.5906 8.26049L13.2054 11.8931C12.7993 12.9581 11.9581 13.7993 10.8931 14.2054L7.26049 15.5906C5.48954 16.2658 4.43561 18.0913 4.73628 19.9626L5.35301 23.8011C5.53383 24.9265 5.22593 26.0756 4.50662 26.9598L2.05329 29.9757C0.857238 31.446 0.857238 33.5538 2.05329 35.0241L4.50662 38.0399C5.22593 38.9242 5.53383 40.0733 5.35301 41.1987L4.73628 45.0372C4.43561 46.9085 5.48954 48.7339 7.26049 49.4092L10.8931 50.7943C11.9581 51.2005 12.7993 52.0417 13.2054 53.1067L14.5906 56.7393C15.2658 58.5102 17.0913 59.5642 18.9626 59.2635L22.8011 58.6468C23.9265 58.4659 25.0756 58.7738 25.9598 59.4932L28.9757 61.9465C30.446 63.1425 32.5538 63.1425 34.0241 61.9465L37.0399 59.4932C37.9242 58.7738 39.0733 58.4659 40.1987 58.6468L44.0372 59.2635C45.9085 59.5642 47.7339 58.5102 48.4092 56.7393L49.7943 53.1067C50.2005 52.0417 51.0417 51.2005 52.1067 50.7943L55.7393 49.4092C57.5102 48.7339 58.5642 46.9085 58.2635 45.0372L57.6468 41.1987C57.4659 40.0733 57.7738 38.9242 58.4932 38.0399L60.9465 35.0241C62.1425 33.5538 62.1425 31.446 60.9465 29.9757L58.4932 26.9598C57.7738 26.0756 57.4659 24.9265 57.6468 23.8011L58.2635 19.9626C58.5642 18.0913 57.5102 16.2658 55.7393 15.5906L52.1067 14.2054C51.0417 13.7993 50.2005 12.9581 49.7943 11.8931L48.4092 8.26048C47.7339 6.48954 45.9085 5.43561 44.0372 5.73628L40.1987 6.35301C39.0733 6.53383 37.9242 6.22593 37.0399 5.50662L34.0241 3.05329Z" fill="black"/>
<path fill-rule="evenodd" clip-rule="evenodd" d="M25 22.5C23.6193 22.5 22.5 23.6193 22.5 25C22.5 26.3807 23.6193 27.5 25 27.5C26.3807 27.5 27.5 26.3807 27.5 25C27.5 23.6193 26.3807 22.5 25 22.5ZM19.5 25C19.5 21.9624 21.9624 19.5 25 19.5C28.0376 19.5 30.5 21.9624 30.5 25C30.5 28.0376 28.0376 30.5 25 30.5C21.9624 30.5 19.5 28.0376 19.5 25Z" fill="#2F62F6"/>
<path fill-rule="evenodd" clip-rule="evenodd" d="M39 36.5C37.6193 36.5 36.5 37.6193 36.5 39C36.5 40.3807 37.6193 41.5 39 41.5C40.3807 41.5 41.5 40.3807 41.5 39C41.5 37.6193 40.3807 36.5 39 36.5ZM33.5 39C33.5 35.9624 35.9624 33.5 39 33.5C42.0376 33.5 44.5 35.9624 44.5 39C44.5 42.0376 42.0376 44.5 39 44.5C35.9624 44.5 33.5 42.0376 33.5 39Z" fill="#2F62F6"/>
<path fill-rule="evenodd" clip-rule="evenodd" d="M42.0607 21.9393C42.6464 22.5251 42.6464 23.4749 42.0607 24.0607L24.0607 42.0607C23.4749 42.6464 22.5251 42.6464 21.9393 42.0607C21.3536 41.4749 21.3536 40.5251 21.9393 39.9393L39.9393 21.9393C40.5251 21.3536 41.4749 21.3536 42.0607 21.9393Z" fill="#2F62F6"/>
</svg>
