<svg width="220" height="248" viewBox="0 0 220 248" fill="none" xmlns="http://www.w3.org/2000/svg">
<path d="M105.744 130.485C114.719 121.413 123.818 101.357 127.202 92.1755C127.36 91.7471 127.809 91.5034 128.254 91.6068C132.384 92.5665 138.783 94.1871 146.08 97.4173C153.9 100.879 158.89 104.319 161.995 106.622C162.3 106.848 162.428 107.239 162.315 107.602C160.711 112.737 157.695 120.988 153 129.499C150.807 133.476 146.08 140.162 146.08 140.162" stroke="#2F62F6" stroke-width="2" stroke-linecap="round" stroke-linejoin="round"/>
<path d="M123.5 101.049C120.578 100.588 110.02 99.6206 105.214 99.7889C99.2064 99.9993 96.0433 100.38 95.2895 101.049C94.5357 101.717 91.8955 126.68 90.3109 136.434" stroke="#2F62F6" stroke-width="2" stroke-linecap="round" stroke-linejoin="round"/>
<path d="M117.995 109.27L106.961 107.909C106.466 107.848 106.018 108.205 105.852 108.676C105.268 110.339 103.474 112.543 99.3641 112.392" stroke="#2F62F6" stroke-width="2" stroke-linecap="round" stroke-linejoin="round"/>
<path d="M92.8438 109.1C87.4866 111.157 76.732 115.469 76.5704 116.259C76.3684 117.246 82.2532 135.726 82.1137 140.428" stroke="#2F62F6" stroke-width="2" stroke-linecap="round" stroke-linejoin="round"/>
<path d="M92.3008 115.775L87.0384 118.023C86.6817 118.176 86.4683 118.539 86.4513 118.927C86.372 120.728 85.4184 123.547 81.9496 124.146" stroke="#2F62F6" stroke-width="2" stroke-linecap="round" stroke-linejoin="round"/>
<path d="M126.879 105.522C128.143 106.454 131.973 105.999 133.891 103.863C134.19 103.53 134.665 103.376 135.074 103.558L148.186 109.371C148.568 109.54 148.778 109.95 148.757 110.367C148.666 112.22 149.35 115.282 152.731 116.781" stroke="#2F62F6" stroke-width="2" stroke-linecap="round" stroke-linejoin="round"/>
<path d="M171.5 166C171.833 159.5 171.8 145.7 169 142.5C165.5 138.5 61.0002 138.5 58.0002 142.5C55.6002 145.7 55.6668 193.5 56.0002 217" stroke="black" stroke-width="2" stroke-linecap="round" stroke-linejoin="round"/>
<path d="M156 193C138 193 132.5 186.5 132.5 181C132.5 175.5 135 172 140.5 169.5C147 166.545 164.667 166.833 174 167C176.62 167.046 176 178.5 176 178.5" stroke="black" stroke-width="2" stroke-linecap="round" stroke-linejoin="round"/>
<circle cx="148.5" cy="180.5" r="5.5" fill="black"/>
<path d="M70.5005 150.5C70.0005 168.5 69.3005 205.5 70.5005 209.5" stroke="black" stroke-width="2" stroke-linecap="round" stroke-linejoin="round"/>
<path d="M105 226L162.5 224.5" stroke="black" stroke-width="2" stroke-linecap="round" stroke-linejoin="round"/>
<path d="M57.5093 217.591C57.4034 216.549 17.9406 216.591 17.004 217.732C15.599 219.442 16.6573 229.859 17.8056 230.802C18.9538 231.746 56.8001 231.33 57.2684 230.76C57.7367 230.19 57.6151 218.632 57.5093 217.591Z" stroke="black" stroke-width="2" stroke-linecap="round" stroke-linejoin="round"/>
<path d="M24.3013 217.043L25.1029 230.114M35.8743 217.003L35.7392 231.214M46.5106 218.103L46.2697 231.272M52.1912 217.041L52.5245 230.682" stroke="black" stroke-width="2" stroke-linecap="round" stroke-linejoin="round"/>
<path d="M102.592 220.823C102.486 219.781 63.0236 219.824 62.087 220.964C60.682 222.674 61.7403 233.091 62.8886 234.035C64.0369 234.978 101.883 234.562 102.351 233.992C102.82 233.422 102.698 221.865 102.592 220.823Z" stroke="black" stroke-width="2" stroke-linecap="round" stroke-linejoin="round"/>
<path d="M69.3843 220.276L70.1859 233.347M80.9573 220.236L80.8222 234.447M91.5936 221.335L91.3527 234.505M97.2742 220.274L97.6075 233.915" stroke="black" stroke-width="2" stroke-linecap="round" stroke-linejoin="round"/>
<path d="M179 216V195C183 194.833 191 195.8 191 201C191 206.2 185.667 207.5 183 207.5" stroke="black" stroke-width="2" stroke-linecap="round" stroke-linejoin="round"/>
<path d="M175 212L186 212.5" stroke="black" stroke-width="2" stroke-linecap="round" stroke-linejoin="round"/>
<path d="M51.5923 202.207C51.4864 201.165 12.0236 201.208 11.087 202.348C9.68199 204.058 10.7403 214.475 11.8886 215.419C13.0369 216.362 50.8831 215.946 51.3514 215.376C51.8197 214.806 51.6981 203.249 51.5923 202.207Z" stroke="black" stroke-width="2" stroke-linecap="round" stroke-linejoin="round"/>
<path d="M18.3853 201.659L19.1869 214.73M29.9583 201.618L29.8232 215.829M40.5946 202.718L40.3537 215.888M46.2752 201.656L46.6085 215.297" stroke="black" stroke-width="2" stroke-linecap="round" stroke-linejoin="round"/>
<path d="M61.06 186.823C60.9542 185.781 21.4914 185.824 20.5547 186.964C19.1498 188.674 20.208 199.091 21.3563 200.035C22.5046 200.978 60.3509 200.562 60.8192 199.992C61.2875 199.422 61.1659 187.865 61.06 186.823Z" stroke="black" stroke-width="2" stroke-linecap="round" stroke-linejoin="round"/>
<path d="M27.8511 186.276L28.6527 199.347M39.4241 186.236L39.289 200.447M50.0604 187.335L49.8195 200.505M55.741 186.274L56.0743 199.915" stroke="black" stroke-width="2" stroke-linecap="round" stroke-linejoin="round"/>
<circle cx="182" cy="205" r="26" stroke="black" stroke-width="2" stroke-linecap="round" stroke-linejoin="round"/>
<path d="M217.593 218.823C217.487 217.781 178.025 217.824 177.088 218.964C175.683 220.674 176.741 231.091 177.89 232.035C179.038 232.978 216.884 232.562 217.352 231.992C217.821 231.422 217.699 219.865 217.593 218.823Z" fill="white" stroke="black" stroke-width="2" stroke-linecap="round" stroke-linejoin="round"/>
<path d="M184.385 218.276L185.187 231.347M195.958 218.236L195.823 232.447M206.595 219.335L206.354 232.505M212.275 218.274L212.608 231.915" stroke="black" stroke-width="2" stroke-linecap="round" stroke-linejoin="round"/>
<path d="M164 205C164 210.799 166.742 215.957 171 219.249M166.708 195.5C169.885 190.397 175.546 187 182 187C191.941 187 200 195.059 200 205C200 208.344 199.088 211.474 197.5 214.157" stroke="black" stroke-width="2" stroke-linecap="round" stroke-linejoin="round"/>
<path d="M20.3616 100.039C22.7041 103.102 27.7373 109.561 29.1306 110.889C32.5319 110.807 135.569 43.6681 137.695 43.617C139.821 43.5659 148.005 65.4905 150.556 65.4292C152.597 65.3801 174.861 50.0974 185.738 42.4621C187.524 45.9643 191.693 53.0393 194.082 53.3222C197.069 53.6759 207.955 28.7404 207.023 25.3595C206.278 22.6548 183.942 20.8094 172.867 20.2248L179.571 33.6768C170.472 38.575 151.85 48.4667 150.157 48.8477C148.042 49.324 144.181 30.2734 139.504 30.3858C135.762 30.4757 58.5167 76.8588 20.3616 100.039Z" fill="#2F62F6" stroke="#2F62F6" stroke-width="2" stroke-linecap="round" stroke-linejoin="round"/>
</svg>
