<svg width="64" height="64" viewBox="0 0 64 64" fill="none" xmlns="http://www.w3.org/2000/svg">
<path fill-rule="evenodd" clip-rule="evenodd" d="M40.4043 8.8335C41.2327 8.8335 41.9043 9.50507 41.9043 10.3335V22.8335H54.4043C55.2327 22.8335 55.9043 23.5051 55.9043 24.3335C55.9043 25.1619 55.2327 25.8335 54.4043 25.8335H40.4043C39.5759 25.8335 38.9043 25.1619 38.9043 24.3335V10.3335C38.9043 9.50507 39.5759 8.8335 40.4043 8.8335Z" fill="#2F62F6"/>
<path fill-rule="evenodd" clip-rule="evenodd" d="M57.7983 6.93934C58.3841 7.52513 58.3841 8.47487 57.7983 9.06066L41.465 25.394C40.8792 25.9798 39.9294 25.9798 39.3436 25.394C38.7579 24.8082 38.7579 23.8585 39.3436 23.2727L55.677 6.93934C56.2628 6.35355 57.2125 6.35355 57.7983 6.93934Z" fill="#2F62F6"/>
<path fill-rule="evenodd" clip-rule="evenodd" d="M21.773 12.5997C21.1904 12.0987 20.4454 11.8266 19.677 11.8341L19.6623 11.8342H12.663C12.2236 11.8347 11.7891 11.9267 11.3872 12.1042C10.985 12.2818 10.6243 12.5413 10.3279 12.8659C10.0315 13.1906 9.80597 13.5735 9.66564 13.9901C9.52646 14.4034 9.47414 14.8409 9.51191 15.2752C10.2545 22.2487 12.6282 28.9495 16.4412 34.8353L16.4483 34.8464C19.9127 40.2982 24.5349 44.9205 29.9868 48.3849L29.9985 48.3923C35.8571 52.1916 42.5247 54.5648 49.4663 55.3214C49.9014 55.359 50.3397 55.3062 50.7535 55.1663C51.1712 55.025 51.5548 54.798 51.8797 54.4999C52.2047 54.2018 52.4638 53.8391 52.6404 53.4351C52.8171 53.0311 52.9074 52.5946 52.9056 52.1536L52.9056 52.1475V45.1475C52.9056 45.1351 52.9058 45.1227 52.9061 45.1103C52.9253 44.3338 52.6585 43.5773 52.1564 42.9847C51.6556 42.3936 50.9555 42.0067 50.1887 41.897C47.839 41.5865 45.5318 41.0115 43.3112 40.1829L43.3078 40.1816C42.7411 39.9686 42.1252 39.9225 41.5331 40.0488C40.9422 40.1748 40.3997 40.4672 39.9696 40.8915L39.967 40.8941L37.0096 43.8515C36.5321 44.329 35.7945 44.4286 35.2075 44.0948C29.1312 40.6397 24.1001 35.6086 20.645 29.5323C20.3112 28.9453 20.4108 28.2077 20.8883 27.7302L23.8457 24.7728L23.8483 24.7702C24.2726 24.3401 24.565 23.7976 24.691 23.2067C24.8173 22.6146 24.7712 21.9987 24.5582 21.432L24.5569 21.4286C23.7283 19.2081 23.1533 16.901 22.8428 14.5513C22.7341 13.7928 22.354 13.0994 21.773 12.5997ZM19.6554 8.83421C21.149 8.82142 22.5965 9.35116 23.7291 10.3252C24.8637 11.3009 25.6047 12.6559 25.8142 14.1376L25.8161 14.1514C26.0967 16.2787 26.6169 18.3675 27.3669 20.3779C27.7813 21.4811 27.8709 22.6799 27.6251 23.8325C27.3791 24.9855 26.8078 26.0439 25.9788 26.8823L25.9729 26.8882L23.8312 29.0299C26.7935 33.8747 30.8651 37.9464 35.7099 40.9086L37.8575 38.761C38.6959 37.932 39.7543 37.3607 40.9073 37.1148C42.0596 36.869 43.2581 36.9585 44.3611 37.3726C46.3717 38.1228 48.4608 38.6431 50.5884 38.9238L50.6018 38.9255C52.0996 39.1368 53.4675 39.8913 54.4453 41.0454C55.4188 42.1944 55.9381 43.6597 55.9056 45.1649V52.1445C55.9087 53.0021 55.7328 53.8511 55.3892 54.6369C55.0451 55.4237 54.5406 56.13 53.9078 56.7105C53.2751 57.2911 52.528 57.733 51.7146 58.0081C50.9011 58.2832 50.0392 58.3854 49.1839 58.3081L49.1569 58.3054C41.7458 57.5002 34.6269 54.9682 28.3717 50.913C22.5526 47.2141 17.6186 42.28 13.9197 36.4609C9.85037 30.1773 7.31787 23.0237 6.52733 15.5793L6.52503 15.5559C6.44798 14.7032 6.54931 13.8439 6.82257 13.0326C7.09583 12.2212 7.53504 11.4757 8.11222 10.8434C8.68941 10.2111 9.39192 9.7059 10.175 9.35999C10.9582 9.01408 11.8047 8.83502 12.6609 8.83421L19.6554 8.83421Z" fill="black"/>
</svg>
