<svg width="220" height="190" viewBox="0 0 220 190" fill="none" xmlns="http://www.w3.org/2000/svg">
<path d="M128 8H110L117.043 13.3335C117.565 16.1272 118.765 21.5623 119.391 20.9527C120.017 20.3432 125.391 12.0636 128 8Z" stroke="#2F62F6" stroke-width="2" stroke-linecap="round" stroke-linejoin="round"/>
<path d="M107.5 141.413C107.1 140.213 100.333 141.913 97 142.913L101.5 160.913L111.5 158.913C110.333 153.579 107.9 142.613 107.5 141.413Z" stroke="black" stroke-width="2" stroke-linecap="round" stroke-linejoin="round"/>
<path d="M125 124.754C124 123.754 116.948 125.192 113.5 127L120.655 157L133.5 154.5C132 146.5 126 125.754 125 124.754Z" stroke="black" stroke-width="2" stroke-linecap="round" stroke-linejoin="round"/>
<path d="M130.5 115L141.5 152.5L157 148.5C154.5 140.5 150 122.5 149 121.5" stroke="black" stroke-width="2" stroke-linecap="round" stroke-linejoin="round"/>
<path d="M144.51 112.5C146.676 111.333 151.41 108.9 153.01 108.5" stroke="black" stroke-width="2" stroke-linecap="round" stroke-linejoin="round"/>
<path d="M159.51 105C161.676 103.833 166.41 101.4 168.01 101" stroke="black" stroke-width="2" stroke-linecap="round" stroke-linejoin="round"/>
<path d="M174.51 97.5C176.676 96.3333 181.41 93.9 183.01 93.5" stroke="black" stroke-width="2" stroke-linecap="round" stroke-linejoin="round"/>
<path d="M109.009 26.0005C108.509 23.5005 36.0095 13.0005 35.0095 14.0005C35.0095 32.5005 15.5095 115 16.0095 116.5C16.5095 118 90.0095 126.5 92.0095 126C94.0095 125.5 109.509 28.5005 109.009 26.0005Z" stroke="black" stroke-width="2" stroke-linecap="round" stroke-linejoin="round"/>
<path d="M107.51 40.5L156.51 17L204.01 92.5C183.176 103.667 141.21 126.1 140.01 126.5C138.81 126.9 114.176 92 102.01 74.5" stroke="black" stroke-width="2" stroke-linecap="round" stroke-linejoin="round"/>
<path d="M79.5098 127L88.5 176C118.5 170.5 177.2 159.2 178 158C178.8 156.8 171.176 129.333 166.01 113.5" stroke="black" stroke-width="2" stroke-linecap="round" stroke-linejoin="round"/>
<path d="M28.7216 169.135C29.0091 165.631 29.8965 158.353 31.1455 157.276C32.7066 155.93 39.6364 155.238 43.6552 153.214C47.6741 151.189 48.3084 139.112 44.2862 140.019C40.264 140.925 48.3456 151.411 55.0234 141.328" stroke="#2F62F6" stroke-width="2" stroke-linecap="round" stroke-linejoin="round"/>
<path d="M174 173L166 178.828L174 186" stroke="#2F62F6" stroke-width="2" stroke-linecap="round" stroke-linejoin="round"/>
<path d="M197 175L205 180.828L197 188" stroke="#2F62F6" stroke-width="2" stroke-linecap="round" stroke-linejoin="round"/>
<path d="M188 173L180 188" stroke="#2F62F6" stroke-width="2" stroke-linecap="round" stroke-linejoin="round"/>
<path fill-rule="evenodd" clip-rule="evenodd" d="M143.621 45.6268C143.737 46.7482 142.901 47.734 141.792 47.9372C138.349 48.5681 135.13 50.1288 132.491 52.4734C129.337 55.2756 127.201 59.0296 126.383 63.1531C125.565 67.274 126.106 71.5423 127.901 75.3233C129.696 79.1038 132.66 82.218 136.362 84.1914C140.067 86.166 144.321 86.8953 148.485 86.2387C152.651 85.5819 156.483 83.5761 159.396 80.5243C162.308 77.4734 164.129 73.5589 164.61 69.3855C165.015 65.8815 164.457 62.35 163.028 59.1612C162.576 58.1533 162.893 56.9334 163.85 56.3811L168.757 53.5478C169.714 52.9955 170.944 53.3207 171.431 54.3119C173.957 59.4503 174.96 65.2035 174.306 70.8679C173.577 77.1873 170.829 83.0479 166.501 87.5825C162.174 92.1163 156.486 95.0956 150.287 96.073C144.087 97.0505 137.691 95.9745 132.066 92.9762C126.438 89.9766 121.896 85.2194 119.14 79.4155C116.385 73.612 115.575 67.1017 116.812 60.8728C118.047 54.6466 121.258 49.0401 125.94 44.8806C130.136 41.1514 135.326 38.7533 140.872 37.9609C141.943 37.8079 142.892 38.6074 143.003 39.6835L143.621 45.6268Z" fill="#2F62F6"/>
<path d="M157.106 52.6736C154.835 50.933 152.212 49.7182 149.427 49.1099C148.347 48.8743 147.554 47.8946 147.678 46.7969L148.319 41.1098C148.442 40.0122 149.434 39.2157 150.521 39.4127C155.472 40.3098 160.106 42.4449 163.984 45.6045C164.858 46.3175 164.876 47.6231 164.079 48.422L159.954 52.5553C159.191 53.3203 157.964 53.331 157.106 52.6736Z" stroke="black" stroke-width="2" stroke-linecap="round"/>
<path d="M86.0045 51.8845C84.7961 50.1346 40.3483 46.5849 39.4733 47.1891L38.3903 53.1057C38.2549 53.8453 83.1716 59.0096 84.7861 58.5407C86.4007 58.0719 87.2129 53.6344 86.0045 51.8845Z" fill="black" stroke="black" stroke-width="2" stroke-linecap="round" stroke-linejoin="round"/>
<path d="M42.6915 54.6572L57.6614 77.2709L53.0586 102.417L61.3394 94.7601L63.7134 77.6143L80.0769 59.2073" stroke="black" stroke-width="2" stroke-linecap="round" stroke-linejoin="round"/>
<circle cx="54.7528" cy="34.6981" r="3.00749" transform="rotate(10.3728 54.7528 34.6981)" fill="#2F62F6"/>
<circle cx="67.2547" cy="41.5731" r="3.00749" transform="rotate(10.3728 67.2547 41.5731)" fill="#2F62F6"/>
<circle cx="76.8153" cy="31.0936" r="3.00749" transform="rotate(10.3728 76.8153 31.0936)" fill="#2F62F6"/>
</svg>
