<svg width="220" height="191" viewBox="0 0 220 191" fill="none" xmlns="http://www.w3.org/2000/svg">
<path d="M36.5 108.156C45.5 109.156 56 116.156 57 117.656C57 119.656 55 128.49 54 132.656C50.1667 130.656 41.3 126.256 36.5 124.656C31.7 123.056 25.5 125.323 23 126.656L24.5 111.156C25.5 109.823 29.3 107.356 36.5 108.156Z" stroke="black" stroke-width="2" stroke-linecap="round" stroke-linejoin="round"/>
<path d="M194.466 153.941C189.1 161.236 177.788 166.829 175.989 166.945C174.257 165.945 167.607 159.796 164.499 156.847C168.147 154.527 176.391 149.048 180.177 145.691C183.962 142.334 185.099 135.832 185.195 133L197.868 142.049C198.523 143.582 198.759 148.106 194.466 153.941Z" stroke="black" stroke-width="2" stroke-linecap="round" stroke-linejoin="round"/>
<path d="M142.951 143H77C77 144.747 82.5379 182.741 83.5448 184.925C84.5517 187.109 136.91 185.362 138.42 184.925C139.931 184.488 143.455 143 142.951 143Z" stroke="black" stroke-width="2" stroke-linecap="round" stroke-linejoin="round"/>
<path d="M81.9997 143C89.1663 141 103.5 132.9 103.5 116.5C103.5 96.0002 81.501 94.9996 74.0001 72.5C68.666 56.5 70.4997 39.0002 70.4997 39.0002C77.6664 38.0001 95.799 35 110.999 35C129.999 35 148.999 39.5 149.499 40.5C149.999 41.5 150.5 60.5 146.5 72.5C140.5 90.5 117 99.5004 117.5 116.5C117.9 130.1 133.333 139.833 141 143" stroke="black" stroke-width="2" stroke-linecap="round" stroke-linejoin="round"/>
<path d="M70.5004 53C69.0004 51 64.4004 47 58.0004 47C50.0004 47 44.5008 56.4999 47.5004 67C53.7853 89 96.5008 92 102.501 109" stroke="black" stroke-width="2" stroke-linecap="round" stroke-linejoin="round"/>
<path d="M71.0013 61.0007C69.5013 59.1674 65.0013 55.3007 59.0013 54.5007C51.5013 53.5007 52.0013 65.0007 57.0013 70.5007C62.0013 76.0007 73.001 81.5005 80.501 84.5005" stroke="black" stroke-width="2" stroke-linecap="round" stroke-linejoin="round"/>
<path d="M150.002 53C151.502 51 156.102 47 162.502 47C170.502 47 176.001 56.4999 173.002 67C166.717 89 125.001 91.5 119.001 108.5" stroke="black" stroke-width="2" stroke-linecap="round" stroke-linejoin="round"/>
<path d="M149.503 61.0007C151.003 59.1674 155.503 55.3007 161.503 54.5007C169.003 53.5007 168.503 65.0007 163.503 70.5007C158.503 76.0007 147.503 81.5005 140.003 84.5005" stroke="black" stroke-width="2" stroke-linecap="round" stroke-linejoin="round"/>
<path d="M15 77.5041L22.5 69.0041C22.7116 68.7644 28 79.0041 30 81.0041C31.6 82.6041 36.3333 83.6708 38.5 84.0041L33 91.5041C31.5 92.0041 27.7 92.4041 24.5 90.0041C21.3 87.6041 16.8333 80.6708 15 77.5041Z" fill="#2F62F6" stroke="#2F62F6" stroke-width="2" stroke-linecap="round" stroke-linejoin="round"/>
<path d="M21 157C22.6667 155.166 27.1 152.4 31.5 156C37 160.5 27.5 168 31.5 172.5C35.5 177 39 169 45 173.5" stroke="#2F62F6" stroke-width="2" stroke-linecap="round" stroke-linejoin="round"/>
<path d="M178.029 114C176.029 116 174.863 119.5 174.529 121L167.029 117C166.863 115.667 167.329 112.3 170.529 109.5C173.729 106.7 177.529 104.667 179.029 104L185.029 109.5C183.529 110.167 180.029 112 178.029 114Z" stroke="black" stroke-width="2" stroke-linecap="round" stroke-linejoin="round"/>
<path d="M189.707 54C187.489 56.5406 183.551 62.5363 185.548 66.1947C188.044 70.7677 205.097 70.0055 207.593 73.4353C210.088 76.865 200.938 81.8191 204.265 85.2489C206.927 87.9927 211.198 88.1705 213 87.9165" stroke="#2F62F6" stroke-width="2" stroke-linecap="round" stroke-linejoin="round"/>
<circle cx="111" cy="164" r="16" fill="#2F62F6" stroke="#2F62F6" stroke-width="1.77778" stroke-linecap="round" stroke-linejoin="round"/>
<path d="M113.891 152.752C111.13 156.442 105.765 163.961 106.39 164.515C106.931 164.659 109.836 161.572 111.221 160.01L112.11 171.121C109.94 171.103 105.576 171.158 105.48 171.519C105.359 171.97 118.076 173.203 118.196 172.752C118.293 172.391 114.861 171.375 113.132 170.912L113.891 152.752Z" fill="white" stroke="white" stroke-width="1.77778" stroke-linecap="round" stroke-linejoin="round"/>
<path d="M103.187 75.582C104.253 75.8745 109.98 71.7138 110.755 71.812C111.244 71.7101 117.439 76.2825 118.118 75.8957C118.797 75.5089 116.869 68.331 117.258 67.7498C117.646 67.1687 124.536 63.7857 124.149 63.1064C123.762 62.4271 115.037 61.6381 114.36 60.7645C113.682 59.8908 111.077 51.8394 110.301 51.7413C109.526 51.6431 107.574 59.5906 107.38 59.8812C107.186 60.1718 98.1682 60.4489 98.2644 60.9339C98.3607 61.4188 104.557 67.2455 104.653 67.7305C104.75 68.2154 102.121 75.2895 103.187 75.582Z" fill="#2F62F6" stroke="#2F62F6" stroke-width="1.77778" stroke-linecap="round" stroke-linejoin="round"/>
<path d="M110 1L110.5 28" stroke="black" stroke-width="2" stroke-linecap="round" stroke-linejoin="round"/>
<path d="M87 8L100 28" stroke="black" stroke-width="2" stroke-linecap="round" stroke-linejoin="round"/>
<path d="M137 8L125 28" stroke="black" stroke-width="2" stroke-linecap="round" stroke-linejoin="round"/>
<path d="M67.5 26.5L84 30" stroke="black" stroke-width="2" stroke-linecap="round" stroke-linejoin="round"/>
<path d="M156.5 26L140 29.5" stroke="black" stroke-width="2" stroke-linecap="round" stroke-linejoin="round"/>
</svg>
