<svg width="570" height="360" viewBox="0 0 570 360" fill="none" xmlns="http://www.w3.org/2000/svg">
<path d="M178.49 71.842C172.217 75.4242 159.553 82.9561 159.074 84.4255C158.595 85.8948 167.945 92.213 172.68 95.1884" stroke="#2F62F6" stroke-width="2" stroke-linecap="round" stroke-linejoin="round"/>
<path d="M198.259 62.7336L178.252 106.147" stroke="#2F62F6" stroke-width="2" stroke-linecap="round" stroke-linejoin="round"/>
<path d="M206.31 72.077C208.058 73.4279 221.158 78.7904 220.847 81.424C220.598 83.5308 204.212 93.0646 196.051 97.5681" stroke="#2F62F6" stroke-width="2" stroke-linecap="round" stroke-linejoin="round"/>
<path d="M166.637 240.71C175.633 236.178 177.053 209.145 168.05 211.174C159.046 213.204 177.136 236.674 192.084 214.105" stroke="#2F62F6" stroke-width="2" stroke-linecap="round" stroke-linejoin="round"/>
<path d="M143.444 65.6621C104.444 65.6621 40.2444 65.8621 39.4444 66.6621C38.4444 67.6621 39.4444 161.662 39.4444 162.662C39.4444 163.662 193.444 161.662 193.944 160.662C194.344 159.862 192.778 128.662 191.944 113.162" stroke="black" stroke-width="2" stroke-linecap="round" stroke-linejoin="round"/>
<path d="M148.883 112.163C148.217 93.8292 147.283 56.8626 148.883 55.6626C150.083 54.4626 207.05 55.1626 235.384 55.6626C235.384 74.4959 234.884 112.163 232.884 112.163H148.883Z" stroke="#2F62F6" stroke-width="2" stroke-linecap="round" stroke-linejoin="round"/>
<path d="M101.336 86H54.3334C52.3118 86 52.8172 90.0909 54.3334 90.7203C55.8496 91.3497 98.3036 90.7203 100.325 90.7203C102.347 90.7203 102.347 86 101.336 86Z" stroke="black" stroke-width="2" stroke-linecap="round" stroke-linejoin="round"/>
<path d="M131.916 137H55.177C51.8764 137 52.7015 141.091 55.177 141.72C57.6524 142.35 126.965 141.72 130.266 141.72C133.566 141.72 133.566 137 131.916 137Z" stroke="black" stroke-width="2" stroke-linecap="round" stroke-linejoin="round"/>
<path d="M132.702 86H111.599C110.691 86 110.918 90.0909 111.599 90.7203C112.279 91.3497 131.34 90.7203 132.248 90.7203C133.156 90.7203 133.156 86 132.702 86Z" stroke="black" stroke-width="2" stroke-linecap="round" stroke-linejoin="round"/>
<path d="M92.458 120H54.0885C52.4382 120 52.8508 124.909 54.0885 125.664C55.3262 126.42 89.9825 125.664 91.6328 125.664C93.2831 125.664 93.2831 120 92.458 120Z" stroke="black" stroke-width="2" stroke-linecap="round" stroke-linejoin="round"/>
<path d="M135.526 120H101.952C100.508 120 100.869 124.909 101.952 125.664C103.035 126.42 133.36 125.664 134.804 125.664C136.248 125.664 136.248 120 135.526 120Z" stroke="black" stroke-width="2" stroke-linecap="round" stroke-linejoin="round"/>
<path d="M86.5393 102H53.9252C52.5225 102 52.8731 106.909 53.9252 107.664C54.9773 108.42 84.4352 107.664 85.8379 107.664C87.2407 107.664 87.2407 102 86.5393 102Z" stroke="black" stroke-width="2" stroke-linecap="round" stroke-linejoin="round"/>
<path d="M441 331C575 331 580 180 557.5 141.5C544.425 119.127 487.214 111 487.214 111C490.521 113.457 496.171 115.236 498 121.5C505.85 148.377 498.271 205.591 493 221C487.692 236.517 477.5 231.667 473 230C473 230 471.9 236.8 465.5 244C457.5 253 451.714 253.5 443.714 253C437.314 252.6 401.594 261.667 383.428 267.5L336.714 256L299 312C301.667 318.333 333.8 331 441 331Z" fill="#2F62F6" stroke="#2F62F6" stroke-width="2" stroke-linecap="round" stroke-linejoin="round"/>
<path d="M452.5 252C458.5 252.5 469.586 242.5 472.786 230.5" stroke="black" stroke-width="2" stroke-linecap="round" stroke-linejoin="round"/>
<path d="M391.367 46.2373C393.216 63.8042 408.278 94.5001 421.878 94.5001C434.083 94.5001 439.075 78.9672 439.075 70.0913" stroke="black" stroke-width="2" stroke-linecap="round" stroke-linejoin="round"/>
<path d="M397.635 23.446C394.845 23.446 380.894 9.74373 374.197 16.9211C365.268 22.7935 369.733 49.5455 407.68 44.9781C445.626 40.4107 450.091 23.446 441.72 16.9211C433.349 10.3962 424.421 19.531 423.305 19.531C422.189 19.531 420.515 12.3536 409.912 13.6586C399.309 14.9636 400.425 23.446 397.635 23.446Z" fill="black" stroke="black" stroke-width="2" stroke-linecap="round" stroke-linejoin="round"/>
<path d="M439.078 52.4747L425.209 40.2703C430.572 35.8324 441.518 27.2893 442.406 28.6207C443.516 30.2849 447.954 48.0368 445.735 46.3725C443.959 45.0411 440.557 49.8859 439.078 52.4747Z" fill="black" stroke="black" stroke-width="2" stroke-linecap="round" stroke-linejoin="round"/>
<path d="M425.287 95.0005C425.287 95.0005 423.62 101.667 422.287 102.5C422.287 102.5 427.332 109.375 435.787 108.5C450.287 107 453.787 95.0005 453.787 95.0005C453.787 93.0005 448.287 72.6671 444.787 63.5005C447.287 60.3338 451.387 52.2005 447.787 49.0005C444.187 45.8005 439.787 49.0005 439.787 53.0005" stroke="black" stroke-width="2" stroke-linecap="round" stroke-linejoin="round"/>
<path d="M416.787 102.5C410.787 102.5 396.787 104.9 388.787 114.5C380.787 124.1 366.12 155.167 359.787 169.5" stroke="black" stroke-width="2" stroke-linecap="round" stroke-linejoin="round"/>
<path d="M398.787 131C395.954 135.5 389.387 148.1 385.787 162.5" stroke="black" stroke-width="2" stroke-linecap="round" stroke-linejoin="round"/>
<path d="M406.787 174.5C400.62 173 387.087 169.9 382.287 169.5C376.287 169 348.287 184.999 351.287 188C352.135 188.848 362.287 185.5 367.287 182.5" stroke="black" stroke-width="2" stroke-linecap="round" stroke-linejoin="round"/>
<path d="M381.287 177.5C375.548 180.9 363.712 189.06 362.287 194.5" stroke="black" stroke-width="2" stroke-linecap="round" stroke-linejoin="round"/>
<path d="M386.287 180.5C380.954 184.156 370.287 192.674 370.287 197.5" stroke="black" stroke-width="2" stroke-linecap="round" stroke-linejoin="round"/>
<path d="M403.287 193.706C398.393 191.115 388.545 186.531 387.628 186.531C385.287 186.531 378.276 194.51 377.787 197.5" stroke="black" stroke-width="2" stroke-linecap="round" stroke-linejoin="round"/>
<path d="M397.287 45.8077C401.055 46.9551 409.675 53.6744 413.169 61.4687C416.664 69.263 415.323 74.3324 414.215 75.8928" stroke="black" stroke-width="2" stroke-linecap="round" stroke-linejoin="round"/>
<path d="M425.287 48.5892C423.036 48.0029 417.812 47.154 414.923 48.4494" stroke="black" stroke-width="2" stroke-linecap="round" stroke-linejoin="round"/>
<path d="M403.789 59.6963C403.666 58.2468 404.272 58.9436 404.651 59.8296L406.153 65.1658C405.341 63.7571 403.912 61.1459 403.789 59.6963Z" fill="black" stroke="black" stroke-width="2" stroke-linecap="round" stroke-linejoin="round"/>
<path d="M419.959 56.5665C419.836 55.1169 420.442 55.8137 420.821 56.6998L422.323 62.0359C421.511 60.6272 420.082 58.016 419.959 56.5665Z" fill="black" stroke="black" stroke-width="2" stroke-linecap="round" stroke-linejoin="round"/>
<path d="M422.557 81.1943C421.9 82.5524 419.627 85.0608 415.785 84.2306" stroke="black" stroke-width="2" stroke-linecap="round" stroke-linejoin="round"/>
<path d="M454.785 95.5C466.618 99.6667 491.685 110.7 497.285 121.5C504.285 135 501.785 231.5 482.785 231.5C467.585 231.5 425.785 211.5 406.785 201.5C409.285 197.667 414.285 195.5 414.285 185.5C414.285 181.9 412.285 176 411.285 173.5C425.785 175.667 457.785 181.6 469.785 188" stroke="black" stroke-width="2" stroke-linecap="round" stroke-linejoin="round"/>
<path d="M462.785 143.5C462.952 154 462.785 176.9 460.785 184.5" stroke="black" stroke-width="2" stroke-linecap="round" stroke-linejoin="round"/>
<path d="M259.287 104C261.787 102 336.287 111.5 339.287 114C342.087 117.6 339.287 171.167 340.787 197.5C355.646 201.487 405.383 209.096 407.287 211C408.287 212 407.212 216.815 406.287 217C403.787 217.5 310.787 200 262.787 190C259.787 187 256.787 106 259.287 104Z" stroke="black" stroke-width="2" stroke-linecap="round" stroke-linejoin="round"/>
<ellipse cx="295.994" cy="147.638" rx="6.5" ry="11.5" transform="rotate(-6.22455 295.994 147.638)" fill="#2F62F6" stroke="#2F62F6" stroke-width="2" stroke-linecap="round" stroke-linejoin="round"/>
<path d="M423.785 224.5C429.785 227 452.499 250 452.499 252C434.999 249 382.785 268.5 381.285 268C380.085 267.6 351.118 259.166 336.785 255C321.118 277.5 289.585 322.699 288.785 323.499C287.785 324.499 257.785 317.999 256.285 313.499C254.785 308.999 302.285 212.499 321.285 208C328.285 206.342 417.785 222 423.785 224.5Z" fill="black" stroke="black" stroke-width="2" stroke-linecap="round" stroke-linejoin="round"/>
<path d="M269.787 202.5C277.787 198.1 299.12 202 308.787 204.5C313.287 205.167 321.087 206.5 316.287 206.5C310.287 206.5 300.787 216 295.787 224C275.965 255.716 263.954 280.833 249.787 308C242.287 305.5 227.187 300 226.787 298C226.287 295.5 259.787 208 269.787 202.5Z" fill="black" stroke="black" stroke-width="2" stroke-linecap="round" stroke-linejoin="round"/>
<path d="M223.786 302C210.953 303.167 185.486 306.9 186.286 312.5C187.086 318.1 219.286 320.833 235.286 321.5" stroke="black" stroke-width="2" stroke-linecap="round" stroke-linejoin="round"/>
<path d="M252.286 320C239.952 326.167 215.8 338.4 215 342C214 346.5 230.714 352 238 350.5C242.408 349.593 252.286 344 261.5 342C267.544 340.688 280 339 283.5 335.5C286.3 332.7 286.667 325 285.5 323.5" stroke="black" stroke-width="2" stroke-linecap="round" stroke-linejoin="round"/>
</svg>
