<svg width="570" height="320" viewBox="0 0 570 320" fill="none" xmlns="http://www.w3.org/2000/svg">
<path d="M74.5978 28.2139C75.4525 35.7633 79.7685 50.8622 90.1953 50.8622" stroke="black" stroke-width="2" stroke-linecap="round"/>
<path d="M74.5975 67.3145C73.7428 59.0528 69.4268 42.5294 59 42.5294" stroke="black" stroke-width="2" stroke-linecap="round"/>
<path d="M74.5975 28C73.7428 32.843 69.4268 42.5291 59 42.5291" stroke="black" stroke-width="2" stroke-linecap="round"/>
<path d="M74.5978 67.3145C75.4525 61.9016 79.7685 51.076 90.1953 51.076" stroke="black" stroke-width="2" stroke-linecap="round"/>
<path d="M485.319 201.892C484.717 200.143 481.676 196.644 474.328 196.644" stroke="black" stroke-width="2" stroke-linecap="round" stroke-linejoin="round"/>
<path d="M485.319 173.649C485.921 179.617 488.963 191.551 496.311 191.551" stroke="black" stroke-width="2" stroke-linecap="round" stroke-linejoin="round"/>
<path d="M485.319 202.046C485.921 198.548 488.963 191.552 496.311 191.552" stroke="black" stroke-width="2" stroke-linecap="round" stroke-linejoin="round"/>
<path d="M485.319 173.649C484.717 181.314 481.676 196.644 474.328 196.644" stroke="black" stroke-width="2" stroke-linecap="round" stroke-linejoin="round"/>
<path d="M331 134C346.167 136.667 371.6 136.3 394 163.5C422 197.5 403.456 308.468 363.5 310.5C334 312 275.5 262 261.5 235C267.5 234 280.5 230.5 284.5 224.5C300.667 230.167 339.1 244.5 363.5 256.5" stroke="black" stroke-width="2" stroke-linecap="round" stroke-linejoin="round"/>
<path d="M356 193C355.167 204.5 356.7 235.1 347.5 247.5" stroke="black" stroke-width="2" stroke-linecap="round" stroke-linejoin="round"/>
<path d="M324 93.5C324 105 329.833 130.833 331 134.5C327 141.333 316.3 154.9 305.5 154.5C292 154 288.5 132 290.5 130C291.728 128.772 293.625 121.177 294.967 115" stroke="black" stroke-width="2" stroke-linecap="round" stroke-linejoin="round"/>
<path d="M261.5 50.5006C273.5 64.1006 301.834 50.334 314 41.0006C314.667 44.6673 317.2 49.3007 320 56.5005C322.8 63.7003 327.5 68.8338 330.5 71.5006C329.834 75.6672 325 88.3763 325 97.5005C325 109.001 327.834 117.001 328.5 121.501C340.834 119.167 366 114.101 368 112.501C370.5 110.501 371.5 30.0006 328.5 13.5006C285.5 -2.99942 246.5 33.5006 261.5 50.5006Z" fill="#F4F5F6"/>
<path d="M314 41.0006L314.984 40.8218C314.922 40.4789 314.686 40.1932 314.36 40.0677C314.035 39.9422 313.668 39.9951 313.392 40.2072L314 41.0006ZM261.5 50.5006L260.751 51.1622L261.5 50.5006ZM368 112.501L368.625 113.281L368 112.501ZM328.5 121.501L327.511 121.647C327.551 121.916 327.699 122.158 327.921 122.315C328.142 122.473 328.419 122.534 328.686 122.483L328.5 121.501ZM330.5 71.5006L331.488 71.6586C331.542 71.3214 331.42 70.98 331.165 70.7532L330.5 71.5006ZM320 56.5005L319.068 56.8629L320 56.5005ZM313.392 40.2072C307.39 44.8115 297.375 50.5217 287.411 53.3896C277.37 56.2799 267.835 56.1684 262.25 49.839L260.751 51.1622C267.166 58.4328 277.798 58.238 287.965 55.3116C298.209 52.3629 308.444 46.523 314.609 41.794L313.392 40.2072ZM262.25 49.839C258.811 45.9409 258.406 40.897 260.523 35.5981C262.65 30.2729 267.309 24.7748 273.82 20.2599C286.828 11.2402 306.983 6.31509 328.142 14.4342L328.859 12.567C307.018 4.18606 286.173 9.26094 272.681 18.6163C265.942 23.2889 260.976 29.0721 258.666 34.8562C256.345 40.6668 256.69 46.5603 260.751 51.1622L262.25 49.839ZM328.142 14.4342C349.125 22.4859 359.532 46.2518 364.335 68.6478C366.726 79.7974 367.705 90.5012 367.93 98.5363C368.043 102.555 367.967 105.892 367.787 108.274C367.697 109.468 367.583 110.402 367.459 111.053C367.396 111.381 367.336 111.611 367.285 111.757C367.273 111.792 367.262 111.819 367.254 111.838C367.25 111.847 367.247 111.854 367.244 111.859C367.242 111.864 367.241 111.866 367.241 111.866C367.241 111.866 367.243 111.863 367.246 111.857C367.25 111.851 367.256 111.842 367.266 111.83C367.283 111.808 367.318 111.766 367.375 111.72L368.625 113.281C368.808 113.135 368.923 112.957 368.991 112.834C369.065 112.699 369.124 112.556 369.173 112.417C369.27 112.14 369.352 111.803 369.423 111.428C369.567 110.672 369.689 109.655 369.782 108.424C369.967 105.957 370.043 102.548 369.93 98.4803C369.702 90.3436 368.712 79.5162 366.291 68.2283C361.469 45.7493 350.875 21.0152 328.859 12.567L328.142 14.4342ZM367.375 111.72C367.38 111.716 367.355 111.736 367.277 111.777C367.204 111.816 367.104 111.863 366.973 111.918C366.711 112.029 366.361 112.157 365.923 112.301C365.048 112.587 363.876 112.92 362.467 113.286C359.653 114.017 355.95 114.87 351.913 115.748C343.841 117.504 334.476 119.352 328.314 120.518L328.686 122.483C334.858 121.315 344.243 119.464 352.338 117.703C356.384 116.823 360.118 115.963 362.971 115.221C364.395 114.851 365.614 114.507 366.546 114.201C367.012 114.049 367.419 113.901 367.752 113.761C368.061 113.63 368.385 113.473 368.625 113.281L367.375 111.72ZM329.49 121.354C328.787 116.609 326 108.924 326 97.5005H324C324 109.077 326.881 117.392 327.511 121.647L329.49 121.354ZM326 97.5005C326 93.08 327.177 87.7314 328.466 82.8994C329.11 80.4908 329.772 78.2424 330.322 76.3117C330.864 74.4078 331.31 72.7708 331.488 71.6586L329.513 71.3426C329.358 72.3137 328.95 73.8279 328.398 75.7638C327.854 77.6731 327.183 79.9535 326.534 82.3835C325.241 87.2288 324 92.7968 324 97.5005H326ZM331.165 70.7532C328.24 68.1532 323.657 63.1442 320.932 56.138L319.068 56.8629C321.944 64.2565 326.761 69.5145 329.836 72.248L331.165 70.7532ZM320.932 56.138C319.525 52.5197 318.177 49.5277 317.121 47.0354C316.052 44.5129 315.295 42.5322 314.984 40.8218L313.017 41.1795C313.372 43.1357 314.215 45.305 315.28 47.8158C316.356 50.3569 317.675 53.2814 319.068 56.8629L320.932 56.138Z" fill="black"/>
<path d="M306.999 91.0005C300.854 96.9566 290.516 96.3457 288.499 94.0005C289.999 97.1672 293.499 101.6 297.499 102C301.499 102.4 306.482 94.9453 306.999 91.0005Z" stroke="black" stroke-width="2" stroke-linecap="round" stroke-linejoin="round"/>
<path d="M284.557 64.945C284.557 64.945 282.451 74.9728 284.864 75.2445C287.053 74.9043 285.571 68.2364 284.557 64.945Z" fill="black"/>
<path d="M277.537 60C278.143 61.1273 280.396 63.6946 284.557 64.945M284.557 64.945C284.557 64.945 282.451 74.9728 284.864 75.2445C287.053 74.9043 285.571 68.2364 284.557 64.945Z" stroke="black" stroke-width="2" stroke-linecap="round" stroke-linejoin="round"/>
<path d="M309.557 64.945C309.557 64.945 307.451 74.9728 309.864 75.2445C312.053 74.9043 310.571 68.2364 309.557 64.945Z" fill="black"/>
<path d="M302.537 60C303.143 61.1273 305.396 63.6946 309.557 64.945M309.557 64.945C309.557 64.945 307.451 74.9728 309.864 75.2445C312.053 74.9043 310.571 68.2364 309.557 64.945Z" stroke="black" stroke-width="2" stroke-linecap="round" stroke-linejoin="round"/>
<path d="M289.96 39.0228C294.294 41.7971 300.868 54.698 292.495 84.1083" stroke="black" stroke-width="2" stroke-linecap="round" stroke-linejoin="round"/>
<path d="M303.356 51.0922C304.975 51.044 309.067 51.9424 312.49 55.9223" stroke="black" stroke-width="2" stroke-linecap="round" stroke-linejoin="round"/>
<path d="M296.499 114.5C271.379 114.5 268.166 65.4998 273 43.4998C283.833 39.9998 307.6 33.3998 316 34.9998C324.4 36.5998 330.166 61.6664 332 73.9998C331.166 87.3331 313.5 114.5 296.499 114.5Z" stroke="black" stroke-width="2" stroke-linecap="round" stroke-linejoin="round"/>
<path fill-rule="evenodd" clip-rule="evenodd" d="M314 41.0006C301.833 50.334 273.5 64.1006 261.5 50.5006C246.5 33.5006 285.5 -2.99942 328.5 13.5006C371.5 30.0006 370.5 110.501 368 112.501C366 114.101 340.833 119.167 328.5 121.501C328.319 120.276 327.977 118.793 327.575 117.05C326.501 112.388 325 105.871 325 97.5005C325 91.2079 327.299 83.2102 328.944 77.4855C329.685 74.9095 330.293 72.7937 330.5 71.5006C327.5 68.8338 322.8 63.7003 320 56.5005C318.971 53.8556 317.979 51.557 317.101 49.5255C315.59 46.0269 314.422 43.3203 314 41.0006ZM271.259 69.9151C272.324 90.8406 278.876 113.132 294.991 114.44L293.5 121C277.5 121 260.853 111.988 257.521 106.127C254.684 101.134 264.018 82.4984 271.259 69.9151Z" fill="black"/>
<path d="M261.5 50.5006L260.75 51.1622L261.5 50.5006ZM314 41.0006L314.984 40.8218C314.921 40.4789 314.685 40.1932 314.36 40.0677C314.035 39.9422 313.668 39.9951 313.391 40.2072L314 41.0006ZM368 112.501L368.624 113.281L368 112.501ZM328.5 121.501L327.511 121.647C327.551 121.916 327.698 122.158 327.92 122.315C328.142 122.473 328.418 122.534 328.686 122.483L328.5 121.501ZM327.575 117.05L326.601 117.274L327.575 117.05ZM328.944 77.4855L327.983 77.2092H327.983L328.944 77.4855ZM330.5 71.5006L331.487 71.6586C331.541 71.3214 331.42 70.98 331.164 70.7532L330.5 71.5006ZM320 56.5005L319.068 56.8629L320 56.5005ZM317.101 49.5255L318.019 49.1291H318.019L317.101 49.5255ZM294.991 114.44L295.966 114.661C296.03 114.379 295.969 114.082 295.797 113.848C295.626 113.614 295.361 113.467 295.072 113.443L294.991 114.44ZM271.259 69.9151L272.258 69.8643C272.235 69.4214 271.924 69.0463 271.493 68.9427C271.061 68.8392 270.613 69.032 270.392 69.4163L271.259 69.9151ZM293.5 121V122C293.967 122 294.372 121.677 294.475 121.222L293.5 121ZM257.521 106.127L256.652 106.621H256.652L257.521 106.127ZM260.75 51.1622C267.165 58.4328 277.797 58.238 287.964 55.3116C298.208 52.3629 308.444 46.523 314.609 41.794L313.391 40.2072C307.389 44.8115 297.375 50.5217 287.411 53.3896C277.369 56.2799 267.835 56.1684 262.25 49.839L260.75 51.1622ZM328.858 12.567C307.017 4.18606 286.172 9.26094 272.68 18.6163C265.941 23.2889 260.975 29.0721 258.665 34.8562C256.344 40.6668 256.69 46.5603 260.75 51.1622L262.25 49.839C258.81 45.9409 258.406 40.897 260.522 35.5981C262.649 30.2729 267.308 24.7748 273.82 20.2599C286.828 11.2402 306.983 6.31509 328.142 14.4342L328.858 12.567ZM368.624 113.281C368.808 113.135 368.922 112.957 368.991 112.834C369.065 112.699 369.124 112.556 369.172 112.417C369.269 112.14 369.351 111.803 369.423 111.428C369.567 110.672 369.688 109.655 369.781 108.424C369.967 105.957 370.043 102.548 369.929 98.4803C369.701 90.3436 368.711 79.5162 366.29 68.2283C361.469 45.7493 350.875 21.0152 328.858 12.567L328.142 14.4342C349.125 22.4859 359.531 46.2518 364.335 68.6478C366.726 79.7974 367.705 90.5012 367.93 98.5363C368.042 102.555 367.966 105.892 367.787 108.274C367.697 109.468 367.582 110.402 367.458 111.053C367.396 111.381 367.335 111.611 367.284 111.757C367.272 111.792 367.262 111.819 367.254 111.838C367.25 111.847 367.246 111.854 367.244 111.859C367.242 111.864 367.24 111.866 367.24 111.866C367.241 111.866 367.242 111.863 367.246 111.857C367.25 111.851 367.256 111.842 367.265 111.83C367.282 111.808 367.317 111.766 367.375 111.72L368.624 113.281ZM328.686 122.483C334.858 121.315 344.242 119.464 352.337 117.703C356.383 116.823 360.117 115.963 362.97 115.221C364.395 114.851 365.613 114.507 366.546 114.201C367.011 114.049 367.419 113.901 367.751 113.761C368.061 113.63 368.385 113.473 368.624 113.281L367.375 111.72C367.38 111.716 367.355 111.736 367.277 111.777C367.203 111.816 367.103 111.863 366.973 111.918C366.711 112.029 366.361 112.157 365.923 112.301C365.048 112.587 363.875 112.92 362.467 113.286C359.653 114.017 355.949 114.87 351.912 115.748C343.841 117.504 334.475 119.352 328.314 120.518L328.686 122.483ZM326.601 117.274C327.005 119.031 327.336 120.471 327.511 121.647L329.489 121.354C329.301 120.082 328.948 118.554 328.55 116.825L326.601 117.274ZM324 97.5005C324 105.993 325.525 112.604 326.601 117.274L328.55 116.825C327.478 112.172 326 105.75 326 97.5005H324ZM327.983 77.2092C326.35 82.8923 324 91.0378 324 97.5005H326C326 91.378 328.248 83.5282 329.905 77.7618L327.983 77.2092ZM329.513 71.3426C329.318 72.5596 328.733 74.6001 327.983 77.2092L329.905 77.7618C330.636 75.2189 331.268 73.0277 331.487 71.6586L329.513 71.3426ZM319.068 56.8629C321.943 64.2565 326.761 69.5145 329.836 72.248L331.164 70.7532C328.239 68.1532 323.656 63.1442 320.932 56.138L319.068 56.8629ZM316.183 49.922C317.061 51.9542 318.047 54.2372 319.068 56.8629L320.932 56.138C319.896 53.4739 318.896 51.1599 318.019 49.1291L316.183 49.922ZM313.016 41.1795C313.463 43.6378 314.69 46.4653 316.183 49.922L318.019 49.1291C316.49 45.5886 315.38 43.0028 314.984 40.8218L313.016 41.1795ZM295.072 113.443C287.54 112.832 282.111 107.326 278.392 99.1214C274.678 90.9275 272.787 80.2615 272.258 69.8643L270.26 69.9659C270.796 80.4942 272.713 91.4369 276.57 99.9471C280.423 108.447 286.326 114.74 294.91 115.437L295.072 113.443ZM294.475 121.222L295.966 114.661L294.016 114.218L292.525 120.779L294.475 121.222ZM256.652 106.621C257.588 108.267 259.385 110.029 261.708 111.73C264.051 113.446 267.005 115.156 270.347 116.672C277.022 119.702 285.326 122 293.5 122V120C285.674 120 277.654 117.793 271.173 114.851C267.936 113.382 265.105 111.739 262.889 110.117C260.654 108.48 259.121 106.917 258.391 105.633L256.652 106.621ZM270.392 69.4163C266.762 75.7245 262.596 83.5696 259.689 90.4798C258.237 93.9312 257.084 97.1847 256.476 99.9147C256.172 101.28 255.998 102.545 256 103.656C256.002 104.756 256.178 105.788 256.652 106.621L258.391 105.633C258.155 105.218 258.002 104.575 258 103.651C257.998 102.739 258.143 101.63 258.429 100.349C258.999 97.7879 260.1 94.6598 261.533 91.2553C264.394 84.4536 268.515 76.689 272.126 70.4139L270.392 69.4163Z" fill="black"/>
<path d="M290 131C281.833 131.5 262.4 134.1 250 140.5" stroke="black" stroke-width="2" stroke-linecap="round" stroke-linejoin="round"/>
<path d="M256.5 214C250.5 220.167 238.2 232.6 237 233C235.5 233.5 158.5 168.5 159 164C159.5 159.5 203.5 111.5 206.5 111C209 112.5 270 164.5 274 169.5" stroke="black" stroke-width="2" stroke-linecap="round" stroke-linejoin="round"/>
<path d="M163 88.501C166.92 91.2262 181.342 100.554 181.342 100.554" stroke="black" stroke-width="2" stroke-linecap="round"/>
<path d="M184.137 64.4971C184.137 64.4971 191.196 82.58 192.259 94.3194" stroke="black" stroke-width="2" stroke-linecap="round"/>
<path d="M206 90.3312C209.154 85.3842 214.103 77.0502 218.097 69.0267" stroke="black" stroke-width="2" stroke-linecap="round"/>
<path d="M283 221.001C283 221.001 285 210.501 282 195.501C279 180.501 258 159.501 255.5 160.501C252.3 161.701 268.5 182.001 272.5 197.001" stroke="black" stroke-width="2" stroke-linecap="round" stroke-linejoin="round"/>
<path d="M243 173.016C248.85 172.458 262.76 186.839 269 202" stroke="black" stroke-width="2" stroke-linecap="round" stroke-linejoin="round"/>
<path d="M254 220.5C254.5 223 256.5 228.9 260.5 232.5" stroke="black" stroke-width="2" stroke-linecap="round" stroke-linejoin="round"/>
<path d="M238 182C244.188 182 257 195 263 206" stroke="black" stroke-width="2" stroke-linecap="round" stroke-linejoin="round"/>
<path d="M238 193.056C242 192.056 256.5 204.556 259 215.556" stroke="black" stroke-width="2" stroke-linecap="round" stroke-linejoin="round"/>
<path fill-rule="evenodd" clip-rule="evenodd" d="M139.499 290C131.332 288.5 114.299 284.8 111.499 282C107.999 278.5 103.499 192 106.499 189.5C109.499 187 156.499 189.5 157.499 192.5C157.902 193.708 158.142 195.968 158.384 198.239C158.742 201.609 159.103 205 159.999 205C161.499 205 228.499 208 229.499 210.5C230.499 213 232.999 293 229.499 295C227.431 296.182 207.031 297.014 184.393 295.847C183.779 295.816 183.205 295.506 182.891 294.977C180.105 290.291 179.257 282.824 178.587 276.917C178.063 272.301 177.647 268.638 176.499 268C173.831 266.518 172.394 271.011 171.144 274.915C170.286 277.596 169.517 280 168.499 280C166.555 280 166.075 274.787 165.604 269.684C165.154 264.791 164.712 260 162.999 260C158.752 260 157.493 265.52 157.578 271.688C157.604 273.592 156.081 274.097 155.495 272.285C155.085 271.018 154.693 269.648 154.302 268.283C152.811 263.067 151.343 257.935 148.999 259C144.831 260.895 146.981 270.256 150.443 280.338C151.157 282.417 149.393 283.357 148.32 281.438C146.735 278.602 145.097 275.446 143.479 272.329C138.673 263.068 134.045 254.151 131.499 255C129.559 255.647 132.846 274.38 140.685 288.416C141.144 289.239 140.41 290.239 139.499 290Z" fill="#2F62F6"/>
<path d="M139.5 188C140 186.5 141 176 143.5 175C145.5 174.2 161.667 177 169.5 178.5" stroke="black" stroke-width="2" stroke-linecap="round" stroke-linejoin="round"/>
<path d="M235.5 285C235.5 284.2 244.833 245.333 249.5 226" stroke="black" stroke-width="2" stroke-linecap="round" stroke-linejoin="round"/>
<path d="M253.5 237C253.5 237 261.5 301.5 271.5 306C281.5 310.5 335.1 312.8 349.5 310" stroke="black" stroke-width="2" stroke-linecap="round" stroke-linejoin="round"/>
<path d="M152 288.5C145 281.001 136 253.5 131.499 255C128.499 256.001 138 300.251 157.5 303.501C166.786 305.048 182 301.001 185.5 298.001" stroke="black" stroke-width="2" stroke-linecap="round" stroke-linejoin="round"/>
<path d="M174.499 271.5C171.666 271.5 174.699 283.7 179.499 292.5" stroke="black" stroke-width="2" stroke-linecap="round" stroke-linejoin="round"/>
<path d="M150.5 262.5C147.5 265.5 157.2 285.3 162 290.5" stroke="black" stroke-width="2" stroke-linecap="round" stroke-linejoin="round"/>
<path d="M162 264C159 269.5 165.5 286.7 171.5 291.5" stroke="black" stroke-width="2" stroke-linecap="round" stroke-linejoin="round"/>
<path d="M179.105 169.912C176.865 168.278 211.038 127.406 213.839 130.13C216.641 132.855 181.907 172.092 179.105 169.912Z" fill="#2F62F6" stroke="#2F62F6" stroke-width="2" stroke-linecap="round" stroke-linejoin="round"/>
<path d="M220.884 141.049C218.669 139.467 189.09 176.956 190.022 178.862C190.045 178.91 190.082 178.934 190.13 178.959C192.822 180.409 223.106 142.635 220.884 141.049Z" fill="#2F62F6" stroke="#2F62F6" stroke-width="2" stroke-linecap="round" stroke-linejoin="round"/>
<path d="M201.042 186.883C199.912 185.281 221.951 156.979 224.776 159.115C227.602 161.251 202.737 189.019 201.042 186.883Z" fill="#2F62F6" stroke="#2F62F6" stroke-width="2" stroke-linecap="round" stroke-linejoin="round"/>
</svg>
