<svg width="220" height="192" viewBox="0 0 220 192" fill="none" xmlns="http://www.w3.org/2000/svg">
<path d="M39.6267 75.3945C39.1098 74.8776 40.2604 72.6175 41.1279 71.1648C41.3157 70.8503 41.7083 70.7331 42.0415 70.8854C49.1849 74.15 62.4732 80.3306 62.7591 80.9023C63.0179 81.4199 61.7756 84.0655 60.8905 85.7758C60.7071 86.1302 60.2723 86.2657 59.9168 86.0845C53.0006 82.559 40.1961 75.964 39.6267 75.3945Z" fill="#2F62F6" stroke="#2F62F6" stroke-width="2" stroke-linecap="round" stroke-linejoin="round"/>
<path d="M95.1999 103.301C94.6831 102.784 95.8336 100.524 96.7011 99.071C96.8889 98.7565 97.2816 98.6394 97.6147 98.7917C104.758 102.056 118.046 108.237 118.332 108.809C118.591 109.326 117.349 111.972 116.464 113.682C116.28 114.036 115.846 114.172 115.49 113.991C108.574 110.465 95.7694 103.87 95.1999 103.301Z" fill="#2F62F6" stroke="#2F62F6" stroke-width="2" stroke-linecap="round" stroke-linejoin="round"/>
<path d="M87.9301 100.15C88.6532 100.257 89.7824 97.9859 90.4319 96.4235C90.5725 96.0852 90.4326 95.7001 90.1118 95.5233C83.233 91.7327 70.3504 84.7457 69.721 84.8569C69.1512 84.9575 67.767 87.5318 66.9212 89.2619C66.7459 89.6203 66.8963 90.0502 67.2536 90.2277C74.2065 93.6803 87.1335 100.032 87.9301 100.15Z" fill="#2F62F6" stroke="#2F62F6" stroke-width="2" stroke-linecap="round" stroke-linejoin="round"/>
<path d="M53.9463 37.5742C59.2093 40.2669 69.9556 45.8726 70.8368 46.7538" stroke="black" stroke-width="2" stroke-linecap="round" stroke-linejoin="round"/>
<path d="M75.9775 49.3242C81.2405 52.0169 87.5806 55.4195 88.4618 56.3007" stroke="black" stroke-width="2" stroke-linecap="round" stroke-linejoin="round"/>
<path d="M51.7441 44.1836L62.0253 49.3242" stroke="black" stroke-width="2" stroke-linecap="round" stroke-linejoin="round"/>
<path d="M132.891 115.05C139.011 104.157 151.251 86.5002 151.251 77.5975C151.251 66.5002 66.4309 22.5198 53.5794 26.1917C40.728 29.8635 15.3922 82.7381 19.4312 91.9177C22.6625 99.2614 69.0011 121.66 91.7664 131.941" stroke="black" stroke-width="2" stroke-linecap="round" stroke-linejoin="round"/>
<path d="M152.513 34.2746C152.189 34.5924 152.119 35.089 152.344 35.4838L156.814 43.341C157.152 43.9335 156.81 44.6824 156.141 44.8161L135.862 48.8721C134.892 49.066 134.259 47.8855 134.957 47.1854L144.259 37.856C144.684 37.4298 144.639 36.7276 144.164 36.3592L139.082 32.425C138.45 31.9362 138.618 30.941 139.375 30.6865L160.831 23.4725C161.838 23.1339 162.608 24.3917 161.849 25.135L152.513 34.2746Z" stroke="#2F62F6" stroke-width="2" stroke-linecap="round" stroke-linejoin="round"/>
<path d="M121.058 13.7851C121.054 14.2254 121.338 14.6166 121.758 14.7485L128.433 16.8439C129.046 17.0361 129.321 17.7474 128.998 18.3018L120.311 33.1934C119.797 34.0745 118.448 33.7109 118.447 32.6908L118.433 21.5508C118.432 20.9418 117.891 20.4748 117.289 20.5625L112.777 21.2188C112.001 21.3316 111.403 20.5492 111.716 19.8306L119.242 2.51582C119.676 1.51639 121.169 1.83403 121.159 2.92374L121.058 13.7851Z" stroke="#2F62F6" stroke-width="2" stroke-linecap="round" stroke-linejoin="round"/>
<path d="M108.655 139.285C102.78 140.753 92.0582 141.635 80.0145 139.285C63.8581 136.132 42.5614 120.926 38.1554 127.535C36.6867 129.738 55.5069 147.237 84.4204 155.073C123.711 165.722 138.029 146.995 149.412 149.199C158.518 150.961 185.029 169.516 197.146 178.573" stroke="black" stroke-width="2" stroke-linecap="round" stroke-linejoin="round"/>
<path d="M72.3062 155.44C63.1266 157.521 44.9876 162.858 45.8689 167.558C46.7501 172.257 78.0587 166.334 93.6028 162.784" stroke="black" stroke-width="2" stroke-linecap="round" stroke-linejoin="round"/>
<path d="M76.7121 171.229C73.6522 174.045 68.0465 180.336 70.1028 182.979C72.673 186.284 91.0322 169.761 107.188 163.151" stroke="black" stroke-width="2" stroke-linecap="round" stroke-linejoin="round"/>
<path d="M132.892 139.652C130.689 139.284 103.15 140.386 96.9076 136.347C90.6655 132.308 97.2748 124.964 113.431 123.863C129.587 122.761 146.11 109.175 158.595 109.542C168.582 109.836 197.027 116.764 210.001 120.191" stroke="black" stroke-width="2" stroke-linecap="round" stroke-linejoin="round"/>
<path d="M133.993 81.2688C134.36 78.3313 113.43 68.0501 111.227 68.7845C108.289 69.8861 102.415 86.0422 103.149 87.8781C103.883 89.714 122.242 97.7921 124.813 98.1593C127.383 98.5265 133.625 84.2063 133.993 81.2688Z" fill="black" stroke="black" stroke-width="2" stroke-linecap="round" stroke-linejoin="round"/>
<path d="M121.14 72.8242L119.17 78.078C119.038 78.4308 118.66 78.6295 118.286 78.5816C117.056 78.4239 114.427 78.4083 113.43 80.9023C112.441 83.3741 113.753 85.2296 114.477 86.0079C114.71 86.2579 114.796 86.6288 114.65 86.9378L111.961 92.6522" stroke="white" stroke-width="2" stroke-linecap="round" stroke-linejoin="round"/>
<path d="M125.548 75.3943L122.991 80.1134C122.802 80.4621 122.921 80.9017 123.233 81.1463C124.224 81.922 126.033 83.7541 124.988 86.1915C123.94 88.6384 121.7 89.0227 120.637 89.061C120.296 89.0733 119.973 89.2749 119.858 89.5962L117.718 95.5385" stroke="white" stroke-width="2" stroke-linecap="round" stroke-linejoin="round"/>
<path d="M107.922 73.1914C108.289 73.1914 117.836 77.2304 118.57 77.9648" stroke="white" stroke-width="2" stroke-linecap="round" stroke-linejoin="round"/>
<path d="M104.618 81.2695C104.985 81.6367 114.165 86.4101 114.532 86.7773" stroke="white" stroke-width="2" stroke-linecap="round" stroke-linejoin="round"/>
<path d="M123.345 80.168C126.037 81.7591 131.57 85.1617 132.157 86.0429" stroke="white" stroke-width="2" stroke-linecap="round" stroke-linejoin="round"/>
<path d="M120.039 89.7148C122.487 91.0612 127.53 93.8273 128.117 94.1211" stroke="white" stroke-width="2" stroke-linecap="round" stroke-linejoin="round"/>
<path d="M175.735 94.5C172.707 92.4678 159.183 85.5529 159.183 85.5529" stroke="black" stroke-width="2" stroke-linecap="round"/>
<path d="M184.064 73.5486C184.064 73.5486 169.235 73.5486 160.586 76.0534" stroke="black" stroke-width="2" stroke-linecap="round"/>
<path d="M158.568 66.7666C162.415 64.4682 168.888 60.8726 175.103 58.0002" stroke="black" stroke-width="2" stroke-linecap="round"/>
</svg>
