<svg width="220" height="190" viewBox="0 0 220 190" fill="none" xmlns="http://www.w3.org/2000/svg">
<path d="M62.9241 135.452C55.2113 125.285 36.6435 113.442 28.0327 108.794C27.6308 108.577 27.4532 108.098 27.6184 107.672C29.1523 103.719 31.6613 97.6139 35.8907 90.8469C40.4218 83.5971 44.0447 79.1729 46.7117 76.428C46.9761 76.1558 47.3808 76.0841 47.7232 76.2478C52.7917 78.6713 63.3348 84.2919 69.2319 89.4952C73.181 92.9797 77.8413 96.6514 81.5 99.4247" stroke="#2F62F6" stroke-width="2" stroke-linecap="round" stroke-linejoin="round"/>
<path d="M34.9904 112.925C33.789 115.628 31.1156 122.206 30.0343 126.892C28.6826 132.749 28.2321 135.903 28.6826 136.804C29.1332 137.705 52.5622 146.717 61.5733 150.772" stroke="#2F62F6" stroke-width="2" stroke-linecap="round" stroke-linejoin="round"/>
<path d="M42.5 117L38.3296 127.306C38.1424 127.769 38.3714 128.294 38.7833 128.576C40.2379 129.571 41.903 131.874 40.6936 135.804" stroke="#2F62F6" stroke-width="2" stroke-linecap="round" stroke-linejoin="round"/>
<path d="M33.1865 139.508C33.7873 145.215 35.169 156.719 35.8899 157.08C36.791 157.53 56.165 156.629 60.6705 157.981" stroke="#2F62F6" stroke-width="2" stroke-linecap="round" stroke-linejoin="round"/>
<path d="M39.4951 141.761L40.3044 147.426C40.3592 147.81 40.6551 148.11 41.025 148.227C42.7447 148.769 45.2205 150.42 44.9018 153.926" stroke="#2F62F6" stroke-width="2" stroke-linecap="round" stroke-linejoin="round"/>
<path d="M130.354 92.3091C133.208 89.9061 139.906 84.4694 143.871 81.9462C147.539 79.6119 153.033 76.5834 155.857 75.0729C156.226 74.875 156.68 74.9595 156.951 75.28C159.136 77.8702 163.619 83.5826 167.3 89.6057C172.256 97.7158 174.509 104.024 174.509 104.474C174.509 104.925 160.091 113.485 151.531 122.046" stroke="#2F62F6" stroke-width="2" stroke-linecap="round" stroke-linejoin="round"/>
<path d="M150 83C151.176 84.6356 154.441 84.9118 156.35 84.837C156.684 84.824 157.005 84.9799 157.186 85.2612L164.629 96.8531C164.848 97.1946 164.809 97.6374 164.573 97.9681C163.418 99.5931 162.173 102.797 164.189 106" stroke="#2F62F6" stroke-width="2" stroke-linecap="round" stroke-linejoin="round"/>
<path d="M170.319 109C172.872 114.857 177.798 127.112 177.077 129.275C176.356 131.438 162.059 136.184 155 138.286" stroke="#2F62F6" stroke-width="2" stroke-linecap="round" stroke-linejoin="round"/>
<path d="M165.218 112.471L169.009 122.581C169.162 122.988 168.999 123.443 168.655 123.709C167.164 124.86 165.311 127.211 166.569 130.042" stroke="#2F62F6" stroke-width="2" stroke-linecap="round" stroke-linejoin="round"/>
<path d="M41.2 111C42.3004 109.881 42.3917 106.025 40.5485 103.825C40.261 103.481 40.1762 102.99 40.4137 102.61L48.0219 90.4517C48.2435 90.0976 48.6791 89.9474 49.0893 90.0267C50.9108 90.3788 54.0383 90.135 56 87" stroke="#2F62F6" stroke-width="2" stroke-linecap="round" stroke-linejoin="round"/>
<path d="M76.2878 68.4294C66.0106 58.8609 64.4731 30.0709 64.9953 17.2583C65.0112 16.8678 65.2762 16.5456 65.6558 16.4523C73.3051 14.5718 91.9602 13.0107 110.53 13.0107C128.928 13.0107 144.623 14.6822 150.856 15.6106C151.257 15.6705 151.563 15.9931 151.602 16.3972C152.298 23.6205 152.462 40.9702 147.926 58.0665C142.069 80.1439 114.135 79.2427 115.036 86.4517C115.937 93.6606 131.706 95.0123 143.871 110.782C153.417 123.156 154.496 150.991 153.825 164.099C153.802 164.538 153.466 164.884 153.029 164.93C144.345 165.854 124.876 167.552 110.53 167.552C96.0945 167.552 75.0382 165.832 65.6708 164.913C65.2812 164.875 64.9681 164.596 64.9003 164.21C64.0495 159.369 63.3867 145.941 66.8259 125.65C71.3315 99.0673 102.871 92.3089 102.871 86.4517C102.871 80.5944 89.354 80.5944 76.2878 68.4294Z" stroke="black" stroke-width="2" stroke-linecap="round" stroke-linejoin="round"/>
<path d="M108.276 4C86.7807 4 62.7222 6.98991 61.0536 8.39508C60.9795 8.45747 60.9678 8.55246 60.9678 8.64931C60.9683 10.6612 60.9901 17.5391 61.8689 18.4178C62.77 19.319 84.8473 14.3628 108.276 14.3628C126.272 14.3628 145.983 16.301 154.572 17.386C155.113 17.4543 155.585 17.0333 155.585 16.4888V9.26003C155.585 8.82347 155.275 8.45004 154.845 8.37538C145.983 6.83712 125.441 4 108.276 4Z" fill="black" stroke="black" stroke-width="2" stroke-linecap="round" stroke-linejoin="round"/>
<path d="M108.276 176.223C86.7807 176.223 62.7222 173.233 61.0536 171.828C60.9795 171.765 60.9678 171.67 60.9678 171.573C60.9683 169.562 60.9901 162.684 61.8689 161.805C62.77 160.904 84.8473 165.86 108.276 165.86C126.272 165.86 145.983 163.922 154.572 162.837C155.113 162.768 155.585 163.189 155.585 163.734V170.963C155.585 171.399 155.275 171.773 154.845 171.847C145.983 173.386 125.441 176.223 108.276 176.223Z" fill="black" stroke="black" stroke-width="2" stroke-linecap="round" stroke-linejoin="round"/>
<path d="M129.457 25.1755L134.775 28.0143C137.174 29.3333 136.882 34.468 134.124 39.4829C131.367 44.4978 127.186 47.4939 124.788 46.1749L119.094 43.6484" stroke="black" stroke-width="2" stroke-linecap="round" stroke-linejoin="round"/>
<path d="M130.357 33.7363L134.863 35.9891" stroke="black" stroke-width="2" stroke-linecap="round" stroke-linejoin="round"/>
<path d="M124.951 41.8467L127.655 43.1984" stroke="black" stroke-width="2" stroke-linecap="round" stroke-linejoin="round"/>
<path d="M133.061 31.0332L135.764 32.3849" stroke="black" stroke-width="2" stroke-linecap="round" stroke-linejoin="round"/>
<path d="M128.556 37.791L133.512 40.0438" stroke="black" stroke-width="2" stroke-linecap="round" stroke-linejoin="round"/>
<ellipse cx="124.34" cy="34.4497" rx="4.95614" ry="10.5999" transform="rotate(28.8085 124.34 34.4497)" stroke="black" stroke-width="2" stroke-linecap="round" stroke-linejoin="round"/>
<ellipse cx="104.254" cy="118.707" rx="4.95614" ry="10.5999" transform="rotate(163.809 104.254 118.707)" stroke="black" stroke-width="2" stroke-linecap="round" stroke-linejoin="round"/>
<path d="M107.194 128.883L101.425 130.637C98.7966 131.4 95.372 127.563 93.7761 122.067C92.1802 116.571 93.0173 111.497 95.646 110.733L101.459 108.494" stroke="black" stroke-width="2" stroke-linecap="round" stroke-linejoin="round"/>
<path d="M100.504 123.467L95.725 125.06" stroke="black" stroke-width="2" stroke-linecap="round" stroke-linejoin="round"/>
<path d="M98.5928 113.909L95.7254 114.865" stroke="black" stroke-width="2" stroke-linecap="round" stroke-linejoin="round"/>
<path d="M100.504 127.29L97.6366 128.246" stroke="black" stroke-width="2" stroke-linecap="round" stroke-linejoin="round"/>
<path d="M98.9111 119.325L93.8137 121.237" stroke="black" stroke-width="2" stroke-linecap="round" stroke-linejoin="round"/>
<path d="M101.518 44.5595C101.068 44.109 82.5947 59.428 82.5947 60.3291C82.5947 61.6808 87.1003 66.1863 88.0014 66.1863C88.9025 66.1863 106.474 51.3179 106.474 50.8673C106.474 50.4168 101.969 45.0101 101.518 44.5595Z" stroke="black" stroke-width="2" stroke-linecap="round" stroke-linejoin="round"/>
<path d="M85.748 57.1747L91.1547 63.032M91.1547 52.6691L96.5614 59.4275M96.5614 49.0647L101.518 55.3725M98.8142 46.3613L104.221 52.6691" stroke="black" stroke-width="2" stroke-linecap="round" stroke-linejoin="round"/>
<path d="M126.406 70.9413C126.725 70.3895 107.146 56.5109 106.276 56.7441C104.97 57.094 101.784 62.6122 102.018 63.4826C102.251 64.353 121.161 77.4778 121.596 77.3611C122.031 77.2445 126.087 71.4931 126.406 70.9413Z" stroke="black" stroke-width="2" stroke-linecap="round" stroke-linejoin="round"/>
<path d="M110.138 58.9745L105.88 65.7129M115.889 63.0308L110.761 70.0025M120.77 67.3204L115.96 73.7402M123.965 68.7967L119.271 75.6518" stroke="black" stroke-width="2" stroke-linecap="round" stroke-linejoin="round"/>
<path d="M124.79 117.185C125.342 116.867 115.326 95.0584 114.456 94.8252C113.15 94.4754 107.632 97.6613 107.399 98.5317C107.165 99.4021 116.979 120.223 117.415 120.34C117.85 120.457 124.238 117.504 124.79 117.185Z" stroke="black" stroke-width="2" stroke-linecap="round" stroke-linejoin="round"/>
<path d="M116.686 98.6876L109.629 102.394M119.639 105.076L111.711 108.549M121.721 111.232L114.345 114.386M123.749 114.107L116.257 117.697" stroke="black" stroke-width="2" stroke-linecap="round" stroke-linejoin="round"/>
<path d="M98.3022 151.101C98.2364 150.467 74.2394 150.718 73.6715 151.418C72.8196 152.467 73.4781 158.805 74.1778 159.373C74.8774 159.941 97.8908 159.472 98.1747 159.122C98.4587 158.772 98.3681 151.735 98.3022 151.101Z" stroke="black" stroke-width="2" stroke-linecap="round" stroke-linejoin="round"/>
<path d="M78.1088 150.957L78.6151 158.912M85.1461 150.866L85.0845 159.521M91.6156 151.475L91.4881 159.496M95.0684 150.796L95.2907 159.101" stroke="black" stroke-width="2" stroke-linecap="round" stroke-linejoin="round"/>
<path d="M127.137 151.101C127.071 150.467 103.074 150.718 102.506 151.418C101.655 152.467 102.313 158.805 103.013 159.373C103.712 159.941 126.726 159.472 127.01 159.122C127.294 158.772 127.203 151.735 127.137 151.101Z" stroke="black" stroke-width="2" stroke-linecap="round" stroke-linejoin="round"/>
<path d="M106.944 150.957L107.45 158.912M113.981 150.866L113.919 159.521M120.451 151.475L120.323 159.496M123.903 150.796L124.126 159.101" stroke="black" stroke-width="2" stroke-linecap="round" stroke-linejoin="round"/>
<path d="M148.033 151.141C148.351 150.589 128.773 136.71 127.903 136.943C126.597 137.293 123.411 142.811 123.645 143.682C123.878 144.552 142.788 157.677 143.223 157.56C143.658 157.444 147.714 151.692 148.033 151.141Z" stroke="black" stroke-width="2" stroke-linecap="round" stroke-linejoin="round"/>
<path d="M131.765 139.174L127.507 145.912M137.516 143.23L132.388 150.202M142.397 147.52L137.587 153.939M145.592 148.996L140.898 155.851" stroke="black" stroke-width="2" stroke-linecap="round" stroke-linejoin="round"/>
<path d="M113.622 139.387C113.556 138.753 89.5587 139.005 88.9908 139.704C88.1389 140.754 88.7975 147.091 89.4971 147.659C90.1967 148.227 113.21 147.758 113.494 147.408C113.778 147.058 113.687 140.021 113.622 139.387Z" stroke="black" stroke-width="2" stroke-linecap="round" stroke-linejoin="round"/>
<path d="M93.4281 139.243L93.9344 147.198M100.465 139.153L100.404 147.807M106.935 139.762L106.807 147.783M110.388 139.082L110.61 147.387" stroke="black" stroke-width="2" stroke-linecap="round" stroke-linejoin="round"/>
<path d="M192.867 161.47C192.786 160.677 162.737 160.709 162.024 161.578C160.954 162.88 161.76 170.812 162.634 171.53C163.509 172.249 192.327 171.932 192.683 171.498C193.04 171.064 192.947 162.264 192.867 161.47Z" stroke="black" stroke-width="2" stroke-linecap="round" stroke-linejoin="round"/>
<path d="M167.58 161.053L168.191 171.006M176.392 161.023L176.29 171.844M184.491 161.86L184.308 171.888M188.817 161.052L189.071 171.438" stroke="black" stroke-width="2" stroke-linecap="round" stroke-linejoin="round"/>
<path d="M188.361 149.757C188.28 148.963 158.231 148.996 157.518 149.864C156.448 151.166 157.254 159.098 158.128 159.817C159.003 160.535 187.821 160.218 188.177 159.784C188.534 159.35 188.441 150.55 188.361 149.757Z" stroke="black" stroke-width="2" stroke-linecap="round" stroke-linejoin="round"/>
<path d="M163.075 149.339L163.686 159.292M171.888 149.309L171.785 160.13M179.987 150.146L179.803 160.174M184.312 149.338L184.566 159.725" stroke="black" stroke-width="2" stroke-linecap="round" stroke-linejoin="round"/>
<path d="M195.57 138.042C195.489 137.248 165.44 137.281 164.727 138.149C163.657 139.451 164.463 147.383 165.337 148.102C166.212 148.82 195.03 148.503 195.386 148.069C195.743 147.635 195.65 138.835 195.57 138.042Z" stroke="black" stroke-width="2" stroke-linecap="round" stroke-linejoin="round"/>
<path d="M170.283 137.625L170.894 147.577M179.096 137.594L178.993 148.415M187.195 138.431L187.011 148.459M191.52 137.623L191.774 148.01" stroke="black" stroke-width="2" stroke-linecap="round" stroke-linejoin="round"/>
<path d="M30.5 22.4999C34.9172 24.2032 42.9599 27.4941 49.2435 32.867" stroke="#2F62F6" stroke-width="2" stroke-linecap="round"/>
<path d="M191 63C187.972 60.9678 174.448 54.0529 174.448 54.0529" stroke="#2F62F6" stroke-width="2" stroke-linecap="round"/>
<path d="M19.4992 43.3101C26.291 41.4709 40 41.0001 48.2144 43.3101" stroke="#2F62F6" stroke-width="2" stroke-linecap="round"/>
<path d="M199.329 42.0486C199.329 42.0486 184.5 42.0486 175.851 44.5534" stroke="#2F62F6" stroke-width="2" stroke-linecap="round"/>
<path d="M49.97 52.0312C46.5008 54.1039 40 57.9996 36 61.9996" stroke="#2F62F6" stroke-width="2" stroke-linecap="round"/>
<path d="M173.833 35.2666C177.68 32.9682 184.153 29.3726 190.368 26.5002" stroke="#2F62F6" stroke-width="2" stroke-linecap="round"/>
</svg>
