<svg width="64" height="64" viewBox="0 0 64 64" fill="none" xmlns="http://www.w3.org/2000/svg">
<path fill-rule="evenodd" clip-rule="evenodd" d="M19.0309 4.5C19.277 2.52684 20.9602 1 23 1H39C41.0398 1 42.723 2.52684 42.9691 4.5H49C52.0376 4.5 54.5 6.96243 54.5 10V19.5H51.5V10C51.5 8.61929 50.3807 7.5 49 7.5H42.9691C42.723 9.47316 41.0398 11 39 11H23C20.9602 11 19.277 9.47316 19.0309 7.5H13C11.6193 7.5 10.5 8.61929 10.5 10V56C10.5 57.3807 11.6193 58.5 13 58.5H49C50.3807 58.5 51.5 57.3807 51.5 56V32.5H54.5V56C54.5 59.0376 52.0376 61.5 49 61.5H13C9.96243 61.5 7.5 59.0376 7.5 56V10C7.5 6.96244 9.96243 4.5 13 4.5H19.0309ZM23 4H39C39.5523 4 40 4.44772 40 5V7C40 7.55228 39.5523 8 39 8H23C22.4477 8 22 7.55228 22 7V5C22 4.44772 22.4477 4 23 4Z" fill="black"/>
<path d="M18 49.5C18 48.6716 18.6716 48 19.5 48H32.5C33.3284 48 34 48.6716 34 49.5C34 50.3284 33.3284 51 32.5 51H19.5C18.6716 51 18 50.3284 18 49.5Z" fill="black"/>
<path d="M19.5 36C18.6716 36 18 36.6716 18 37.5C18 38.3284 18.6716 39 19.5 39H24.5C25.3284 39 26 38.3284 26 37.5C26 36.6716 25.3284 36 24.5 36H19.5Z" fill="black"/>
<path d="M18 28.5C18 27.6716 18.6716 27 19.5 27H24.5C25.3284 27 26 27.6716 26 28.5C26 29.3284 25.3284 30 24.5 30H19.5C18.6716 30 18 29.3284 18 28.5Z" fill="black"/>
<path d="M19.5 18C18.6716 18 18 18.6716 18 19.5C18 20.3284 18.6716 21 19.5 21H24.5C25.3284 21 26 20.3284 26 19.5C26 18.6716 25.3284 18 24.5 18H19.5Z" fill="black"/>
<path fill-rule="evenodd" clip-rule="evenodd" d="M52.5288 21.4343L30 43.963V48H34.037L56.5657 25.4712L52.5288 21.4343ZM53.9087 18.5716C53.1466 17.8095 51.9109 17.8095 51.1488 18.5716L27.5716 42.1488C27.2056 42.5148 27 43.0112 27 43.5288V49.0485C27 50.1263 27.8737 51 28.9515 51H34.4712C34.9888 51 35.4852 50.7944 35.8512 50.4284L59.4284 26.8512C60.1905 26.0891 60.1905 24.8534 59.4284 24.0913L53.9087 18.5716Z" fill="#2F62F6"/>
</svg>
