<svg width="64" height="64" viewBox="0 0 64 64" fill="none" xmlns="http://www.w3.org/2000/svg">
<path fill-rule="evenodd" clip-rule="evenodd" d="M35 55.9998C46.598 55.9998 56 46.5978 56 34.9998C56 23.4018 46.598 13.9998 35 13.9998C23.402 13.9998 14 23.4018 14 34.9998C14 46.5978 23.402 55.9998 35 55.9998ZM35 58.9998C48.2548 58.9998 59 48.2546 59 34.9998C59 21.7449 48.2548 10.9998 35 10.9998C21.7452 10.9998 11 21.7449 11 34.9998C11 48.2546 21.7452 58.9998 35 58.9998Z" fill="black"/>
<path d="M19 57.4998C19 56.6713 19.6716 55.9998 20.5 55.9998H33.5C34.3284 55.9998 35 56.6713 35 57.4998C35 58.3282 34.3284 58.9998 33.5 58.9998H20.5C19.6716 58.9998 19 58.3282 19 57.4998Z" fill="black"/>
<path d="M53.0607 11.0604C53.6465 10.4746 54.5962 10.4746 55.182 11.0604L61.546 17.4244C62.1317 18.0102 62.1317 18.9599 61.546 19.5457C60.9602 20.1315 60.0104 20.1315 59.4246 19.5457L53.0607 13.1818C52.4749 12.596 52.4749 11.6462 53.0607 11.0604Z" fill="black"/>
<path d="M57.9908 14.6155C57.4051 14.0298 56.4553 14.0298 55.8695 14.6155L51.0607 19.4244C50.4749 20.0102 50.4749 20.9599 51.0607 21.5457C51.6465 22.1315 52.5962 22.1315 53.182 21.5457L57.9908 16.7369C58.5766 16.1511 58.5766 15.2013 57.9908 14.6155Z" fill="black"/>
<path d="M8 50.4998C8 49.6713 8.67157 48.9998 9.5 48.9998H26.5C27.3284 48.9998 28 49.6713 28 50.4998C28 51.3282 27.3284 51.9998 26.5 51.9998H9.5C8.67157 51.9998 8 51.3282 8 50.4998Z" fill="black"/>
<path d="M0 43.4998C0 42.6713 0.671573 41.9998 1.5 41.9998H26.5C27.3284 41.9998 28 42.6713 28 43.4998C28 44.3282 27.3284 44.9998 26.5 44.9998H1.5C0.671572 44.9998 0 44.3282 0 43.4998Z" fill="black"/>
<path d="M27 7.5C27 6.67157 27.6716 6 28.5 6H41.5C42.3284 6 43 6.67157 43 7.5C43 8.32843 42.3284 9 41.5 9H28.5C27.6716 9 27 8.32843 27 7.5Z" fill="#2F62F6"/>
<path fill-rule="evenodd" clip-rule="evenodd" d="M35 38C36.6569 38 38 36.6569 38 35C38 33.3431 36.6569 32 35 32C33.3431 32 32 33.3431 32 35C32 36.6569 33.3431 38 35 38Z" fill="#2F62F6"/>
</svg>
