<svg width="220" height="190" viewBox="0 0 220 190" fill="none" xmlns="http://www.w3.org/2000/svg">
<path d="M89.6562 183.759C89.3762 185.091 88.564 187.753 87.5558 187.753C86.2956 187.753 69.9124 187.753 69.0722 187.753C68.4001 187.753 67.3919 184.607 66.9718 183.033" stroke="black" stroke-width="1.68033" stroke-linecap="round" stroke-linejoin="round"/>
<path d="M149.308 183.759C149.588 185.091 150.4 187.753 151.408 187.753C152.668 187.753 169.051 187.753 169.892 187.753C170.564 187.753 171.572 184.607 171.992 183.033" stroke="black" stroke-width="1.68033" stroke-linecap="round" stroke-linejoin="round"/>
<path d="M63.611 73.8579C61.3705 73.6754 56.8896 73.8579 56.8896 77.6921C56.8896 80.4307 56.8896 94.124 56.8896 96.3149C56.8896 99.6013 59.6902 100.697 63.611 100.697" stroke="black" stroke-width="1.68033" stroke-linecap="round" stroke-linejoin="round"/>
<path d="M56.8896 93.9756H61.0905" stroke="black" stroke-width="1.68033" stroke-linecap="round" stroke-linejoin="round"/>
<path d="M60.25 82.2129H63.6107" stroke="black" stroke-width="1.68033" stroke-linecap="round" stroke-linejoin="round"/>
<path d="M63.611 130.149C61.3705 129.966 56.8896 130.149 56.8896 133.983C56.8896 136.722 56.8896 150.415 56.8896 152.606C56.8896 155.892 59.6902 156.988 63.611 156.988" stroke="black" stroke-width="1.68033" stroke-linecap="round" stroke-linejoin="round"/>
<path d="M56.8896 150.267H61.0905" stroke="black" stroke-width="1.68033" stroke-linecap="round" stroke-linejoin="round"/>
<path d="M60.25 138.504H63.6107" stroke="black" stroke-width="1.68033" stroke-linecap="round" stroke-linejoin="round"/>
<path d="M50.1673 62.8896C50.1673 55.0014 56.5619 48.6068 64.4501 48.6068H173.671C181.56 48.6068 187.954 55.0014 187.954 62.8896V167.07C187.954 174.958 181.56 181.353 173.671 181.353H64.4501C56.5619 181.353 50.1673 174.958 50.1673 167.07V62.8896Z" stroke="black" stroke-width="1.68033"/>
<path d="M178.713 99.017V65.4104C178.713 60.7703 174.951 57.0088 170.311 57.0088H127.463M178.713 115.4V164.55C178.713 169.19 174.951 172.951 170.311 172.951H127.463" stroke="black" stroke-width="1.68033"/>
<path d="M70.0142 57.5034L118.744 54.8693C122.112 54.6873 124.942 57.3691 124.942 60.7419V99.0163V115.4V169.217C124.942 172.59 122.112 175.272 118.744 175.09L70.0142 172.456C66.8941 172.287 64.4505 169.708 64.4505 166.583V63.3759C64.4505 60.2512 66.8941 57.672 70.0142 57.5034Z" stroke="black" stroke-width="1.68033"/>
<path d="M110.239 55.3281C112.06 55.3281 115.7 56.4203 115.7 60.7892C115.7 66.2503 115.7 165.39 115.7 167.07C115.7 168.75 114.86 174.631 107.719 174.211" stroke="black" stroke-width="1.68033" stroke-linecap="round" stroke-linejoin="round"/>
<path d="M120.321 83.8936C120.321 85.7139 120.321 89.8587 120.321 91.8751" stroke="black" stroke-width="1.68033" stroke-linecap="round" stroke-linejoin="round"/>
<path d="M119.062 128.422C119.062 130.242 119.062 134.387 119.062 136.403" stroke="black" stroke-width="1.68033" stroke-linecap="round" stroke-linejoin="round"/>
<path d="M80.4141 100.697C82.1125 95.1534 85.1694 91.4551 88.6583 91.4551C93.9944 91.4551 98.3202 100.107 98.3202 110.779C98.3202 121.451 93.9944 130.103 88.6583 130.103C85.1694 130.103 82.1125 126.404 80.4141 120.861" stroke="black" stroke-width="1.68033" stroke-linecap="round" stroke-linejoin="round"/>
<ellipse cx="76.6336" cy="110.779" rx="4.6209" ry="7.56148" fill="black" stroke="black" stroke-width="1.68033" stroke-linecap="round" stroke-linejoin="round"/>
<path d="M77.0537 103.218H89.2361C91.7881 103.218 93.857 106.603 93.857 110.779C93.857 114.955 91.7881 118.341 89.2361 118.341H82.0947" stroke="black" stroke-width="1.68033" stroke-linecap="round" stroke-linejoin="round"/>
<path d="M85.4551 108.679H93.4366" stroke="black" stroke-width="1.68033" stroke-linecap="round" stroke-linejoin="round"/>
<path d="M85.4551 113.72H90.4961" stroke="black" stroke-width="1.68033" stroke-linecap="round" stroke-linejoin="round"/>
<path d="M152.669 106.578C152.669 106.178 144.32 100.466 142.411 99.9013C142.251 99.8543 142.099 99.9024 141.986 100.025C139.964 102.229 127.464 122.571 127.464 123.381C127.464 124.221 137.966 129.682 138.806 129.682C139.646 129.682 152.669 106.998 152.669 106.578Z" stroke="black" stroke-width="1.68033" stroke-linecap="round" stroke-linejoin="round"/>
<path d="M145.107 101.957C140.906 108.958 132.336 123.465 131.664 125.482" stroke="black" stroke-width="1.68033" stroke-linecap="round" stroke-linejoin="round"/>
<path d="M135.025 128.002C135.698 127.33 143.987 113.999 148.048 107.418" stroke="black" stroke-width="1.68033" stroke-linecap="round" stroke-linejoin="round"/>
<path d="M148.207 114.151L136.485 107.118C136.355 107.039 136.2 106.999 136.078 107.09C135 107.898 132.114 113.777 132.505 114.56C132.82 115.191 139.825 119.573 143.925 122.077C144.338 122.329 144.878 122.179 145.103 121.751L148.518 115.263C148.726 114.868 148.589 114.38 148.207 114.151Z" fill="#2F62F6" stroke="#2F62F6" stroke-width="1.68033" stroke-linecap="round" stroke-linejoin="round"/>
<path d="M157.695 145.3C158.001 145.044 157.01 134.976 156.216 133.151C156.15 132.998 156.014 132.912 155.849 132.905C152.861 132.773 129.242 136.272 128.622 136.793C127.978 137.333 130.545 148.889 131.085 149.532C131.625 150.176 157.373 145.57 157.695 145.3Z" stroke="black" stroke-width="1.68033" stroke-linecap="round" stroke-linejoin="round"/>
<path d="M156.374 136.538C148.311 137.82 131.689 140.58 129.713 141.362" stroke="black" stroke-width="1.68033" stroke-linecap="round" stroke-linejoin="round"/>
<path d="M129.943 145.556C130.89 145.639 146.43 143.421 154.082 142.301" stroke="black" stroke-width="1.68033" stroke-linecap="round" stroke-linejoin="round"/>
<path d="M149.026 146.75L146.879 133.25C146.855 133.1 146.786 132.955 146.638 132.92C145.326 132.614 138.967 134.182 138.619 134.985C138.339 135.632 139.484 143.815 140.202 148.565C140.274 149.044 140.736 149.361 141.209 149.258L148.374 147.704C148.81 147.609 149.096 147.191 149.026 146.75Z" fill="#2F62F6" stroke="#2F62F6" stroke-width="1.68033" stroke-linecap="round" stroke-linejoin="round"/>
<path d="M169.383 167.01C169.727 166.808 170.435 156.716 169.957 154.784C169.917 154.623 169.798 154.515 169.636 154.48C166.713 153.85 142.842 153.349 142.143 153.758C141.418 154.183 142.015 166.005 142.44 166.73C142.865 167.455 169.02 167.222 169.383 167.01Z" stroke="black" stroke-width="1.68033" stroke-linecap="round" stroke-linejoin="round"/>
<path d="M169.548 158.15C161.383 158.065 144.535 158.005 142.455 158.445" stroke="black" stroke-width="1.68033" stroke-linecap="round" stroke-linejoin="round"/>
<path d="M141.978 162.618C142.898 162.858 158.591 163.271 166.322 163.448" stroke="black" stroke-width="1.68033" stroke-linecap="round" stroke-linejoin="round"/>
<path d="M160.593 166.989L160.735 153.32C160.736 153.168 160.693 153.013 160.553 152.954C159.311 152.432 152.779 152.915 152.302 153.648C151.917 154.239 151.677 162.498 151.589 167.301C151.581 167.785 151.983 168.175 152.467 168.153L159.791 167.819C160.236 167.799 160.588 167.435 160.593 166.989Z" fill="#2F62F6" stroke="#2F62F6" stroke-width="1.68033" stroke-linecap="round" stroke-linejoin="round"/>
<path d="M174.512 106.578C174.512 106.178 166.162 100.466 164.253 99.9013C164.094 99.8543 163.941 99.9024 163.829 100.025C161.807 102.229 149.307 122.571 149.307 123.381C149.307 124.221 159.809 129.682 160.649 129.682C161.489 129.682 174.512 106.998 174.512 106.578Z" stroke="black" stroke-width="1.68033" stroke-linecap="round" stroke-linejoin="round"/>
<path d="M166.949 101.957C162.749 108.958 154.179 123.465 153.507 125.482" stroke="black" stroke-width="1.68033" stroke-linecap="round" stroke-linejoin="round"/>
<path d="M156.868 128.002C157.54 127.33 165.83 113.999 169.891 107.418" stroke="black" stroke-width="1.68033" stroke-linecap="round" stroke-linejoin="round"/>
<path d="M170.05 114.151L158.328 107.118C158.197 107.039 158.042 106.999 157.92 107.09C156.842 107.898 153.957 113.777 154.348 114.56C154.663 115.191 161.667 119.573 165.768 122.077C166.181 122.329 166.721 122.179 166.946 121.751L170.361 115.263C170.568 114.868 170.432 114.38 170.05 114.151Z" fill="#2F62F6" stroke="#2F62F6" stroke-width="1.68033" stroke-linecap="round" stroke-linejoin="round"/>
<path d="M179.134 40.205L177.033 27.6025" stroke="black" stroke-width="1.68033" stroke-linecap="round" stroke-linejoin="round"/>
<path d="M187.535 45.2461L206.019 19.6211" stroke="black" stroke-width="1.68033" stroke-linecap="round" stroke-linejoin="round"/>
<path d="M195.517 52.8077L214 47.3467" stroke="black" stroke-width="1.68033" stroke-linecap="round" stroke-linejoin="round"/>
<path d="M15 74.1805C17.1313 72.977 18.666 70.6425 19.9537 68.5056C21.0116 66.7509 22.11 64.6469 22.6351 62.0006C23.1969 64.2538 23.778 66.5818 24.9537 68.622C26.3185 70.9961 28.0753 72.7662 30 73.7369C27.0541 74.7383 24.8031 77.578 23.3649 79.9543C22.9459 80.6461 22.5907 81.5575 22.2934 82.7148C21.8707 80.7361 21.2819 78.7068 20.0058 77.2508C18.5232 75.5597 16.8822 74.8789 15.0019 74.1827L15 74.1805Z" stroke="black" stroke-width="1.42857" stroke-linecap="round" stroke-linejoin="round"/>
<path d="M199 142.577C200.791 143.504 202.08 145.303 203.162 146.95C204.051 148.302 204.974 149.924 205.415 151.963C205.887 150.227 206.375 148.433 207.363 146.86C208.509 145.031 209.985 143.667 211.602 142.919C209.127 142.147 207.236 139.959 206.028 138.127C205.676 137.594 205.377 136.892 205.128 136C204.772 137.525 204.278 139.089 203.206 140.211C201.96 141.514 200.581 142.039 199.002 142.575L199 142.577Z" stroke="black" stroke-width="1.68033" stroke-linecap="round" stroke-linejoin="round"/>
<path d="M119.068 2C93.5929 2 84.0336 17.2071 82.9004 25.8195L77.6878 24.1527C77.6878 24.1527 75.6478 29.899 78.5944 35.1117C80.6502 38.7487 81.8457 40.8479 84.7135 44.1774C89.7788 50.058 103.573 48.5226 103.573 48.5226H149.555C154.384 48.5226 157.143 39.9149 157.143 33.4983C157.143 27.2583 150.913 2 119.068 2Z" fill="black"/>
<path d="M79.089 26.6978C79.5346 26.6053 83.6458 28.7009 84.0197 29.5306C84.135 30.8678 80.9089 32.7306 80.2764 32.4082C79.6439 32.0858 78.6435 26.7903 79.089 26.6978Z" fill="#F4F5F6"/>
<path d="M87.3203 27.1989C87.3203 27.1989 90.9293 23.4866 99.5417 22.8891C106.781 22.3868 110.858 24.4298 112.588 24.4298C113.14 24.4298 116.05 22.8891 119.033 21.7559C117.9 24.0223 115.773 26.9912 116.05 27.545C116.396 28.2373 121.588 31.3525 121.242 37.2368C120.965 41.9442 118.126 44.2749 116.742 44.8518" stroke="#F4F5F6" stroke-linecap="round" stroke-linejoin="round"/>
<path d="M124.357 39.3141C124.126 36.545 125.534 31.0068 133.01 31.0068C142.356 31.0068 143.394 39.3141 151.702 39.3141" stroke="#F4F5F6" stroke-linecap="round" stroke-linejoin="round"/>
<path d="M112 34.6097C112.577 33.5713 114.694 31.9494 116.694 33.9494" stroke="#F4F5F6" stroke-linecap="round" stroke-linejoin="round"/>
<path d="M114.5 40.9996C112 42.4996 110.165 40.1211 109.819 39.3135C109.819 40.698 108 44.4996 105 42.4996" stroke="#F4F5F6" stroke-linecap="round" stroke-linejoin="round"/>
<path d="M99 37.1449C100.105 37.1449 101 36.2495 101 35.1449C101 34.7191 100.867 34.3243 100.64 34C99.5934 34.215 97.4126 34.6449 97.063 34.6449C97.0219 34.8047 97 34.9723 97 35.1449C97 36.2495 97.8954 37.1449 99 37.1449Z" fill="white"/>
<path d="M95.5 35.9998C98 33.4998 102 33.9998 102 33.9998" stroke="white" stroke-linecap="round" stroke-linejoin="round"/>
<path d="M129.458 38.1356C130.165 36.898 132.481 34.4757 136.088 34.6879" stroke="#F4F5F6" stroke-linecap="round" stroke-linejoin="round"/>
<path d="M133.437 39.1963C133.967 38.5775 135.611 37.4459 137.945 37.8703" stroke="#F4F5F6" stroke-linecap="round" stroke-linejoin="round"/>
<path d="M82.8559 47.5931C83.0741 46.0957 84.2589 42.9719 87.2526 42.4561" stroke="black" stroke-linecap="round" stroke-linejoin="round"/>
<path d="M87.2767 49.0655C87.2554 47.7785 87.6915 45.0582 89.6056 44.4728" stroke="black" stroke-linecap="round" stroke-linejoin="round"/>
<path d="M80.5049 41.1846C81.3939 40.5991 83.8518 39.5554 86.571 40.0643" stroke="black" stroke-linecap="round" stroke-linejoin="round"/>
</svg>
