<svg width="570" height="372" viewBox="0 0 570 372" fill="none" xmlns="http://www.w3.org/2000/svg">
<path d="M213.93 2.94488C180.93 6.44488 151.43 16.4449 150.43 18.4449C150.43 23.4449 185.43 100.945 186.93 103.445C188.43 105.945 212.43 97.9449 238.93 96.4449C277.714 94.2495 299.619 67 299.619 67C295.242 40.5046 288.252 3.9131 287.93 2.94488C287.43 1.44488 246.93 -0.555124 213.93 2.94488Z" fill="#2F62F6" stroke="#2F62F6" stroke-width="2" stroke-linecap="round" stroke-linejoin="round"/>
<path d="M87.7449 92.1399C81.7434 91.1445 82.317 101.268 81.5642 102.499C80.8114 103.729 74.261 93.9116 69.5739 99.4496C64.8869 104.988 84.6641 113.7 86.0128 112.921C87.6988 111.948 93.7465 93.1353 87.7449 92.1399Z" stroke="#2F62F6" stroke-width="2" stroke-linecap="round" stroke-linejoin="round"/>
<path d="M459.713 96.5635C458.858 104.113 454.542 119.212 444.115 119.212" stroke="black" stroke-width="2" stroke-linecap="round"/>
<path d="M459.713 135.664C460.568 127.402 464.884 110.879 475.311 110.879" stroke="black" stroke-width="2" stroke-linecap="round"/>
<path d="M459.713 96.3496C460.568 101.193 464.884 110.879 475.311 110.879" stroke="black" stroke-width="2" stroke-linecap="round"/>
<path d="M459.713 135.664C458.858 130.251 454.542 119.426 444.115 119.426" stroke="black" stroke-width="2" stroke-linecap="round"/>
<path d="M48.9911 270.242C49.5933 268.493 52.6348 264.995 59.9824 264.995" stroke="black" stroke-width="2" stroke-linecap="round" stroke-linejoin="round"/>
<path d="M48.9913 242C48.3891 247.967 45.3476 259.902 38 259.902" stroke="black" stroke-width="2" stroke-linecap="round" stroke-linejoin="round"/>
<path d="M48.9913 270.396C48.3891 266.898 45.3476 259.902 38 259.902" stroke="black" stroke-width="2" stroke-linecap="round" stroke-linejoin="round"/>
<path d="M48.9911 242C49.5933 249.665 52.6348 264.995 59.9824 264.995" stroke="black" stroke-width="2" stroke-linecap="round" stroke-linejoin="round"/>
<path d="M343.93 33.4453C329.53 32.2453 307.596 31.9453 298.43 31.9453C298.43 33.7566 304.204 76.5104 307.765 100.5C309.403 111.533 318.5 117.482 318.5 117.482C325.762 117.856 337.203 118.324 349.93 120.445C370.93 123.945 392.43 131.945 394.43 131.945C396.03 131.945 390.763 70.612 387.93 39.9453C379.263 38.2786 358.33 34.6453 343.93 33.4453Z" fill="#2F62F6" stroke="#2F62F6" stroke-width="2" stroke-linecap="round" stroke-linejoin="round"/>
<path d="M383.261 44.3067C374.722 41.8688 361.54 39.4414 361.929 41.0001C362.106 41.7059 378.929 44.5002 380.929 46.0002C382.929 47.5002 382.729 67.0002 383.929 67.0002C385.093 67.0002 384.47 52.8875 383.975 45.1955C383.948 44.7773 383.664 44.4217 383.261 44.3067Z" fill="white" stroke="white" stroke-width="2" stroke-linecap="round" stroke-linejoin="round"/>
<path d="M210.43 368.444C225.596 368.611 262.43 362.444 263.93 351.444" stroke="black" stroke-width="2" stroke-linecap="round" stroke-linejoin="round"/>
<path d="M252.93 332.009C255.431 331.314 258.412 330.735 261.43 330.304M247.43 341.509C251.913 341.509 259.136 339.504 265.43 337.177" stroke="black" stroke-width="2" stroke-linecap="round" stroke-linejoin="round"/>
<path d="M247.43 354.444C254.43 353.111 268.33 349.044 267.93 343.444" stroke="black" stroke-width="2" stroke-linecap="round" stroke-linejoin="round"/>
<path d="M248.43 346.945C252.87 346.594 263.029 344.179 268.43 341.112" stroke="black" stroke-width="2" stroke-linecap="round" stroke-linejoin="round"/>
<path d="M214.93 343.445C216.43 342.611 221.329 340.287 224.43 337.445C230.43 331.945 236.43 320.445 249.93 327.445" stroke="black" stroke-width="2" stroke-linecap="round" stroke-linejoin="round"/>
<path d="M196.43 35.9446C197.43 35.4446 209.43 62.9446 208.43 63.4446C207.43 63.9446 194.43 38.9446 196.43 35.9446Z" fill="white"/>
<path d="M211.93 35.9446C214.43 34.9446 225.43 61.4446 223.93 61.9446C221.93 63.4446 208.93 37.4446 211.93 35.9446Z" fill="white"/>
<path d="M196.43 35.9446C197.43 35.4446 209.43 62.9446 208.43 63.4446C207.43 63.9446 194.43 38.9446 196.43 35.9446Z" stroke="white" stroke-width="2" stroke-linecap="round" stroke-linejoin="round"/>
<path d="M211.93 35.9446C214.43 34.9446 225.43 61.4446 223.93 61.9446C221.93 63.4446 208.93 37.4446 211.93 35.9446Z" stroke="white" stroke-width="2" stroke-linecap="round" stroke-linejoin="round"/>
<path d="M189.476 48.1567C188.976 47.1567 218.476 36.6567 220.976 40.1567C223.476 43.6567 187.976 51.1567 189.476 48.1567Z" fill="white"/>
<path d="M195.475 59.6567C195.475 60.6567 229.475 52.1568 228.975 50.1567C228.475 48.1567 193.975 55.1567 195.475 59.6567Z" fill="white"/>
<path d="M189.476 48.1567C188.976 47.1567 218.476 36.6567 220.976 40.1567C223.476 43.6567 187.976 51.1567 189.476 48.1567Z" stroke="white" stroke-width="2" stroke-linecap="round" stroke-linejoin="round"/>
<path d="M195.475 59.6567C195.475 60.6567 229.475 52.1568 228.975 50.1567C228.475 48.1567 193.975 55.1567 195.475 59.6567Z" stroke="white" stroke-width="2" stroke-linecap="round" stroke-linejoin="round"/>
<path d="M209.43 318.945L176.43 274.945H169.93L163.93 284.445L196.93 326.945L209.43 339.945L229.93 324.945C227.763 320.279 223.23 310.945 222.43 310.945C221.63 310.945 213.43 316.279 209.43 318.945Z" fill="black" stroke="black" stroke-width="2" stroke-linecap="round" stroke-linejoin="round"/>
<path d="M391.085 189.735C401.024 178.728 455.649 223.258 447.006 234.265C438.364 245.272 381.146 200.743 391.085 189.735Z" stroke="black" stroke-width="2" stroke-linecap="round" stroke-linejoin="round"/>
<path d="M391.93 189C371.763 208.667 334.228 257.745 363.428 278.945C392.628 300.145 426.095 265.333 440.429 243" stroke="black" stroke-width="2" stroke-linecap="round" stroke-linejoin="round"/>
<path d="M382.431 197.445C381.098 191.945 375.031 182.445 361.431 188.445C347.831 194.445 353.096 223.834 356.93 237" stroke="black" stroke-width="2" stroke-linecap="round" stroke-linejoin="round"/>
<path d="M438.93 247.445C445.263 249.112 456.53 255.545 450.93 267.945C445.33 280.345 418.596 280.112 405.93 278.445" stroke="black" stroke-width="2" stroke-linecap="round" stroke-linejoin="round"/>
<path d="M340.43 303.445L358.93 276.445L368.93 282.945L351.93 308.445L328.93 323.445L313.93 311.945C315.596 309.445 319.33 304.445 320.93 304.445C322.53 304.445 326.93 307.779 328.93 309.445L336.43 300.945L340.43 303.445Z" fill="black" stroke="black" stroke-width="2" stroke-linecap="round" stroke-linejoin="round"/>
<path d="M321.951 358.64C306.785 358.806 269.951 352.64 268.451 341.64" stroke="black" stroke-width="2" stroke-linecap="round" stroke-linejoin="round"/>
<path d="M279.451 322.204C270.451 319.704 255.251 318.704 254.451 320.704C253.651 322.704 275.451 331.704 284.951 331.704" stroke="black" stroke-width="2" stroke-linecap="round" stroke-linejoin="round"/>
<path d="M284.951 344.64C277.951 343.306 264.051 339.24 264.451 333.64" stroke="black" stroke-width="2" stroke-linecap="round" stroke-linejoin="round"/>
<path d="M283.951 337.14C277.618 336.64 259.651 331.94 260.451 327.14" stroke="black" stroke-width="2" stroke-linecap="round" stroke-linejoin="round"/>
<path d="M317.451 333.64C315.951 332.807 311.052 330.482 307.951 327.64C301.951 322.14 295.951 310.64 282.451 317.64" stroke="black" stroke-width="2" stroke-linecap="round" stroke-linejoin="round"/>
<path d="M161.93 292.945C171.93 299.445 207.93 338.945 210.433 341.445C212.436 343.445 211.268 361.612 210.433 370.445C169.421 367.445 108.952 328.945 113.452 281.445C116.67 247.484 188.93 211.5 253.93 206.945C259.953 216.797 273 236.6 277 237C281 237.4 289.286 217.13 292.93 206.945C313.937 209.196 342.062 215.463 362.93 224.209M380.43 292.945C363.93 297.945 323.715 328.945 321.211 331.445C319.208 333.445 322.595 350.612 323.43 359.445C364.442 356.445 433.166 333.945 428.192 281.445C427.751 276.783 426.03 272.109 423.246 267.5" stroke="black" stroke-width="2" stroke-linecap="round" stroke-linejoin="round"/>
<path d="M193.43 296.445C202.263 295.445 202.43 295.445 202.43 295.445" stroke="black" stroke-width="2" stroke-linecap="round" stroke-linejoin="round"/>
<path d="M366.43 299.445C364.391 299.445 362.192 299.25 359.93 298.925M331.93 291.445C333.75 291.776 337.658 293.031 342.43 294.389" stroke="black" stroke-width="2" stroke-linecap="round" stroke-linejoin="round"/>
<path d="M242.43 207.945C237.93 221.445 234.93 253.645 258.93 274.445" stroke="black" stroke-width="2" stroke-linecap="round" stroke-linejoin="round"/>
<path d="M304.93 207.945C309.43 221.445 312.43 253.645 288.43 274.445" stroke="black" stroke-width="2" stroke-linecap="round" stroke-linejoin="round"/>
<path d="M226.43 210.445C217.263 228.612 217.131 266.745 255.931 283.945" stroke="black" stroke-width="2" stroke-linecap="round" stroke-linejoin="round"/>
<path d="M293.43 280.945C329.573 264.923 331.934 230.737 324.678 211.445" stroke="black" stroke-width="2" stroke-linecap="round" stroke-linejoin="round"/>
<circle cx="275.43" cy="291.445" r="19" fill="#2F62F6"/>
<ellipse cx="389.93" cy="244.445" rx="19.5" ry="19" fill="#2F62F6" stroke="#2F62F6" stroke-width="2" stroke-linecap="round" stroke-linejoin="round"/>
<path d="M221.931 202.944C195.597 141.778 142.031 19.5443 138.431 19.9443C133.931 20.4443 125.431 24.9443 126.431 28.4443C127.231 31.2443 184.097 150.611 212.43 209.944" stroke="black" stroke-width="2" stroke-linecap="round" stroke-linejoin="round"/>
<path d="M245.481 17.4461C241.862 26.7192 236.695 40.9314 237.517 42.7731C237.58 42.9149 237.75 42.9515 237.886 42.8771C239.089 42.2201 242.054 36.9532 244.097 33.0351C244.505 32.2537 245.657 32.327 245.953 33.1574L252.8 52.4164C252.997 52.9694 252.679 53.5713 252.112 53.7219C247.398 54.9732 239.666 57.2038 239.666 57.9453C239.666 58.9453 266.666 54.4453 266.666 53.4453C266.666 52.6978 259.972 52.4741 255.966 52.448C255.498 52.445 255.093 52.1205 254.991 51.6636L247.37 17.5968C247.156 16.6376 245.838 16.5304 245.481 17.4461Z" fill="white" stroke="white" stroke-width="2" stroke-linecap="round" stroke-linejoin="round"/>
<path d="M275.731 278.178C272.48 283.678 267.738 292.146 268.069 293.398C268.094 293.494 268.198 293.535 268.292 293.502C269.122 293.21 271.544 290.18 273.243 287.91C273.582 287.457 274.305 287.622 274.406 288.179L276.752 301.085C276.82 301.456 276.557 301.805 276.182 301.841C273.066 302.147 267.938 302.76 267.862 303.23C267.758 303.863 285.326 303.804 285.429 303.17C285.506 302.697 281.289 301.863 278.755 301.433C278.458 301.382 278.236 301.135 278.218 300.835L276.912 278.469C276.876 277.839 276.052 277.635 275.731 278.178Z" fill="white" stroke="white" stroke-width="2"/>
<path d="M400.603 236.883C394.288 237.848 384.731 239.536 383.971 240.584C383.912 240.665 383.946 240.771 384.031 240.823C384.783 241.281 388.661 241.238 391.495 241.117C392.06 241.092 392.389 241.756 392.022 242.187L383.515 252.173C383.271 252.46 382.834 252.477 382.569 252.21C380.361 249.991 376.64 246.409 376.227 246.647C375.672 246.968 386.837 260.531 387.393 260.21C387.808 259.97 385.784 256.178 384.514 253.943C384.365 253.682 384.416 253.353 384.637 253.149L401.126 237.982C401.59 237.555 401.227 236.788 400.603 236.883Z" fill="white" stroke="white" stroke-width="2"/>
<path fill-rule="evenodd" clip-rule="evenodd" d="M245.221 67.3501C248.77 64.0904 268.911 47.5498 295.255 61.6274C319.421 74.5409 322.098 112.218 321.137 126.841C320.502 136.508 325.363 140.19 331.436 144.791C338.679 150.278 347.646 157.072 351.073 176.88C353.669 191.889 346.692 204.522 335.665 214.585C322.943 210.893 310.082 208.247 297.93 206.945H294.886L289.609 181.29C309.977 170.853 313.291 134.456 312.301 116.814L290.036 70.8524L238.987 124.618C239.441 126.257 239.958 128.003 240.534 129.829L240.475 129.797C239.51 129.691 237.786 130.167 236.687 130.66C230.429 133.464 233.256 147.225 247.496 149.193L247.744 148.8C252.101 158.492 257.58 168.061 263.895 174.706L252.693 206.945H245.43C230.982 208.493 215.42 211.94 200.224 216.787C198.458 213.95 196.806 210.844 195.285 207.447C178.818 170.699 202.83 140.431 216.21 123.566C218.019 121.285 219.634 119.25 220.928 117.476C225.673 110.973 228.156 103.114 230.651 95.2195C233.866 85.0429 237.1 74.809 245.221 67.3501Z" fill="black"/>
<path d="M295.255 61.6274L295.727 60.7454L295.255 61.6274ZM245.221 67.3501L245.897 68.0865L245.221 67.3501ZM321.137 126.841L320.14 126.776L321.137 126.841ZM331.436 144.791L330.832 145.588L331.436 144.791ZM351.073 176.88L352.058 176.71L351.073 176.88ZM335.665 214.585L335.386 215.545L335.925 215.702L336.339 215.324L335.665 214.585ZM297.93 206.945L298.036 205.95L297.983 205.945H297.93V206.945ZM294.886 206.945L293.906 207.146L294.071 207.945H294.886V206.945ZM289.609 181.29L289.153 180.401L288.476 180.747L288.629 181.492L289.609 181.29ZM312.301 116.814L313.3 116.758L313.288 116.558L313.201 116.378L312.301 116.814ZM290.036 70.8524L290.936 70.4164L290.306 69.1158L289.311 70.1638L290.036 70.8524ZM238.987 124.618L238.262 123.93L237.873 124.34L238.024 124.885L238.987 124.618ZM240.534 129.829L240.057 130.708L242.231 131.887L241.487 129.528L240.534 129.829ZM240.475 129.797L240.951 128.918L240.779 128.824L240.584 128.803L240.475 129.797ZM236.687 130.66L237.096 131.572L237.096 131.572L236.687 130.66ZM247.496 149.193L247.359 150.184L247.999 150.272L248.343 149.726L247.496 149.193ZM247.744 148.8L248.656 148.39L247.891 146.688L246.897 148.267L247.744 148.8ZM263.895 174.706L264.84 175.034L265.04 174.458L264.62 174.017L263.895 174.706ZM252.693 206.945V207.945H253.404L253.638 207.273L252.693 206.945ZM245.43 206.945V205.945H245.376L245.323 205.95L245.43 206.945ZM200.224 216.787L199.375 217.315L199.786 217.976L200.527 217.739L200.224 216.787ZM195.285 207.447L194.372 207.856L195.285 207.447ZM216.21 123.566L216.993 124.187L216.21 123.566ZM220.928 117.476L221.735 118.066L220.928 117.476ZM230.651 95.2195L229.697 94.9182L230.651 95.2195ZM295.727 60.7454C268.781 46.3466 248.161 63.2912 244.544 66.6136L245.897 68.0865C249.378 64.8896 269.041 48.753 294.784 62.5093L295.727 60.7454ZM322.135 126.907C322.621 119.508 322.188 106.317 318.582 93.3255C314.981 80.3528 308.161 67.3902 295.727 60.7454L294.784 62.5093C306.515 68.778 313.116 81.1105 316.655 93.8604C320.189 106.592 320.614 119.551 320.14 126.776L322.135 126.907ZM332.04 143.994C328.974 141.672 326.378 139.694 324.59 137.142C322.841 134.646 321.831 131.54 322.135 126.907L320.14 126.776C319.809 131.809 320.912 135.378 322.952 138.29C324.954 141.146 327.825 143.31 330.832 145.588L332.04 143.994ZM352.058 176.71C350.322 166.673 347.17 159.873 343.491 154.873C339.82 149.883 335.659 146.736 332.04 143.994L330.832 145.588C334.456 148.333 338.4 151.327 341.88 156.058C345.352 160.778 348.397 167.279 350.087 177.051L352.058 176.71ZM336.339 215.324C347.511 205.129 354.733 192.177 352.058 176.71L350.087 177.051C352.604 191.601 345.873 203.916 334.991 213.846L336.339 215.324ZM297.823 207.939C309.909 209.234 322.712 211.867 335.386 215.545L335.944 213.625C323.173 209.918 310.254 207.259 298.036 205.95L297.823 207.939ZM294.886 207.945H297.93V205.945H294.886V207.945ZM288.629 181.492L293.906 207.146L295.865 206.743L290.588 181.089L288.629 181.492ZM311.303 116.87C311.793 125.613 311.216 139.016 307.996 151.504C304.765 164.038 298.943 175.384 289.153 180.401L290.065 182.18C300.643 176.76 306.662 164.688 309.933 152.003C313.215 139.273 313.799 125.657 313.3 116.758L311.303 116.87ZM289.136 71.2883L311.401 117.25L313.201 116.378L290.936 70.4164L289.136 71.2883ZM239.712 125.307L290.761 71.5409L289.311 70.1638L238.262 123.93L239.712 125.307ZM241.487 129.528C240.915 127.713 240.402 125.978 239.951 124.351L238.024 124.885C238.481 126.536 239.001 128.293 239.58 130.13L241.487 129.528ZM239.998 130.676L240.057 130.708L241.01 128.95L240.951 128.918L239.998 130.676ZM237.096 131.572C237.586 131.353 238.233 131.13 238.867 130.976C239.525 130.816 240.06 130.758 240.366 130.791L240.584 128.803C239.925 128.731 239.115 128.857 238.395 129.032C237.651 129.213 236.887 129.474 236.278 129.747L237.096 131.572ZM247.633 148.203C240.838 147.263 236.884 143.541 235.326 139.851C233.716 136.038 234.698 132.646 237.096 131.572L236.278 129.747C232.418 131.477 231.684 136.368 233.484 140.629C235.335 145.012 239.914 149.155 247.359 150.184L247.633 148.203ZM246.897 148.267L246.65 148.661L248.343 149.726L248.59 149.332L246.897 148.267ZM264.62 174.017C258.418 167.491 252.994 158.04 248.656 148.39L246.832 149.21C251.207 158.944 256.742 168.631 263.171 175.395L264.62 174.017ZM253.638 207.273L264.84 175.034L262.951 174.377L251.748 206.616L253.638 207.273ZM245.43 207.945H252.693V205.945H245.43V207.945ZM200.527 217.739C215.669 212.91 231.166 209.479 245.536 207.939L245.323 205.95C230.799 207.506 215.17 210.97 199.92 215.834L200.527 217.739ZM194.372 207.856C195.911 211.292 197.584 214.438 199.375 217.315L201.073 216.258C199.333 213.462 197.702 210.396 196.197 207.039L194.372 207.856ZM215.426 122.944C202.105 139.736 177.627 170.488 194.372 207.856L196.197 207.039C180.008 170.911 203.556 141.125 216.993 124.187L215.426 122.944ZM220.12 116.887C218.84 118.64 217.239 120.659 215.426 122.944L216.993 124.187C218.798 121.912 220.427 119.859 221.735 118.066L220.12 116.887ZM229.697 94.9182C227.193 102.843 224.752 110.539 220.12 116.887L221.735 118.066C226.594 111.408 229.12 103.384 231.604 95.5208L229.697 94.9182ZM244.544 66.6136C236.195 74.2823 232.899 84.7867 229.697 94.9182L231.604 95.5208C234.834 85.2991 238.005 75.3357 245.897 68.0865L244.544 66.6136Z" fill="black"/>
<path d="M143.705 314.945C142.705 314.945 136.705 277.945 135.705 276.945C135.441 276.287 101.205 262.445 101.205 261.445C101.205 260.445 129.205 239.945 130.205 238.945C131.205 237.945 129.205 201.445 130.205 200.445C131.205 199.445 162.205 223.445 163.705 223.445C165.205 223.445 196.705 208.945 198.205 209.945C199.705 210.945 194.205 246.445 194.705 247.945C195.205 249.445 214.205 273.445 214.205 274.445C214.205 275.445 170.205 275.945 169.205 276.945C168.205 277.945 144.705 314.945 143.705 314.945Z" fill="#2F62F6" stroke="#2F62F6" stroke-width="2" stroke-linecap="round" stroke-linejoin="round"/>
<path d="M135.706 213.945C137.706 214.445 140.206 232.945 138.706 232.945C137.206 232.945 134.206 213.945 135.706 213.945Z" fill="#F4F5F6" stroke="white" stroke-width="2" stroke-linecap="round" stroke-linejoin="round"/>
<ellipse cx="158.205" cy="253.445" rx="19.5" ry="19" fill="white"/>
<path d="M150.144 239.548C150.323 245.882 150.968 258.565 152.114 258.628C152.821 258.322 153.313 252.514 153.47 249.648L163.921 260.858C161.569 262.693 156.915 266.481 157.119 266.952C157.374 267.541 172.127 258.003 171.872 257.414C171.668 256.943 167.102 258.781 164.844 259.759L150.144 239.548Z" fill="#2F62F6" stroke="#2F62F6" stroke-width="2" stroke-linecap="round" stroke-linejoin="round"/>
<path d="M312.3 116.814C313.336 135.274 309.659 174.27 286.662 182.571C267.987 189.312 252.364 161.908 243.772 139.172" stroke="black" stroke-width="2" stroke-linecap="round" stroke-linejoin="round"/>
<path d="M273.997 156.945C280.019 162.93 287.966 162.506 289.996 160.204C288.664 163.618 285.299 170.445 282.499 170.445C279.699 170.445 275.664 161.445 273.997 156.945Z" stroke="black" stroke-width="2" stroke-linecap="round" stroke-linejoin="round"/>
<path d="M298.488 128.848C298.488 128.848 300.452 138.821 298.054 139.061C295.887 138.696 297.44 132.1 298.488 128.848Z" fill="black"/>
<path d="M305.513 124.03C304.897 125.141 302.63 127.66 298.488 128.848M298.488 128.848C298.488 128.848 300.452 138.821 298.054 139.061C295.887 138.696 297.44 132.1 298.488 128.848Z" stroke="black" stroke-width="2" stroke-linecap="round" stroke-linejoin="round"/>
<path d="M271.569 128.388C271.569 128.388 273.533 138.362 271.136 138.601C268.968 138.236 270.521 131.64 271.569 128.388Z" fill="black"/>
<path d="M278.594 123.57C277.978 124.681 275.712 127.2 271.569 128.388M271.569 128.388C271.569 128.388 273.533 138.362 271.136 138.601C268.968 138.236 270.521 131.64 271.569 128.388Z" stroke="black" stroke-width="2" stroke-linecap="round" stroke-linejoin="round"/>
<path d="M297.103 105.257C292.26 106.87 282.798 117.678 283.695 148.001" stroke="black" stroke-width="2" stroke-linecap="round" stroke-linejoin="round"/>
<path d="M275.619 112.886C274.014 112.818 269.943 113.659 266.498 117.564" stroke="black" stroke-width="2" stroke-linecap="round" stroke-linejoin="round"/>
<path d="M307.632 118.068C306.747 116.727 303.681 113.921 298.498 113.416" stroke="black" stroke-width="2" stroke-linecap="round" stroke-linejoin="round"/>
<path d="M299.338 100.927C302.77 110.076 314.016 119.397 319.209 122.914L312.549 95.0075C306.997 83.8587 290.406 63.8522 268.464 73.0166C246.521 82.181 238.138 115.27 236.69 130.669C243.107 129.464 258.627 124.847 269.368 116.026C280.11 107.205 289.814 89.6099 293.324 81.9147C293.899 84.4401 295.907 91.778 299.338 100.927Z" fill="black" stroke="black" stroke-width="2"/>
<path d="M247.497 149.194C233.257 147.226 229.742 133.304 236 130.5C239 129.156 242.5 131 242.5 131" stroke="black" stroke-width="2" stroke-linecap="round" stroke-linejoin="round"/>
</svg>
