<svg width="570" height="320" viewBox="0 0 570 320" fill="none" xmlns="http://www.w3.org/2000/svg">
<path d="M259.932 213.009C264.1 235.143 275.282 283.809 286.665 301.401" stroke="black" stroke-width="2" stroke-linecap="round"/>
<path d="M381.093 288.041C380.949 289.191 380.231 292.784 378.506 297.958" stroke="black" stroke-width="2" stroke-linecap="round"/>
<path d="M306.44 136L305.023 153.373C306.016 159.758 311.606 171.32 313.795 170.98C315.984 170.64 329.37 161.378 333.902 155.859L332.384 144" stroke="black" stroke-width="2" stroke-linecap="round"/>
<path d="M308.566 137.032C285.492 128.374 282.279 89.0218 283.558 70.4282C283.558 70.4282 288.079 32.2469 306.582 24.3836C333.442 12.9682 354.113 66.1825 354.113 66.1825C355.107 99.5131 331.641 145.69 308.566 137.032Z" stroke="black" stroke-width="2" stroke-linecap="round" stroke-linejoin="round"/>
<path d="M305.488 114.446C307.505 116.791 313.075 119.993 319.22 114.037" stroke="black" stroke-width="2" stroke-linecap="round" stroke-linejoin="round"/>
<path d="M297.327 82.7321C297.327 82.7321 295.22 92.7599 297.634 93.0316C299.823 92.6914 298.341 86.0235 297.327 82.7321Z" fill="black"/>
<path d="M290.307 77.7871C290.913 78.9144 293.166 81.4817 297.327 82.7321M297.327 82.7321C297.327 82.7321 295.22 92.7599 297.634 93.0316C299.823 92.6914 298.341 86.0235 297.327 82.7321Z" stroke="black" stroke-width="2" stroke-linecap="round" stroke-linejoin="round"/>
<path d="M324.467 82.61C324.467 82.61 322.361 92.6378 324.774 92.9095C326.963 92.5693 325.482 85.9014 324.467 82.61Z" fill="black"/>
<path d="M317.447 77.665C318.054 78.7924 320.306 81.3596 324.467 82.61M324.467 82.61C324.467 82.61 322.361 92.6378 324.774 92.9095C326.963 92.5693 325.482 85.9014 324.467 82.61Z" stroke="black" stroke-width="2" stroke-linecap="round" stroke-linejoin="round"/>
<path d="M299.023 58.9708C303.884 60.6584 313.284 71.6718 311.996 102.224" stroke="black" stroke-width="2" stroke-linecap="round" stroke-linejoin="round"/>
<path d="M319.173 70.0366C320.791 69.9883 324.884 70.8868 328.307 74.8667" stroke="black" stroke-width="2" stroke-linecap="round"/>
<path d="M291.672 64.1282C293.223 63.6627 297.408 63.4713 301.745 66.4296" stroke="black" stroke-width="2" stroke-linecap="round"/>
<path d="M358.347 42.218C338.542 12.3099 307.555 13.4976 284.063 27.5312C268.434 36.8678 264.178 54.7731 261.55 65.8277C261.003 68.1293 260.527 70.134 260.033 71.7025C258.334 77.098 249.694 88.8159 242.98 97.9213C238.368 104.176 234.665 109.198 234.745 110.091C234.943 112.284 245.631 124.588 247.093 124.456C247.824 124.391 249.654 122.199 251.4 120.108C253.146 118.016 254.81 116.024 255.208 116.356C255.668 116.74 254.332 121.699 253.145 126.108C252.274 129.343 251.482 132.282 251.538 132.9C251.67 134.362 266.679 145.54 268.141 145.409C268.806 145.349 270.217 143.39 271.7 141.329C273.477 138.863 275.357 136.251 276.19 136.577C277.158 136.957 275.827 141.392 274.756 144.962C274.137 147.025 273.605 148.799 273.653 149.335C273.751 150.419 289.165 154.042 304.307 155.495C304.138 154.813 304.003 154.164 303.909 153.56L305.316 136.305C292.957 130.33 286.808 115.04 284.079 99.7718C273.872 93.8484 274.615 81.9671 280.789 80.7038C281.214 80.6169 281.716 80.5496 282.229 80.5134C282.156 76.8461 282.246 73.4839 282.443 70.6157C282.443 70.6157 286.965 32.4344 305.467 24.5711C332.328 13.1557 352.999 66.37 352.999 66.37C353.666 88.7199 343.334 116.846 329.497 130.342L334.499 155.495C337.34 155.169 339.969 154.874 342.417 154.599C349.289 153.827 354.731 153.216 359.431 152.545C358.717 149.518 358.193 146.656 358.115 144.618C357.876 138.414 358.991 134.539 361.522 132.155C362.922 130.837 363.837 129.974 363.267 129.426C357.01 123.409 353.753 122.019 350.135 121.216C348.182 120.782 346.998 120.519 346.998 119.792C346.998 116.108 346.998 116.035 346.998 111.639C346.998 108.72 343.835 107.13 350.135 107.5C345.688 105.648 348.473 102.753 348.999 101C350.11 97.2949 351.499 92.0004 351.499 92.0004C351.499 92.0004 356.887 91.7771 357.999 92.5004C358.369 90.6476 381.459 102.376 389.611 111.639C393.368 115.909 391.223 123.168 387.781 130.263C388.957 130.994 390.242 131.849 391.506 132.69C394.587 134.74 397.548 136.709 398.534 136.621C400.727 136.423 417.564 110.587 417.169 106.201C417.03 104.662 412.583 100.608 405.873 94.4905C393.458 83.1727 373.296 64.7932 358.347 42.218Z" fill="black"/>
<path d="M385.85 134.01C386.19 134.49 386.542 134.982 386.895 135.475C389.287 138.815 391.747 142.252 391.019 143.193C386.003 145.399 381.868 147.053 378.006 148.347C378.618 146.559 380.249 143.765 382.179 140.46C383.347 138.461 384.624 136.274 385.85 134.01Z" fill="black"/>
<path d="M358.347 42.218C338.542 12.3099 307.555 13.4976 284.063 27.5312C268.434 36.8678 264.178 54.7731 261.55 65.8277C261.003 68.1293 260.527 70.134 260.033 71.7025C258.334 77.098 249.694 88.8159 242.98 97.9213C238.368 104.176 234.665 109.198 234.745 110.091C234.943 112.284 245.631 124.588 247.093 124.456C247.824 124.391 249.654 122.199 251.4 120.108C253.146 118.016 254.81 116.024 255.208 116.356C255.668 116.74 254.332 121.699 253.145 126.108C252.274 129.343 251.482 132.282 251.538 132.9C251.67 134.362 266.679 145.54 268.141 145.409C268.806 145.349 270.217 143.39 271.7 141.329C273.477 138.863 275.357 136.251 276.19 136.577C277.158 136.957 275.827 141.392 274.756 144.962C274.137 147.025 273.605 148.799 273.653 149.335C273.751 150.419 289.165 154.042 304.307 155.495C304.138 154.813 304.003 154.164 303.909 153.56L305.316 136.305C292.957 130.33 286.808 115.04 284.079 99.7718C273.872 93.8484 274.615 81.9671 280.789 80.7038C281.214 80.6169 281.716 80.5496 282.229 80.5134C282.156 76.8461 282.246 73.4839 282.443 70.6157C282.443 70.6157 286.965 32.4344 305.467 24.5711C332.328 13.1557 352.999 66.37 352.999 66.37C353.666 88.7199 343.334 116.846 329.497 130.342L334.499 155.495C337.34 155.169 339.969 154.874 342.417 154.599C349.289 153.827 354.731 153.216 359.431 152.545C358.717 149.518 358.193 146.656 358.115 144.618C357.876 138.414 358.991 134.539 361.522 132.155C362.922 130.837 363.837 129.974 363.267 129.426C357.01 123.409 353.753 122.019 350.135 121.216C348.182 120.782 346.998 120.519 346.998 119.792C346.998 116.108 346.998 116.035 346.998 111.639C346.998 108.72 343.835 107.13 350.135 107.5C345.688 105.648 348.473 102.753 348.999 101C350.11 97.2949 351.499 92.0004 351.499 92.0004C351.499 92.0004 356.887 91.7771 357.999 92.5004C358.369 90.6476 381.459 102.376 389.611 111.639C393.368 115.909 391.223 123.168 387.781 130.263C388.957 130.994 390.242 131.849 391.506 132.69C394.587 134.74 397.548 136.709 398.534 136.621C400.727 136.423 417.564 110.587 417.169 106.201C417.03 104.662 412.583 100.608 405.873 94.4905C393.458 83.1727 373.296 64.7932 358.347 42.218Z" stroke="black"/>
<path d="M385.85 134.01C386.19 134.49 386.542 134.982 386.895 135.475C389.287 138.815 391.747 142.252 391.019 143.193C386.003 145.399 381.868 147.053 378.006 148.347C378.618 146.559 380.249 143.765 382.179 140.46C383.347 138.461 384.624 136.274 385.85 134.01Z" stroke="black"/>
<path d="M331.743 64.2176C333.188 65.2224 350.7 71.2748 359.089 70.0646C359.962 69.9386 360.362 68.9941 359.991 68.1938C354.302 55.9286 343.647 18.3451 307.63 20.0429C275.725 21.5469 271.73 67.8647 273.517 68.3899C275.305 68.9151 295.538 66.1002 297.999 65.6577C299.247 65.4332 300.748 60.9128 302.024 56.35C302.445 54.8437 305.074 54.9131 305.494 56.4197C306.58 60.3161 307.866 63.9063 308.26 63.8354C309.081 63.6879 324.434 64.3137 325.254 64.1662C325.622 64.1 326.373 61.1226 327.112 57.6968C327.445 56.1505 329.538 56.1996 329.799 57.7599C330.314 60.8376 330.953 63.6687 331.743 64.2176Z" fill="black" stroke="black" stroke-width="2" stroke-linecap="round"/>
<path d="M305.001 156.5C290.341 156.5 261.398 158.507 248.29 173.34C235.182 188.173 222.707 212.29 221.988 217.32" stroke="black" stroke-width="2" stroke-linecap="round"/>
<path d="M187.062 144.451C186.918 149.482 188.356 162.733 195.255 175.496C203.878 191.45 234.923 231.981 240.96 258.283" stroke="black" stroke-width="2" stroke-linecap="round"/>
<path d="M170.246 168.165C178.295 212.433 200.515 293.796 230.18 294.831C253.464 295.643 263.812 269.492 268.124 250.089" stroke="black" stroke-width="2" stroke-linecap="round"/>
<path d="M379 154.5C397.109 160.105 418.666 201.994 417.312 240.604C415.587 289.759 396.615 290.621 392.303 290.621C356.084 290.621 359.965 219.476 362.121 166.872C362.839 167.591 373.676 166.786 385.404 162.992C392.16 173.196 402.997 204.816 407.826 247.934" stroke="black" stroke-width="2" stroke-linecap="round" stroke-linejoin="round"/>
<path d="M168.09 117.287C173.695 117.287 179.128 130.999 180.163 137.553C181.456 145.745 180.163 154.369 182.319 157.818" stroke="black" stroke-width="2" stroke-linecap="round"/>
<path d="M182.75 143.157C186.918 138.702 193.961 131.084 193.961 129.359C193.961 127.204 140.494 82.792 138.77 82.792C137.045 82.792 106 119.011 106 125.479C106 127.635 160.587 169.89 163.347 169.89C164.64 169.89 171.108 160.404 175.851 154.799" stroke="#2F62F6" stroke-width="2" stroke-linecap="round" stroke-linejoin="round"/>
<path d="M137.908 87.9658C140.639 100.183 146.532 124.875 148.257 125.91C149.981 126.944 162.198 127.203 168.091 127.203M180.595 128.928H191.806" stroke="#2F62F6" stroke-width="2" stroke-linecap="round" stroke-linejoin="round"/>
<path d="M172.402 175.927C175.421 175.927 183.527 174.892 191.805 170.753" stroke="black" stroke-width="2" stroke-linecap="round"/>
<path d="M216.858 17.0985C212.977 11.062 132.347 10.6308 125.879 14.9426C120.705 21.4101 125.879 70.565 128.897 73.1521C131.312 75.2217 169.284 77.4639 187.969 78.3262C187.969 79.9072 188.917 84.2765 192.712 89.1057C196.506 93.9349 204.354 99.1666 207.803 101.179C206.797 99.454 204.354 94.8835 202.629 90.3993C200.904 85.915 200.473 80.1947 200.473 77.8951C204.929 78.47 214.443 79.2748 216.858 77.8951C219.876 76.1703 220.739 23.135 216.858 17.0985Z" stroke="black" stroke-width="2" stroke-linecap="round" stroke-linejoin="round"/>
<path d="M156.062 46.4188C156.062 49.5146 153.939 52.0241 151.319 52.0241C148.7 52.0241 146.576 49.5146 146.576 46.4188C146.576 43.3231 148.7 40.8135 151.319 40.8135C153.939 40.8135 156.062 43.3231 156.062 46.4188Z" fill="black"/>
<path d="M194.868 45.9876C194.868 48.8452 192.745 51.1618 190.125 51.1618C187.506 51.1618 185.382 48.8452 185.382 45.9876C185.382 43.13 187.506 40.8135 190.125 40.8135C192.745 40.8135 194.868 43.13 194.868 45.9876Z" fill="black"/>
<path d="M169.86 52.0241C172.717 52.0241 175.034 49.5146 175.034 46.4188C175.034 43.3231 172.717 40.8135 169.86 40.8135C167.002 40.8135 164.686 43.3231 164.686 46.4188C164.686 49.5146 167.002 52.0241 169.86 52.0241Z" fill="black"/>
<path d="M353.533 59.6849C356.126 58.2027 384.659 66.3547 387.252 71.9129C389.327 76.3595 383.423 89.5756 380.212 95.6279C379.672 96.7518 378.556 99.0332 377.06 102.05C368.061 96.7647 358.43 93.0319 358.191 94.2262C357.894 95.7084 364.984 101.637 373.013 107.937C364.119 102.008 351.521 99.7845 350.409 103.49C349.883 105.243 352.632 107.195 357.079 109.048C350.78 108.678 347.074 108.722 347.074 111.642C347.074 114.5 353.25 116.459 355.226 116.83C354.846 116.956 354.124 117.077 353.261 117.22C350.761 117.637 347.074 118.251 347.074 119.794C347.074 120.521 348.258 120.784 350.211 121.218C353.396 121.926 358.626 123.088 364.101 127.46C357.882 139.255 351.961 149.728 350.568 149.728C347.604 149.728 322.777 139.723 322.036 137.129C321.295 134.535 349.086 61.5375 353.533 59.6849Z" fill="#2F62F6"/>
<path d="M381.906 114.977C373.877 108.678 357.894 95.7087 358.191 94.2265C358.561 92.3737 381.535 102.379 389.687 111.642C397.839 120.906 378.2 144.25 377.83 149.438C377.533 153.588 380.424 160.06 381.906 162.778M362.983 163.854C361.254 159.037 358.396 149.953 358.191 144.621C357.82 134.987 364.5 129.223 364.5 127C364.5 122.924 357.5 119.5 352.5 119.5" stroke="black" stroke-width="2" stroke-linecap="round" stroke-linejoin="round"/>
<path d="M380.794 119.117C375.016 112.999 360.509 104.333 353 103.799" stroke="black" stroke-width="2" stroke-linecap="round" stroke-linejoin="round"/>
<path d="M374.865 126.158C371.101 119.704 356.176 111.49 351.5 111.956" stroke="black" stroke-width="2" stroke-linecap="round" stroke-linejoin="round"/>
<path d="M470.618 126.471C484.012 130.577 472.229 153.302 466.02 147.497C461.672 143.433 470.359 131.444 487.476 125.395" stroke="#2F62F6" stroke-width="2" stroke-linecap="round"/>
<path d="M107.249 170.282C113.499 171.713 126.627 177.306 129.139 188.228C132.28 201.88 106.708 203.038 108.631 194.759C110.553 186.479 139.774 193.143 154.593 223.336" stroke="black" stroke-width="2" stroke-linecap="round"/>
</svg>
