<svg width="570" height="428" viewBox="0 0 570 428" fill="none" xmlns="http://www.w3.org/2000/svg">
<path d="M123.97 172.111C115.643 172.111 98.6622 172.111 97.3587 172.111C95.7294 172.111 88.6692 235.654 134.832 239.455" stroke="#2F62F6" stroke-width="3" stroke-linecap="round" stroke-linejoin="round"/>
<path d="M279.838 172.111C288.166 172.111 305.146 172.111 306.45 172.111C308.079 172.111 315.139 235.654 268.976 239.455" stroke="#2F62F6" stroke-width="3" stroke-linecap="round" stroke-linejoin="round"/>
<path d="M171.764 161.163C173.936 158.629 181.648 154.32 195.117 157.362C215.392 147.043 260.831 130.967 280.383 149.215C286.836 155.238 282.028 158.981 271.095 161.163" stroke="black" stroke-width="2" stroke-linecap="round" stroke-linejoin="round"/>
<path d="M209.78 150.301C195.298 147.223 166.646 141.502 159.272 141.068C140.807 139.982 131.574 148.671 131.031 161.706" stroke="black" stroke-width="2" stroke-linecap="round" stroke-linejoin="round"/>
<path fill-rule="evenodd" clip-rule="evenodd" d="M166.425 277.732L175.566 390.979L193.488 386.634L203.672 287.235C203.176 287.244 202.678 287.248 202.176 287.248C188.019 287.248 176.213 283.714 166.425 277.732ZM209.351 286.931C225.086 285.512 237.476 279.41 247.136 270.426L235.849 386.634H216.298L209.351 286.931Z" fill="black"/>
<path d="M175.566 390.979L174.569 391.06C174.592 391.351 174.742 391.618 174.979 391.789C175.217 391.961 175.517 392.02 175.801 391.951L175.566 390.979ZM166.425 277.732L166.946 276.879C166.625 276.683 166.221 276.683 165.901 276.88C165.58 277.077 165.398 277.438 165.428 277.813L166.425 277.732ZM193.488 386.634L193.723 387.606C194.135 387.506 194.439 387.158 194.483 386.736L193.488 386.634ZM203.672 287.235L204.667 287.337C204.696 287.052 204.602 286.769 204.408 286.558C204.215 286.347 203.94 286.23 203.654 286.235L203.672 287.235ZM209.351 286.931L209.261 285.935C208.719 285.984 208.316 286.458 208.354 287.001L209.351 286.931ZM247.136 270.426L248.131 270.523C248.171 270.109 247.951 269.714 247.579 269.53C247.206 269.345 246.759 269.411 246.455 269.694L247.136 270.426ZM235.849 386.634V387.634C236.364 387.634 236.795 387.243 236.844 386.731L235.849 386.634ZM216.298 386.634L215.3 386.704C215.337 387.228 215.772 387.634 216.298 387.634V386.634ZM176.562 390.899L167.421 277.652L165.428 277.813L174.569 391.06L176.562 390.899ZM193.252 385.663L175.33 390.007L175.801 391.951L193.723 387.606L193.252 385.663ZM202.677 287.133L192.493 386.532L194.483 386.736L204.667 287.337L202.677 287.133ZM202.176 288.248C202.684 288.248 203.188 288.243 203.69 288.235L203.654 286.235C203.165 286.244 202.672 286.248 202.176 286.248V288.248ZM165.903 278.585C175.856 284.668 187.844 288.248 202.176 288.248V286.248C188.194 286.248 176.57 282.76 166.946 276.879L165.903 278.585ZM209.441 287.927C225.402 286.488 237.999 280.29 247.817 271.158L246.455 269.694C236.953 278.53 224.77 284.537 209.261 285.935L209.441 287.927ZM246.14 270.329L234.854 386.538L236.844 386.731L248.131 270.523L246.14 270.329ZM235.849 385.634H216.298V387.634H235.849V385.634ZM217.295 386.565L210.349 286.862L208.354 287.001L215.3 386.704L217.295 386.565Z" fill="black"/>
<path d="M179.367 389.893C173.755 392.789 162.422 398.908 161.988 400.211C161.554 401.515 164.703 402.203 166.333 402.384" stroke="black" stroke-width="2" stroke-linecap="round" stroke-linejoin="round"/>
<path d="M232.047 386.634C238.202 389.892 250.404 396.627 249.969 397.496C249.535 398.365 239.288 397.858 234.219 397.496" stroke="black" stroke-width="2" stroke-linecap="round" stroke-linejoin="round"/>
<path d="M194.931 384.504L190.857 287C190.857 287 199.435 288.484 204.357 288.5C209.338 288.516 217.357 287 217.357 287L215.025 384.504L250.326 408.401C250.326 408.401 239.464 414.375 204.706 414.375C169.948 414.375 158 408.401 158 408.401L194.931 384.504Z" fill="#2F62F6" stroke="#2F62F6" stroke-width="2" stroke-linecap="round" stroke-linejoin="round"/>
<path d="M277.123 161.793H123.97C120.169 204.154 133.529 287.248 202.176 287.248C270.823 287.248 281.649 203.973 277.123 161.793Z" stroke="black" stroke-width="2" stroke-linecap="round" stroke-linejoin="round"/>
<path d="M129.402 181.887C149.316 184.059 205.762 187.1 272.237 181.887" stroke="#2F62F6" stroke-width="2" stroke-linecap="round" stroke-linejoin="round"/>
<path d="M131.574 154.189C130.488 153.103 126.143 146.586 129.402 139.525C132.009 133.877 136.281 132.465 138.091 132.465C137.548 130.474 137.331 126.165 140.807 124.862C145.151 123.233 150.582 122.69 160.358 126.491C168.179 129.533 176.289 138.62 179.366 142.784C179.728 139.163 180.344 131.488 179.91 129.75" stroke="black" stroke-width="2" stroke-linecap="round" stroke-linejoin="round"/>
<path d="M140.807 124.862C143.703 121.604 151.994 113.457 161.987 106.94C171.98 100.423 187.151 96.6213 193.487 95.5352C198.013 101.147 207.499 112.371 209.237 112.371C210.975 112.371 221.547 101.147 226.616 95.5352C233.314 96.9834 250.946 104.007 267.891 120.518" stroke="black" stroke-width="2" stroke-linecap="round" stroke-linejoin="round"/>
<path d="M283.099 150.387C284.185 150.387 284.728 134.638 283.099 133.552C282.033 132.841 286.358 123.233 276.039 122.147C266.985 121.194 243.996 130.293 238.022 133.552C233.242 136.158 236.754 139.345 239.108 140.612" stroke="black" stroke-width="2" stroke-linecap="round" stroke-linejoin="round"/>
<path d="M261.916 134.638C264.631 133.552 272.235 130.294 282.554 133.009" stroke="black" stroke-width="2" stroke-linecap="round" stroke-linejoin="round"/>
<path d="M137.549 132.466C139.54 132.285 145.044 132.357 151.126 134.095" stroke="black" stroke-width="2" stroke-linecap="round" stroke-linejoin="round"/>
<path d="M232.047 128.664C232.409 130.474 235.305 137.354 237.478 140.069" stroke="black" stroke-width="2" stroke-linecap="round" stroke-linejoin="round"/>
<path d="M196.984 95.5347C198.506 92.9261 199.057 88.3042 198.996 84M223.476 93.9531C222.41 90.7562 221.919 86.2574 221.692 82.5" stroke="black" stroke-width="2" stroke-linecap="round" stroke-linejoin="round"/>
<path d="M208.412 86.4471C184.841 85.4223 186.634 47.589 190.477 28.8005C194.096 25.2131 203.671 18.0381 213.021 18.0381C222.372 18.0381 227.509 28.6291 228.908 33.9247C231.897 51.8592 231.983 87.4719 208.412 86.4471Z" stroke="black" stroke-width="2" stroke-linecap="round" stroke-linejoin="round"/>
<path d="M212.416 70.1845C209.442 71.4257 205.655 70.9463 204.133 70.5514C205.073 72.7258 208.161 77.1004 212.991 77.2034C217.821 77.3064 218.873 69.5168 218.795 65.6092C217.908 66.6171 215.39 68.9432 212.416 70.1845Z" stroke="black" stroke-width="2" stroke-linecap="round" stroke-linejoin="round"/>
<path d="M211.953 33.0792C209.144 34.8851 208.151 48.8289 213.527 58.6047L210.324 58.6047" stroke="black" stroke-width="2" stroke-linecap="round" stroke-linejoin="round"/>
<path d="M191.758 37.3406C193.039 36.3443 196.284 34.3516 199.017 34.3516" stroke="black" stroke-width="2" stroke-linecap="round" stroke-linejoin="round"/>
<path d="M226.773 36.4862C225.492 35.4898 222.247 33.4971 219.514 33.4971" stroke="black" stroke-width="2" stroke-linecap="round" stroke-linejoin="round"/>
<path d="M187.916 50.5782C184.5 47.1621 178.436 48.8701 179.803 55.7023C181.169 62.5345 185.354 63.3885 188.77 63.3885" stroke="black" stroke-width="2" stroke-linecap="round" stroke-linejoin="round"/>
<path d="M230.617 50.5782C234.033 47.1621 240.097 48.8701 238.731 55.7023C237.364 62.5345 233.18 63.3885 229.763 63.3885" stroke="black" stroke-width="2" stroke-linecap="round" stroke-linejoin="round"/>
<path d="M203.693 28.8203C202.954 30.1721 201.232 31.5284 197.673 31.9374C196.369 32.0873 194.303 31.7346 192.623 31.3322C191.917 31.1629 190.703 32.292 190.514 32.9937C189.634 36.273 185.009 40.5548 179.263 36.5925C174.995 33.2719 176.753 28.9194 178.924 26.7153C179.285 26.3483 179.274 25.6841 178.966 25.2711C177.352 23.1059 176.411 17.7624 179.723 14.1635C183.389 10.1804 188.984 11.2993 191.793 12.2204C192.428 12.4285 193.213 11.7367 193.157 11.071C192.923 8.29888 193.893 3.16618 203.656 1.46776C214.273 -0.37907 217.473 4.07936 218.223 7.67279C218.376 8.40655 219.864 9.09805 220.555 8.80822C222.784 7.87373 226.323 7.61755 230.35 9.93158C235.556 12.9235 235.395 17.5679 234.44 20.3599C234.272 20.8507 234.59 21.4145 235.095 21.5352C237.132 22.0225 240.165 23.4655 241.396 26.0128C243.237 29.8215 240.015 36.5925 234.032 35.7461C229.937 35.1669 227.235 32.2752 226.443 29.5086C226.28 28.938 225.54 28.5867 225.003 28.8407C222.764 29.9007 218.952 30.6679 214.702 30.6679C211.096 30.6679 208.03 29.2871 206.041 27.9745C205.43 27.5715 204.043 28.1781 203.693 28.8203Z" fill="black" stroke="black" stroke-width="2" stroke-linecap="round" stroke-linejoin="round"/>
<path d="M190.477 28.8008C186.634 47.5893 184.841 85.4225 208.412 86.4473C231.983 87.4722 231.897 51.8594 228.908 33.9249" stroke="black" stroke-width="2" stroke-linecap="round" stroke-linejoin="round"/>
<path d="M197.832 44.3158C198.431 42.7035 198.968 43.637 199.06 44.7107L198.436 50.95C197.973 49.1823 197.233 45.9282 197.832 44.3158Z" fill="black" stroke="black" stroke-width="2" stroke-linecap="round" stroke-linejoin="round"/>
<path d="M218.468 44.2873C219.073 42.7302 219.606 43.6282 219.694 44.6631L219.045 50.6818C218.59 48.9792 217.862 45.8444 218.468 44.2873Z" fill="black" stroke="black" stroke-width="2" stroke-linecap="round" stroke-linejoin="round"/>
<path d="M321.717 149.069C323.67 147.984 330.571 147.637 342.55 154.928C354.528 162.219 365.769 174.025 369.893 179.016L367.289 192.036C350.579 185.743 316.9 172.896 315.858 171.855C314.556 170.553 294.374 167.297 303.489 149.069C310.78 134.486 349.06 133.878 367.289 135.397C369.676 139.954 377.054 149.069 387.47 149.069C397.886 149.069 401.793 138.652 402.444 133.444C430.872 139.738 489.074 156.931 487.727 175.11C486.425 192.687 469.499 210.265 460.384 219.379" stroke="black" stroke-width="2" stroke-linecap="round" stroke-linejoin="round"/>
<path d="M437.599 175.11C441.288 198.33 448.276 245.16 446.713 246.723C444.76 248.676 374.45 258.441 371.846 256.488C369.763 254.926 347.975 205.925 337.342 181.621" stroke="black" stroke-width="2" stroke-linecap="round" stroke-linejoin="round"/>
<path d="M437.6 175.11L459.083 183.574L447.365 213.521C450.186 216.342 457.781 220.031 460.385 219.38" stroke="black" stroke-width="2" stroke-linecap="round" stroke-linejoin="round"/>
<path d="M448.015 216.124C445.411 221.332 445.874 227.465 446.713 229.144C448.014 231.749 461.035 239.561 462.337 237.608C462.988 236.631 453.223 230.446 453.223 228.493" stroke="black" stroke-width="2" stroke-linecap="round" stroke-linejoin="round"/>
<path d="M454.525 220.682C455.176 221.333 456.999 222.765 459.083 223.286C461.166 223.807 462.989 223.286 464.942 222.635" stroke="black" stroke-width="2" stroke-linecap="round" stroke-linejoin="round"/>
<path d="M453.223 224.642C454.959 225.944 459.603 228.938 464.29 230.501" stroke="black" stroke-width="2" stroke-linecap="round" stroke-linejoin="round"/>
<path d="M410.908 404.27L375.102 258.441L446.063 248.024C451.922 260.828 463.901 291.513 464.943 311.825C465.984 332.136 440.324 356.745 430.125 366.51L428.217 345.678C430.821 338.95 440.725 324.715 440.204 316.382C439.683 308.049 423.494 285.567 417.418 276.669C418.72 284.048 423.798 306.747 425.881 320.288C427.965 333.829 430.438 379.097 430.438 401.014L410.908 404.27Z" fill="black" stroke="black" stroke-width="2" stroke-linecap="round" stroke-linejoin="round"/>
<path d="M399.84 363.255C397.887 365.425 393.98 370.546 393.98 373.671C393.98 377.577 397.887 402.967 399.84 402.967C401.402 402.967 404.397 382.786 407.001 382.786" stroke="black" stroke-width="2" stroke-linecap="round" stroke-linejoin="round"/>
<path d="M412.859 404.92C413.727 408.609 416.766 416.117 421.974 416.638C428.484 417.289 461.686 417.289 461.686 414.685C461.686 412.602 444.325 405.571 435.645 402.315" stroke="black" stroke-width="2" stroke-linecap="round" stroke-linejoin="round"/>
<path d="M391.818 183.971C394.253 189.675 399.352 201.097 400.269 201.156C401.414 201.23 399.155 186.17 394.999 179.928C390.844 173.686 374.948 180.526 371.844 179.928M370.687 193.229C376.284 194.962 379.582 190.484 380.887 190.834C383.28 191.475 385.33 199.484 383.819 201.644" stroke="black" stroke-width="2" stroke-linecap="round" stroke-linejoin="round"/>
<path d="M393.505 203.772C395.207 200.032 392.137 188.718 389.212 183.972" stroke="black" stroke-width="2" stroke-linecap="round" stroke-linejoin="round"/>
<path d="M388.387 202.868C390.317 201.754 387.671 189.901 384.148 186.346" stroke="black" stroke-width="2" stroke-linecap="round" stroke-linejoin="round"/>
<path d="M397.887 124.329C397.887 127.584 399.189 132.792 402.777 134.094M367.289 134.745C367.289 134.745 373.148 124.329 373.148 113.262" stroke="black" stroke-width="2" stroke-linecap="round" stroke-linejoin="round"/>
<path d="M419.18 76.6367C418.626 92.5497 414.447 124.376 402.16 124.376C389.872 124.376 383.203 112.199 381.404 106.11" stroke="black" stroke-width="2" stroke-linecap="round" stroke-linejoin="round"/>
<path d="M410.717 76.8057C407.811 82.2022 403.992 96.8145 405.32 103.788" stroke="black" stroke-width="2" stroke-linecap="round" stroke-linejoin="round"/>
<path d="M396.319 87.9428C396.75 86.8365 397.128 87.4745 397.19 88.2098L396.73 92.4863C396.406 91.2766 395.889 89.0492 396.319 87.9428Z" fill="black" stroke="black" stroke-width="2" stroke-linecap="round" stroke-linejoin="round"/>
<path d="M411.942 91.7602C412.373 90.6538 412.751 91.2919 412.814 92.0272L412.353 96.3037C412.029 95.094 411.512 92.8666 411.942 91.7602Z" fill="black" stroke="black" stroke-width="2" stroke-linecap="round" stroke-linejoin="round"/>
<path d="M398.254 112.092C396.317 111.4 392.359 109.103 392.027 105.45" stroke="black" stroke-width="2" stroke-linecap="round" stroke-linejoin="round"/>
<path fill-rule="evenodd" clip-rule="evenodd" d="M427.065 72.0704C431.626 63.5745 427.135 53.2125 417.102 51.3144C407.641 49.5244 401.015 53.2476 395.284 56.4679C391.711 58.4755 388.486 60.2877 385.138 60.4471C376.421 60.8622 366.043 65.0134 364.797 76.6368C363.875 85.2423 368.808 105.393 371.961 114.93C372.144 115.484 372.915 115.405 372.997 114.828C373.042 114.504 373.089 114.167 373.139 113.817C374.021 107.523 375.473 97.1727 376.776 92.5849C375.299 91.1266 374.241 88.8894 374.1 85.3935C373.799 77.8846 380.902 77.2252 384.114 81.4993L385.069 82.9489C387.247 80.9519 389.449 78.6008 391.117 75.4582C391.258 75.1917 391.578 75.0713 391.855 75.19C393.923 76.0748 402.187 79.4484 410.045 80.3729C417.102 81.2031 423.448 78.8079 427.065 72.0704Z" fill="black"/>
<path d="M417.102 51.3144L416.917 52.297L417.102 51.3144ZM427.065 72.0704L427.946 72.5434H427.946L427.065 72.0704ZM395.284 56.4679L394.794 55.5961V55.5961L395.284 56.4679ZM385.138 60.4471L385.091 59.4482L385.138 60.4471ZM364.797 76.6368L363.803 76.5303L364.797 76.6368ZM371.961 114.93L372.911 114.616H372.911L371.961 114.93ZM372.997 114.828L372.006 114.688V114.688L372.997 114.828ZM373.139 113.817L374.129 113.956V113.956L373.139 113.817ZM376.776 92.5849L377.478 91.8733C377.738 92.1296 377.837 92.5071 377.738 92.8581L376.776 92.5849ZM374.1 85.3935L375.1 85.3534L374.1 85.3935ZM384.114 81.4993L384.914 80.8984C384.926 80.9151 384.938 80.9321 384.95 80.9494L384.114 81.4993ZM385.069 82.9489L385.745 83.686C385.529 83.884 385.237 83.9773 384.946 83.9413C384.655 83.9053 384.395 83.7435 384.234 83.4988L385.069 82.9489ZM391.117 75.4582L392 75.9269L391.117 75.4582ZM391.855 75.19L391.462 76.1094L391.462 76.1094L391.855 75.19ZM410.045 80.3729L410.162 79.3797L410.045 80.3729ZM417.288 50.3319C428.009 52.3601 432.816 63.4735 427.946 72.5434L426.184 71.5975C430.437 63.6756 426.262 54.065 416.917 52.297L417.288 50.3319ZM394.794 55.5961C400.525 52.3761 407.439 48.4684 417.288 50.3319L416.917 52.297C407.844 50.5805 401.506 54.119 395.774 57.3397L394.794 55.5961ZM385.091 59.4482C388.155 59.3023 391.161 57.6374 394.794 55.5961L395.774 57.3397C392.261 59.3136 388.817 61.2731 385.186 61.446L385.091 59.4482ZM363.803 76.5303C364.46 70.397 367.547 66.1975 371.614 63.5051C375.646 60.8348 380.611 59.6615 385.091 59.4482L385.186 61.446C380.948 61.6478 376.365 62.7577 372.718 65.1726C369.104 67.5655 366.38 71.2533 365.792 76.7433L363.803 76.5303ZM371.012 115.244C369.422 110.436 367.391 102.976 365.872 95.6368C364.361 88.3397 363.323 81.008 363.803 76.5303L365.792 76.7433C365.349 80.8712 366.316 87.9176 367.83 95.2314C369.335 102.503 371.347 109.887 372.911 114.616L371.012 115.244ZM373.987 114.967C373.767 116.533 371.545 116.858 371.012 115.244L372.911 114.616C372.885 114.539 372.822 114.445 372.715 114.379C372.616 114.317 372.51 114.299 372.417 114.308C372.325 114.317 372.229 114.356 372.148 114.431C372.061 114.511 372.017 114.61 372.006 114.688L373.987 114.967ZM374.129 113.956C374.08 114.306 374.032 114.643 373.987 114.967L372.006 114.688C372.052 114.365 372.099 114.028 372.148 113.678L374.129 113.956ZM377.738 92.8581C376.459 97.3615 375.017 107.621 374.129 113.956L372.148 113.678C373.025 107.425 374.487 96.9838 375.814 92.3117L377.738 92.8581ZM376.073 93.2965C374.378 91.6228 373.249 89.1244 373.101 85.4336L375.1 85.3534C375.232 88.6545 376.219 90.6304 377.478 91.8733L376.073 93.2965ZM373.101 85.4336C373.02 83.4008 373.436 81.7374 374.244 80.4765C375.057 79.2084 376.229 78.4081 377.532 78.0614C380.11 77.3756 383.091 78.4741 384.914 80.8984L383.315 82.1002C381.925 80.2504 379.748 79.5416 378.047 79.9942C377.21 80.2167 376.463 80.722 375.928 81.5558C375.389 82.3969 375.03 83.6317 375.1 85.3534L373.101 85.4336ZM384.95 80.9494L385.904 82.399L384.234 83.4988L383.279 82.0492L384.95 80.9494ZM392 75.9269C390.257 79.2118 387.963 81.6521 385.745 83.686L384.393 82.2118C386.531 80.2517 388.642 77.9898 390.233 74.9896L392 75.9269ZM391.462 76.1094C391.683 76.2041 391.909 76.0995 392 75.9269L390.233 74.9896C390.608 74.2839 391.473 73.9385 392.249 74.2707L391.462 76.1094ZM409.929 81.366C401.918 80.4236 393.542 76.9994 391.462 76.1094L392.249 74.2707C394.304 75.1503 402.456 78.4732 410.162 79.3797L409.929 81.366ZM427.946 72.5434C424.098 79.7127 417.309 82.2342 409.929 81.366L410.162 79.3797C416.896 80.172 422.799 77.9031 426.184 71.5975L427.946 72.5434Z" fill="black"/>
<path d="M385.001 83.001C381.599 75.8395 373.802 77.8851 374.103 85.394C374.404 92.9029 378.939 94.6047 382.768 95.2543" stroke="black" stroke-width="2" stroke-linecap="round" stroke-linejoin="round"/>
<path d="M418.068 85.9195C417.417 85.0515 415.725 83.3154 414.162 83.3154" stroke="black" stroke-width="2" stroke-linecap="round" stroke-linejoin="round"/>
<path d="M400.498 80.3721C399.253 80.5104 396.43 80.9532 395.101 81.6174" stroke="black" stroke-width="2" stroke-linecap="round" stroke-linejoin="round"/>
<path d="M278.016 82.1766C277.822 76.5346 279.3 65.3671 286.771 65.8341C296.11 66.4177 294.359 75.1727 308.366 75.1727C319.573 75.1727 328.6 56.1064 331.713 46.5732" stroke="#2F62F6" stroke-width="2" stroke-linecap="round" stroke-linejoin="round"/>
<path d="M321.791 41.3202C328.211 36.4564 341.285 31.6314 342.219 51.2425" stroke="#2F62F6" stroke-width="2" stroke-linecap="round" stroke-linejoin="round"/>
<path d="M52.864 245.099C57.4664 246.153 67.1336 250.271 68.9837 258.314C71.2963 268.367 52.4659 269.219 53.8817 263.123C55.2974 257.026 76.8146 261.933 87.7273 284.166" stroke="#2F62F6" stroke-width="2" stroke-linecap="round"/>
<path d="M517 132.052C514.016 130.367 511.868 127.099 510.065 124.107C508.584 121.65 507.046 118.705 506.311 115C505.524 118.155 504.711 121.414 503.065 124.27C501.154 127.594 498.695 130.072 496 131.431C500.124 132.833 503.276 136.808 505.289 140.135C505.876 141.104 506.373 142.38 506.789 144C507.381 141.23 508.205 138.389 509.992 136.35C512.068 133.983 514.365 133.03 516.997 132.055L517 132.052Z" stroke="black" stroke-width="2" stroke-linecap="round" stroke-linejoin="round"/>
<path d="M75 101.828C72.8687 102.932 71.334 105.073 70.0463 107.033C68.9884 108.643 67.89 110.573 67.3649 113C66.8031 110.933 66.222 108.798 65.0463 106.927C63.6815 104.749 61.9247 103.125 60 102.235C62.9459 101.316 65.1969 98.7117 66.6351 96.5321C67.0541 95.8976 67.4093 95.0616 67.7066 94C68.1293 95.815 68.7181 97.6763 69.9942 99.0119C71.4768 100.563 73.1178 101.187 74.9981 101.826L75 101.828Z" stroke="black" stroke-width="2" stroke-linecap="round" stroke-linejoin="round"/>
</svg>
