<svg width="48" height="48" viewBox="0 0 48 48" fill="none" xmlns="http://www.w3.org/2000/svg">
<path fill-rule="evenodd" clip-rule="evenodd" d="M2 9C2 7.34315 3.34315 6 5 6H43C44.6569 6 46 7.34315 46 9V39C46 40.6569 44.6569 42 43 42H5C3.34315 42 2 40.6569 2 39V9ZM5 8C4.44772 8 4 8.44772 4 9V39C4 39.5523 4.44772 40 5 40H43C43.5523 40 44 39.5523 44 39V9C44 8.44772 43.5523 8 43 8H5Z" fill="black"/>
<path fill-rule="evenodd" clip-rule="evenodd" d="M17.5 36C17.5 35.4477 17.9477 35 18.5 35H40C40.5523 35 41 35.4477 41 36C41 36.5523 40.5523 37 40 37H18.5C17.9477 37 17.5 36.5523 17.5 36Z" fill="black"/>
<path fill-rule="evenodd" clip-rule="evenodd" d="M7.5 36C7.5 35.4477 7.94772 35 8.5 35H13C13.5523 35 14 35.4477 14 36C14 36.5523 13.5523 37 13 37H8.5C7.94772 37 7.5 36.5523 7.5 36Z" fill="black"/>
<path fill-rule="evenodd" clip-rule="evenodd" d="M19 16.7413C19 15.1977 20.6744 14.236 22.0077 15.0137L31.0231 20.2727C32.3461 21.0445 32.3461 22.9561 31.0231 23.7278L22.0077 28.9868C20.6744 29.7645 19 28.8028 19 27.2592V16.7413ZM30.0154 22.0003L21 16.7413V27.2592L30.0154 22.0003Z" fill="#2F62F6"/>
</svg>
