<svg width="64" height="64" viewBox="0 0 64 64" fill="none" xmlns="http://www.w3.org/2000/svg">
<path fill-rule="evenodd" clip-rule="evenodd" d="M13.0933 14.0408C13.7737 14.5133 13.9422 15.448 13.4696 16.1284C12.4271 17.6295 11.7512 19.3085 11.4423 21.042C11.2969 21.8576 10.518 22.4009 9.7024 22.2556C8.88682 22.1103 8.34347 21.3313 8.4888 20.5157C8.87167 18.367 9.71046 16.2818 11.0056 14.4171C11.4782 13.7367 12.4129 13.5682 13.0933 14.0408ZM10.0551 26.538C10.8355 26.2603 11.6934 26.6678 11.9712 27.4483C12.5731 29.1397 13.5511 30.7284 14.9087 32.0859C19.7902 36.9675 27.7048 36.9675 32.5863 32.0859C33.1721 31.5001 34.1219 31.5001 34.7076 32.0859C35.2934 32.6717 35.2934 33.6215 34.7076 34.2073C28.6545 40.2604 18.8405 40.2604 12.7873 34.2073C11.1083 32.5282 9.8929 30.5562 9.1448 28.4541C8.86704 27.6736 9.27458 26.8158 10.0551 26.538Z" fill="#2F62F6"/>
<path fill-rule="evenodd" clip-rule="evenodd" d="M9.95946 9.45849C2.34424 17.0737 2.34424 29.4204 9.95946 37.0356C17.5747 44.6509 29.9214 44.6509 37.5366 37.0356C45.1518 29.4204 45.1518 17.0737 37.5366 9.45849C29.9214 1.84326 17.5747 1.84326 9.95946 9.45849ZM7.83814 39.157C-0.948652 30.3702 -0.948652 16.124 7.83814 7.33717C16.6249 -1.44963 30.8711 -1.44963 39.6579 7.33717C48.4447 16.124 48.4447 30.3702 39.6579 39.157C30.8711 47.9438 16.6249 47.9438 7.83814 39.157Z" fill="black"/>
<path fill-rule="evenodd" clip-rule="evenodd" d="M39.6579 48.3494C38.6816 47.373 38.6816 45.7901 39.6579 44.8138L45.3148 39.157C46.2911 38.1807 47.874 38.1807 48.8503 39.157L62.9925 53.2991C63.9688 54.2754 63.9688 55.8583 62.9925 56.8346L57.3356 62.4915C56.3593 63.4678 54.7764 63.4678 53.8001 62.4915L39.6579 48.3494ZM42.1328 46.5816L55.5678 60.0166L60.5176 55.0669L47.0826 41.6318L42.1328 46.5816Z" fill="black"/>
<path fill-rule="evenodd" clip-rule="evenodd" d="M39.6579 45.5209C40.6343 46.4972 42.2172 46.4972 43.1935 45.5209L46.0219 42.6925C46.9982 41.7162 46.9982 40.1333 46.0219 39.157L42.4864 35.6214C41.5101 34.6451 39.9272 34.6451 38.9508 35.6214L36.1224 38.4499C35.1461 39.4262 35.1461 41.0091 36.1224 41.9854L39.6579 45.5209ZM41.4257 43.0461L38.5973 40.2176L40.7186 38.0963L43.547 40.9247L41.4257 43.0461Z" fill="black"/>
</svg>
