<svg width="48" height="48" viewBox="0 0 48 48" fill="none" xmlns="http://www.w3.org/2000/svg">
<path fill-rule="evenodd" clip-rule="evenodd" d="M24.4848 17.4147C26.0469 15.8526 28.5796 15.8526 30.1417 17.4147L31.5559 18.829C33.118 20.391 33.118 22.9237 31.5559 24.4858L29.4346 26.6071C29.0441 26.9976 28.4109 26.9977 28.0204 26.6071C27.6298 26.2166 27.6298 25.5834 28.0204 25.1929L30.1417 23.0716C30.9227 22.2905 30.9227 21.0242 30.1417 20.2432L28.7275 18.829C27.9464 18.0479 26.6801 18.0479 25.899 18.829L23.7777 20.9503C23.3872 21.3408 22.754 21.3408 22.3635 20.9503C21.973 20.5597 21.973 19.9266 22.3635 19.5361L24.4848 17.4147Z" fill="#2F62F6"/>
<path fill-rule="evenodd" clip-rule="evenodd" d="M17.4138 24.4858C15.8517 26.0479 15.8517 28.5806 17.4138 30.1427L18.828 31.5569C20.3901 33.119 22.9227 33.119 24.4848 31.5569L26.6061 29.4356C26.9967 29.045 26.9967 28.4119 26.6061 28.0213C26.2156 27.6308 25.5825 27.6308 25.1919 28.0213L23.0706 30.1427C22.2896 30.9237 21.0232 30.9237 20.2422 30.1427L18.828 28.7284C18.0469 27.9474 18.0469 26.6811 18.828 25.9L20.9493 23.7787C21.3398 23.3882 21.3398 22.755 20.9493 22.3645C20.5588 21.974 19.9256 21.974 19.5351 22.3645L17.4138 24.4858Z" fill="#2F62F6"/>
<path fill-rule="evenodd" clip-rule="evenodd" d="M28.0204 20.9503C28.4109 21.3408 28.4109 21.974 28.0204 22.3645L22.3635 28.0213C21.973 28.4119 21.3398 28.4119 20.9493 28.0213C20.5588 27.6308 20.5588 26.9976 20.9493 26.6071L26.6061 20.9503C26.9967 20.5597 27.6298 20.5597 28.0204 20.9503Z" fill="#2F62F6"/>
<path fill-rule="evenodd" clip-rule="evenodd" d="M16.4143 10.3983C14.3562 13.8284 13.0492 18.6349 13.0492 24.0002C13.0492 27.1578 13.5022 30.1288 14.2988 32.7416C14.4679 33.2963 14.1553 33.8831 13.6006 34.0522C13.0459 34.2213 12.4592 33.9087 12.2901 33.354C11.43 30.533 10.9492 27.355 10.9492 24.0002C10.9492 18.3198 12.3285 13.1263 14.6136 9.31784C16.8861 5.53032 20.1718 2.9502 23.9992 2.9502C27.5481 2.9502 30.6354 5.17274 32.8714 8.50815C33.1943 8.98983 33.0656 9.64207 32.5839 9.96498C32.1022 10.2879 31.45 10.1592 31.1271 9.67749C29.117 6.67903 26.5972 5.0502 23.9992 5.0502C21.1992 5.0502 18.4849 6.94722 16.4143 10.3983ZM34.4141 13.9953C34.9691 13.8272 35.5553 14.1408 35.7234 14.6958C36.574 17.5045 37.0492 20.6649 37.0492 24.0002C37.0492 29.6806 35.6699 34.8741 33.3849 38.6826C31.1124 42.4701 27.8266 45.0502 23.9992 45.0502C20.9857 45.0502 18.297 43.442 16.1929 40.9192C15.8214 40.4739 15.8813 39.8118 16.3267 39.4404C16.772 39.0689 17.4341 39.1288 17.8056 39.5742C19.6419 41.7759 21.788 42.9502 23.9992 42.9502C26.7992 42.9502 29.5135 41.0532 31.5841 37.6021C33.6422 34.172 34.9492 29.3655 34.9492 24.0002C34.9492 20.861 34.5015 17.9063 33.7135 15.3045C33.5455 14.7495 33.8591 14.1634 34.4141 13.9953Z" fill="black"/>
<path fill-rule="evenodd" clip-rule="evenodd" d="M37.6011 16.4153C34.171 14.3572 29.3645 13.0502 23.9992 13.0502C20.8416 13.0502 17.8706 13.5032 15.2578 14.2998C14.7031 14.4689 14.1164 14.1563 13.9472 13.6016C13.7781 13.0469 14.0907 12.4602 14.6454 12.2911C17.4664 11.431 20.6444 10.9502 23.9992 10.9502C29.6796 10.9502 34.8732 12.3295 38.6816 14.6145C42.4691 16.8871 45.0492 20.1728 45.0492 24.0002C45.0492 28.9858 40.7088 33.0326 34.8643 35.1999C34.3206 35.4015 33.7164 35.1242 33.5147 34.5805C33.3131 34.0367 33.5904 33.4325 34.1341 33.2309C39.6921 31.1699 42.9492 27.648 42.9492 24.0002C42.9492 21.2002 41.0522 18.4859 37.6011 16.4153ZM25.0492 36.0002C25.0492 36.5801 24.5791 37.0502 23.9992 37.0502C18.3188 37.0502 13.1253 35.6709 9.31686 33.3858C5.52934 31.1133 2.94922 27.8276 2.94922 24.0002C2.94922 20.9867 4.55744 18.298 7.08017 16.1938C7.5255 15.8224 8.18762 15.8823 8.55905 16.3277C8.93049 16.773 8.87058 17.4351 8.42525 17.8065C6.22354 19.6429 5.04922 21.789 5.04922 24.0002C5.04922 26.8002 6.94625 29.5145 10.3973 31.5851C13.8275 33.6432 18.634 34.9502 23.9992 34.9502C24.5791 34.9502 25.0492 35.4203 25.0492 36.0002Z" fill="black"/>
<path fill-rule="evenodd" clip-rule="evenodd" d="M23.9992 43.0002C34.4926 43.0002 42.9992 34.4936 42.9992 24.0002C42.9992 13.5068 34.4926 5.0002 23.9992 5.0002C13.5058 5.0002 4.99922 13.5068 4.99922 24.0002C4.99922 34.4936 13.5058 43.0002 23.9992 43.0002ZM23.9992 45.0002C35.5972 45.0002 44.9992 35.5982 44.9992 24.0002C44.9992 12.4022 35.5972 3.0002 23.9992 3.0002C12.4012 3.0002 2.99922 12.4022 2.99922 24.0002C2.99922 35.5982 12.4012 45.0002 23.9992 45.0002Z" fill="black"/>
</svg>
