<svg width="48" height="48" viewBox="0 0 48 48" fill="none" xmlns="http://www.w3.org/2000/svg">
<g clip-path="url(#clip0_128_5367)">
<path fill-rule="evenodd" clip-rule="evenodd" d="M41.7593 6.34923C42.1187 6.76855 42.0701 7.39985 41.6508 7.75927L34.6508 13.7593C34.2315 14.1187 33.6002 14.0701 33.2408 13.6508C32.8813 13.2315 32.9299 12.6002 33.3492 12.2408L40.3492 6.24076C40.7686 5.88134 41.3999 5.9299 41.7593 6.34923Z" fill="#2F62F6"/>
<path fill-rule="evenodd" clip-rule="evenodd" d="M34 7.00002C34 6.44773 34.4477 6.00002 35 6.00002H41C41.5523 6.00002 42 6.44773 42 7.00002V13C42 13.5523 41.5523 14 41 14C40.4477 14 40 13.5523 40 13V8.00002H35C34.4477 8.00002 34 7.5523 34 7.00002Z" fill="#2F62F6"/>
<path fill-rule="evenodd" clip-rule="evenodd" d="M41.7593 39.6508C42.1187 39.2315 42.0701 38.6002 41.6508 38.2408L34.6508 32.2408C34.2315 31.8813 33.6002 31.9299 33.2408 32.3492C32.8813 32.7686 32.9299 33.3999 33.3492 33.7593L40.3492 39.7593C40.7686 40.1187 41.3999 40.0701 41.7593 39.6508Z" fill="#2F62F6"/>
<path fill-rule="evenodd" clip-rule="evenodd" d="M34 39C34 39.5523 34.4477 40 35 40H41C41.5523 40 42 39.5523 42 39V33C42 32.4477 41.5523 32 41 32C40.4477 32 40 32.4477 40 33V38H35C34.4477 38 34 38.4477 34 39Z" fill="#2F62F6"/>
<path fill-rule="evenodd" clip-rule="evenodd" d="M47.1917 22.9497C47.1917 23.502 46.744 23.9497 46.1917 23.9497H36.9998C36.4475 23.9497 35.9998 23.502 35.9998 22.9497C35.9998 22.3975 36.4475 21.9497 36.9998 21.9497H46.1917C46.744 21.9497 47.1917 22.3975 47.1917 22.9497Z" fill="#2F62F6"/>
<path fill-rule="evenodd" clip-rule="evenodd" d="M41.2419 18C41.6325 17.6095 42.2656 17.6095 42.6562 18L46.8988 22.2426C47.2893 22.6332 47.2893 23.2663 46.8988 23.6569L42.6562 27.8995C42.2656 28.29 41.6325 28.29 41.2419 27.8995C40.8514 27.509 40.8514 26.8758 41.2419 26.4853L44.7775 22.9497L41.2419 19.4142C40.8514 19.0237 40.8514 18.3905 41.2419 18Z" fill="#2F62F6"/>
<path fill-rule="evenodd" clip-rule="evenodd" d="M3.18258 28.424C3.36991 28.1581 3.6748 28 4 28H10C10.4304 28 10.8126 28.2754 10.9487 28.6838L13.8923 37.5146L16.4811 40.7506C17.5287 42.0601 16.5964 44 14.9194 44H11.8189C9.70581 44 7.82087 42.6716 7.11017 40.6817L3.05826 29.3363C2.94888 29.0301 2.99525 28.6898 3.18258 28.424ZM5.419 30L8.99365 40.009C9.42007 41.203 10.551 42 11.8189 42H14.9194L12.2191 38.6247C12.1454 38.5326 12.0886 38.4281 12.0513 38.3162L9.27924 30H5.419Z" fill="black"/>
<path fill-rule="evenodd" clip-rule="evenodd" d="M22 8C22 5.79086 23.7909 4 26 4C28.2091 4 30 5.79086 30 8V39C30 41.2091 28.2091 43 26 43C23.7909 43 22 41.2091 22 39V21.1875C22 20.6352 22.4477 20.1875 23 20.1875C23.5523 20.1875 24 20.6352 24 21.1875V39C24 40.1046 24.8954 41 26 41C27.1046 41 28 40.1046 28 39V8C28 6.89543 27.1046 6 26 6C24.8954 6 24 6.89543 24 8V14.25C24 14.8023 23.5523 15.25 23 15.25C22.4477 15.25 22 14.8023 22 14.25V8Z" fill="black"/>
<path fill-rule="evenodd" clip-rule="evenodd" d="M23.8638 9.49613C24.1421 9.97318 23.9809 10.5855 23.5039 10.8638L12 17.5744V28.4256L23.5039 35.1362C23.9809 35.4145 24.1421 36.0268 23.8638 36.5039C23.5855 36.9809 22.9732 37.1421 22.4961 36.8638L10 29.5744V16.4256L22.4961 9.13622C22.9732 8.85794 23.5855 9.01908 23.8638 9.49613Z" fill="black"/>
<path fill-rule="evenodd" clip-rule="evenodd" d="M12 16H5C2.23858 16 0 18.2386 0 21V25C0 27.7614 2.23858 30 5 30H12V16ZM10 18V28H5C3.34315 28 2 26.6569 2 25V21C2 19.3431 3.34315 18 5 18H10Z" fill="black"/>
</g>
<defs>
<clipPath id="clip0_128_5367">
<rect width="48" height="48" fill="white"/>
</clipPath>
</defs>
</svg>
