<svg width="64" height="64" viewBox="0 0 64 64" fill="none" xmlns="http://www.w3.org/2000/svg">
<path fill-rule="evenodd" clip-rule="evenodd" d="M32 34C34.7614 34 37 31.7614 37 29C37 26.2386 34.7614 24 32 24C29.2386 24 27 26.2386 27 29C27 31.7614 29.2386 34 32 34ZM32 37C36.4183 37 40 33.4183 40 29C40 24.5817 36.4183 21 32 21C27.5817 21 24 24.5817 24 29C24 33.4183 27.5817 37 32 37Z" fill="#2F62F6"/>
<path fill-rule="evenodd" clip-rule="evenodd" d="M7 16V42H57V16H7ZM6 13C4.89543 13 4 13.8954 4 15V43C4 44.1046 4.89543 45 6 45H58C59.1046 45 60 44.1046 60 43V15C60 13.8954 59.1046 13 58 13H6Z" fill="black"/>
<path fill-rule="evenodd" clip-rule="evenodd" d="M4.5 53C4.5 52.1716 5.17157 51.5 6 51.5H58C58.8284 51.5 59.5 52.1716 59.5 53C59.5 53.8284 58.8284 54.5 58 54.5H6C5.17157 54.5 4.5 53.8284 4.5 53Z" fill="black"/>
<path fill-rule="evenodd" clip-rule="evenodd" d="M4.5 61C4.5 60.1716 5.17157 59.5 6 59.5H58C58.8284 59.5 59.5 60.1716 59.5 61C59.5 61.8284 58.8284 62.5 58 62.5H6C5.17157 62.5 4.5 61.8284 4.5 61Z" fill="black"/>
</svg>
