<svg width="64" height="64" viewBox="0 0 64 64" fill="none" xmlns="http://www.w3.org/2000/svg">
<path fill-rule="evenodd" clip-rule="evenodd" d="M25 4.5C21.9624 4.5 19.5 6.96243 19.5 10V14C19.5 14.1698 19.5121 14.3367 19.5354 14.5H6C4.067 14.5 2.5 16.067 2.5 18V30.9296C2.5 32.0999 3.08485 33.1927 4.05855 33.8418L8.6641 36.9122C9.23904 37.2955 9.91456 37.5 10.6056 37.5H53.3944C54.0854 37.5 54.761 37.2955 55.3359 36.9122L56.5 36.1361V55.5H7.5V40.5C7.5 39.6716 6.82843 39 6 39C5.17157 39 4.5 39.6716 4.5 40.5V57C4.5 57.8284 5.17157 58.5 6 58.5H58C58.8284 58.5 59.5 57.8284 59.5 57V34.1361L59.9415 33.8418C60.9151 33.1927 61.5 32.0999 61.5 30.9296V18C61.5 16.067 59.933 14.5 58 14.5H44.4646C44.4879 14.3367 44.5 14.1698 44.5 14V10C44.5 6.96243 42.0376 4.5 39 4.5H25ZM41 14.5C41.2761 14.5 41.5 14.2761 41.5 14V10C41.5 8.61929 40.3807 7.5 39 7.5H25C23.6193 7.5 22.5 8.61929 22.5 10V14C22.5 14.2761 22.7239 14.5 23 14.5H41ZM6 17.5C5.72386 17.5 5.5 17.7239 5.5 18V30.9296C5.5 31.0968 5.58355 31.2529 5.72265 31.3457L10.3282 34.416C10.4103 34.4708 10.5068 34.5 10.6056 34.5H53.3944C53.4932 34.5 53.5897 34.4708 53.6718 34.416L58.2774 31.3457C58.4165 31.2529 58.5 31.0968 58.5 30.9296V18C58.5 17.7239 58.2761 17.5 58 17.5H6Z" fill="black"/>
<rect x="14" y="30" width="8" height="12" rx="2" fill="#2F62F6"/>
<rect x="42" y="30" width="8" height="12" rx="2" fill="#2F62F6"/>
</svg>
