<svg width="48" height="48" viewBox="0 0 48 48" fill="none" xmlns="http://www.w3.org/2000/svg">
<path fill-rule="evenodd" clip-rule="evenodd" d="M44 24C44.5523 24 45 24.4477 45 25V43C45 43.5523 44.5523 44 44 44H4C3.44772 44 3 43.5523 3 43V30.087C3 29.5347 3.44772 29.087 4 29.087C4.55228 29.087 5 29.5347 5 30.087V42H43V25C43 24.4477 43.4477 24 44 24Z" fill="black"/>
<path fill-rule="evenodd" clip-rule="evenodd" d="M2 13.5C2 12.1193 3.11929 11 4.5 11H43.5C44.8807 11 46 12.1193 46 13.5V23.1972C46 24.0331 45.5822 24.8137 44.8867 25.2774L41.4326 27.5801C41.0219 27.8539 40.5394 28 40.0458 28H7.95416C7.4606 28 6.97808 27.8539 6.56741 27.5801L3.11325 25.2774C2.41775 24.8137 2 24.0331 2 23.1972V13.5ZM4.5 13C4.22386 13 4 13.2239 4 13.5V23.1972C4 23.3644 4.08355 23.5205 4.22265 23.6133L7.67681 25.916C7.75895 25.9708 7.85545 26 7.95416 26H40.0458C40.1446 26 40.2411 25.9708 40.3232 25.916L43.7774 23.6133C43.9165 23.5205 44 23.3644 44 23.1972V13.5C44 13.2239 43.7761 13 43.5 13H4.5Z" fill="black"/>
<path fill-rule="evenodd" clip-rule="evenodd" d="M16 9C16 6.79086 17.7909 5 20 5H28C30.2091 5 32 6.79086 32 9V10.5C32 11.8807 30.8807 13 29.5 13H18.5C17.1193 13 16 11.8807 16 10.5V9ZM20 7C18.8954 7 18 7.89543 18 9V10.5C18 10.7761 18.2239 11 18.5 11H29.5C29.7761 11 30 10.7761 30 10.5V9C30 7.89543 29.1046 7 28 7H20Z" fill="black"/>
<rect x="10" y="22.5" width="6" height="9" rx="1.5" fill="#2F62F6"/>
<rect x="32" y="22.5" width="6" height="9" rx="1.5" fill="#2F62F6"/>
</svg>
