<svg width="64" height="64" viewBox="0 0 64 64" fill="none" xmlns="http://www.w3.org/2000/svg">
<path fill-rule="evenodd" clip-rule="evenodd" d="M22.5 29C22.5 27.6193 23.6193 26.5 25 26.5H39C40.3807 26.5 41.5 27.6193 41.5 29V59C41.5 60.3807 40.3807 61.5 39 61.5H25C23.6193 61.5 22.5 60.3807 22.5 59V29ZM25.5 29.5V58.5H38.5V29.5H25.5Z" fill="black"/>
<path fill-rule="evenodd" clip-rule="evenodd" d="M8.5 41C8.5 39.6193 9.61929 38.5 11 38.5H19C19.8284 38.5 20.5 39.1716 20.5 40C20.5 40.8284 19.8284 41.5 19 41.5H11.5V60C11.5 60.8284 10.8284 61.5 10 61.5C9.17157 61.5 8.5 60.8284 8.5 60V41Z" fill="black"/>
<path fill-rule="evenodd" clip-rule="evenodd" d="M55.5 47C55.5 45.6193 54.3807 44.5 53 44.5H45C44.1716 44.5 43.5 45.1716 43.5 46C43.5 46.8284 44.1716 47.5 45 47.5H52.5V60C52.5 60.8284 53.1716 61.5 54 61.5C54.8284 61.5 55.5 60.8284 55.5 60V47Z" fill="black"/>
<path fill-rule="evenodd" clip-rule="evenodd" d="M4.5 60C4.5 59.1716 5.17157 58.5 6 58.5H58C58.8284 58.5 59.5 59.1716 59.5 60C59.5 60.8284 58.8284 61.5 58 61.5H6C5.17157 61.5 4.5 60.8284 4.5 60Z" fill="black"/>
<path fill-rule="evenodd" clip-rule="evenodd" d="M32.0002 7.30692L30.4283 9.60048C29.9182 10.3448 29.1671 10.8905 28.3015 11.1457L25.6345 11.9319L27.33 14.1356C27.8803 14.8507 28.1672 15.7337 28.1424 16.6357L28.066 19.4152L30.6857 18.4836C31.5359 18.1812 32.4644 18.1812 33.3146 18.4836L35.9344 19.4152L35.8579 16.6357C35.8331 15.7337 36.12 14.8507 36.6703 14.1356L38.3659 11.9319L35.6988 11.1457C34.8333 10.8905 34.0822 10.3448 33.572 9.60048L32.0002 7.30692ZM32.7616 3.1112C32.3949 2.57621 31.6054 2.57621 31.2387 3.1112L27.9537 7.90452C27.8336 8.07965 27.6569 8.20806 27.4533 8.26809L21.8794 9.91116C21.2573 10.0945 21.0133 10.8454 21.4088 11.3595L24.9524 15.965C25.0819 16.1332 25.1494 16.341 25.1435 16.5532L24.9838 22.362C24.9659 23.0104 25.6047 23.4744 26.2158 23.2571L31.6909 21.3102C31.8909 21.239 32.1094 21.239 32.3094 21.3102L37.7846 23.2571C38.3956 23.4744 39.0344 23.0104 39.0166 22.362L38.8568 16.5532C38.851 16.341 38.9185 16.1332 39.0479 15.965L42.5915 11.3595C42.987 10.8454 42.743 10.0945 42.1209 9.91116L36.5471 8.26809C36.3434 8.20806 36.1667 8.07965 36.0467 7.90452L32.7616 3.1112Z" fill="#2F62F6"/>
</svg>
