<svg width="48" height="48" viewBox="0 0 48 48" fill="none" xmlns="http://www.w3.org/2000/svg">
<path fill-rule="evenodd" clip-rule="evenodd" d="M5 8C5 6.34315 6.34315 5 8 5H40C41.6569 5 43 6.34315 43 8V36C43 37.6569 41.6569 39 40 39H33.7604C33.5155 39 33.2791 39.0899 33.096 39.2526L25.9931 45.5663C24.8564 46.5767 23.1436 46.5767 22.0069 45.5663L14.904 39.2526C14.7209 39.0899 14.4845 39 14.2396 39H8C6.34315 39 5 37.6569 5 36V19C5 18.4477 5.44772 18 6 18C6.55228 18 7 18.4477 7 19V36C7 36.5523 7.44772 37 8 37H14.2396C14.9743 37 15.6835 37.2696 16.2327 37.7578L23.3356 44.0715C23.7145 44.4083 24.2855 44.4083 24.6644 44.0715L31.7673 37.7578C32.3165 37.2696 33.0257 37 33.7604 37H40C40.5523 37 41 36.5523 41 36V8C41 7.44772 40.5523 7 40 7H8C7.44772 7 7 7.44772 7 8V12.5C7 13.0523 6.55228 13.5 6 13.5C5.44772 13.5 5 13.0523 5 12.5V8Z" fill="black"/>
<path fill-rule="evenodd" clip-rule="evenodd" d="M24.0002 14.538L21.6034 18.0352C21.2233 18.5898 20.6637 18.9964 20.0188 19.1865L15.9522 20.3852L18.5375 23.7454C18.9475 24.2782 19.1613 24.9361 19.1428 25.6082L19.0262 29.8463L23.0208 28.4258C23.6543 28.2005 24.3461 28.2005 24.9795 28.4258L28.9741 29.8463L28.8576 25.6082C28.8391 24.9361 29.0528 24.2782 29.4628 23.7454L32.0482 20.3852L27.9816 19.1865C27.3367 18.9964 26.777 18.5898 26.3969 18.0352L24.0002 14.538ZM24.7616 12.1112C24.3949 11.5762 23.6054 11.5762 23.2387 12.1112L19.9537 16.9045C19.8336 17.0797 19.6569 17.2081 19.4533 17.2681L13.8794 18.9112C13.2573 19.0945 13.0133 19.8454 13.4088 20.3595L16.9524 24.965C17.0819 25.1332 17.1494 25.341 17.1435 25.5532L16.9838 31.362C16.9659 32.0104 17.6047 32.4744 18.2158 32.2571L23.6909 30.3102C23.8909 30.239 24.1094 30.239 24.3094 30.3102L29.7846 32.2571C30.3956 32.4744 31.0344 32.0104 31.0166 31.362L30.8568 25.5532C30.851 25.341 30.9185 25.1332 31.0479 24.965L34.5915 20.3595C34.987 19.8454 34.743 19.0945 34.1209 18.9112L28.5471 17.2681C28.3434 17.2081 28.1667 17.0797 28.0467 16.9045L24.7616 12.1112Z" fill="#2F62F6"/>
</svg>
