<svg width="48" height="48" viewBox="0 0 48 48" fill="none" xmlns="http://www.w3.org/2000/svg">
<path fill-rule="evenodd" clip-rule="evenodd" d="M12.2001 23.4001C12.5314 22.9582 13.1582 22.8687 13.6001 23.2001L21.6001 29.2001C21.8519 29.3889 22.0001 29.6853 22.0001 30.0001C22.0001 30.3148 21.8519 30.6112 21.6001 30.8001L13.6001 36.8001C13.1582 37.1314 12.5314 37.0419 12.2001 36.6001C11.8687 36.1582 11.9582 35.5314 12.4001 35.2001L19.3334 30.0001L12.4001 24.8001C11.9582 24.4687 11.8687 23.8419 12.2001 23.4001Z" fill="#2F62F6"/>
<path fill-rule="evenodd" clip-rule="evenodd" d="M24.0001 36.0001C24.0001 35.4478 24.4478 35.0001 25.0001 35.0001H34.0001C34.5523 35.0001 35.0001 35.4478 35.0001 36.0001C35.0001 36.5523 34.5523 37.0001 34.0001 37.0001H25.0001C24.4478 37.0001 24.0001 36.5523 24.0001 36.0001Z" fill="#2F62F6"/>
<path fill-rule="evenodd" clip-rule="evenodd" d="M3 9C3 7.34315 4.34315 6 6 6H42C43.6569 6 45 7.34315 45 9V41C45 42.6569 43.6569 44 42 44H6C4.34315 44 3 42.6569 3 41V9ZM6 8C5.44772 8 5 8.44772 5 9V41C5 41.5523 5.44772 42 6 42H42C42.5523 42 43 41.5523 43 41V9C43 8.44772 42.5523 8 42 8H6Z" fill="black"/>
<path fill-rule="evenodd" clip-rule="evenodd" d="M3 17C3 16.4477 3.44772 16 4 16H44C44.5523 16 45 16.4477 45 17C45 17.5523 44.5523 18 44 18H4C3.44772 18 3 17.5523 3 17Z" fill="black"/>
<path d="M10 12C10 12.5523 9.55228 13 9 13C8.44772 13 8 12.5523 8 12C8 11.4477 8.44772 11 9 11C9.55228 11 10 11.4477 10 12Z" fill="black"/>
<path d="M14 12C14 12.5523 13.5523 13 13 13C12.4477 13 12 12.5523 12 12C12 11.4477 12.4477 11 13 11C13.5523 11 14 11.4477 14 12Z" fill="black"/>
</svg>
