<svg width="48" height="48" viewBox="0 0 48 48" fill="none" xmlns="http://www.w3.org/2000/svg">
<path fill-rule="evenodd" clip-rule="evenodd" d="M9.00005 18C9.55233 18 10 18.4477 10 19V41C10 41.5523 10.4478 42 11 42H37C37.5523 42 38 41.5523 38 41V19C38 18.4477 38.4478 18 39 18C39.5523 18 40 18.4477 40 19V41C40 42.6569 38.6569 44 37 44H11C9.34319 44 8.00005 42.6569 8.00005 41V19C8.00005 18.4477 8.44776 18 9.00005 18Z" fill="black"/>
<path fill-rule="evenodd" clip-rule="evenodd" d="M23.3861 6.21065C23.7472 5.92978 24.2529 5.92978 24.614 6.21065L42.614 20.2106C43.0499 20.5497 43.1285 21.178 42.7894 21.6139C42.4503 22.0499 41.8221 22.1284 41.3861 21.7894L24 8.26686L6.61399 21.7894C6.17804 22.1284 5.54976 22.0499 5.21069 21.6139C4.87162 21.178 4.95016 20.5497 5.38611 20.2106L23.3861 6.21065Z" fill="black"/>
<path fill-rule="evenodd" clip-rule="evenodd" d="M23.9995 28C26.2087 28 27.9995 26.2091 27.9995 24C27.9995 21.7909 26.2087 20 23.9995 20C21.7904 20 19.9995 21.7909 19.9995 24C19.9995 26.2091 21.7904 28 23.9995 28ZM23.9995 30C27.3132 30 29.9995 27.3137 29.9995 24C29.9995 20.6863 27.3132 18 23.9995 18C20.6858 18 17.9995 20.6863 17.9995 24C17.9995 27.3137 20.6858 30 23.9995 30Z" fill="#2F62F6"/>
<path fill-rule="evenodd" clip-rule="evenodd" d="M23.9995 33C19.6029 33 17.7624 35.1761 17.2033 36.8465C17.1992 36.8589 17.198 36.8664 17.1977 36.8701C17.1992 36.8735 17.2035 36.8816 17.2142 36.8936C17.2541 36.9383 17.3535 37 17.4992 37H30.4999C30.6456 37 30.745 36.9383 30.7849 36.8936C30.7956 36.8816 30.7999 36.8735 30.8014 36.8701C30.8011 36.8664 30.7999 36.8589 30.7957 36.8465C30.2366 35.1761 28.3962 33 23.9995 33ZM15.3068 36.2117C16.1546 33.6784 18.794 31 23.9995 31C29.205 31 31.8444 33.6784 32.6923 36.2117C32.9473 36.9737 32.7356 37.7111 32.2776 38.2247C31.8368 38.719 31.1827 39 30.4999 39H17.4992C16.8164 39 16.1623 38.719 15.7215 38.2247C15.2635 37.7111 15.0517 36.9737 15.3068 36.2117Z" fill="#2F62F6"/>
</svg>
