<svg width="220" height="249" viewBox="0 0 220 249" fill="none" xmlns="http://www.w3.org/2000/svg">
<path d="M212.782 44.4425C211.022 42.5192 42.1463 42.5192 39.2144 44.4425C36.2825 48.9304 39.2144 171.385 42.1463 173.308C45.0782 175.232 212.782 172.667 215.127 171.385C217.473 170.103 214.541 46.3659 212.782 44.4425Z" stroke="black" stroke-width="2" stroke-linecap="round" stroke-linejoin="round"/>
<path d="M56 221L201.897 218.782C203.173 218.762 203.876 217.293 203.092 216.287L184.619 192.595C184.327 192.219 183.877 192 183.401 192H84.5648" stroke="black" stroke-width="2" stroke-linecap="round" stroke-linejoin="round"/>
<path d="M111.293 198.588L115.463 174.119H140.479L143.606 198.588L152.987 199.548L159.241 205.785H95.1367L101.912 199.548L111.293 198.588Z" fill="black" stroke="black" stroke-width="2" stroke-linecap="round" stroke-linejoin="round"/>
<path d="M47.4518 151.34C50.1899 153.176 206.81 150.728 209 149.504C209 116.636 208.641 50.7749 207.205 50.2757C205.769 49.7764 98.509 50.0676 45.0585 50.2757C44.859 82.0794 45.0585 146.817 47.4518 151.34Z" stroke="black" stroke-width="2" stroke-linecap="round" stroke-linejoin="round"/>
<path d="M160.108 244.336C147.029 240.226 148.414 231.775 148.518 231.234C148.521 231.215 148.525 231.197 148.529 231.179C148.643 230.617 150.681 221.775 164.742 223.869C182.892 226.572 189.071 239.702 186.754 245.495C185.209 249.356 173.624 248.584 160.108 244.336Z" stroke="black" stroke-width="2" stroke-linecap="round" stroke-linejoin="round"/>
<path d="M148.428 231.658C150.23 235.777 160.322 244.325 186.273 245.56" stroke="black" stroke-width="2" stroke-linecap="round" stroke-linejoin="round"/>
<path d="M165.464 229.625C166.342 227.351 158.595 225.395 157.834 227.297C156.617 230.34 164.404 231.994 165.379 229.831C165.409 229.764 165.438 229.693 165.464 229.625Z" stroke="black" stroke-width="2" stroke-linecap="round" stroke-linejoin="round"/>
<path d="M150.744 227.796C151.774 227.281 155.301 226.406 158.081 227.024" stroke="black" stroke-width="2" stroke-linecap="round" stroke-linejoin="round"/>
<path d="M76.1937 117.511H67.3023C66.5016 117.511 65.8331 118.121 65.7715 118.92C65.4138 123.551 65.0604 130.938 65.8875 131.928C67.0343 133.301 77.7383 133.301 77.7383 131.928V119.053C77.7383 118.2 77.0468 117.511 76.1937 117.511Z" stroke="#2F62F6" stroke-width="2" stroke-linecap="round" stroke-linejoin="round"/>
<path d="M96.2737 106.698H87.4344C86.6123 106.698 85.934 107.342 85.8948 108.163C85.5243 115.935 85.1071 129.456 85.9675 131.207C87.1144 133.541 97.8184 133.541 97.8184 131.207V108.241C97.8184 107.388 97.1268 106.698 96.2737 106.698Z" stroke="#2F62F6" stroke-width="2" stroke-linecap="round" stroke-linejoin="round"/>
<path d="M116.356 132.958H107.547C106.712 132.958 106.029 132.302 106.004 131.468C105.628 118.847 105.168 95.5453 106.05 92.5902C107.196 88.7457 117.9 88.7457 117.9 92.5902V131.42C117.9 132.273 117.209 132.958 116.356 132.958Z" stroke="#2F62F6" stroke-width="2" stroke-linecap="round" stroke-linejoin="round"/>
<path d="M61.5195 104.381C67.7447 98.9103 81.2067 87.9687 85.2531 87.9687C90.3111 87.9687 92.6455 90.865 95.7581 90.5432C98.8707 90.2214 112.488 74.1309 113.266 73.4873" stroke="#2F62F6" stroke-width="2" stroke-linecap="round" stroke-linejoin="round"/>
<path d="M105.543 68.8534C108.153 67.6226 117.745 64.8697 119.059 66.1502C120.373 67.4307 119.059 77.7351 119.059 77.7351" stroke="#2F62F6" stroke-width="2" stroke-linecap="round" stroke-linejoin="round"/>
<path d="M195.542 103.381C195.542 119.164 183.094 131.958 167.738 131.958C152.382 131.958 139.934 119.164 139.934 103.381C139.934 98.1763 141.288 93.2963 143.653 89.093L167.738 103.381C167.738 103.381 165.421 74.8047 167.738 74.8047C183.094 74.8047 195.542 87.5989 195.542 103.381Z" stroke="#2F62F6" stroke-width="2" stroke-linecap="round" stroke-linejoin="round"/>
<path d="M167.738 131.958C183.094 131.958 195.542 119.164 195.542 103.381C195.542 87.5989 183.094 74.8047 167.738 74.8047C165.421 74.8047 167.738 103.381 167.738 103.381L151.387 124.589C150.876 125.252 150.983 126.204 151.658 126.698C156.198 130.01 161.747 131.958 167.738 131.958Z" stroke="black" stroke-width="2" stroke-linecap="round" stroke-linejoin="round"/>
<path d="M75.8321 227.001C55.2574 227.151 14.552 227.623 13.0415 228.331C12.9948 228.353 13 228.39 13 228.442V231.156C13 231.37 13.1655 231.544 13.3801 231.542C30.5383 231.391 65.6237 231.185 71.7189 231.545C75.1551 231.749 78.1908 231.725 80.4223 231.744C80.8848 231.747 81.3362 230.347 80.9431 230.104L76.0354 227.059C75.9734 227.02 75.905 227 75.8321 227.001Z" fill="#2F62F6" stroke="#2F62F6" stroke-width="2" stroke-linecap="round" stroke-linejoin="round"/>
<path d="M13.3797 209.003C34.7096 209.154 77 209.008 77 210.406V218.717C77 218.92 76.8426 219.089 76.6399 219.102L61.3902 220.133L76.6399 221.163C76.8426 221.177 77 221.345 77 221.548V223.61C77 223.825 76.8366 223.999 76.622 223.997C59.4473 223.844 20.6962 223.636 13.3864 223.98C13.1642 223.99 13.0002 223.812 13.0002 223.59L13.0001 215.466C13.0001 215.258 13.1647 215.088 13.3724 215.08L39.1463 214.156L13.3655 212.77C13.1606 212.759 13.0001 212.589 13 212.384L13 209.389C13 209.175 13.1653 209.001 13.3797 209.003Z" fill="#2F62F6" stroke="#2F62F6" stroke-width="2" stroke-linecap="round" stroke-linejoin="round"/>
<path d="M76.5958 202.001C56.1006 202.143 15.627 202.587 14.046 203.253C13.996 203.274 14 203.314 14 203.368V205.896C14 206.111 14.1654 206.284 14.38 206.283C31.4817 206.14 66.4497 205.945 72.5246 206.286C76.7149 206.52 79.9489 207.036 81.981 207.476C82.3997 207.567 82.7207 206.944 82.3903 206.671L76.8404 202.089C76.7705 202.032 76.6864 202 76.5958 202.001Z" fill="#2F62F6" stroke="#2F62F6" stroke-width="2" stroke-linecap="round" stroke-linejoin="round"/>
<path d="M13.4348 183.001C34.0078 183.148 75.3614 182.741 76.9543 183.423C77.0044 183.445 76.9993 183.485 76.998 183.54L76.6255 198.623C76.6203 198.833 76.4762 199 76.2666 199C70.0583 199 24.5334 198.991 14.772 198.558C14.5716 198.549 14.4379 198.389 14.4308 198.188L14.1366 189.777C14.1293 189.567 14.2907 189.39 14.5001 189.378L45.5617 187.571H14.0595C10.6276 187.776 8.91399 188.18 7.84663 188.577C7.44739 188.725 7.20071 188.346 7.52083 188.065L13.1814 183.097C13.2526 183.035 13.3401 183 13.4348 183.001Z" fill="#2F62F6"/>
</svg>
