<svg width="220" height="248" viewBox="0 0 220 248" fill="none" xmlns="http://www.w3.org/2000/svg">
<path d="M115.887 65.4366C114.394 55.142 112.43 35.7498 112.412 16.4888" stroke="black" stroke-width="2" stroke-linecap="round" stroke-linejoin="round"/>
<path d="M152.621 11.7333C146.641 38.5909 135.702 70.7454 142.685 78.4545C151.414 88.0909 168.976 96.0805 166.769 100.232C165.004 103.554 158.479 103.484 155.437 103.034" stroke="black" stroke-width="2" stroke-linecap="round" stroke-linejoin="round"/>
<path d="M153.808 98.2187C154.235 101.617 155.148 109.013 155.381 111.411" stroke="black" stroke-width="2" stroke-linecap="round" stroke-linejoin="round"/>
<path d="M159.292 107.715C159.984 110.576 160.52 117.02 157.12 119.904C153.72 122.787 146.281 115.418 142.987 111.373" stroke="black" stroke-width="2" stroke-linecap="round" stroke-linejoin="round"/>
<path d="M146.086 120.231C143.339 120.954 136.557 119.575 131.412 108.272" stroke="black" stroke-width="2" stroke-linecap="round" stroke-linejoin="round"/>
<path d="M134.53 121.148C133.002 120.495 128.769 117.05 124.057 108.49" stroke="black" stroke-width="2" stroke-linecap="round" stroke-linejoin="round"/>
<path d="M126.992 122.048C120.949 118.726 110.039 105.246 114.74 77.8992" stroke="black" stroke-width="2" stroke-linecap="round" stroke-linejoin="round"/>
<path d="M142.309 70.3269C140.598 70.3552 136.16 70.9416 135.542 71.068L135.397 59.3533C135.397 59.3533 140.528 59.2687 142.231 59.7247C143.933 60.1808 144.019 70.2987 142.309 70.3269Z" fill="white" stroke="black" stroke-width="2" stroke-linecap="round" stroke-linejoin="round"/>
<path d="M110.498 55.6003C107.315 60.4207 108.727 74.464 111.359 75.5342C114.921 77.2185 131.153 77.9188 134.448 75.153C137.743 72.3873 136.776 58.1075 134.857 55.9244C132.34 53.0607 112.954 51.88 110.498 55.6003Z" fill="#2F62F6" stroke="#2F62F6" stroke-width="2" stroke-linecap="round" stroke-linejoin="round"/>
<path d="M116.228 65.5281L121.037 69.3706" stroke="white" stroke-width="2" stroke-linecap="round" stroke-linejoin="round"/>
<path d="M116.011 58.1723L131.117 69.8822" stroke="white" stroke-width="2" stroke-linecap="round" stroke-linejoin="round"/>
<path d="M149.594 178.108C148.734 179.67 160.044 214.694 170.532 244.092C194.661 218.064 214.035 229.47 214.7 227.801C215.365 226.131 178.371 161.892 175.662 161.036C172.952 160.18 150.669 176.155 149.594 178.108Z" fill="black" stroke="black" stroke-width="2" stroke-linecap="round" stroke-linejoin="round"/>
<path d="M172.513 158.666C168.233 148.803 157.069 128.812 146.655 127.76M134.544 131.27C138.065 130.961 146.453 131.593 151.841 136.596" stroke="black" stroke-width="2" stroke-linecap="round" stroke-linejoin="round"/>
<path d="M124.734 135.918C127.637 134.421 135.614 133.258 144.302 140.586" stroke="black" stroke-width="2" stroke-linecap="round" stroke-linejoin="round"/>
<path d="M120.447 153.406C118.843 151.081 116.048 145.36 117.694 141.076C119.341 136.792 129.539 139.667 134.432 141.641" stroke="black" stroke-width="2" stroke-linecap="round" stroke-linejoin="round"/>
<path d="M128.914 159.978C126.86 156.854 122.62 150.151 122.094 148.334" stroke="black" stroke-width="2" stroke-linecap="round" stroke-linejoin="round"/>
<path d="M146.827 173.658C137.498 172.423 120.735 167.603 118.069 160.494C116.626 156.646 122.681 154.891 125.518 155.054" stroke="black" stroke-width="2" stroke-linecap="round" stroke-linejoin="round"/>
<path d="M78.3384 203.111C78.6908 204.168 85.3872 206.635 85.7396 207.34C86.0987 207.692 85.7395 215.446 86.4444 215.799C87.1492 216.151 92.0834 210.512 92.7883 210.512C93.4931 210.512 100.189 214.389 100.542 213.684C100.894 212.979 96.6651 205.225 97.0175 204.168C97.37 203.11 102.657 196.414 102.304 195.709C101.952 195.004 94.198 197.824 93.8456 197.824C93.4931 197.824 88.2066 190.423 87.8541 190.775C87.5017 191.128 86.0921 199.586 85.7396 199.939C85.3872 200.291 77.9859 202.054 78.3384 203.111Z" fill="#2F62F6" stroke="#2F62F6" stroke-width="2" stroke-linecap="round" stroke-linejoin="round"/>
<path d="M60.9027 47.3481C61.5759 47.6847 65.9513 45.665 66.4562 45.8333C66.7958 45.8299 70.3269 49.7042 70.8318 49.5359C71.3367 49.3676 70.9999 44.3187 71.3365 43.9822C71.6731 43.6456 76.7218 42.2992 76.5535 41.7944C76.3852 41.2895 70.6633 39.6066 70.3268 38.9334C69.9902 38.2603 69.317 32.5384 68.8121 32.3701C68.3073 32.2018 65.9512 37.2505 65.7829 37.4188C65.6146 37.5871 59.5562 36.5774 59.5562 36.914C59.5562 37.2505 62.9221 41.9626 62.9221 42.2992C62.9221 42.6358 60.2295 47.0115 60.9027 47.3481Z" stroke="black" stroke-width="2" stroke-linecap="round" stroke-linejoin="round"/>
<path d="M186.096 120.207C186.769 120.544 191.145 118.524 191.65 118.693C191.989 118.689 195.52 122.564 196.025 122.395C196.53 122.227 196.193 117.178 196.53 116.842C196.866 116.505 201.915 115.159 201.747 114.654C201.579 114.149 195.857 112.466 195.52 111.793C195.184 111.12 194.51 105.398 194.006 105.229C193.501 105.061 191.145 110.11 190.976 110.278C190.808 110.446 184.75 109.437 184.75 109.773C184.75 110.11 188.115 114.822 188.115 115.159C188.115 115.495 185.423 119.871 186.096 120.207Z" stroke="#2F62F6" stroke-width="2" stroke-linecap="round" stroke-linejoin="round"/>
<path d="M103.065 104.668C100.198 103.332 92.5849 100.923 85.0715 101.974C79.4494 102.76 62.5508 110.05 49 116.27" stroke="black" stroke-width="2" stroke-linecap="round" stroke-linejoin="round"/>
<path d="M92.2148 109.359C95.1226 108.274 102.639 107.256 109.442 111.87" stroke="black" stroke-width="2" stroke-linecap="round" stroke-linejoin="round"/>
<path d="M95.7969 116.053C99.5465 115.061 108.6 114.844 114.815 121.91" stroke="black" stroke-width="2" stroke-linecap="round" stroke-linejoin="round"/>
<path d="M105.919 123.181C109.675 124.19 117.29 127.399 117.703 132.166C118.116 136.933 110.029 139.835 105.934 140.69" stroke="black" stroke-width="2" stroke-linecap="round" stroke-linejoin="round"/>
<path d="M109.391 134.388C105.774 135.952 98.1523 139.213 96.5977 139.748" stroke="black" stroke-width="2" stroke-linecap="round" stroke-linejoin="round"/>
<path d="M102.697 137.968C104.884 140.113 108.37 145.131 104.82 148.04C100.382 151.676 81.1609 140.583 72.6763 140.817C69.7536 140.898 65.5048 142.231 61.125 143.999" stroke="black" stroke-width="2" stroke-linecap="round" stroke-linejoin="round"/>
<path d="M17.5 179.999C30.0185 170.781 49.5533 155.49 59.276 147.885C54.2635 136.924 43.9451 114.838 42.7719 114.182C41.8488 113.666 23.9235 120.396 3.49955 127.999" stroke="#2F62F6" stroke-width="2" stroke-linecap="round" stroke-linejoin="round"/>
<path d="M28.824 118.98C31.5558 120.175 37.4013 123.546 38.9283 127.474C40.8369 132.383 32.4591 137.734 36.1851 144.584C39.9112 151.434 46.7103 148.474 51.6573 153.872" stroke="#2F62F6" stroke-width="2" stroke-linecap="round" stroke-linejoin="round"/>
<path d="M7.01261 126.977C9.74448 128.172 15.59 131.544 17.1169 135.471C19.0256 140.38 9.53555 144.49 13.2616 151.34C16.9876 158.19 22.9237 155.744 27.8707 161.142C31.1441 167.505 26.1589 172.922 24.2784 174.647" stroke="#2F62F6" stroke-width="2" stroke-linecap="round" stroke-linejoin="round"/>
<path d="M173.498 58.9629C177.257 52.9714 184.917 40.6361 185.481 39.2263" stroke="black" stroke-width="2" stroke-linecap="round" stroke-linejoin="round"/>
<path d="M176.316 73.4131L207.683 52.9716" stroke="black" stroke-width="2" stroke-linecap="round" stroke-linejoin="round"/>
<path d="M53.2852 90.7852C60.6864 90.1978 75.7708 89.023 76.8986 89.023" stroke="black" stroke-width="2" stroke-linecap="round" stroke-linejoin="round"/>
<path d="M48 64.0002C56.811 68.4644 74.9968 77.6043 77.2524 78.4502" stroke="black" stroke-width="2" stroke-linecap="round" stroke-linejoin="round"/>
</svg>
