<svg width="220" height="248" viewBox="0 0 220 248" fill="none" xmlns="http://www.w3.org/2000/svg">
<path d="M105.746 130.485C114.721 121.413 123.82 101.357 127.204 92.1755C127.362 91.7471 127.811 91.5034 128.256 91.6068C132.386 92.5665 138.785 94.1871 146.082 97.4173C153.902 100.879 158.892 104.319 161.997 106.622C162.302 106.848 162.43 107.239 162.317 107.602C160.713 112.737 157.697 120.988 153.002 129.499C150.809 133.476 146.082 140.162 146.082 140.162" stroke="#2F62F6" stroke-width="2" stroke-linecap="round" stroke-linejoin="round"/>
<path d="M123.502 101.049C120.58 100.588 110.022 99.6206 105.216 99.7889C99.2083 99.9993 96.0453 100.38 95.2915 101.049C94.5377 101.717 91.8975 126.68 90.3129 136.434" stroke="#2F62F6" stroke-width="2" stroke-linecap="round" stroke-linejoin="round"/>
<path d="M117.997 109.27L106.963 107.909C106.467 107.848 106.02 108.205 105.854 108.676C105.27 110.339 103.476 112.543 99.3661 112.392" stroke="#2F62F6" stroke-width="2" stroke-linecap="round" stroke-linejoin="round"/>
<path d="M92.8457 109.1C87.4886 111.157 76.734 115.469 76.5724 116.259C76.3704 117.246 82.2552 135.726 82.1157 140.428" stroke="#2F62F6" stroke-width="2" stroke-linecap="round" stroke-linejoin="round"/>
<path d="M92.3027 115.775L87.0404 118.023C86.6837 118.176 86.4703 118.539 86.4532 118.927C86.3739 120.728 85.4204 123.547 81.9515 124.146" stroke="#2F62F6" stroke-width="2" stroke-linecap="round" stroke-linejoin="round"/>
<path d="M126.881 105.522C128.145 106.454 131.975 105.999 133.893 103.863C134.192 103.53 134.667 103.376 135.076 103.558L148.188 109.371C148.57 109.54 148.78 109.95 148.759 110.367C148.668 112.22 149.352 115.282 152.733 116.781" stroke="#2F62F6" stroke-width="2" stroke-linecap="round" stroke-linejoin="round"/>
<path d="M171.501 166C171.834 159.5 171.801 145.7 169.001 142.5C165.501 138.5 61.0011 138.5 58.0011 142.5C55.6011 145.7 55.6678 193.5 56.0011 217" stroke="black" stroke-width="2" stroke-linecap="round" stroke-linejoin="round"/>
<path d="M156.002 193C138.002 193 132.502 186.5 132.502 181C132.502 175.5 135.002 172 140.502 169.5C147.002 166.545 164.669 166.833 174.002 167C176.622 167.046 176.002 178.5 176.002 178.5" stroke="black" stroke-width="2" stroke-linecap="round" stroke-linejoin="round"/>
<circle cx="148.502" cy="180.5" r="5.5" fill="black"/>
<path d="M70.5024 150.5C70.0024 168.5 69.3024 205.5 70.5024 209.5" stroke="black" stroke-width="2" stroke-linecap="round" stroke-linejoin="round"/>
<path d="M105.002 226L162.502 224.5" stroke="black" stroke-width="2" stroke-linecap="round" stroke-linejoin="round"/>
<path d="M57.5102 217.591C57.4044 216.549 17.9416 216.591 17.0049 217.732C15.6 219.442 16.6582 229.859 17.8065 230.802C18.9548 231.746 56.8011 231.33 57.2694 230.76C57.7377 230.19 57.6161 218.632 57.5102 217.591Z" stroke="black" stroke-width="2" stroke-linecap="round" stroke-linejoin="round"/>
<path d="M24.3033 217.043L25.1049 230.114M35.8762 217.003L35.7412 231.214M46.5125 218.103L46.2717 231.272M52.1932 217.041L52.5265 230.682" stroke="black" stroke-width="2" stroke-linecap="round" stroke-linejoin="round"/>
<path d="M102.594 220.823C102.488 219.781 63.0256 219.824 62.0889 220.964C60.6839 222.674 61.7422 233.091 62.8905 234.035C64.0388 234.978 101.885 234.562 102.353 233.992C102.822 233.422 102.7 221.865 102.594 220.823Z" stroke="black" stroke-width="2" stroke-linecap="round" stroke-linejoin="round"/>
<path d="M69.3873 220.276L70.1889 233.347M80.9602 220.236L80.8252 234.447M91.5965 221.335L91.3557 234.505M97.2772 220.274L97.6105 233.915" stroke="black" stroke-width="2" stroke-linecap="round" stroke-linejoin="round"/>
<path d="M179.002 216V195C183.002 194.833 191.002 195.8 191.002 201C191.002 206.2 185.669 207.5 183.002 207.5" stroke="black" stroke-width="2" stroke-linecap="round" stroke-linejoin="round"/>
<path d="M175.002 212L186.002 212.5" stroke="black" stroke-width="2" stroke-linecap="round" stroke-linejoin="round"/>
<path d="M51.5942 202.207C51.4884 201.165 12.0256 201.208 11.0889 202.348C9.68394 204.058 10.7422 214.475 11.8905 215.419C13.0388 216.362 50.885 215.946 51.3534 215.376C51.8217 214.806 51.7001 203.249 51.5942 202.207Z" stroke="black" stroke-width="2" stroke-linecap="round" stroke-linejoin="round"/>
<path d="M18.3873 201.659L19.1889 214.73M29.9602 201.618L29.8252 215.829M40.5965 202.718L40.3557 215.888M46.2772 201.656L46.6105 215.297" stroke="black" stroke-width="2" stroke-linecap="round" stroke-linejoin="round"/>
<path d="M61.061 186.823C60.9552 185.781 21.4923 185.824 20.5557 186.964C19.1507 188.674 20.209 199.091 21.3573 200.035C22.5056 200.978 60.3518 200.562 60.8202 199.992C61.2885 199.422 61.1668 187.865 61.061 186.823Z" stroke="black" stroke-width="2" stroke-linecap="round" stroke-linejoin="round"/>
<path d="M27.8521 186.276L28.6537 199.347M39.4251 186.236L39.29 200.447M50.0614 187.335L49.8205 200.505M55.742 186.274L56.0753 199.915" stroke="black" stroke-width="2" stroke-linecap="round" stroke-linejoin="round"/>
<circle cx="182.002" cy="205" r="26" stroke="black" stroke-width="2" stroke-linecap="round" stroke-linejoin="round"/>
<path d="M217.594 218.823C217.488 217.781 178.026 217.824 177.089 218.964C175.684 220.674 176.742 231.091 177.891 232.035C179.039 232.978 216.885 232.562 217.353 231.992C217.822 231.422 217.7 219.865 217.594 218.823Z" fill="white" stroke="black" stroke-width="2" stroke-linecap="round" stroke-linejoin="round"/>
<path d="M184.387 218.276L185.189 231.347M195.96 218.236L195.825 232.447M206.597 219.335L206.356 232.505M212.277 218.274L212.61 231.915" stroke="black" stroke-width="2" stroke-linecap="round" stroke-linejoin="round"/>
<path d="M164.002 205C164.002 210.799 166.744 215.957 171.002 219.249M166.71 195.5C169.887 190.397 175.548 187 182.002 187C191.943 187 200.002 195.059 200.002 205C200.002 208.344 199.09 211.474 197.502 214.157" stroke="black" stroke-width="2" stroke-linecap="round" stroke-linejoin="round"/>
<path d="M20.3625 100.039C22.705 103.102 27.7383 109.561 29.1316 110.889C32.5329 110.807 135.57 43.6681 137.696 43.617C139.822 43.5659 148.006 65.4905 150.557 65.4292C152.598 65.3801 174.862 50.0974 185.739 42.4621C187.525 45.9643 191.694 53.0393 194.083 53.3222C197.07 53.6759 207.956 28.7404 207.024 25.3595C206.279 22.6548 183.943 20.8094 172.868 20.2248L179.572 33.6768C170.473 38.575 151.851 48.4667 150.158 48.8477C148.043 49.324 144.182 30.2734 139.505 30.3858C135.763 30.4757 58.5177 76.8588 20.3625 100.039Z" fill="#2F62F6" stroke="#2F62F6" stroke-width="2" stroke-linecap="round" stroke-linejoin="round"/>
</svg>
