<svg width="570" height="370" viewBox="0 0 570 370" fill="none" xmlns="http://www.w3.org/2000/svg">
<path d="M132.383 231.275C120.29 234.955 101.888 238.11 101.888 238.11C101.482 223.581 101.949 208.634 98.207 194.47C99.4339 193.067 110.826 188.581 129.754 181.851C144.814 176.496 164.644 170.565 178.652 166.863" stroke="black" stroke-width="2" stroke-linecap="round" stroke-linejoin="round"/>
<path d="M90.8453 94.5703C85.2369 95.4466 73.9149 98.9869 73.4943 106.138C72.9685 115.076 93.4742 192.367 94 193.418" stroke="black" stroke-width="2" stroke-linecap="round" stroke-linejoin="round"/>
<path d="M73.4957 89.3131C73.1452 78.0963 71.708 55.5576 68.7636 55.1369C65.8192 54.7163 66.1347 73.1889 66.6605 82.4778" stroke="black" stroke-width="2" stroke-linecap="round" stroke-linejoin="round"/>
<path d="M63.505 80.374C62.8039 82.3019 61.6122 87.8402 62.4534 94.5703" stroke="black" stroke-width="2" stroke-linecap="round" stroke-linejoin="round"/>
<path d="M58.774 85.1064C57.1967 85.9828 54.2523 89.4179 55.0935 96.148" stroke="black" stroke-width="2" stroke-linecap="round" stroke-linejoin="round"/>
<path d="M51.5612 88.2607C49.9838 89.1371 47.0394 92.5722 47.8806 99.3023" stroke="black" stroke-width="2" stroke-linecap="round" stroke-linejoin="round"/>
<path d="M46.6797 107.189C46.6797 148.551 49.6241 232.116 61.4017 235.481C73.1793 238.846 86.99 236.358 95.052 235.481" stroke="black" stroke-width="2" stroke-linecap="round" stroke-linejoin="round"/>
<path d="M155.049 198.017C151.16 206.298 142.382 225.834 138.388 237.73C134.394 249.626 131.63 264.761 130.748 270.842" stroke="black" stroke-width="2" stroke-linecap="round" stroke-linejoin="round"/>
<path d="M85.0621 253.884C84.361 257.915 84.5363 268.08 90.8457 276.493C98.7325 287.009 173.92 272.287 177.601 268.08C179.604 265.79 183.508 255.739 186.792 246.513" stroke="black" stroke-width="2" stroke-linecap="round" stroke-linejoin="round"/>
<path d="M84.0113 278.069C81.9082 278.069 43 274.389 43 278.069C43 281.014 62.2788 283.152 71.9183 283.853" stroke="black" stroke-width="2" stroke-linecap="round" stroke-linejoin="round"/>
<path d="M64.0312 288.06C64.7323 289.462 68.1324 292.266 76.1243 292.266" stroke="black" stroke-width="2" stroke-linecap="round" stroke-linejoin="round"/>
<path d="M65.6094 294.369C66.3104 295.771 69.7105 298.575 77.7025 298.575" stroke="black" stroke-width="2" stroke-linecap="round" stroke-linejoin="round"/>
<path d="M66.6602 300.679C67.2698 302.081 70.7521 306.988 77.7017 306.988C80.8564 306.988 201.65 312.756 210.2 309.091" stroke="black" stroke-width="2" stroke-linecap="round" stroke-linejoin="round"/>
<path d="M190.746 142.943C190.571 148.376 189.905 160.083 188.643 163.448C187.381 166.813 182.509 171.51 180.23 173.438C187.767 172.387 205.048 169.548 213.881 166.603C222.714 163.659 225.974 158.716 226.5 156.613L221.242 128.221" stroke="black" stroke-width="2" stroke-linecap="round" stroke-linejoin="round"/>
<path d="M156.938 80.3613C157.694 102.098 163.402 145.571 180.186 145.571C196.971 145.571 206.081 128.938 208.538 120.621" stroke="black" stroke-width="2" stroke-linecap="round" stroke-linejoin="round"/>
<path d="M167.145 86.0322C171.114 93.4038 176.331 113.364 174.516 122.89" stroke="black" stroke-width="2" stroke-linecap="round" stroke-linejoin="round"/>
<path d="M172.248 97.3729C169.23 98.6663 159.144 103.135 153.77 105.523C153.31 105.727 153.075 106.237 153.232 106.715C155.155 112.559 160.094 122.485 166.578 121.189C173.075 119.889 172.507 108.837 171.29 102.74C171.194 102.258 171.45 101.775 171.906 101.592L172.768 101.248C173.37 101.007 174.038 101.391 174.171 102.025C175.316 107.471 179.307 115.769 188.125 113.25C196.927 110.735 197.371 101.249 196.344 95.796C196.223 95.1531 196.702 94.5377 197.356 94.5377H203.003C203.555 94.5377 204.003 94.0899 204.003 93.5377V91.5684C204.003 91.0161 203.556 90.5684 203.004 90.5684H194.93C193.796 90.5684 176.217 95.6717 172.248 97.3729Z" fill="#2F62F6" stroke="#2F62F6" stroke-width="2" stroke-linecap="round" stroke-linejoin="round"/>
<path d="M186.015 96.6631L181.809 106.127" stroke="#F4F5F6" stroke-width="2" stroke-linecap="round" stroke-linejoin="round"/>
<path d="M190.746 98.7656L186.424 108.146" stroke="#F4F5F6" stroke-width="2" stroke-linecap="round" stroke-linejoin="round"/>
<path d="M163.931 104.55L160.25 112.437" stroke="#F4F5F6" stroke-width="2" stroke-linecap="round" stroke-linejoin="round"/>
<path d="M168.137 106.652L163.742 117.219" stroke="#F4F5F6" stroke-width="2" stroke-linecap="round" stroke-linejoin="round"/>
<path d="M185.289 124.591C187.935 123.646 193.341 120.509 193.795 115.519" stroke="black" stroke-width="2" stroke-linecap="round" stroke-linejoin="round"/>
<path d="M159.773 45.772C146.068 48.3647 139.934 62.519 146.164 74.1241C151.105 83.3273 159.773 86.5991 169.413 85.465C179.899 84.2314 190.915 79.8049 194.051 78.4744C194.545 78.2648 195.118 78.4751 195.373 78.9473C201.144 89.6387 211.446 93.5772 214.209 100.208C216.136 104.832 218.472 121.488 219.826 131.148L219.893 131.622C220.037 132.65 221.403 132.777 221.722 131.79C226.034 118.44 232.452 91.8584 231.22 80.3616C229.519 64.4845 215.343 58.814 203.435 58.247C191.527 57.6799 180.753 41.8027 159.773 45.772Z" fill="black" stroke="black" stroke-width="2" stroke-linecap="round" stroke-linejoin="round"/>
<path d="M160.906 95.6718C162.04 94.5377 164.989 92.2695 167.711 92.2695" stroke="black" stroke-width="2" stroke-linecap="round" stroke-linejoin="round"/>
<path d="M182.455 85.4648C184.156 85.6539 188.012 86.2587 189.827 87.166" stroke="black" stroke-width="2" stroke-linecap="round" stroke-linejoin="round"/>
<path d="M477.825 209.191C479.227 188.861 481.611 146.307 479.928 138.736C478.246 131.164 466.608 130.323 461 130.849" stroke="black" stroke-width="2" stroke-linecap="round" stroke-linejoin="round"/>
<path d="M474.67 117.705C475.196 115.602 475.721 91.9418 477.825 92.4676C479.507 92.8882 479.928 109.468 479.928 117.705" stroke="black" stroke-width="2" stroke-linecap="round" stroke-linejoin="round"/>
<path d="M485.711 109.818C484.835 110.695 483.082 113.814 483.082 119.283" stroke="black" stroke-width="2" stroke-linecap="round" stroke-linejoin="round"/>
<path d="M489.918 111.396C489.042 112.272 487.289 115.391 487.289 120.86" stroke="black" stroke-width="2" stroke-linecap="round" stroke-linejoin="round"/>
<path d="M491.495 122.437C491.495 116.969 493.598 114.024 495.176 114.024C497.805 114.024 498.856 123.489 499.382 129.272C499.908 135.056 521.4 240.744 496.227 242.842C483.608 243.894 472.041 240.739 472.041 240.739" stroke="black" stroke-width="2" stroke-linecap="round" stroke-linejoin="round"/>
<path d="M449.19 235.47C453.558 237.22 463.071 240.929 466.177 241.769C469.283 242.609 471.031 218.672 471.516 206.598C463.119 196.939 438.776 179.821 417 172.213M359.523 177.289C365.272 174.155 373.025 170.987 382 169.34" stroke="black" stroke-width="2" stroke-linecap="round" stroke-linejoin="round"/>
<path d="M387.001 138.5C386.3 147.964 384.362 165.025 382.259 169.232C380.156 173.438 404.868 189.562 417.487 197.098C417.311 188.16 416.922 166.841 416.501 166" stroke="black" stroke-width="2" stroke-linecap="round" stroke-linejoin="round"/>
<path d="M359.118 56.7031C378.215 56.7031 385.534 67.8144 388.026 78.0898C388.129 78.5166 387.95 78.959 387.584 79.2027L383.049 82.2258C382.988 82.2666 382.926 82.2996 382.858 82.3273C379.886 83.5313 372.656 87.1126 366.676 92.1719C359.118 98.5678 359.118 114.267 359.118 128.803V128.804C359.118 143.34 342.837 166.017 341.092 165.435C339.348 164.854 341.092 152.062 341.092 142.759C341.092 133.455 331.208 117.756 328.882 99.7309C326.556 81.7057 334.697 56.7031 359.118 56.7031Z" fill="black" stroke="black" stroke-width="2" stroke-linecap="round" stroke-linejoin="round"/>
<path d="M386.448 118C385.091 108.697 385.401 91.939 397.495 88.6829C412.613 84.6127 437.616 92.1716 438.197 110.778C438.779 129.385 425.987 167.179 413.776 166.598C404.007 166.133 392.456 150.123 389.355 145.084C387.754 142.042 386.887 138.975 386.448 136" stroke="black" stroke-width="2" stroke-linecap="round" stroke-linejoin="round"/>
<path d="M423.462 116.012C421.912 120.663 419.159 132.758 420.555 143.922" stroke="black" stroke-width="2" stroke-linecap="round" stroke-linejoin="round"/>
<path d="M405.053 143.922C405.247 146.054 406.681 150.55 410.867 151.481" stroke="black" stroke-width="2" stroke-linecap="round" stroke-linejoin="round"/>
<path d="M409.123 114.849C410.48 114.267 413.775 113.453 416.101 114.849" stroke="black" stroke-width="2" stroke-linecap="round" stroke-linejoin="round"/>
<path d="M428.311 115.43C429.861 115.817 433.195 116.941 434.125 118.337" stroke="black" stroke-width="2" stroke-linecap="round" stroke-linejoin="round"/>
<path d="M446.519 121.763C445.808 119.628 426.267 123.589 424.047 125.022C423.871 125.136 423.774 125.34 423.718 125.542C423.024 128.054 426.771 139.269 431.218 139.269C436.451 139.269 447.682 125.252 446.519 121.763Z" fill="#2F62F6" stroke="#2F62F6" stroke-width="2" stroke-linecap="round" stroke-linejoin="round"/>
<path d="M439.873 127.11L434.184 133.696" stroke="#F4F5F6" stroke-width="2" stroke-linecap="round" stroke-linejoin="round"/>
<path d="M434.616 126.058L429.978 131.365" stroke="#F4F5F6" stroke-width="2" stroke-linecap="round" stroke-linejoin="round"/>
<path d="M423.669 126.107C423.844 125.055 418.411 124.53 416.834 126.107" stroke="#2F62F6" stroke-width="2" stroke-linecap="round" stroke-linejoin="round"/>
<path d="M417.264 125.314C416.706 123.081 396.321 114.418 393.662 114.243C393.497 114.232 393.37 114.332 393.286 114.474C390.366 119.446 405.112 137.533 409.124 138.106C413.194 138.688 417.846 127.64 417.264 125.314Z" fill="#2F62F6" stroke="#2F62F6" stroke-width="2" stroke-linecap="round" stroke-linejoin="round"/>
<path d="M411.483 124.826L405.794 131.412" stroke="#F4F5F6" stroke-width="2" stroke-linecap="round" stroke-linejoin="round"/>
<path d="M406.223 123.774L401.586 129.081" stroke="#F4F5F6" stroke-width="2" stroke-linecap="round" stroke-linejoin="round"/>
<path fill-rule="evenodd" clip-rule="evenodd" d="M388.56 109.693C392.914 110.011 399.536 110.048 400.401 109.616C400.842 109.395 401.563 108.38 402.302 107.167C402.886 106.209 404.595 106.603 404.776 107.71C404.955 108.803 405.228 109.616 405.634 109.616C406.527 109.616 417.134 110.33 422.955 110.73C423.383 110.759 423.784 110.528 423.976 110.144L424.599 108.899C425.052 107.993 426.442 108.164 426.74 109.132C427.197 110.618 427.767 111.941 428.311 111.941C428.55 111.941 429.284 111.991 430.297 112.059C434.201 112.322 442.266 112.865 442.266 111.941C442.266 111.909 442.267 111.853 442.269 111.775C442.335 109.031 443.061 78.6698 409.704 74.1467C375.398 69.4951 371.328 99.7308 371.328 104.964C371.328 120.202 378.968 135.44 385.192 137.329C385.826 137.522 386.348 136.926 386.266 136.267C386.266 136.262 386.265 136.257 386.264 136.251C374.722 131.381 375.288 119.098 381.247 118.03C382.163 117.866 384.787 117.555 385.998 117.67L387.422 110.553C387.528 110.02 388.018 109.653 388.56 109.693Z" fill="black"/>
<path d="M400.401 109.616L399.954 108.721H399.954L400.401 109.616ZM388.56 109.693L388.633 108.696L388.56 109.693ZM402.302 107.167L403.156 107.687V107.687L402.302 107.167ZM404.776 107.71L405.763 107.548V107.548L404.776 107.71ZM422.955 110.73L422.886 111.728H422.886L422.955 110.73ZM423.976 110.144L423.082 109.697V109.697L423.976 110.144ZM424.599 108.899L423.704 108.452V108.452L424.599 108.899ZM426.74 109.132L427.696 108.838L426.74 109.132ZM430.297 112.059L430.229 113.057L430.297 112.059ZM442.269 111.775L443.269 111.799V111.799L442.269 111.775ZM409.704 74.1467L409.839 73.1558L409.704 74.1467ZM371.328 104.964L370.328 104.964L371.328 104.964ZM385.192 137.329L385.482 136.373H385.482L385.192 137.329ZM386.266 136.267L385.274 136.39L385.274 136.39L386.266 136.267ZM386.264 136.251L387.257 136.129C387.213 135.774 386.983 135.469 386.653 135.33L386.264 136.251ZM381.247 118.03L381.071 117.046H381.071L381.247 118.03ZM385.998 117.67L385.903 118.666C386.414 118.714 386.878 118.369 386.979 117.867L385.998 117.67ZM387.422 110.553L388.402 110.749L388.402 110.749L387.422 110.553ZM399.954 108.721C400.005 108.695 399.954 108.726 399.678 108.767C399.443 108.801 399.126 108.832 398.734 108.857C397.952 108.907 396.93 108.933 395.787 108.936C393.501 108.941 390.782 108.853 388.633 108.696L388.487 110.69C390.692 110.852 393.461 110.941 395.791 110.936C396.956 110.933 398.023 110.907 398.863 110.853C399.281 110.826 399.657 110.791 399.967 110.746C400.235 110.706 400.58 110.644 400.848 110.51L399.954 108.721ZM401.448 106.647C401.087 107.24 400.741 107.765 400.443 108.16C400.293 108.357 400.166 108.508 400.064 108.613C399.948 108.731 399.914 108.741 399.954 108.721L400.848 110.51C401.109 110.38 401.33 110.18 401.497 110.008C401.677 109.823 401.859 109.602 402.037 109.367C402.394 108.896 402.779 108.307 403.156 107.687L401.448 106.647ZM405.763 107.548C405.588 106.48 404.706 105.867 403.909 105.688C403.11 105.509 402.031 105.691 401.448 106.647L403.156 107.687C403.166 107.671 403.179 107.656 403.222 107.642C403.275 107.624 403.363 107.615 403.471 107.64C403.72 107.695 403.783 107.833 403.789 107.871L405.763 107.548ZM405.634 108.616C405.902 108.616 406.057 108.759 406.091 108.796C406.116 108.824 406.092 108.807 406.043 108.688C405.947 108.457 405.848 108.072 405.763 107.548L403.789 107.871C403.882 108.441 404.01 109.009 404.197 109.457C404.289 109.678 404.42 109.933 404.617 110.147C404.821 110.37 405.163 110.616 405.634 110.616V108.616ZM423.024 109.732C417.24 109.335 406.573 108.616 405.634 108.616V110.616C406.481 110.616 417.028 111.325 422.886 111.728L423.024 109.732ZM423.082 109.697C423.069 109.723 423.046 109.734 423.024 109.732L422.886 111.728C423.721 111.785 424.5 111.334 424.871 110.592L423.082 109.697ZM423.704 108.452L423.082 109.697L424.871 110.592L425.493 109.346L423.704 108.452ZM427.696 108.838C427.413 107.919 426.617 107.408 425.841 107.319C425.059 107.23 424.151 107.559 423.704 108.452L425.493 109.346C425.505 109.323 425.512 109.32 425.518 109.317C425.532 109.311 425.565 109.301 425.614 109.306C425.663 109.312 425.706 109.331 425.734 109.352C425.758 109.371 425.774 109.392 425.784 109.426L427.696 108.838ZM428.311 110.941C428.59 110.941 428.7 111.103 428.633 111.03C428.584 110.978 428.496 110.856 428.381 110.634C428.155 110.197 427.919 109.562 427.696 108.838L425.784 109.426C426.019 110.188 426.296 110.958 426.605 111.554C426.758 111.848 426.943 112.15 427.168 112.393C427.375 112.615 427.76 112.941 428.311 112.941V110.941ZM430.364 111.061C429.38 110.995 428.595 110.941 428.311 110.941V112.941C428.506 112.941 429.187 112.986 430.229 113.057L430.364 111.061ZM441.266 111.941C441.266 111.583 441.476 111.374 441.56 111.308C441.634 111.251 441.673 111.249 441.607 111.27C441.485 111.309 441.243 111.355 440.853 111.39C440.095 111.46 439.011 111.472 437.767 111.445C435.29 111.393 432.321 111.193 430.364 111.061L430.229 113.057C432.177 113.188 435.193 113.391 437.724 113.445C438.984 113.472 440.16 113.462 441.036 113.382C441.464 113.343 441.882 113.282 442.216 113.175C442.379 113.123 442.594 113.038 442.788 112.887C442.993 112.728 443.266 112.415 443.266 111.941H441.266ZM441.269 111.751C441.268 111.822 441.266 111.894 441.266 111.941H443.266C443.266 111.925 443.267 111.885 443.269 111.799L441.269 111.751ZM409.57 75.1377C425.885 77.35 433.767 85.8361 437.615 94.052C441.493 102.334 441.301 110.418 441.269 111.751L443.269 111.799C443.302 110.389 443.507 101.919 439.426 93.2038C435.314 84.4223 426.88 75.4665 409.839 73.1558L409.57 75.1377ZM372.328 104.964C372.328 102.481 373.318 93.8333 378.473 86.4194C381.037 82.7313 384.624 79.3579 389.634 77.1807C394.644 75.0033 401.142 73.9949 409.57 75.1377L409.839 73.1558C401.113 71.9727 394.238 72.9994 388.837 75.3465C383.435 77.6938 379.572 81.3341 376.83 85.2777C371.373 93.1269 370.328 102.214 370.328 104.964L372.328 104.964ZM385.482 136.373C384.201 135.984 382.711 134.852 381.172 132.982C379.65 131.134 378.155 128.657 376.837 125.741C374.202 119.907 372.328 112.428 372.328 104.964L370.328 104.964C370.328 112.738 372.274 120.497 375.015 126.564C376.386 129.599 377.967 132.237 379.628 134.254C381.271 136.249 383.07 137.731 384.901 138.286L385.482 136.373ZM385.274 136.39C385.279 136.43 385.26 136.441 385.277 136.424C385.288 136.413 385.316 136.39 385.364 136.376C385.416 136.361 385.461 136.366 385.482 136.373L384.901 138.286C385.613 138.502 386.284 138.262 386.718 137.811C387.134 137.379 387.335 136.762 387.259 136.144L385.274 136.39ZM385.272 136.374C385.272 136.379 385.273 136.384 385.274 136.39L387.259 136.145C387.258 136.139 387.257 136.134 387.257 136.129L385.272 136.374ZM386.653 135.33C381.183 133.022 378.685 129.015 378.182 125.571C377.661 122 379.224 119.409 381.423 119.015L381.071 117.046C377.311 117.72 375.611 121.804 376.203 125.859C376.813 130.041 379.803 134.611 385.876 137.173L386.653 135.33ZM381.423 119.015C381.845 118.939 382.7 118.824 383.602 118.742C384.524 118.658 385.4 118.618 385.903 118.666L386.093 116.675C385.385 116.608 384.344 116.666 383.421 116.75C382.48 116.835 381.565 116.957 381.071 117.046L381.423 119.015ZM386.441 110.356L385.017 117.474L386.979 117.867L388.402 110.749L386.441 110.356ZM388.633 108.696C387.597 108.62 386.648 109.321 386.441 110.356L388.402 110.749C388.408 110.719 388.439 110.687 388.487 110.69L388.633 108.696Z" fill="black"/>
<path d="M387.661 136.393C374.771 136.393 375.23 119.109 381.248 118.03C382.305 117.841 385.634 117.456 386.446 117.756" stroke="black" stroke-width="2" stroke-linecap="round" stroke-linejoin="round"/>
<path d="M431.557 201.305C434.711 213.748 442.072 240.728 442.072 275.956" stroke="black" stroke-width="2" stroke-linecap="round" stroke-linejoin="round"/>
<path d="M395.803 220.759C396.153 227.769 398.222 244.314 403.69 254.409C410.525 267.028 409.473 268.605 408.422 269.131C407.581 269.552 385.638 281.575 374.771 287.534" stroke="black" stroke-width="2" stroke-linecap="round" stroke-linejoin="round"/>
<path d="M408.947 275.441C431.731 281.75 479.403 293.633 487.815 290.689C496.228 287.744 496.929 275.441 496.228 269.657" stroke="black" stroke-width="2" stroke-linecap="round" stroke-linejoin="round"/>
<path d="M507.795 313.823C503.063 314.349 474.671 314.349 426.824 311.194C400.427 309.454 385.183 304.279 377.4 299.74" stroke="black" stroke-width="2" stroke-linecap="round" stroke-linejoin="round"/>
<path d="M499.383 289.111C510.074 289.287 531.561 289.953 531.982 291.214C532.402 292.476 518.837 294.895 512.002 295.947" stroke="black" stroke-width="2" stroke-linecap="round" stroke-linejoin="round"/>
<path d="M506.744 301.73C509.548 301.555 515.262 300.363 515.683 296.998" stroke="black" stroke-width="2" stroke-linecap="round" stroke-linejoin="round"/>
<path d="M504.115 306.988C506.919 306.813 512.633 305.831 513.054 303.308" stroke="black" stroke-width="2" stroke-linecap="round" stroke-linejoin="round"/>
<path d="M503.062 311.72C505.691 311.545 511.054 310.669 511.475 308.565" stroke="black" stroke-width="2" stroke-linecap="round" stroke-linejoin="round"/>
<path d="M222.82 301.204C222.82 314.875 222.82 342.636 222.82 344.319C222.82 346.422 266.986 351.154 295.905 351.154C319.039 351.154 344.803 345.545 354.793 342.741L353.741 301.204" stroke="black" stroke-width="2" stroke-linecap="round" stroke-linejoin="round"/>
<path d="M190.746 262.296C197.231 257.739 214.932 247.469 233.861 242.842" stroke="black" stroke-width="2" stroke-linecap="round" stroke-linejoin="round"/>
<path d="M330.606 248.626C307.997 249.677 266.46 283.853 258.573 288.06C250.687 292.266 188.118 330.123 189.695 250.729C190.978 186.183 233.615 161.601 251.212 154.382" stroke="black" stroke-width="2" stroke-linecap="round" stroke-linejoin="round"/>
<path d="M263.305 288.059C307.471 295.946 384.237 330.648 382.66 251.254C381.337 184.686 336.028 160.626 319.565 154.279" stroke="black" stroke-width="2" stroke-linecap="round" stroke-linejoin="round"/>
<path d="M207.045 259.667C225.272 250.028 273.715 225.596 304.841 232.326C324.295 236.532 331.656 248.626 331.656 248.626" stroke="black" stroke-width="2" stroke-linecap="round" stroke-linejoin="round"/>
<path d="M300.637 260.193C306.596 257.214 323.771 251.571 344.803 252.832" stroke="black" stroke-width="2" stroke-linecap="round" stroke-linejoin="round"/>
<path d="M237.542 211.295C236.315 217.254 233.861 231.906 233.861 242.842" stroke="black" stroke-width="2" stroke-linecap="round" stroke-linejoin="round"/>
<path d="M331.656 211.82C333.759 218.48 337.966 237.584 337.966 245.996C346.378 245.12 366.989 244.524 382.132 249.151" stroke="black" stroke-width="2" stroke-linecap="round" stroke-linejoin="round"/>
<path d="M269.657 129C269.755 134.772 269.029 141.006 266.985 144.509C264.041 149.557 258.047 151.355 258.047 152.932C258.047 158.716 282.864 177.013 285.388 176.593C288.542 176.067 311.151 152.932 311.151 151.355C311.151 149.778 304.729 149.954 302.213 142.406C300.779 138.105 300.127 132.031 299.831 127" stroke="black" stroke-width="2" stroke-linecap="round" stroke-linejoin="round"/>
<path d="M268.563 78.7969L263.305 89.8384" stroke="#F4F5F6" stroke-width="2" stroke-linecap="round" stroke-linejoin="round"/>
<path d="M273.82 79.8486L268.562 90.8901" stroke="#F4F5F6" stroke-width="2" stroke-linecap="round" stroke-linejoin="round"/>
<path d="M298.008 78.7969L292.75 89.8384" stroke="#F4F5F6" stroke-width="2" stroke-linecap="round" stroke-linejoin="round"/>
<path d="M303.266 79.8486L298.008 90.8901" stroke="#F4F5F6" stroke-width="2" stroke-linecap="round" stroke-linejoin="round"/>
<path d="M282.181 132.425C250.837 131.062 253.222 80.7516 258.332 55.7668C263.144 50.9963 275.877 41.4551 288.312 41.4551C300.746 41.4551 307.576 55.5389 309.437 62.5809C313.412 86.4299 313.526 133.787 282.181 132.425Z" stroke="black" stroke-width="2" stroke-linecap="round" stroke-linejoin="round"/>
<path d="M287.506 110.799C283.551 112.449 278.516 111.812 276.492 111.287C277.742 114.178 281.848 119.995 288.271 120.132C294.694 120.269 296.093 109.911 295.99 104.715C294.81 106.055 291.461 109.148 287.506 110.799Z" stroke="black" stroke-width="2" stroke-linecap="round" stroke-linejoin="round"/>
<path d="M288.984 62.0335C285.223 64.4014 279.461 75.5015 286.501 100.959" stroke="black" stroke-width="2" stroke-linecap="round" stroke-linejoin="round"/>
<path d="M260.035 67.1243C261.739 65.7993 266.054 63.1494 269.688 63.1494" stroke="black" stroke-width="2" stroke-linecap="round" stroke-linejoin="round"/>
<path d="M306.6 65.9885C304.896 64.6636 300.581 62.0137 296.946 62.0137" stroke="black" stroke-width="2" stroke-linecap="round" stroke-linejoin="round"/>
<path d="M254.926 84.7264C250.384 80.1837 242.32 82.4551 244.137 91.5404C245.954 100.626 251.519 101.761 256.062 101.761" stroke="black" stroke-width="2" stroke-linecap="round" stroke-linejoin="round"/>
<path d="M311.71 84.7264C316.253 80.1837 324.317 82.4551 322.5 91.5404C320.682 100.626 315.118 101.761 310.575 101.761" stroke="black" stroke-width="2" stroke-linecap="round" stroke-linejoin="round"/>
<path d="M275.763 56.5228C274.749 58.1993 272.626 59.8011 268.554 60.31C267.049 60.4981 264.72 60.0957 262.729 59.6008C261.717 59.3492 259.95 60.9069 259.674 61.9129C258.475 66.2863 252.83 71.7982 245.841 66.5562C240.597 62.1189 242.726 56.3085 245.389 53.3396C245.862 52.8122 245.847 51.9172 245.45 51.3299C243.474 48.4024 242.339 41.2706 246.409 36.4609C250.776 31.2996 257.364 32.523 260.932 33.726C261.85 34.0353 263.025 33.0558 262.968 32.0893C262.745 28.3238 264.126 21.6601 275.936 19.4258C288.561 17.0373 292.686 22.5089 293.796 27.225C294.048 28.2964 296.422 29.3792 297.456 29.0006C300.218 27.9888 304.289 27.9189 308.871 30.7826C315.259 34.7751 315.097 40.9609 313.936 44.7136C313.719 45.4127 314.175 46.1995 314.88 46.394C317.39 47.0858 321.011 49.0122 322.499 52.3603C324.77 57.4708 320.795 66.5561 313.413 65.4205C308.477 64.661 305.18 60.939 304.121 57.3058C303.875 56.4618 302.735 55.9405 301.942 56.3194C299.143 57.6558 294.603 58.6065 289.564 58.6065C285.401 58.6065 281.821 56.984 279.367 55.3324C278.479 54.734 276.317 55.6059 275.763 56.5228Z" fill="black" stroke="black" stroke-width="2" stroke-linecap="round" stroke-linejoin="round"/>
<path d="M258.332 55.7676C253.222 80.7523 250.837 131.062 282.181 132.425C313.526 133.788 313.412 86.4306 309.437 62.5816" stroke="black" stroke-width="2" stroke-linecap="round" stroke-linejoin="round"/>
<circle cx="267.418" cy="81.3195" r="12.4924" fill="#2F62F6" stroke="#2F62F6" stroke-width="2" stroke-linecap="round" stroke-linejoin="round"/>
<path d="M267.416 76.6341L261.727 83.2206" stroke="#F4F5F6" stroke-width="2" stroke-linecap="round" stroke-linejoin="round"/>
<path d="M273.907 77.3217L264.113 88.7573" stroke="#F4F5F6" stroke-width="2" stroke-linecap="round" stroke-linejoin="round"/>
<path d="M280.479 79.7849C281.425 79.4063 283.658 78.8763 285.021 79.7849" stroke="#2F62F6" stroke-width="2" stroke-linecap="round" stroke-linejoin="round"/>
<circle cx="298.406" cy="81.8146" r="12.4924" fill="#2F62F6" stroke="#2F62F6" stroke-width="2" stroke-linecap="round" stroke-linejoin="round"/>
<path d="M297.912 76.6341L292.223 83.2206" stroke="#F4F5F6" stroke-width="2" stroke-linecap="round" stroke-linejoin="round"/>
<path d="M304.401 77.3217L294.607 88.7573" stroke="#F4F5F6" stroke-width="2" stroke-linecap="round" stroke-linejoin="round"/>
<path d="M116.426 63.765L103.396 59.7246" stroke="black" stroke-width="2" stroke-linecap="round" stroke-linejoin="round"/>
<path d="M453.74 83.6192L464.508 75.2441" stroke="black" stroke-width="2" stroke-linecap="round" stroke-linejoin="round"/>
<path d="M93.2094 33.1926L125.366 52.319" stroke="black" stroke-width="2" stroke-linecap="round" stroke-linejoin="round"/>
<path d="M464.684 46.823L441.337 76.0592" stroke="black" stroke-width="2" stroke-linecap="round" stroke-linejoin="round"/>
<path d="M128.224 33.7608L118.61 20.1228" stroke="black" stroke-width="2" stroke-linecap="round" stroke-linejoin="round"/>
<path d="M432.119 59.701L436.307 43.5491" stroke="black" stroke-width="2" stroke-linecap="round" stroke-linejoin="round"/>
</svg>
