<svg width="600" height="370" viewBox="0 0 600 370" fill="none" xmlns="http://www.w3.org/2000/svg">
<path d="M298.7 66.9027C296.525 64.7275 290.885 52.6722 289.999 48.4128C288.881 43.0398 289.89 24.8398 292.066 24.8398C295.251 24.8398 294.895 47.9669 297.071 51.2298" stroke="black" stroke-width="2" stroke-linecap="round" stroke-linejoin="round"/>
<path d="M345.469 66.9031C347.644 64.7278 354.17 52.7637 354.17 48.4131C354.17 44.0625 354.17 26.6602 351.995 26.6602C349.819 26.6602 349.819 47.3254 347.644 50.5884" stroke="black" stroke-width="2" stroke-linecap="round" stroke-linejoin="round"/>
<path d="M340.029 28.835C341.117 34.6357 342.205 47.3249 340.029 57.1138" stroke="black" stroke-width="2" stroke-linecap="round" stroke-linejoin="round"/>
<path d="M333.504 29.9229C334.592 35.7236 336.332 49.5005 334.592 58.2017" stroke="black" stroke-width="2" stroke-linecap="round" stroke-linejoin="round"/>
<path d="M301.418 29.3896C300.693 33.7402 299.896 44.8342 302.506 54.4055" stroke="black" stroke-width="2" stroke-linecap="round" stroke-linejoin="round"/>
<path d="M307.355 32.1201C306.993 36.1082 306.703 46.2595 308.443 54.9607" stroke="black" stroke-width="2" stroke-linecap="round" stroke-linejoin="round"/>
<path fill-rule="evenodd" clip-rule="evenodd" d="M351.809 108.654C352.786 105.953 353.234 103.177 352.898 100.454C351.355 87.9865 321.319 74.1671 296.9 93.1671C272.48 112.167 277.636 130.777 277.636 130.777C277.636 130.777 265.391 131.174 260.385 142.716C256.635 151.361 261.048 163.178 261.048 163.178C261.048 163.178 256.391 165.181 252.551 170.484C256.338 177.126 260.89 183.091 266.069 186.543C278.671 194.945 295.668 199.291 303.351 200.559C305.124 196.396 306.633 190.105 307.498 185.793C293.469 178.993 287.81 159 287.303 148.102C292.174 90.0079 324.564 103.365 341.974 118.785C348.76 135.846 346.724 174.821 328.342 185.422L332.427 201.764C340.772 197.045 360.482 183.926 372.658 169.141C373.069 168.643 373.472 168.147 373.869 167.654C370.114 159.79 363.151 154.216 357.333 149.559L357.333 149.559C355.005 147.696 352.861 145.98 351.179 144.323C356.997 142.427 364.513 135.924 363.689 124.571C363.079 116.163 356.758 111.166 351.809 108.654Z" fill="black"/>
<path d="M352.898 100.454L353.89 100.332V100.332L352.898 100.454ZM351.809 108.654L350.868 108.314C350.697 108.789 350.906 109.318 351.356 109.546L351.809 108.654ZM296.9 93.1671L296.286 92.3779L296.9 93.1671ZM277.636 130.777L277.669 131.776C277.975 131.766 278.26 131.616 278.442 131.369C278.623 131.122 278.682 130.805 278.6 130.51L277.636 130.777ZM260.385 142.716L259.467 142.318L260.385 142.716ZM261.048 163.178L261.443 164.097C261.933 163.886 262.172 163.328 261.985 162.829L261.048 163.178ZM252.551 170.484L251.741 169.897C251.511 170.215 251.488 170.638 251.682 170.979L252.551 170.484ZM266.069 186.543L265.514 187.376H265.514L266.069 186.543ZM303.351 200.559L303.188 201.546C303.643 201.621 304.09 201.375 304.271 200.951L303.351 200.559ZM307.498 185.793L308.479 185.99C308.568 185.543 308.344 185.092 307.934 184.893L307.498 185.793ZM287.303 148.102L286.306 148.018C286.303 148.062 286.302 148.105 286.304 148.148L287.303 148.102ZM341.974 118.785L342.903 118.415C342.845 118.27 342.754 118.14 342.637 118.036L341.974 118.785ZM328.342 185.422L327.842 184.556C327.455 184.779 327.263 185.231 327.371 185.664L328.342 185.422ZM332.427 201.764L331.457 202.006C331.533 202.309 331.746 202.56 332.032 202.683C332.319 202.806 332.647 202.788 332.919 202.634L332.427 201.764ZM372.658 169.141L371.886 168.505V168.505L372.658 169.141ZM373.869 167.654L374.648 168.281C374.889 167.981 374.937 167.57 374.771 167.223L373.869 167.654ZM357.333 149.559L356.626 150.266C356.652 150.292 356.679 150.317 356.708 150.34L357.333 149.559ZM357.333 149.559L358.04 148.852C358.014 148.826 357.986 148.801 357.958 148.778L357.333 149.559ZM351.179 144.323L350.869 143.372C350.537 143.48 350.286 143.753 350.205 144.093C350.125 144.433 350.228 144.79 350.477 145.035L351.179 144.323ZM363.689 124.571L364.687 124.499L363.689 124.571ZM286.734 148.12L285.743 147.981C285.702 148.273 285.792 148.569 285.99 148.788C286.187 149.008 286.471 149.129 286.766 149.12L286.734 148.12ZM287.355 149.095C287.906 149.066 288.33 148.596 288.302 148.045C288.273 147.493 287.803 147.069 287.252 147.098L287.355 149.095ZM342.277 120.98C341.885 121.369 341.883 122.002 342.272 122.394C342.661 122.786 343.294 122.788 343.686 122.399L342.277 120.98ZM351.809 108.654L352.749 108.995C352.921 108.52 352.712 107.991 352.261 107.763L351.809 108.654ZM347.416 106.891L347.689 105.929C347.455 105.863 347.205 105.884 346.986 105.989L347.416 106.891ZM334.104 112.137C333.606 112.375 333.395 112.972 333.633 113.47C333.871 113.969 334.467 114.18 334.966 113.942L334.104 112.137ZM289.562 135.614C290.061 135.376 290.272 134.779 290.034 134.281C289.796 133.782 289.199 133.571 288.701 133.809L289.562 135.614ZM288.583 134.973L288.152 134.071C287.85 134.215 287.64 134.502 287.593 134.834L288.583 134.973ZM351.905 100.577C352.218 103.109 351.805 105.724 350.868 108.314L352.749 108.995C353.766 106.182 354.251 103.246 353.89 100.332L351.905 100.577ZM297.514 93.9563C309.455 84.6656 322.746 83.4073 333.239 85.9815C338.492 87.27 343.017 89.5132 346.304 92.1626C349.611 94.8282 351.564 97.8178 351.905 100.577L353.89 100.332C353.46 96.857 351.08 93.4437 347.559 90.6054C344.017 87.7508 339.218 85.3889 333.716 84.0391C322.7 81.3366 308.764 82.6686 296.286 92.3779L297.514 93.9563ZM277.636 130.777C278.6 130.51 278.6 130.51 278.6 130.511C278.6 130.511 278.6 130.511 278.6 130.512C278.6 130.512 278.6 130.512 278.6 130.512C278.6 130.511 278.6 130.51 278.599 130.507C278.598 130.502 278.595 130.493 278.592 130.479C278.585 130.451 278.574 130.405 278.56 130.343C278.532 130.218 278.492 130.026 278.448 129.771C278.361 129.262 278.26 128.5 278.211 127.522C278.113 125.567 278.226 122.747 279.081 119.34C280.786 112.545 285.468 103.329 297.514 93.9563L296.286 92.3779C283.912 102.005 278.962 111.594 277.141 118.853C276.232 122.474 276.107 125.494 276.213 127.622C276.266 128.685 276.377 129.526 276.477 130.108C276.526 130.399 276.573 130.626 276.609 130.783C276.626 130.862 276.641 130.923 276.652 130.967C276.658 130.989 276.662 131.006 276.666 131.019C276.667 131.025 276.669 131.03 276.67 131.035C276.671 131.037 276.671 131.038 276.671 131.04C276.672 131.041 276.672 131.042 276.672 131.042C276.672 131.043 276.672 131.044 277.636 130.777ZM261.302 143.114C263.677 137.639 267.757 134.811 271.274 133.341C273.035 132.604 274.649 132.211 275.819 132.004C276.404 131.9 276.875 131.843 277.197 131.812C277.357 131.796 277.48 131.787 277.56 131.782C277.6 131.779 277.63 131.778 277.648 131.777C277.657 131.777 277.664 131.776 277.667 131.776C277.669 131.776 277.67 131.776 277.67 131.776C277.67 131.776 277.67 131.776 277.67 131.776C277.67 131.776 277.669 131.776 277.669 131.776C277.669 131.776 277.669 131.776 277.636 130.777C277.604 129.777 277.603 129.777 277.603 129.777C277.602 129.777 277.602 129.777 277.601 129.777C277.6 129.777 277.599 129.777 277.598 129.777C277.595 129.777 277.592 129.778 277.587 129.778C277.579 129.778 277.568 129.779 277.554 129.779C277.525 129.781 277.485 129.783 277.434 129.786C277.333 129.792 277.188 129.803 277.004 129.821C276.636 129.857 276.112 129.921 275.47 130.034C274.188 130.262 272.427 130.69 270.502 131.495C266.644 133.109 262.099 136.251 259.467 142.318L261.302 143.114ZM261.048 163.178C261.985 162.829 261.985 162.829 261.985 162.829C261.985 162.829 261.985 162.829 261.985 162.829C261.985 162.829 261.985 162.829 261.985 162.828C261.985 162.828 261.984 162.826 261.983 162.824C261.982 162.819 261.979 162.812 261.976 162.802C261.968 162.782 261.957 162.751 261.942 162.71C261.913 162.627 261.869 162.501 261.815 162.337C261.706 162.01 261.552 161.528 261.379 160.922C261.032 159.709 260.608 158.002 260.298 156.034C259.674 152.065 259.54 147.177 261.302 143.114L259.467 142.318C257.48 146.9 257.677 152.243 258.323 156.344C258.648 158.411 259.092 160.199 259.456 161.472C259.638 162.108 259.8 162.618 259.917 162.97C259.976 163.146 260.024 163.283 260.057 163.377C260.074 163.425 260.087 163.461 260.096 163.486C260.101 163.499 260.104 163.509 260.107 163.516C260.108 163.519 260.109 163.522 260.11 163.524C260.11 163.525 260.111 163.526 260.111 163.527C260.111 163.527 260.111 163.527 260.111 163.528C260.111 163.528 260.112 163.528 261.048 163.178ZM253.361 171.07C255.204 168.525 257.242 166.773 258.817 165.659C259.604 165.102 260.273 164.706 260.739 164.452C260.972 164.325 261.155 164.234 261.276 164.175C261.336 164.146 261.381 164.125 261.41 164.112C261.424 164.106 261.434 164.101 261.439 164.099C261.442 164.098 261.444 164.097 261.445 164.097C261.445 164.096 261.445 164.096 261.445 164.096C261.445 164.097 261.445 164.097 261.444 164.097C261.444 164.097 261.444 164.097 261.444 164.097C261.444 164.097 261.443 164.097 261.048 163.178C260.653 162.26 260.653 162.26 260.653 162.26C260.653 162.26 260.652 162.26 260.652 162.26C260.651 162.261 260.651 162.261 260.65 162.261C260.649 162.262 260.647 162.262 260.645 162.263C260.641 162.265 260.636 162.267 260.63 162.27C260.618 162.275 260.602 162.283 260.581 162.292C260.539 162.311 260.48 162.338 260.406 162.374C260.257 162.446 260.046 162.552 259.782 162.696C259.255 162.983 258.52 163.419 257.662 164.026C255.948 165.239 253.738 167.139 251.741 169.897L253.361 171.07ZM266.624 185.711C261.636 182.387 257.179 176.581 253.419 169.988L251.682 170.979C255.498 177.67 260.143 183.795 265.514 187.376L266.624 185.711ZM303.514 199.572C295.897 198.315 279.058 194.001 266.624 185.711L265.514 187.376C278.285 195.889 295.44 200.266 303.188 201.546L303.514 199.572ZM306.518 185.596C305.654 189.9 304.161 196.105 302.431 200.167L304.271 200.951C306.087 196.687 307.612 190.31 308.479 185.99L306.518 185.596ZM307.934 184.893C301.216 181.637 296.425 175.176 293.242 168.075C290.064 160.984 288.55 153.385 288.302 148.055L286.304 148.148C286.563 153.717 288.132 161.563 291.417 168.893C294.698 176.214 299.751 183.15 307.062 186.693L307.934 184.893ZM288.299 148.186C289.51 133.74 292.426 123.851 296.31 117.358C300.175 110.897 304.992 107.799 310.117 106.859C315.285 105.912 320.904 107.137 326.36 109.602C331.808 112.064 337.013 115.727 341.311 119.533L342.637 118.036C338.229 114.132 332.857 110.344 327.183 107.78C321.518 105.219 315.47 103.845 309.756 104.892C303.998 105.948 298.716 109.439 294.594 116.331C290.491 123.19 287.531 133.417 286.306 148.018L288.299 148.186ZM341.045 119.154C344.354 127.474 345.548 141.294 343.607 154.379C341.658 167.511 336.616 179.496 327.842 184.556L328.841 186.288C338.449 180.747 343.616 167.944 345.585 154.673C347.561 141.354 346.38 127.156 342.903 118.415L341.045 119.154ZM333.397 201.521L329.312 185.179L327.371 185.664L331.457 202.006L333.397 201.521ZM371.886 168.505C359.823 183.153 340.235 196.2 331.935 200.893L332.919 202.634C341.31 197.89 361.141 184.699 373.43 169.777L371.886 168.505ZM373.089 167.027C372.695 167.517 372.294 168.01 371.886 168.505L373.43 169.777C373.843 169.275 374.249 168.777 374.648 168.281L373.089 167.027ZM356.708 150.34C362.556 155.021 369.326 160.46 372.966 168.085L374.771 167.223C370.902 159.119 363.747 153.412 357.958 148.779L356.708 150.34ZM356.626 150.266L356.626 150.266L358.04 148.852L358.04 148.852L356.626 150.266ZM350.477 145.035C352.204 146.736 354.393 148.487 356.708 150.34L357.958 148.778C355.618 146.906 353.519 145.224 351.881 143.61L350.477 145.035ZM362.692 124.643C363.475 135.441 356.35 141.586 350.869 143.372L351.489 145.273C357.644 143.268 365.55 136.408 364.687 124.499L362.692 124.643ZM351.356 109.546C356.189 111.998 362.12 116.76 362.692 124.643L364.687 124.499C364.039 115.567 357.327 110.333 352.261 107.763L351.356 109.546ZM286.766 149.12C286.954 149.114 287.15 149.105 287.355 149.095L287.252 147.098C287.059 147.107 286.875 147.115 286.701 147.121L286.766 149.12ZM343.686 122.399C347.403 118.709 350.938 114.002 352.749 108.995L350.868 108.314C349.191 112.951 345.868 117.415 342.277 120.98L343.686 122.399ZM352.261 107.763C350.471 106.854 348.845 106.256 347.689 105.929L347.144 107.853C348.173 108.144 349.678 108.695 351.356 109.546L352.261 107.763ZM346.986 105.989L334.104 112.137L334.966 113.942L347.847 107.794L346.986 105.989ZM288.701 133.809L288.152 134.071L289.014 135.876L289.562 135.614L288.701 133.809ZM287.593 134.834L285.743 147.981L287.724 148.26L289.573 135.113L287.593 134.834Z" fill="black"/>
<path d="M313.927 39.7119C318.277 48.4131 321.975 69.9485 301.963 86.4807C281.95 103.013 254.469 133.249 243.23 146.301M241.055 141.951C243.955 153.19 253.019 177.843 266.07 186.544C279.122 195.245 295.25 200.684 302.5 201.771M332.417 201.771C340.755 197.058 360.478 183.934 372.66 169.142C384.841 154.35 390.787 141.951 392.237 137.6M307.99 77.1652C302.166 76.0732 298.645 73.4943 297.612 72.3413C267.521 85.0305 206.07 115.16 206.07 149.965C206.07 184.77 243.592 220.624 269.333 232.225L275.859 295.309C280.572 297.847 296.525 305.098 320.453 305.098C346.556 305.098 358.158 297.847 362.871 295.309L369.397 225.699C388.974 211.56 424.015 173.458 424.015 149.965C424.015 126.472 371.859 88.1975 345.755 70.7952C345.514 72.4031 341.023 77.1652 334.835 77.1652" stroke="black" stroke-width="2" stroke-linecap="round" stroke-linejoin="round"/>
<path d="M328.486 186L332.559 202.29L318.909 226.86C312.388 220.642 302.529 202.29 302.529 202.29C304.623 198.401 306.451 190.967 307.457 186" stroke="black" stroke-width="2" stroke-linecap="round" stroke-linejoin="round"/>
<path d="M273.682 292.045C243.953 284.794 186.918 277.056 181.233 300.747C174.708 327.938 219.299 346.428 249.753 349.691C274.117 352.301 330.602 352.228 350.904 352.954L358.518 339.902C345.829 333.739 313.924 319.889 287.821 313.798C261.717 307.708 242.14 304.735 235.614 304.01" stroke="black" stroke-width="2" stroke-linecap="round" stroke-linejoin="round"/>
<path d="M362.871 295.308C391.875 287.695 452.711 276.818 455.321 298.571C457.931 320.324 403.114 344.252 355.258 347.515M328.066 325.762C337.855 319.236 364.176 305.532 391.15 302.922" stroke="black" stroke-width="2" stroke-linecap="round" stroke-linejoin="round"/>
<path d="M326.978 34.2734C324.44 44.7874 323.498 70.8183 340.03 90.831C356.562 110.844 379.548 133.974 388.974 143.038" stroke="black" stroke-width="2" stroke-linecap="round" stroke-linejoin="round"/>
<path d="M240.195 348.345C235.844 349.432 230.178 354.911 230.178 358.392C230.178 361.872 261.46 354.793 277.05 351.53" stroke="black" stroke-width="2" stroke-linecap="round" stroke-linejoin="round"/>
<path d="M361.783 356.217C379.548 361.655 415.513 369.921 417.253 359.48C418.993 349.039 393.325 344.978 380.273 344.253" stroke="black" stroke-width="2" stroke-linecap="round" stroke-linejoin="round"/>
<path d="M351.994 351.867L361.783 355.13C363.233 354.042 366.151 349.591 364.411 346.98" stroke="black" stroke-width="2" stroke-linecap="round" stroke-linejoin="round"/>
<path d="M318.752 188.114C296.397 188.84 287.929 161.548 287.303 148.102C292.175 90.0082 324.564 103.365 341.974 118.785C349.797 138.451 345.897 187.234 318.752 188.114Z" stroke="black" stroke-width="2" stroke-linecap="round" stroke-linejoin="round"/>
<path d="M308.594 137.887C302.39 143.095 291.282 142.095 286.545 142.248L261.05 163.178C261.05 163.178 256.637 151.36 260.386 142.716C265.393 131.174 277.638 130.777 277.638 130.777C277.638 130.777 272.482 112.167 296.902 93.167C321.321 74.167 351.357 87.9864 352.899 100.454C354.442 112.922 339.329 120.621 332.582 123.116C327.184 125.112 319.747 125.05 316.704 124.769C316.557 126.102 314.798 132.678 308.594 137.887Z" fill="black" stroke="black" stroke-width="2" stroke-linecap="round" stroke-linejoin="round"/>
<path d="M324.411 170.152C322.6 172.401 317.499 175.557 311.585 170.186" stroke="black" stroke-width="2" stroke-linecap="round" stroke-linejoin="round"/>
<path d="M330.279 142.025C330.279 142.025 332.548 151.318 330.305 151.644C328.252 151.393 329.432 145.127 330.279 142.025Z" fill="black"/>
<path d="M336.68 137.198C336.148 138.268 334.124 140.732 330.279 142.025M330.279 142.025C330.279 142.025 332.548 151.318 330.305 151.644C328.252 151.393 329.432 145.127 330.279 142.025Z" stroke="black" stroke-width="2" stroke-linecap="round" stroke-linejoin="round"/>
<path d="M305.791 142.705C305.791 142.705 308.06 151.998 305.816 152.325C303.763 152.074 304.944 145.807 305.791 142.705Z" fill="black"/>
<path d="M312.191 137.879C311.66 138.949 309.635 141.413 305.791 142.705M305.791 142.705C305.791 142.705 308.06 151.998 305.816 152.325C303.763 152.074 304.944 145.807 305.791 142.705Z" stroke="black" stroke-width="2" stroke-linecap="round" stroke-linejoin="round"/>
<path d="M328.817 119.878C324.332 121.6 315.895 132.16 318.022 160.629" stroke="black" stroke-width="2" stroke-linecap="round" stroke-linejoin="round"/>
<path d="M329.552 128.504C331.061 128.41 334.907 129.125 338.221 132.735" stroke="black" stroke-width="2" stroke-linecap="round"/>
<path fill-rule="evenodd" clip-rule="evenodd" d="M172.393 46.7091C172.851 47.9066 172.222 49.2357 171.064 49.7853C167.468 51.4918 164.391 54.1537 162.182 57.5059C159.543 61.5123 158.301 66.2648 158.616 71.0353C158.93 75.8026 160.781 80.3321 163.866 83.957C166.951 87.5814 171.123 90.1299 175.771 91.2079C180.422 92.2865 185.309 91.8357 189.69 89.8886C194.073 87.9409 197.691 84.6098 199.993 80.4002C202.294 76.1917 203.142 71.3556 202.443 66.6295C201.855 62.6615 200.203 58.9463 197.695 55.8642C196.902 54.89 196.891 53.4566 197.779 52.5683L202.336 48.0115C203.224 47.1233 204.671 47.1186 205.498 48.064C209.786 52.9647 212.58 58.9896 213.53 65.4041C214.589 72.5604 213.295 79.8069 209.876 86.062C206.457 92.316 201.086 97.2628 194.564 100.161C188.041 103.06 180.699 103.76 173.637 102.122C166.572 100.484 160.183 96.5951 155.447 91.0307C150.712 85.4669 147.907 78.5536 147.431 71.3474C146.956 64.1443 148.833 57.0406 152.751 51.0936C156.263 45.7619 161.258 41.6002 167.117 39.0974C168.248 38.6141 169.526 39.213 169.965 40.3622L172.393 46.7091Z" fill="#2F62F6"/>
<path d="M190.252 77.1426C190.73 76.6883 191.098 76.1763 191.353 75.6064C191.609 75.0252 191.741 74.4367 191.749 73.8409C191.757 73.2562 191.642 72.6699 191.403 72.0817C191.164 71.4936 190.811 70.9714 190.345 70.515C189.88 70.0473 189.312 69.6682 188.641 69.3776C187.982 69.0759 187.231 68.9191 186.387 68.9072C185.555 68.8955 184.8 69.031 184.121 69.3138C183.454 69.5855 182.881 69.9484 182.402 70.4027C181.935 70.8459 181.574 71.3581 181.318 71.9392C181.062 72.5204 180.93 73.1032 180.922 73.6879C180.914 74.2837 181.029 74.8757 181.268 75.4639C181.507 76.0407 181.854 76.5629 182.309 77.0304C182.775 77.4868 183.337 77.8658 183.996 78.1675C184.667 78.4581 185.418 78.6093 186.25 78.621M168.224 65.1421C168.215 65.738 168.33 66.3299 168.57 66.9181C168.809 67.495 169.156 68.0171 169.61 68.4846C170.076 68.941 170.638 69.32 171.298 69.6217C171.968 69.9123 172.719 70.0635 173.551 70.0752C174.395 70.0872 175.15 69.9573 175.817 69.6856C176.496 69.4028 177.075 69.0399 177.553 68.5968C178.032 68.1426 178.399 67.6305 178.654 67.0606C178.91 66.4795 179.042 65.891 179.05 65.2951C179.059 64.7105 178.943 64.1241 178.704 63.536C178.465 62.9478 178.113 62.4256 177.647 61.9692C177.181 61.5016 176.613 61.1224 175.942 60.8318C175.283 60.5302 174.532 60.3734 173.689 60.3614C172.857 60.3497 172.101 60.4852 171.423 60.768C170.755 61.0397 170.182 61.4027 169.704 61.8569M184.335 59.0721C182.851 62.1885 181.468 65.3626 180.186 68.5943C178.914 71.8149 177.721 75.0704 176.607 78.3607" stroke="black" stroke-width="2" stroke-linecap="round" stroke-linejoin="round"/>
<path d="M189.281 50.4815C186.274 49.2379 183.035 48.6757 179.797 48.8273C178.542 48.886 177.382 48.0433 177.195 46.8011L176.225 40.3654C176.037 39.1233 176.892 37.9565 178.144 37.8529C183.847 37.381 189.566 38.3625 194.755 40.692C195.926 41.2176 196.33 42.6467 195.689 43.7589L192.375 49.5133C191.762 50.5783 190.417 50.9512 189.281 50.4815Z" stroke="black" stroke-width="2" stroke-linecap="round"/>
<path d="M505.534 106.265L512.586 110.029C515.766 111.778 515.38 118.586 511.723 125.236C508.066 131.885 502.524 135.858 499.344 134.109L491.794 130.759" stroke="black" stroke-width="2" stroke-linecap="round" stroke-linejoin="round"/>
<path d="M506.729 117.616L512.703 120.603" stroke="black" stroke-width="2" stroke-linecap="round" stroke-linejoin="round"/>
<path d="M499.561 128.369L503.145 130.161" stroke="black" stroke-width="2" stroke-linecap="round" stroke-linejoin="round"/>
<path d="M510.312 114.032L513.897 115.824" stroke="black" stroke-width="2" stroke-linecap="round" stroke-linejoin="round"/>
<path d="M504.34 122.993L510.911 125.98" stroke="black" stroke-width="2" stroke-linecap="round" stroke-linejoin="round"/>
<ellipse cx="498.749" cy="118.562" rx="6.57148" ry="14.0547" transform="rotate(28.8085 498.749 118.562)" stroke="black" stroke-width="2" stroke-linecap="round" stroke-linejoin="round"/>
<path d="M235.834 250.215L234.087 257.727C233.252 261.127 226.811 262.467 219.701 260.719C212.591 258.972 207.505 254.799 208.341 251.399L209.578 243.527" stroke="black" stroke-width="2" stroke-linecap="round" stroke-linejoin="round"/>
<path d="M225.555 254.162L224.263 260.475" stroke="black" stroke-width="2" stroke-linecap="round" stroke-linejoin="round"/>
<path d="M213.744 250.167L212.969 253.955" stroke="black" stroke-width="2" stroke-linecap="round" stroke-linejoin="round"/>
<path d="M229.791 256.607L229.016 260.395" stroke="black" stroke-width="2" stroke-linecap="round" stroke-linejoin="round"/>
<path d="M219.947 253.278L218.805 260.148" stroke="black" stroke-width="2" stroke-linecap="round" stroke-linejoin="round"/>
<ellipse cx="222.682" cy="246.963" rx="6.33994" ry="13.5595" transform="rotate(103.809 222.682 246.963)" stroke="black" stroke-width="2" stroke-linecap="round" stroke-linejoin="round"/>
<ellipse cx="122.595" cy="145.427" rx="6.20374" ry="13.2682" transform="rotate(-151.191 122.595 145.427)" stroke="black" stroke-width="2" stroke-linecap="round" stroke-linejoin="round"/>
<path d="M116.19 157.036L109.532 153.483C106.53 151.832 106.895 145.405 110.347 139.127C113.799 132.85 119.032 129.1 122.034 130.751L129.161 133.913" stroke="black" stroke-width="2" stroke-linecap="round" stroke-linejoin="round"/>
<path d="M115.062 146.32L109.423 143.5" stroke="black" stroke-width="2" stroke-linecap="round" stroke-linejoin="round"/>
<path d="M121.83 136.169L118.446 134.477" stroke="black" stroke-width="2" stroke-linecap="round" stroke-linejoin="round"/>
<path d="M111.678 149.704L108.294 148.012" stroke="black" stroke-width="2" stroke-linecap="round" stroke-linejoin="round"/>
<path d="M117.318 141.245L111.115 138.425" stroke="black" stroke-width="2" stroke-linecap="round" stroke-linejoin="round"/>
<path d="M141.37 238.172L133.707 242.597C133.017 242.995 132.744 243.854 133.088 244.573C135.085 248.742 138.456 255.284 139.661 255.726C141.333 256.339 150.558 251.013 149.875 249.829L143.469 238.733C143.044 237.998 142.105 237.748 141.37 238.172Z" stroke="#2F62F6" stroke-width="2" stroke-linecap="round" stroke-linejoin="round"/>
<path d="M153.296 218.861L145.677 223.259C144.969 223.668 144.705 224.561 145.079 225.288C148.627 232.17 154.996 244.031 156.609 245.112C158.759 246.553 167.984 241.227 166.822 239.215L155.395 219.422C154.97 218.687 154.031 218.436 153.296 218.861Z" stroke="#2F62F6" stroke-width="2" stroke-linecap="round" stroke-linejoin="round"/>
<path d="M183.03 231.869L176.695 235.527C175.631 236.141 174.274 235.803 173.629 234.758C166.957 223.941 155.397 204.767 154.7 201.838C153.775 197.954 163 192.627 164.913 195.941L183.864 228.765C184.492 229.853 184.118 231.241 183.03 231.869Z" fill="#2F62F6"/>
<path d="M122.189 234.158C124.832 226.345 130.99 210.217 134.477 208.203C138.836 205.687 142.289 207.021 144.812 205.195C147.334 203.369 151.064 182.725 151.415 181.783" stroke="black" stroke-width="2" stroke-linecap="round" stroke-linejoin="round"/>
<path d="M142.452 181.632C144.089 179.273 150.986 172.127 152.755 172.577C154.525 173.027 158.52 182.562 158.52 182.562" stroke="black" stroke-width="2" stroke-linecap="round" stroke-linejoin="round"/>
<path d="M474.36 257.248C473.985 257.423 473.776 257.828 473.849 258.235L475.318 266.329C475.428 266.939 474.909 267.479 474.295 267.392L455.66 264.757C454.769 264.631 454.582 263.427 455.393 263.036L466.193 257.833C466.687 257.595 466.86 256.978 466.562 256.519L463.386 251.608C462.992 250.998 463.436 250.194 464.163 250.204L484.759 250.483C485.726 250.496 486.008 251.808 485.132 252.217L474.36 257.248Z" stroke="#2F62F6" stroke-width="2" stroke-linecap="round" stroke-linejoin="round"/>
<path d="M435.443 242.616C435.1 243.199 435.178 243.938 435.635 244.437L439.096 248.204C439.764 248.93 439.583 250.089 438.727 250.578L427.797 256.824C426.435 257.602 424.92 256.081 425.702 254.722L429.244 248.569C429.711 247.758 429.35 246.721 428.48 246.374L426.345 245.524C425.226 245.078 425.031 243.577 425.999 242.86L436.421 235.146C437.767 234.15 439.511 235.72 438.66 237.163L435.443 242.616Z" stroke="black" stroke-width="2" stroke-linecap="round" stroke-linejoin="round"/>
<path d="M512.376 189.265C511.915 187.545 480.555 173.335 474.809 171.266C474.242 171.061 473.759 171.311 473.457 171.833L471.191 175.758C470.849 176.35 507.77 194.506 509.297 194.598C510.824 194.689 512.877 191.134 512.376 189.265Z" fill="#2F62F6"/>
<path d="M474.403 178.403L480.322 202.361L468.691 222.507L478.129 218.476L485.405 204.505L505.057 193.73" stroke="black" stroke-width="2" stroke-linecap="round" stroke-linejoin="round"/>
<circle cx="490.363" cy="163.188" r="4.05051" transform="rotate(30 490.363 163.188)" fill="#2F62F6"/>
<circle cx="501.85" cy="174.055" r="4.48879" transform="rotate(30 501.85 174.055)" fill="#2F62F6"/>
<circle cx="519.389" cy="168.057" r="4.14621" transform="rotate(30 519.389 168.057)" fill="#2F62F6"/>
<path d="M395.901 78.6065C393.066 72.5948 406.873 34.973 411.266 32.5548C416.403 29.7269 483.197 46.7155 484.976 50.7548C486.403 53.9955 474.966 98.0748 469.316 99.9002C468.221 100.879 454.865 97.9876 439.833 93.9798L425.826 103.99L422.186 88.9674C408.462 84.814 396.85 80.6192 395.901 78.6065Z" stroke="#2F62F6" stroke-width="2" stroke-linecap="round" stroke-linejoin="round"/>
<path d="M431.999 50.8723C425.608 52.413 412.63 55.7853 411.839 56.9481C411.048 58.1109 417.618 66.003 421.002 69.8038" stroke="#2F62F6" stroke-width="2" stroke-linecap="round" stroke-linejoin="round"/>
<path d="M451.583 47.9231L423.093 80.7937" stroke="#2F62F6" stroke-width="2" stroke-linecap="round" stroke-linejoin="round"/>
<path d="M456.252 58.1303C457.437 59.754 467.527 67.7614 466.587 69.9842C465.835 71.7624 449.098 75.9411 440.823 77.8081" stroke="#2F62F6" stroke-width="2" stroke-linecap="round" stroke-linejoin="round"/>
</svg>
