<?xml version="1.0" standalone="no"?>
<!DOCTYPE svg PUBLIC "-//W3C//DTD SVG 20010904//EN"
 "http://www.w3.org/TR/2001/REC-SVG-20010904/DTD/svg10.dtd">
<svg version="1.0" xmlns="http://www.w3.org/2000/svg"
 width="672.000000pt" height="672.000000pt" viewBox="0 0 672.000000 672.000000"
 preserveAspectRatio="xMidYMid meet">
<metadata>
Created by potrace 1.14, written by Peter Selinger 2001-2017
</metadata>
<g transform="translate(0.000000,672.000000) scale(0.100000,-0.100000)"
fill="#000000" stroke="none">
<path d="M605 6630 c-53 -25 -67 -37 -98 -87 l-27 -43 3 -524 2 -524 31 -44
c26 -36 80 -76 144 -104 25 -12 103 -75 144 -118 191 -200 258 -456 175 -670
-29 -73 -72 -156 -81 -156 -4 0 -8 -4 -8 -10 0 -13 -24 -43 -91 -111 -50 -51
-141 -117 -223 -159 -16 -8 -43 -35 -60 -58 l-31 -44 -2 -520 c-3 -568 -5
-546 56 -611 60 -66 125 -76 268 -42 107 25 250 72 271 88 6 5 12 7 12 4 0 -9
244 114 248 125 2 4 8 8 13 8 29 0 242 162 338 257 29 29 56 53 60 54 15 1
174 205 246 315 50 77 145 260 173 334 8 19 17 44 22 55 12 28 50 147 54 171
2 10 9 37 15 59 6 22 13 57 17 79 3 21 8 48 10 60 19 97 26 401 12 521 -11 89
-35 216 -62 325 -25 101 -159 415 -198 465 -22 27 -58 87 -58 95 0 4 -3 10 -7
12 -5 2 -35 39 -68 83 -81 109 -249 275 -367 363 -54 39 -102 72 -107 72 -5 0
-11 4 -13 8 -8 19 -296 169 -338 176 -3 1 -9 4 -15 8 -5 3 -26 10 -45 16 -19
6 -73 22 -120 36 -47 15 -101 29 -120 32 -19 3 -39 10 -44 15 -17 15 -89 10
-131 -11z"/>
<path d="M4507 6524 c-1 -1 -20 -5 -42 -8 -59 -9 -158 -61 -204 -107 -22 -21
-60 -70 -84 -107 -51 -78 -97 -150 -112 -174 -43 -71 -85 -137 -140 -223 -35
-55 -80 -127 -101 -160 -20 -33 -56 -89 -79 -125 -161 -251 -167 -260 -182
-290 -4 -8 -11 -19 -15 -25 -13 -15 -426 -666 -453 -714 -5 -9 -30 -48 -54
-87 -25 -38 -59 -91 -76 -119 -75 -120 -95 -151 -105 -162 -5 -7 -10 -15 -10
-18 0 -3 -25 -45 -56 -93 -31 -48 -66 -103 -79 -122 -12 -19 -64 -102 -116
-185 -51 -82 -97 -151 -101 -153 -5 -2 -8 -8 -8 -13 0 -5 -25 -48 -55 -94 -30
-47 -55 -89 -55 -94 0 -4 -9 -16 -20 -26 -11 -10 -20 -24 -20 -32 0 -7 -4 -13
-10 -13 -5 0 -10 -4 -10 -9 0 -4 -49 -86 -110 -182 -60 -96 -123 -196 -140
-224 -64 -103 -100 -161 -112 -177 -13 -18 -73 -114 -130 -207 -18 -29 -40
-64 -48 -77 -8 -13 -57 -90 -108 -171 -52 -81 -116 -182 -143 -223 -27 -41
-54 -84 -59 -95 -6 -11 -23 -39 -38 -62 -69 -108 -187 -298 -191 -307 -2 -6
-7 -13 -11 -16 -4 -3 -20 -27 -36 -53 -16 -27 -37 -61 -46 -75 -10 -15 -25
-40 -34 -57 -9 -16 -20 -32 -23 -35 -4 -3 -58 -88 -122 -190 -63 -102 -168
-268 -232 -370 -135 -215 -150 -260 -113 -333 24 -48 68 -74 143 -85 60 -9
1231 -7 1295 2 111 16 206 85 288 211 33 50 63 95 67 100 5 6 31 46 58 90 27
44 53 82 57 83 4 2 8 8 8 13 0 4 29 54 65 109 36 55 65 103 65 106 0 3 5 10
11 17 12 14 318 493 374 587 21 36 42 67 45 70 4 3 15 21 26 40 10 19 22 37
25 40 4 3 15 19 25 37 40 69 128 208 134 213 4 3 10 12 13 20 4 8 16 29 27 45
11 17 23 37 27 45 4 8 11 20 15 25 11 13 59 87 123 190 27 44 53 82 57 83 4 2
8 8 8 13 0 6 24 47 53 92 62 96 433 682 462 730 11 19 49 80 85 136 36 56 72
113 80 126 40 65 210 333 279 441 43 66 80 127 84 135 6 12 246 394 277 439 5
8 23 35 38 60 16 25 50 77 75 117 26 40 47 77 47 83 0 5 5 10 10 10 6 0 10 7
10 15 0 8 4 15 9 15 5 0 11 8 14 18 4 9 34 60 68 112 34 52 69 107 78 122 9
15 75 121 147 235 73 115 207 327 299 473 252 398 236 369 242 445 7 78 -15
108 -95 132 -51 15 -124 17 -695 18 -351 0 -639 -1 -640 -1z"/>
<path d="M5868 4145 c-2 -2 -22 -5 -45 -9 -65 -8 -216 -49 -273 -73 -8 -3 -18
-7 -22 -7 -3 -1 -10 -4 -14 -8 -4 -5 -14 -8 -22 -8 -7 0 -43 -13 -78 -30 -35
-16 -67 -29 -71 -29 -3 0 -9 -3 -12 -8 -3 -4 -28 -19 -56 -33 -27 -14 -78 -44
-113 -67 -34 -24 -64 -43 -67 -43 -3 0 -13 -6 -22 -14 -10 -8 -49 -40 -88 -71
-103 -83 -208 -188 -294 -295 -79 -97 -171 -232 -171 -249 0 -5 -4 -11 -9 -13
-12 -5 -115 -223 -141 -298 -12 -36 -26 -74 -31 -85 -4 -11 -16 -49 -25 -85
-16 -64 -20 -82 -29 -130 -3 -14 -7 -34 -9 -45 -5 -27 -18 -122 -23 -165 -4
-45 -4 -293 1 -345 8 -92 18 -155 37 -243 12 -52 22 -101 24 -110 2 -9 4 -18
5 -19 2 -2 3 -6 4 -10 3 -11 26 -85 33 -103 3 -8 7 -19 9 -25 7 -28 61 -150
97 -220 37 -72 142 -242 157 -255 3 -3 17 -21 30 -40 46 -66 235 -262 294
-305 15 -11 40 -30 54 -43 15 -13 39 -30 55 -38 15 -8 27 -19 27 -24 0 -6 4
-10 10 -10 5 0 40 -19 77 -43 123 -78 365 -187 473 -212 8 -2 57 -16 109 -30
127 -34 148 -35 201 -9 54 27 84 54 107 97 15 29 17 81 18 537 1 300 -2 517
-8 535 -5 17 -21 45 -34 62 -13 18 -20 33 -16 33 4 0 -15 11 -44 24 -167 78
-339 262 -388 416 -9 27 -28 100 -32 120 -8 36 -10 163 -4 175 3 6 7 19 8 30
11 73 76 212 136 290 61 80 149 154 242 205 78 43 81 45 113 99 l27 46 1 500
c0 275 -3 513 -8 529 -11 41 -47 91 -80 110 -28 17 -114 46 -120 41z"/>
</g>
</svg>
